<?xml version="1.0" encoding="utf-8"?>
<!-- Generator: Adobe Illustrator 17.0.0, SVG Export Plug-In . SVG Version: 6.00 Build 0)  -->
<!DOCTYPE svg PUBLIC "-//W3C//DTD SVG 1.1//EN" "http://www.w3.org/Graphics/SVG/1.1/DTD/svg11.dtd">
<svg version="1.1" id="Layer_1" xmlns="http://www.w3.org/2000/svg" xmlns:xlink="http://www.w3.org/1999/xlink" x="0px" y="0px"
	 width="811px" height="610.73px" viewBox="0 68 811 610.73" enable-background="new 0 68 811 610.73" xml:space="preserve">
<g>
	<defs>
		<rect id="SVGID_1_" width="811" height="739"/>
	</defs>
	<clipPath id="SVGID_2_">
		<use xlink:href="#SVGID_1_"  overflow="visible"/>
	</clipPath>
	<g clip-path="url(#SVGID_2_)">
		<path fill="#FFF4E1" d="M52.441,679.931c0,0-97.648-139.307-16.514-290.126c71.987-133.817,155.917-124.67,217.496-70.365
			c26.226,23.128,124.198,4.175,209.872-109.379c91.211-120.89,335.182-61.507,292.853,188.687
			c-23.568,139.304,81.697,143.278,26.391,281.477L52.441,679.931z"/>
		<path fill="#227C9D" d="M800.193,259.001l-128.209,42.93l25.739,21.718v0.001L586.785,441.232l-97.243-84.537l-388.168,322.02
			l3.417,0.052h96.699l287.098-238.17l102.519,89.122l155.5-164.818l0.002-0.001l27.781,23.442L800.193,259.001z"/>
		<g opacity="0.2">
			<g opacity="0.2">
				<g opacity="0.2">
					<g opacity="0.2">
						<path opacity="0.2" fill="#3A3A5B" enable-background="new    " d="M671.017,613.352c0,0-11.058-12.68-0.682-20.736
							c0,0,7.579-4.509,13.759-4.143c0,0-8.757,14.434-5.924,15.87c2.833,1.435,8.578-16.776,8.578-16.776
							s17.248-1.643,22.797,0.979c0,0-14.745,11.86-11.64,12.566c3.106,0.706,19.032-10.935,19.032-10.935
							s16.053,2.685,15.197,12.311c-0.856,9.626-6.387,12.597-8.818,12.342c-2.431-0.256-16.652-5.592-16.962-3.634
							c-0.31,1.959,8.251,8.357,14.245,8.656c0,0-11.318,12.269-18.839,8.728c-7.522-3.541-8.164-9.154-12.853-11.258
							c-4.689-2.106-8.692-2.1-6.755,0.047c1.935,2.146,10.421,4.233,13.103,8.895c2.682,4.662,5.087,7.806-2.695,6.656
							c-7.783-1.152-20.432-6.748-20.988-13.158C671.017,613.352,671.017,613.352,671.017,613.352z"/>
					</g>
					<g opacity="0.2">
						<g opacity="0.2">
							<path opacity="0.2" fill="#3A3A5B" enable-background="new    " d="M724.246,602.747c0,0-43.601-1.651-53.23,10.605
								c0,0-2.129,6.269-8.682,11.977l-1.021,2.737c0,0,7.555-7.83,10.259-8.304C671.572,619.762,667.344,604.577,724.246,602.747z"
								/>
						</g>
						<g opacity="0.2">
							<path opacity="0.2" fill="#3A3A5B" enable-background="new    " d="M662.334,625.329c0,0-9.358,6.804-10.008,18.959
								l1.698,0.15c0,0,2.989-12.568,8.391-17.484C667.819,622.038,662.334,625.329,662.334,625.329z"/>
						</g>
					</g>
				</g>
				<g opacity="0.2">
					<g opacity="0.2">
						<path opacity="0.2" fill="#3A3A5B" enable-background="new    " d="M632.353,597.404c0,0,17.591-9.683,9.382-22.823
							c0,0-6.567-8.07-13.603-10.144c0,0,3.752,19.596,0,20.057c-3.753,0.461-2.581-22.132-2.581-22.132s-18.528-8.76-25.8-8.068
							c0,0,11.493,19.134,7.741,18.673c-3.753-0.461-16.653-19.826-16.653-19.826s-18.998-3.458-22.047,7.607
							c-3.049,11.066,1.876,16.6,4.691,17.291c2.814,0.692,20.874,0.462,20.405,2.766c-0.469,2.306-12.665,5.995-19.467,3.92
							c0,0,7.506,18.213,17.357,17.291s12.9-6.916,18.998-7.378c6.098-0.461,10.555,1.153,7.505,2.767
							c-3.048,1.614-13.368,0.528-18.294,4.645c-4.925,4.116-8.913,6.651,0.234,8.496c9.147,1.844,25.565,0.692,28.849-6.225
							C632.353,597.404,632.353,597.404,632.353,597.404z"/>
					</g>
					<g opacity="0.2">
						<g opacity="0.2">
							<path opacity="0.2" fill="#3A3A5B" enable-background="new    " d="M577.47,564.207c0,0,49.255,15.676,54.884,33.198
								c0,0-0.235,7.838,4.691,16.83v3.458c0,0-5.16-11.758-7.975-13.372C629.069,604.321,640.093,589.105,577.47,564.207z"/>
						</g>
						<g opacity="0.2">
							<path opacity="0.2" fill="#3A3A5B" enable-background="new    " d="M637.044,614.234c0,0,7.596,11.338,3.265,25.14
								l-1.953-0.516c0,0,1.897-15.201-2.078-22.847C632.304,608.365,637.044,614.234,637.044,614.234z"/>
						</g>
					</g>
				</g>
				<g opacity="0.2">
					<g opacity="0.2">
						<path opacity="0.2" fill="#3A3A5B" enable-background="new    " d="M660.338,584.051c0,0-23.188-12.764-12.367-30.086
							c0,0,8.658-10.636,17.932-13.371c0,0-4.946,25.831,0,26.439c4.947,0.607,3.401-29.174,3.401-29.174
							s24.425-11.549,34.009-10.637c0,0-15.149,25.224-10.202,24.616c4.946-0.608,21.951-26.135,21.951-26.135
							s25.043-4.559,29.062,10.028c4.019,14.587-2.473,21.881-6.183,22.793c-3.71,0.911-27.517,0.608-26.898,3.646
							c0.618,3.039,16.696,7.901,25.661,5.166c0,0-9.893,24.008-22.878,22.793c-12.986-1.215-17.005-9.116-25.043-9.725
							c-8.038-0.607-13.913,1.52-9.894,3.648c4.02,2.127,17.623,0.697,24.116,6.122c6.493,5.426,11.749,8.769-0.309,11.2
							c-12.057,2.431-33.699,0.912-38.028-8.205C660.338,584.051,660.338,584.051,660.338,584.051z"/>
					</g>
					<g opacity="0.2">
						<g opacity="0.2">
							<path opacity="0.2" fill="#3A3A5B" enable-background="new    " d="M732.685,540.29c0,0-64.926,20.664-72.346,43.761
								c0,0,0.309,10.332-6.184,22.184v4.559c0,0,6.803-15.499,10.512-17.627C664.667,593.167,650.136,573.11,732.685,540.29z"/>
						</g>
						<g opacity="0.2">
							<path opacity="0.2" fill="#3A3A5B" enable-background="new    " d="M654.155,606.235c0,0-10.012,14.946-4.304,33.139
								l2.576-0.681c0,0-2.501-20.038,2.738-30.116C660.403,598.499,654.155,606.235,654.155,606.235z"/>
						</g>
					</g>
				</g>
				<g opacity="0.2">
					<path opacity="0.2" fill="#3A3A5B" enable-background="new    " d="M659.558,678.825c25.085,0,45.421-19.989,45.421-44.647
						h-90.843C614.136,658.836,634.472,678.825,659.558,678.825z"/>
				</g>
				<g opacity="0.2">
					<path opacity="0.2" fill="#3A3A5B" enable-background="new    " d="M670.734,678.484c-1.847,0.227-3.731,0.341-5.644,0.341
						c-25.085,0-45.418-19.99-45.418-44.647h11.283C630.956,656.958,648.311,675.752,670.734,678.484z"/>
				</g>
				<g opacity="0.2">
					<path opacity="0.2" fill="#3A3A5B" enable-background="new    " d="M705.606,681.097h-92.097c0-3.043,2.508-5.508,5.604-5.508
						h80.89C703.098,675.589,705.606,678.055,705.606,681.097z"/>
				</g>
				<g opacity="0.2">
					<path opacity="0.2" fill="#3A3A5B" enable-background="new    " d="M706.013,634.178h-93.371v1.369h93.371V634.178z"/>
				</g>
			</g>
		</g>
		<path fill="#66C88A" d="M345.54,600.418l-29.452-2.564c0,0,1.703-18.384-3.479-42.904c-3.822-18.113-11.402-39.572-26.191-59.448
			c-25.224-33.893-100.144-52.855-100.144-52.855v-4.387l2.693-0.296c0,0-1.161-0.819-2.693-1.295v-10.372
			c2.213-0.032,5.383,0.102,8.514,0.844c-1.755-0.443-5.497-1.312-8.514-1.547v-5.454c108.529,2.938,143.923,69.31,155.015,120.676
			C348.393,573.692,345.54,600.418,345.54,600.418z"/>
		<path fill="#81E3A5" d="M474.436,590.771l-128.896,9.647c-0.667-20.1-5.848-40.888-10.86-56.647
			c-5.01-15.759-9.859-26.494-9.859-26.494c-38.559-85.544-138.546-97.138-138.546-97.138l110.975-46.014
			c53.611,4.085,91.222,30.153,117.529,62.885C466.301,501.117,474.436,590.771,474.436,590.771z"/>
		<path fill="#66C88A" d="M474.436,590.771l-128.896,9.647l-29.452-2.564c0,0,1.703-18.384-3.479-42.904
			c6.14-3.744,13.442-7.484,22.07-11.178c2.267-0.971,4.47-1.956,6.61-2.956c82.069-38.351,74.424-98.091,73.489-103.806
			C466.301,501.117,474.436,590.771,474.436,590.771z"/>
		<path fill="#5DD782" d="M464.3,600.821l-114.87-2.25l0.405-2.24c0.061-0.339,5.96-34.438-7.813-73.209
			c-8.068-22.714-21.222-42.584-39.095-59.059c-22.393-20.64-52.317-36.003-88.943-45.662l-5.642-1.487l89.657-36.126l0.344-0.009
			c0.97-0.022,24.062-0.375,53.745,13.839c17.398,8.331,33.416,19.972,47.609,34.599c17.707,18.25,32.602,41.222,44.271,68.278
			c0.922,2.079,22.742,51.676,21.589,81.455l-0.002,0.037L464.3,600.821z M353.932,594.788l106.765,2.091l1.04-18.098
			c0.457-11.896-3.064-29.432-10.185-50.713c-5.409-16.169-11.023-28.879-11.078-29.006c-11.468-26.587-26.068-49.132-43.402-67.027
			c-13.849-14.297-29.47-25.678-46.429-33.828c-18.401-8.842-34.446-11.923-43.734-12.993c-4.877-0.562-9.813,0.103-14.372,1.941
			L230.4,412.192c-3.242,1.305-3.077,5.996,0.244,7.08c30.217,9.85,55.373,23.945,74.944,42.01
			c18.339,16.93,31.828,37.352,40.092,60.7c7.346,20.754,9.11,40.022,9.297,52.531C355.122,584.219,354.387,591.367,353.932,594.788
			z"/>
		<path fill="#5DD782" d="M402.491,467.187c0,19.159-11.086,30.736-30.01,30.736c-18.923,0-38.518-11.577-38.518-30.736
			c0-19.16,10.481-30.619,29.404-30.619C382.291,436.568,402.491,448.028,402.491,467.187z"/>
		<path fill="#FFD186" d="M535.697,666.502v8.826c0,0.703-0.211,1.356-0.576,1.899c-0.382,0.571-0.932,1.021-1.576,1.273
			c-0.197,0.078-0.403,0.137-0.615,0.174c-0.194,0.037-0.39,0.055-0.593,0.055H393.494c-1.791,0-3.265-1.436-3.356-3.227
			c-0.002-0.058-0.004-0.116-0.004-0.174v-8.826c0-0.057,0.001-0.116,0.004-0.174c0.091-1.79,1.565-3.226,3.356-3.226h138.844
			c0.202,0,0.399,0.018,0.592,0.054c0.212,0.038,0.418,0.096,0.615,0.175c0.645,0.252,1.195,0.702,1.577,1.273
			C535.486,665.147,535.697,665.799,535.697,666.502z"/>
		<path fill="#FCBA64" d="M467.517,678.729h-74.384c-1.597,0-2.913-1.436-2.995-3.227c-0.002-0.058-0.004-0.116-0.004-0.174v-8.826
			c0-0.057,0.001-0.116,0.004-0.174c0.082-1.79,1.398-3.226,2.995-3.226h65.25C459.425,667.702,461.854,674.064,467.517,678.729z"/>
		<path fill="#FCBA64" d="M518.803,663.102h-1.578v15.628h1.578V663.102z"/>
		<path fill="#FCBA64" d="M513.461,663.102h-1.578v15.628h1.578V663.102z"/>
		<path fill="#FCBA64" d="M507.055,663.102h-1.578v15.628h1.578V663.102z"/>
		<path fill="#FCBA64" d="M497.237,663.102h-1.578v15.628h1.578V663.102z"/>
		<path fill="#FCBA64" d="M486.854,663.102h-1.578v15.628h1.578V663.102z"/>
		<path fill="#FCBA64" d="M470.937,663.102h-1.578v15.628h1.578V663.102z"/>
		<path fill="#FCBA64" d="M456.034,663.102h-1.578v15.628h1.578V663.102z"/>
		<path fill="#FCBA64" d="M442.726,663.102h-1.578v15.628h1.578V663.102z"/>
		<path fill="#FCBA64" d="M523.887,663.102h-1.578v15.628h1.578V663.102z"/>
		<path fill="#FCBA64" d="M527.246,663.102h-1.578v15.628h1.578V663.102z"/>
		<path fill="#FCBA64" d="M530.489,663.102h-1.578v15.628h1.578V663.102z"/>
		<path fill="#FCBA64" d="M532.93,663.155v15.519c-0.193,0.037-0.39,0.055-0.592,0.055h-0.986v-15.627h0.986
			C532.54,663.102,532.737,663.12,532.93,663.155z"/>
		<path fill="#FCBA64" d="M535.121,664.603v12.623c-0.382,0.572-0.932,1.021-1.576,1.273V663.33
			C534.189,663.582,534.739,664.032,535.121,664.603z"/>
		<path fill="#FFD186" d="M520.852,650.875v8.826c0,0.703-0.211,1.355-0.575,1.898c-0.383,0.572-0.932,1.021-1.577,1.273
			c-0.197,0.079-0.403,0.138-0.614,0.175c-0.194,0.036-0.39,0.055-0.593,0.055H378.649c-1.79,0-3.265-1.437-3.355-3.227
			c-0.002-0.058-0.005-0.116-0.005-0.174v-8.826c0-0.058,0.003-0.116,0.005-0.175c0.091-1.79,1.565-3.226,3.355-3.226h138.844
			c0.089,0,0.178,0.004,0.265,0.011c0.038,0.002,0.077,0.006,0.114,0.012c0.04,0.003,0.083,0.009,0.124,0.016
			c0.03,0.004,0.06,0.01,0.09,0.015c0.211,0.038,0.418,0.096,0.614,0.175c0.03,0.011,0.057,0.022,0.087,0.036
			c0.028,0.011,0.058,0.024,0.086,0.037c0.055,0.027,0.113,0.055,0.169,0.083c0.031,0.017,0.065,0.036,0.096,0.054
			c0.03,0.017,0.058,0.032,0.086,0.051c0.054,0.032,0.106,0.066,0.158,0.101c0.059,0.041,0.117,0.085,0.173,0.13
			c0.044,0.034,0.087,0.07,0.13,0.107c0.002,0.002,0.005,0.004,0.007,0.007c0.028,0.025,0.057,0.051,0.086,0.077
			c0.085,0.079,0.167,0.166,0.243,0.254c0.024,0.027,0.047,0.053,0.067,0.079c0.022,0.027,0.043,0.055,0.065,0.083
			c0.042,0.056,0.085,0.115,0.124,0.173C520.641,649.519,520.852,650.172,520.852,650.875z"/>
		<path fill="#FCBA64" d="M452.673,663.102h-74.384c-1.599,0-2.914-1.437-2.995-3.227c-0.002-0.058-0.005-0.116-0.005-0.174v-8.826
			c0-0.058,0.003-0.116,0.005-0.175c0.081-1.79,1.396-3.226,2.995-3.226h65.248c0.029,0.127,0.059,0.255,0.091,0.385
			C444.717,652.424,447.163,658.566,452.673,663.102z"/>
		<path fill="#FCBA64" d="M503.957,647.474h-1.578v15.628h1.578V647.474z"/>
		<path fill="#FCBA64" d="M498.616,647.474h-1.578v15.628h1.578V647.474z"/>
		<path fill="#FCBA64" d="M492.21,647.474h-1.577v15.628h1.577V647.474z"/>
		<path fill="#FCBA64" d="M482.392,647.474h-1.579v15.628h1.579V647.474z"/>
		<path fill="#FCBA64" d="M472.009,647.474h-1.578v15.628h1.578V647.474z"/>
		<path fill="#FCBA64" d="M456.091,647.474h-1.578v15.628h1.578V647.474z"/>
		<path fill="#FCBA64" d="M441.189,647.474h-1.578v15.628h1.578V647.474z"/>
		<path fill="#FCBA64" d="M427.881,647.474h-1.578v15.628h1.578V647.474z"/>
		<path fill="#FCBA64" d="M509.042,647.474h-1.578v15.628h1.578V647.474z"/>
		<path fill="#FCBA64" d="M512.401,647.474h-1.578v15.628h1.578V647.474z"/>
		<path fill="#FCBA64" d="M515.645,647.474h-1.579v15.628h1.579V647.474z"/>
		<path fill="#FCBA64" d="M518.085,647.528v15.519c-0.193,0.035-0.39,0.054-0.592,0.054h-0.986v-15.627h0.986
			C517.695,647.474,517.892,647.491,518.085,647.528z"/>
		<path fill="#FCBA64" d="M520.277,648.975v12.624c-0.383,0.572-0.933,1.021-1.577,1.272v-15.169
			C519.344,647.955,519.894,648.403,520.277,648.975z"/>
		<path fill="#FFD186" d="M528.026,635.633v8.825c0,0.703-0.212,1.356-0.576,1.899c-0.383,0.572-0.932,1.022-1.576,1.273
			c-0.197,0.08-0.404,0.138-0.615,0.175c-0.193,0.036-0.39,0.054-0.592,0.054H385.822c-0.557,0-1.084-0.139-1.548-0.385
			c-0.983-0.52-1.684-1.521-1.796-2.688c-0.005-0.051-0.008-0.102-0.011-0.152c-0.002-0.058-0.004-0.117-0.004-0.175v-8.825
			c0-0.059,0.002-0.117,0.004-0.175c0.092-1.79,1.566-3.227,3.356-3.227h138.844c0.203,0,0.399,0.019,0.592,0.055
			c0.212,0.038,0.418,0.096,0.615,0.174c0.644,0.253,1.193,0.702,1.576,1.274C527.814,634.277,528.026,634.93,528.026,635.633z"/>
		<path fill="#FCBA64" d="M459.846,647.859h-74.384c-0.498,0-0.968-0.139-1.381-0.385c-0.879-0.52-1.504-1.521-1.603-2.688
			c-0.005-0.051-0.008-0.102-0.011-0.152c-0.002-0.058-0.004-0.117-0.004-0.175v-8.825c0-0.059,0.002-0.117,0.004-0.175
			c0.082-1.79,1.399-3.227,2.996-3.227h65.249c1.014,4.475,3.338,10.618,8.678,15.243
			C459.54,647.604,459.692,647.732,459.846,647.859z"/>
		<path fill="#FCBA64" d="M511.131,632.232h-1.578v15.627h1.578V632.232z"/>
		<path fill="#FCBA64" d="M505.79,632.232h-1.579v15.627h1.579V632.232z"/>
		<path fill="#FCBA64" d="M499.384,632.232h-1.578v15.627h1.578V632.232z"/>
		<path fill="#FCBA64" d="M489.565,632.232h-1.578v15.627h1.578V632.232z"/>
		<path fill="#FCBA64" d="M479.183,632.232h-1.578v15.627h1.578V632.232z"/>
		<path fill="#FCBA64" d="M463.266,632.232h-1.578v15.627h1.578V632.232z"/>
		<path fill="#FCBA64" d="M448.363,632.232h-1.578v15.627h1.578V632.232z"/>
		<path fill="#FCBA64" d="M435.056,632.232h-1.579v15.628h1.579V632.232z"/>
		<path fill="#FCBA64" d="M516.216,632.232h-1.578v15.627h1.578V632.232z"/>
		<path fill="#FCBA64" d="M519.575,632.232h-1.578v15.627h1.578V632.232z"/>
		<path fill="#FCBA64" d="M522.819,632.232h-1.579v15.627h1.579V632.232z"/>
		<path fill="#FCBA64" d="M525.26,632.285v15.519c-0.194,0.035-0.391,0.054-0.592,0.054h-0.987V632.23h0.987
			C524.869,632.231,525.066,632.249,525.26,632.285z"/>
		<path fill="#FCBA64" d="M527.45,633.733v12.624c-0.382,0.571-0.932,1.02-1.576,1.273v-15.17
			C526.518,632.712,527.068,633.162,527.45,633.733z"/>
		<path fill="#FFD186" d="M531.352,620.005v8.826c0,0.703-0.212,1.356-0.576,1.899c-0.383,0.571-0.932,1.02-1.577,1.273
			c-0.197,0.078-0.403,0.137-0.615,0.175c-0.193,0.035-0.39,0.054-0.592,0.054H389.148c-1.789,0-3.265-1.436-3.355-3.226
			c-0.002-0.058-0.004-0.117-0.004-0.175v-8.825c0-0.059,0.002-0.117,0.004-0.175c0.084-1.656,1.351-3.008,2.958-3.202
			c0.13-0.017,0.262-0.024,0.397-0.024h138.844c0.202,0,0.399,0.018,0.592,0.054c0.212,0.038,0.418,0.096,0.615,0.174
			c0.644,0.253,1.194,0.702,1.577,1.274C531.14,618.649,531.352,619.302,531.352,620.005z"/>
		<path fill="#FCBA64" d="M463.172,632.231h-74.383c-1.598,0-2.914-1.436-2.996-3.225c-0.002-0.059-0.004-0.117-0.004-0.176v-8.825
			c0-0.059,0.002-0.117,0.004-0.175c0.075-1.654,1.207-3.008,2.641-3.202c0.115-0.017,0.234-0.024,0.355-0.024h65.249
			c0.002,0.007,0.004,0.017,0.006,0.024C455.089,621.225,457.517,627.574,463.172,632.231z"/>
		<path fill="#FCBA64" d="M514.457,616.603h-1.578v15.628h1.578V616.603z"/>
		<path fill="#FCBA64" d="M509.116,616.603h-1.578v15.628h1.578V616.603z"/>
		<path fill="#FCBA64" d="M502.71,616.603h-1.578v15.628h1.578V616.603z"/>
		<path fill="#FCBA64" d="M492.891,616.603h-1.578v15.628h1.578V616.603z"/>
		<path fill="#FCBA64" d="M482.508,616.603h-1.578v15.628h1.578V616.603z"/>
		<path fill="#FCBA64" d="M466.592,616.603h-1.578v15.628h1.578V616.603z"/>
		<path fill="#FCBA64" d="M451.688,616.603h-1.578v15.628h1.578V616.603z"/>
		<path fill="#FCBA64" d="M438.381,616.604h-1.578v15.628h1.578V616.604z"/>
		<path fill="#FCBA64" d="M519.541,616.603h-1.578v15.628h1.578V616.603z"/>
		<path fill="#FCBA64" d="M522.901,616.603h-1.578v15.628h1.578V616.603z"/>
		<path fill="#FCBA64" d="M526.144,616.603h-1.578v15.628h1.578V616.603z"/>
		<path fill="#FCBA64" d="M528.585,616.657v15.519c-0.194,0.035-0.39,0.054-0.592,0.054h-0.986v-15.628h0.986
			C528.195,616.603,528.391,616.622,528.585,616.657z"/>
		<path fill="#FCBA64" d="M530.776,618.105v12.623c-0.382,0.572-0.931,1.021-1.576,1.274v-15.17
			C529.844,617.084,530.393,617.533,530.776,618.105z"/>
		<path fill="#FFD186" d="M521.144,604.401v8.825c0,0.704-0.211,1.357-0.576,1.899c-0.382,0.572-0.932,1.022-1.576,1.274
			c-0.197,0.078-0.404,0.137-0.615,0.174c-0.065,0.011-0.131,0.023-0.195,0.03c-0.035,0.004-0.072,0.008-0.11,0.011
			c-0.035,0.004-0.072,0.006-0.109,0.008c-0.06,0.003-0.12,0.005-0.178,0.005H378.941c-1.791,0-3.265-1.436-3.356-3.226
			c-0.001-0.059-0.003-0.117-0.003-0.175V604.4c0-0.058,0.002-0.116,0.003-0.174c0.002-0.049,0.006-0.096,0.01-0.143
			c0.133-1.44,1.166-2.629,2.518-2.978c0.033-0.01,0.068-0.017,0.102-0.025c0.234-0.053,0.477-0.081,0.726-0.081h138.844
			c0.102,0,0.202,0.006,0.3,0.013c0.045,0.006,0.089,0.01,0.134,0.016h0.001c0.052,0.007,0.104,0.017,0.157,0.026
			c0.211,0.038,0.417,0.096,0.615,0.175c0.644,0.252,1.194,0.702,1.576,1.273C520.933,603.046,521.144,603.698,521.144,604.401z"/>
		<path fill="#FCBA64" d="M452.964,616.628H378.58c-1.597,0-2.914-1.436-2.996-3.226c-0.001-0.059-0.003-0.117-0.003-0.175v-8.826
			c0-0.058,0.002-0.116,0.003-0.174c0.002-0.049,0.006-0.096,0.01-0.142c0.12-1.473,1.08-2.68,2.327-3
			c0.042-0.013,0.085-0.023,0.128-0.03c0.172-0.035,0.349-0.054,0.531-0.054h65.25c0.007,0.038,0.017,0.074,0.026,0.111
			c1.053,4.584,3.482,10.867,9.079,15.492C452.943,616.612,452.955,616.621,452.964,616.628z"/>
		<path fill="#FCBA64" d="M504.249,601h-1.578v15.628h1.578V601z"/>
		<path fill="#FCBA64" d="M498.908,601h-1.579v15.628h1.579V601z"/>
		<path fill="#FCBA64" d="M492.502,601h-1.578v15.628h1.578V601z"/>
		<path fill="#FCBA64" d="M482.684,601h-1.579v15.628h1.579V601z"/>
		<path fill="#FCBA64" d="M472.301,601h-1.578v15.628h1.578V601z"/>
		<path fill="#FCBA64" d="M456.383,601h-1.578v15.628h1.578V601z"/>
		<path fill="#FCBA64" d="M441.481,601h-1.578v15.628h1.578V601z"/>
		<path fill="#FCBA64" d="M428.173,601h-1.578v15.628h1.578V601z"/>
		<path fill="#FCBA64" d="M509.334,601h-1.579v15.628h1.579V601z"/>
		<path fill="#FCBA64" d="M512.693,601h-1.578v15.628h1.578V601z"/>
		<path fill="#FCBA64" d="M515.936,601h-1.578v15.628h1.578V601z"/>
		<path fill="#FCBA64" d="M518.377,601.054v15.519c-0.193,0.036-0.39,0.055-0.592,0.055h-0.986v-15.629h0.986
			C517.987,600.999,518.184,601.018,518.377,601.054z"/>
		<path fill="#FCBA64" d="M520.568,602.502v12.623c-0.383,0.572-0.932,1.021-1.577,1.274v-15.17
			C519.636,601.481,520.186,601.93,520.568,602.502z"/>
		<path fill="#FFD186" d="M520.852,588.885v8.826c0,0.703-0.211,1.355-0.575,1.899c-0.383,0.571-0.932,1.02-1.577,1.273
			c-0.154,0.062-0.316,0.111-0.479,0.147h-0.004c-0.044,0.011-0.087,0.02-0.131,0.028c-0.194,0.036-0.39,0.055-0.593,0.055H378.649
			c-0.147,0-0.293-0.01-0.435-0.03c-0.056-0.006-0.111-0.015-0.165-0.027c-1.51-0.277-2.676-1.585-2.756-3.17
			c-0.002-0.058-0.004-0.117-0.004-0.175v-8.825c0-0.058,0.002-0.117,0.004-0.175c0.091-1.79,1.565-3.226,3.355-3.226h138.844
			c0.089,0,0.179,0.004,0.266,0.011c0.037,0.004,0.076,0.007,0.113,0.012c0.041,0.004,0.083,0.008,0.125,0.017
			c0.029,0.004,0.059,0.009,0.089,0.015c0.211,0.037,0.418,0.095,0.614,0.174c0.03,0.012,0.058,0.023,0.087,0.036
			c0.029,0.011,0.059,0.024,0.086,0.038c0.058,0.026,0.114,0.054,0.169,0.083c0.062,0.033,0.122,0.067,0.182,0.105
			c0.054,0.032,0.106,0.065,0.158,0.101c0.06,0.042,0.117,0.085,0.173,0.13c0.044,0.033,0.087,0.069,0.13,0.107
			c0.002,0.002,0.005,0.004,0.007,0.007c0.028,0.025,0.058,0.051,0.086,0.077c0.085,0.079,0.167,0.166,0.243,0.254
			c0.025,0.026,0.047,0.053,0.067,0.079c0.022,0.028,0.043,0.054,0.065,0.083c0.043,0.056,0.085,0.114,0.125,0.173
			C520.641,587.529,520.852,588.182,520.852,588.885z"/>
		<path fill="#FCBA64" d="M452.673,601.111h-74.384c-0.059,0-0.119-0.002-0.176-0.005c-0.065-0.005-0.129-0.011-0.192-0.021
			c-1.43-0.199-2.553-1.549-2.627-3.2c-0.002-0.058-0.004-0.117-0.004-0.175v-8.825c0-0.058,0.002-0.117,0.004-0.175
			c0.082-1.79,1.396-3.226,2.995-3.226h65.248c0.03,0.127,0.059,0.256,0.091,0.386c1.081,4.527,3.497,10.606,8.912,15.131
			C452.584,601.038,452.629,601.074,452.673,601.111z"/>
		<path fill="#FCBA64" d="M503.957,585.484h-1.578v15.628h1.578V585.484z"/>
		<path fill="#FCBA64" d="M498.616,585.484h-1.578v15.628h1.578V585.484z"/>
		<path fill="#FCBA64" d="M492.21,585.484h-1.577v15.628h1.577V585.484z"/>
		<path fill="#FCBA64" d="M482.392,585.484h-1.579v15.628h1.579V585.484z"/>
		<path fill="#FCBA64" d="M472.009,585.484h-1.578v15.628h1.578V585.484z"/>
		<path fill="#FCBA64" d="M456.091,585.484h-1.578v15.628h1.578V585.484z"/>
		<path fill="#FCBA64" d="M441.189,585.484h-1.578v15.628h1.578V585.484z"/>
		<path fill="#FCBA64" d="M427.881,585.484h-1.578v15.628h1.578V585.484z"/>
		<path fill="#FCBA64" d="M509.042,585.484h-1.578v15.628h1.578V585.484z"/>
		<path fill="#FCBA64" d="M512.401,585.484h-1.578v15.628h1.578V585.484z"/>
		<path fill="#FCBA64" d="M515.645,585.484h-1.579v15.628h1.579V585.484z"/>
		<path fill="#FCBA64" d="M518.085,585.538v15.519c-0.193,0.035-0.39,0.054-0.592,0.054h-0.986v-15.628h0.986
			C517.695,585.483,517.892,585.502,518.085,585.538z"/>
		<path fill="#FCBA64" d="M520.277,586.986v12.623c-0.383,0.571-0.933,1.021-1.577,1.273v-15.169
			C519.344,585.965,519.894,586.414,520.277,586.986z"/>
		<path fill="#FFD186" d="M528.026,573.642v8.825c0,0.704-0.212,1.356-0.576,1.9c-0.383,0.571-0.932,1.021-1.576,1.273
			c-0.197,0.078-0.404,0.137-0.615,0.174c-0.193,0.037-0.39,0.055-0.592,0.055H385.822c-0.557,0-1.084-0.139-1.548-0.386
			c-0.983-0.521-1.684-1.521-1.796-2.688c-0.005-0.052-0.008-0.102-0.011-0.153c-0.002-0.058-0.004-0.116-0.004-0.175v-8.825
			c0-0.058,0.002-0.116,0.004-0.175c0.092-1.79,1.566-3.226,3.356-3.226h138.844c0.203,0,0.399,0.019,0.592,0.054
			c0.212,0.038,0.418,0.097,0.615,0.175c0.644,0.252,1.193,0.701,1.576,1.273C527.814,572.286,528.026,572.939,528.026,573.642z"/>
		<path fill="#FCBA64" d="M459.846,585.869h-74.384c-0.498,0-0.968-0.139-1.381-0.386c-0.879-0.521-1.504-1.521-1.603-2.688
			c-0.005-0.052-0.008-0.102-0.011-0.153c-0.002-0.058-0.004-0.116-0.004-0.175v-8.825c0-0.058,0.002-0.116,0.004-0.175
			c0.082-1.79,1.399-3.226,2.996-3.226h65.249c1.014,4.475,3.338,10.617,8.678,15.243
			C459.54,585.613,459.692,585.741,459.846,585.869z"/>
		<path fill="#FCBA64" d="M511.131,570.241h-1.578v15.628h1.578V570.241z"/>
		<path fill="#FCBA64" d="M505.79,570.241h-1.579v15.628h1.579V570.241z"/>
		<path fill="#FCBA64" d="M499.384,570.241h-1.578v15.628h1.578V570.241z"/>
		<path fill="#FCBA64" d="M489.565,570.241h-1.578v15.628h1.578V570.241z"/>
		<path fill="#FCBA64" d="M479.183,570.241h-1.578v15.628h1.578V570.241z"/>
		<path fill="#FCBA64" d="M463.266,570.241h-1.578v15.628h1.578V570.241z"/>
		<path fill="#FCBA64" d="M448.363,570.241h-1.578v15.628h1.578V570.241z"/>
		<path fill="#FCBA64" d="M435.056,570.241h-1.579v15.628h1.579V570.241z"/>
		<path fill="#FCBA64" d="M516.216,570.241h-1.578v15.628h1.578V570.241z"/>
		<path fill="#FCBA64" d="M519.575,570.241h-1.578v15.628h1.578V570.241z"/>
		<path fill="#FCBA64" d="M522.819,570.241h-1.579v15.628h1.579V570.241z"/>
		<path fill="#FCBA64" d="M525.26,570.296v15.519c-0.194,0.035-0.391,0.055-0.592,0.055h-0.987v-15.629h0.987
			C524.869,570.241,525.066,570.26,525.26,570.296z"/>
		<path fill="#FCBA64" d="M527.45,571.744v12.623c-0.382,0.571-0.932,1.021-1.576,1.273v-15.169
			C526.518,570.722,527.068,571.172,527.45,571.744z"/>
		<path fill="#FFD186" d="M539.372,558.014v8.826c0,0.703-0.212,1.356-0.576,1.899c-0.383,0.571-0.932,1.021-1.577,1.273
			c-0.196,0.079-0.403,0.137-0.615,0.175c-0.193,0.035-0.39,0.054-0.592,0.054H397.168c-1.789,0-3.264-1.436-3.355-3.226
			c-0.002-0.058-0.004-0.117-0.004-0.174v-8.826c0-0.059,0.002-0.116,0.004-0.175c0.084-1.655,1.352-3.008,2.958-3.202
			c0.13-0.017,0.263-0.024,0.397-0.024h138.845c0.202,0,0.399,0.018,0.592,0.054c0.211,0.038,0.418,0.096,0.615,0.175
			c0.645,0.252,1.194,0.701,1.577,1.273C539.16,556.659,539.372,557.312,539.372,558.014z"/>
		<path fill="#FCBA64" d="M471.193,570.241h-74.384c-1.597,0-2.914-1.436-2.995-3.226c-0.002-0.058-0.004-0.117-0.004-0.174v-8.826
			c0-0.059,0.002-0.116,0.004-0.175c0.074-1.655,1.207-3.008,2.64-3.202c0.116-0.017,0.234-0.024,0.355-0.024h65.249
			c0.001,0.007,0.004,0.017,0.005,0.024C463.11,559.237,465.538,565.584,471.193,570.241z"/>
		<path fill="#FCBA64" d="M522.478,554.613H520.9v15.628h1.578V554.613z"/>
		<path fill="#FCBA64" d="M517.137,554.613h-1.578v15.628h1.578V554.613z"/>
		<path fill="#FCBA64" d="M510.731,554.613h-1.578v15.628h1.578V554.613z"/>
		<path fill="#FCBA64" d="M500.913,554.613h-1.578v15.628h1.578V554.613z"/>
		<path fill="#FCBA64" d="M490.53,554.613h-1.578v15.628h1.578V554.613z"/>
		<path fill="#FCBA64" d="M474.613,554.613h-1.578v15.628h1.578V554.613z"/>
		<path fill="#FCBA64" d="M459.71,554.613h-1.578v15.628h1.578V554.613z"/>
		<path fill="#FCBA64" d="M446.401,554.614h-1.577v15.627h1.577V554.614z"/>
		<path fill="#FCBA64" d="M527.563,554.613h-1.578v15.628h1.578V554.613z"/>
		<path fill="#FCBA64" d="M530.922,554.613h-1.578v15.628h1.578V554.613z"/>
		<path fill="#FCBA64" d="M534.165,554.613h-1.578v15.628h1.578V554.613z"/>
		<path fill="#FCBA64" d="M536.606,554.667v15.519c-0.193,0.036-0.39,0.055-0.593,0.055h-0.986v-15.628h0.986
			C536.216,554.613,536.413,554.632,536.606,554.667z"/>
		<path fill="#FCBA64" d="M538.797,556.115v12.624c-0.383,0.572-0.932,1.021-1.577,1.273v-15.169
			C537.865,555.094,538.414,555.543,538.797,556.115z"/>
		<path fill="#FFD186" d="M521.144,542.41v8.827c0,0.702-0.211,1.355-0.576,1.898c-0.382,0.572-0.932,1.021-1.576,1.273
			c-0.197,0.079-0.404,0.138-0.615,0.175c-0.065,0.011-0.131,0.023-0.195,0.03c-0.052,0.007-0.104,0.011-0.156,0.015
			c-0.026,0.002-0.052,0.004-0.078,0.005c-0.054,0.002-0.108,0.004-0.163,0.004H378.941c-1.791,0-3.265-1.436-3.356-3.226
			c-0.001-0.058-0.003-0.117-0.003-0.174v-8.827c0-0.057,0.002-0.116,0.003-0.174c0.091-1.79,1.565-3.227,3.356-3.227h138.844
			c0.058,0,0.118,0.003,0.178,0.006c0.14,0.007,0.278,0.025,0.414,0.049c0.212,0.037,0.418,0.096,0.615,0.175
			c0.1,0.039,0.199,0.083,0.291,0.131c0.06,0.03,0.117,0.06,0.174,0.094c0.005,0.002,0.012,0.005,0.018,0.011
			c0.058,0.034,0.113,0.07,0.169,0.108c0.012,0.005,0.021,0.013,0.028,0.018c0.052,0.034,0.102,0.072,0.151,0.111
			c0.119,0.091,0.23,0.188,0.334,0.295c0.034,0.032,0.065,0.066,0.095,0.1c0.005,0.005,0.011,0.012,0.017,0.018
			c0.02,0.021,0.038,0.042,0.057,0.065c0.004,0.004,0.008,0.009,0.012,0.013c0.033,0.04,0.067,0.081,0.098,0.124
			c0.047,0.061,0.092,0.121,0.134,0.184C520.933,541.055,521.144,541.708,521.144,542.41z"/>
		<path fill="#FCBA64" d="M452.964,554.637H378.58c-1.597,0-2.914-1.436-2.996-3.226c-0.001-0.058-0.003-0.117-0.003-0.174v-8.827
			c0-0.057,0.002-0.116,0.003-0.174c0.082-1.79,1.399-3.227,2.996-3.227h65.25c0.026,0.12,0.053,0.239,0.085,0.362
			c1.083,4.559,3.522,10.7,9.02,15.242C452.943,554.62,452.955,554.63,452.964,554.637z"/>
		<path fill="#FCBA64" d="M504.249,539.01h-1.578v15.628h1.578V539.01z"/>
		<path fill="#FCBA64" d="M498.908,539.01h-1.579v15.628h1.579V539.01z"/>
		<path fill="#FCBA64" d="M492.502,539.01h-1.578v15.628h1.578V539.01z"/>
		<path fill="#FCBA64" d="M482.684,539.01h-1.579v15.628h1.579V539.01z"/>
		<path fill="#FCBA64" d="M472.301,539.01h-1.578v15.628h1.578V539.01z"/>
		<path fill="#FCBA64" d="M456.383,539.01h-1.578v15.628h1.578V539.01z"/>
		<path fill="#FCBA64" d="M441.481,539.01h-1.578v15.628h1.578V539.01z"/>
		<path fill="#FCBA64" d="M428.173,539.01h-1.578v15.628h1.578V539.01z"/>
		<path fill="#FCBA64" d="M509.334,539.01h-1.579v15.628h1.579V539.01z"/>
		<path fill="#FCBA64" d="M512.693,539.01h-1.578v15.628h1.578V539.01z"/>
		<path fill="#FCBA64" d="M515.936,539.01h-1.578v15.628h1.578V539.01z"/>
		<path fill="#FCBA64" d="M518.377,539.064v15.519c-0.193,0.036-0.39,0.054-0.592,0.054h-0.986v-15.628h0.986
			C517.987,539.009,518.184,539.028,518.377,539.064z"/>
		<path fill="#FCBA64" d="M520.568,540.511v12.624c-0.383,0.572-0.932,1.021-1.577,1.273v-15.169
			C519.636,539.491,520.186,539.94,520.568,540.511z"/>
		<path fill="#FFD186" d="M531.352,527.144v8.826c0,0.703-0.212,1.356-0.576,1.899c-0.383,0.572-0.932,1.02-1.577,1.273
			c-0.197,0.079-0.403,0.138-0.615,0.174c-0.193,0.036-0.39,0.055-0.592,0.055H389.148c-0.538,0-1.049-0.129-1.5-0.361
			c-1.013-0.513-1.736-1.534-1.846-2.726c-0.004-0.045-0.007-0.092-0.009-0.139c-0.002-0.058-0.004-0.116-0.004-0.175v-8.825
			c0-0.058,0.002-0.117,0.004-0.175c0.084-1.656,1.352-3.008,2.958-3.202c0.13-0.017,0.263-0.025,0.398-0.025h138.844
			c0.202,0,0.398,0.019,0.592,0.055c0.211,0.038,0.418,0.096,0.615,0.175c0.644,0.252,1.193,0.701,1.576,1.272
			C531.14,525.789,531.352,526.441,531.352,527.144z"/>
		<path fill="#FCBA64" d="M463.172,539.37h-74.383c-0.482,0-0.936-0.129-1.339-0.361c-0.905-0.513-1.549-1.534-1.648-2.726
			c-0.004-0.045-0.007-0.092-0.009-0.139c-0.002-0.058-0.004-0.117-0.004-0.175v-8.825c0-0.058,0.002-0.117,0.004-0.175
			c0.075-1.654,1.207-3.008,2.641-3.202c0.115-0.017,0.234-0.025,0.355-0.025h65.249c0.002,0.008,0.004,0.017,0.006,0.025
			c1.017,4.48,3.351,10.622,8.701,15.242C462.884,539.132,463.028,539.252,463.172,539.37z"/>
		<path fill="#FCBA64" d="M514.457,523.743h-1.578v15.628h1.578V523.743z"/>
		<path fill="#FCBA64" d="M509.116,523.743h-1.578v15.628h1.578V523.743z"/>
		<path fill="#FCBA64" d="M502.71,523.743h-1.578v15.628h1.578V523.743z"/>
		<path fill="#FCBA64" d="M492.891,523.743h-1.578v15.628h1.578V523.743z"/>
		<path fill="#FCBA64" d="M482.508,523.743h-1.578v15.628h1.578V523.743z"/>
		<path fill="#FCBA64" d="M466.592,523.743h-1.578v15.628h1.578V523.743z"/>
		<path fill="#FCBA64" d="M451.688,523.743h-1.578v15.628h1.578V523.743z"/>
		<path fill="#FCBA64" d="M438.381,523.743h-1.578v15.628h1.578V523.743z"/>
		<path fill="#FCBA64" d="M519.541,523.743h-1.578v15.628h1.578V523.743z"/>
		<path fill="#FCBA64" d="M522.901,523.743h-1.578v15.628h1.578V523.743z"/>
		<path fill="#FCBA64" d="M526.144,523.743h-1.578v15.628h1.578V523.743z"/>
		<path fill="#FCBA64" d="M528.585,523.797v15.519c-0.194,0.036-0.39,0.055-0.592,0.055h-0.986v-15.628h0.986
			C528.195,523.742,528.391,523.761,528.585,523.797z"/>
		<path fill="#FCBA64" d="M530.776,525.245v12.623c-0.382,0.572-0.931,1.022-1.576,1.274v-15.171
			C529.844,524.223,530.393,524.673,530.776,525.245z"/>
		<path fill="#FFD186" d="M521.145,511.541v8.825c0,0.704-0.211,1.356-0.576,1.899c-0.382,0.572-0.932,1.021-1.576,1.273
			c-0.197,0.079-0.404,0.137-0.615,0.175c-0.065,0.011-0.131,0.023-0.195,0.03c-0.035,0.004-0.072,0.008-0.109,0.012
			c-0.036,0.004-0.073,0.005-0.11,0.007c-0.059,0.004-0.119,0.005-0.178,0.005H378.942c-1.791,0-3.264-1.436-3.356-3.226
			c-0.001-0.058-0.003-0.117-0.003-0.175v-8.825c0-0.059,0.002-0.117,0.003-0.175c0.092-1.79,1.565-3.227,3.356-3.227h138.844
			c0.202,0,0.399,0.019,0.592,0.055c0.211,0.038,0.417,0.096,0.615,0.174c0.644,0.253,1.194,0.702,1.576,1.273
			C520.934,510.185,521.145,510.837,521.145,511.541z"/>
		<path fill="#FCBA64" d="M452.964,523.767H378.58c-1.597,0-2.914-1.436-2.996-3.226c-0.001-0.059-0.003-0.117-0.003-0.175v-8.825
			c0-0.059,0.002-0.117,0.003-0.175c0.082-1.79,1.399-3.227,2.996-3.227h65.25c1.039,4.594,3.461,10.941,9.105,15.603
			C452.943,523.75,452.955,523.759,452.964,523.767z"/>
		<path fill="#FCBA64" d="M504.249,508.139h-1.578v15.628h1.578V508.139z"/>
		<path fill="#FCBA64" d="M498.908,508.139h-1.579v15.628h1.579V508.139z"/>
		<path fill="#FCBA64" d="M492.502,508.139h-1.578v15.628h1.578V508.139z"/>
		<path fill="#FCBA64" d="M482.684,508.139h-1.579v15.628h1.579V508.139z"/>
		<path fill="#FCBA64" d="M472.301,508.139h-1.578v15.628h1.578V508.139z"/>
		<path fill="#FCBA64" d="M456.383,508.139h-1.578v15.628h1.578V508.139z"/>
		<path fill="#FCBA64" d="M441.481,508.139h-1.579v15.628h1.579V508.139z"/>
		<path fill="#FCBA64" d="M428.173,508.139h-1.578v15.628h1.578V508.139z"/>
		<path fill="#FCBA64" d="M509.334,508.139h-1.579v15.628h1.579V508.139z"/>
		<path fill="#FCBA64" d="M512.693,508.139h-1.578v15.628h1.578V508.139z"/>
		<path fill="#FCBA64" d="M515.937,508.139h-1.579v15.628h1.579V508.139z"/>
		<path fill="#FCBA64" d="M518.377,508.193v15.519c-0.193,0.036-0.39,0.055-0.592,0.055h-0.986v-15.628h0.986
			C517.987,508.139,518.184,508.158,518.377,508.193z"/>
		<path fill="#FCBA64" d="M520.568,509.641v12.623c-0.383,0.572-0.932,1.021-1.577,1.273v-15.169
			C519.636,508.62,520.186,509.07,520.568,509.641z"/>
		<path fill="#5DD782" d="M685.621,608.989c0,0-11.058-13.062-0.682-21.359c0,0,7.579-4.645,13.759-4.268
			c0,0-8.756,14.867-5.923,16.346c2.832,1.479,8.578-17.279,8.578-17.279s17.248-1.694,22.796,1.007
			c0,0-14.744,12.217-11.639,12.944c3.106,0.727,19.032-11.264,19.032-11.264s16.053,2.766,15.197,12.681
			c-0.856,9.915-6.387,12.977-8.818,12.713c-2.431-0.264-16.653-5.76-16.962-3.744c-0.31,2.017,8.25,8.608,14.245,8.916
			c0,0-11.318,12.637-18.839,8.99c-7.522-3.647-8.165-9.429-12.853-11.596c-4.689-2.169-8.692-2.163-6.755,0.048
			c1.935,2.212,10.421,4.36,13.103,9.163c2.681,4.802,5.087,8.04-2.696,6.855c-7.782-1.185-20.432-6.951-20.987-13.552
			C685.621,608.989,685.621,608.989,685.621,608.989z"/>
		<path fill="#5DD782" d="M738.85,598.065c0,0-43.6-1.701-53.23,10.924c0,0-2.129,6.458-8.682,12.337l-1.021,2.818
			c0,0,7.555-8.065,10.258-8.553C686.176,615.591,681.948,599.95,738.85,598.065z"/>
		<path fill="#5DD782" d="M676.938,621.326c0,0-9.358,7.007-10.008,19.528l1.698,0.155c0,0,2.989-12.947,8.392-18.01
			C682.423,617.936,676.938,621.326,676.938,621.326z"/>
		<path fill="#81E3A5" d="M646.957,592.562c0,0,17.591-9.974,9.382-23.51c0,0-6.567-8.312-13.603-10.449c0,0,3.753,20.185,0,20.66
			c-3.753,0.475-2.581-22.797-2.581-22.797s-18.528-9.024-25.8-8.311c0,0,11.493,19.71,7.741,19.235
			c-3.753-0.475-16.653-20.423-16.653-20.423s-18.998-3.562-22.047,7.837c-3.049,11.398,1.876,17.097,4.691,17.81
			c2.814,0.713,20.875,0.475,20.405,2.849c-0.469,2.376-12.665,6.175-19.467,4.038c0,0,7.506,18.759,17.357,17.81
			c9.851-0.95,12.9-7.124,18.998-7.599c6.098-0.475,10.555,1.187,7.505,2.849c-3.048,1.662-13.368,0.545-18.294,4.784
			c-4.925,4.239-8.913,6.852,0.234,8.751c9.147,1.9,25.566,0.713,28.849-6.411C646.957,592.562,646.957,592.562,646.957,592.562z"/>
		<path fill="#5DD782" d="M592.074,558.367c0,0,49.255,16.147,54.884,34.195c0,0-0.235,8.074,4.691,17.335v3.562
			c0,0-5.16-12.111-7.975-13.773C643.673,599.686,654.697,584.013,592.074,558.367z"/>
		<path fill="#5DD782" d="M651.649,609.897c0,0,7.595,11.679,3.265,25.894l-1.954-0.531c0,0,1.897-15.659-2.078-23.534
			C646.908,603.852,651.649,609.897,651.649,609.897z"/>
		<path fill="#81E3A5" d="M674.942,578.807c0,0-23.188-13.147-12.367-30.99c0,0,8.658-10.956,17.932-13.773
			c0,0-4.946,26.608,0,27.233c4.947,0.626,3.401-30.05,3.401-30.05s24.425-11.895,34.009-10.956c0,0-15.149,25.981-10.202,25.355
			c4.946-0.626,21.951-26.92,21.951-26.92s25.043-4.695,29.062,10.33c4.02,15.025-2.473,22.539-6.183,23.477
			c-3.71,0.939-27.516,0.626-26.898,3.757c0.618,3.13,16.696,8.139,25.661,5.321c0,0-9.893,24.73-22.878,23.477
			c-12.985-1.252-17.005-9.39-25.043-10.017c-8.038-0.626-13.913,1.565-9.894,3.756c4.02,2.192,17.623,0.718,24.116,6.307
			s11.749,9.032-0.309,11.537c-12.057,2.504-33.699,0.939-38.028-8.452C674.942,578.807,674.942,578.807,674.942,578.807z"/>
		<path fill="#17C3B2" d="M747.289,533.731c0,0-64.926,21.285-72.346,45.076c0,0,0.309,10.643-6.184,22.85v4.696
			c0,0,6.803-15.965,10.512-18.156C679.271,588.198,664.74,567.538,747.289,533.731z"/>
		<path fill="#17C3B2" d="M668.759,601.658c0,0-10.012,15.395-4.304,34.134l2.576-0.701c0,0-2.501-20.64,2.738-31.02
			C675.007,593.689,668.759,601.658,668.759,601.658z"/>
		<path fill="#FE6D73" d="M674.162,676.429c25.086,0,45.421-20.59,45.421-45.989H628.74
			C628.74,655.839,649.076,676.429,674.162,676.429z"/>
		<path fill="#FFCCBE" d="M685.338,676.077c-1.847,0.234-3.731,0.352-5.644,0.352c-25.084,0-45.418-20.59-45.418-45.989h11.283
			C645.56,653.905,662.916,673.263,685.338,676.077z"/>
		<path fill="#FE6D73" d="M720.211,678.769h-92.098c0-3.133,2.508-5.673,5.604-5.673h80.89
			C717.701,673.096,720.211,675.636,720.211,678.769z"/>
		<path fill="#FFD345" d="M394.036,674.136c45.451,0,82.297-37.305,82.297-83.323s-36.846-83.322-82.297-83.322
			c-45.452,0-82.297,37.304-82.297,83.322S348.584,674.136,394.036,674.136z"/>
		<path fill="#FFE68D" d="M475.264,604.182l-64.267-13.831l63.707-16.082c-0.506-2.542-1.135-5.04-1.864-7.494l-63.688,16.078
			l50.227-42.672c-1.55-2.047-3.188-4.021-4.915-5.912l-50.218,42.664l26.654-60.612c-2.268-1.153-4.594-2.199-6.975-3.139
			l-26.073,59.291v-64.885c-1.266-0.059-2.536-0.098-3.816-0.098s-2.551,0.039-3.817,0.098v66.327l-28.731-59.641
			c-2.345,1.023-4.637,2.147-6.863,3.38l28.734,59.649l-51.655-40.862c-1.661,1.951-3.233,3.978-4.712,6.079l51.669,40.871
			l-64.215-13.819c-0.642,2.476-1.166,4.999-1.584,7.559l64.211,13.819l-63.761,16.095c0.496,2.546,1.113,5.045,1.833,7.501
			l63.774-16.098l-50.379,42.8c1.544,2.052,3.176,4.032,4.897,5.928l50.388-42.809l-26.77,60.877
			c2.265,1.156,4.589,2.207,6.969,3.151l26.195-59.568v65.21c1.266,0.058,2.536,0.098,3.816,0.098s2.551-0.039,3.817-0.098v-66.652
			l28.859,59.908c2.343-1.028,4.633-2.157,6.857-3.392l-28.857-59.903l51.822,40.992c1.655-1.955,3.219-3.988,4.693-6.094
			l-51.816-40.987l64.3,13.837C474.344,609.27,474.856,606.744,475.264,604.182z"/>
		<path fill="#FF9F4C" d="M394.036,660.915c38.239,0,69.238-31.386,69.238-70.102s-30.999-70.101-69.238-70.101
			c-38.24,0-69.239,31.385-69.239,70.101S355.796,660.915,394.036,660.915z"/>
		<path fill="#FFBA49" d="M394.036,656.5c35.831,0,64.878-29.409,64.878-65.687c0-36.277-29.047-65.686-64.878-65.686
			s-64.878,29.409-64.878,65.686C329.158,627.091,358.205,656.5,394.036,656.5z"/>
		<path fill="#FFF2D2" d="M429.801,596.9c-0.907-6.085-4.407-9.752-10.24-11.254c-0.667-0.172-1.441-0.026-2.029-0.663
			c0.126-0.162,0.223-0.368,0.383-0.482c3.65-2.581,5.144-6.179,5.157-10.619c0.019-6.791-3.785-11.979-10.203-13.827
			c-3.282-0.946-6.618-1.275-10.001-1.242c-1.249,0.012-1.834-0.305-1.888-1.729c-0.128-3.353-0.489-6.696-0.658-10.047
			c-0.02-0.404-0.087-0.712-0.186-0.974l-8.082,0.599c0.001,0.095-0.011,0.171,0,0.281c0.354,3.502,0.585,7.017,0.934,10.52
			c0.097,0.977-0.15,1.454-1.139,1.543c-1.244,0.111-2.494,0.227-3.723,0.447c-1.32,0.238-1.681-0.272-1.735-1.576
			c-0.138-3.407-0.457-6.805-0.652-10.211c-0.012-0.21-0.046-0.376-0.089-0.53l-7.728,0.572c-0.048,0.213-0.064,0.464-0.036,0.771
			c0.286,3.176,0.471,6.361,0.735,9.539c0.201,2.412,0.129,2.539-2.167,2.775c-0.217,0.022-0.435,0.027-0.652,0.045
			c-3.896,0.326-7.792,0.659-11.689,0.977c-0.074,0.006-0.142,0.013-0.212,0.02l0.849,8.832c1.425-0.157,2.857-0.277,4.288-0.372
			c2.695-0.177,4.226,1.01,4.632,3.742c0.275,1.849,0.348,3.728,0.514,5.593c0.895,10.035,1.801,20.068,2.683,30.103
			c0.193,2.199-0.709,3.274-2.895,3.524c-1.186,0.136-2.377,0.257-3.568,0.324c-0.128,1.905-0.42,6.159-0.718,9.994
			c4.184-0.348,8.391-0.403,12.56-0.948c1.197-0.156,1.559,0.259,1.617,1.508c0.165,3.551,0.519,7.091,0.77,10.639l8.268-0.472
			c-0.004-0.057,0.005-0.093-0.001-0.153c-0.34-3.339-0.495-6.696-0.79-10.04c-0.109-1.24,0.119-1.989,1.551-2.004
			c1.081-0.011,2.172-0.15,3.238-0.349c1.255-0.235,1.744,0.167,1.81,1.495c0.172,3.461,0.489,6.913,0.704,10.372
			c0.007,0.118,0.032,0.202,0.046,0.306l8.333-0.475c-0.001-0.011,0.002-0.015,0.001-0.026c-0.302-3.447-0.382-6.913-0.685-10.361
			c-0.135-1.534,0.39-2.135,1.856-2.356c3.453-0.522,6.819-1.444,10.047-2.8c4.82-2.024,8.662-5.121,10.247-10.385
			C430.306,604.056,430.334,600.478,429.801,596.9z M389.749,585.972c-0.383-4.762-0.809-9.521-1.25-14.277
			c-0.085-0.926,0.072-1.312,1.155-1.387c4.386-0.304,8.779-0.867,13.089,0.46c5.422,1.67,7.349,7.917,3.621,11.682
			c-1.449,1.463-3.257,2.355-4.783,2.765c-3.774,1.271-7.244,1.49-10.711,1.732C390.137,586.997,389.814,586.783,389.749,585.972z
			 M410.021,609.503c-1.09,0.632-2.21,1.185-3.172,1.447c-4.661,1.639-9.287,1.871-13.872,2.37
			c-0.777,0.085-1.084-0.283-1.151-1.015c-0.481-5.308-0.967-10.615-1.467-15.92c-0.065-0.687-0.025-1.123,0.848-1.202
			c4.65-0.416,9.288-1.056,13.97-0.439c1.574,0.207,3.081,0.596,4.529,1.281c2.794,1.322,4.253,3.546,4.326,6.623
			C414.105,605.733,412.639,607.982,410.021,609.503z"/>
		<path fill="#FF2948" d="M720.616,630.44h-93.37v1.411h93.37V630.44z"/>
		<path fill="#FFCCBE" d="M275.144,185.533l0.02,3.755c0,0-1.01,11.743,13.272,13.457c14.281,1.719,25.993,1.493,25.606-7.568
			c-1.286-7.016-3.591-17.907-3.686-23.712c-0.036-2.157,0.11-4.446,0.508-7.031l-27.674-0.559l-8.151,1.348L275.144,185.533z"/>
		<path fill="#E98C94" d="M275.039,165.223l0.105,20.31c2.94,1.384,6.257,2.228,9.975,2.228c12.719,0,20.94-9.443,25.237-16.296
			c-0.036-2.157,0.11-4.446,0.508-7.031l-27.674-0.559L275.039,165.223z"/>
		<path fill="#FFCCBE" d="M312.983,159.925c-3.21,17.496-25.507,16.922-35.143,15.821c-2.712-0.305-4.418-0.655-4.418-0.655
			c-3.058-0.827-4.763-5.703-5.556-12.09c-1.573-12.64,0.414-31.195,2.523-35.94c3.174-7.141,9.153-14.864,31.606-9.292
			C324.453,123.345,317.103,137.509,312.983,159.925z"/>
		<path fill="#2C2C2C" d="M331.228,677.918h-31.595c0.236-1.678,1.041-6.781,2.52-11.482c0.512-1.637,1.11-3.227,1.79-4.609
			c3.073-6.21,22.59-2.26,22.59-2.26s1.812,1.573,3.228,7.579C330.389,669.792,330.941,673.304,331.228,677.918z"/>
		<path fill="#2C2C2C" d="M235.75,667.823c-0.086,4.352-0.627,8.47-2.187,10.096h-62.495c0.794-2.29,3.044-5.732,9.46-6.787
			c7.291-1.195,18.655-4.748,25.29-11.85c2.364-2.522,4.125-5.499,4.896-8.977c2.941-13.254,24.311,4.06,24.311,4.06
			S235.888,661.344,235.75,667.823z"/>
		<path fill="#3A3A5B" d="M277.317,524.552c-0.869,4.854-1.422,8.834-1.568,11.689c-1.988,39.235-32.621,128.947-38.1,131.039
			c-8.479,3.24-21.83-3.646-28.815-5.899c-2.894-0.936-4.848-3.891-4.204-6.89c15.171-70.613,20.747-172.292,22.775-232.49
			c1.025-30.321,6.166-51.267,6.166-51.267s74.716-20.183,75.159,5.349C309.123,398.675,283.981,487.281,277.317,524.552z"/>
		<path fill="#2C2C2C" d="M277.317,524.552l-49.912-102.551c1.025-30.321,6.166-51.267,6.166-51.267s74.716-20.183,75.159,5.349
			C309.123,398.675,283.981,487.281,277.317,524.552z"/>
		<path fill="#3A3A5B" d="M260.694,376.172l39.498,289.837c0,0,17.346,4.235,30.836,0.846c0,0,11.563-154.148,10.6-191.415
			c-0.964-37.267,8.299-99.719-2.114-106.606C329.1,361.947,260.694,376.172,260.694,376.172z"/>
		<path fill="#2C2C2C" d="M263.498,110.407c0,0,9.883-0.77,21.541-5.902c9.461-4.165,21.399,0.422,25.274,2.489
			c-0.104-0.633-0.354-1.496-0.946-2.361c0,0,1.74,1.249,1.997,2.995c0.179,0.133,0.259,0.226,0.213,0.257
			c0,0,1.972-0.365,3.239,0.212c0,0-0.887-0.128-1.204,0.448c-0.033,0.062-0.083,0.113-0.142,0.16
			c14.759,7.22,16.122,30.837,11.373,36.301c-5.715,6.575-12.567,21.381-12.567,21.381s-2.498-3.498-1.459-9.284
			c1.039-5.786-3.897-5.786-10.131-8.416c-6.233-2.629-1.038-9.993-6.493-14.463c-5.455-4.471-25.455-1.841-25.195-5.26
			C261.575,126.227,263.498,111.176,263.498,110.407z"/>
		<path fill="#ECF1F9" d="M317.41,200.212l-9.094,197.553c0,0-75.899,1.255-73.732-16.134
			c2.167-17.39,27.358-175.369,27.358-175.369L317.41,200.212z"/>
		<path fill="#80B4FF" d="M344.508,312.19c-4.516,13.714,3.998,59.736,7.033,75.327c0.666,3.297,1.11,5.246,1.11,5.246
			c-10.512,17.312-49.007,17.089-49.007,17.089c-7.403-33.13-11.253-85.894-11.253-85.894l29.537-131.093l37.163,34.779
			c0,0-2.813,21.212-6.292,42.797C350.06,287.53,346.951,304.919,344.508,312.19z"/>
		<path fill="#ECF1F9" d="M281.344,162.802c0,0-0.721,2.257-6.347,1.433c0,0-4.722-0.691-4.372-3.208
			C270.624,161.027,275.372,159.61,281.344,162.802z"/>
		<path fill="#80B4FF" d="M238.684,203.029c0,0-0.007,0.033-0.017,0.082c-1.796,1.762-52.462,51.569-62.278,71.078
			c-9.994,19.789,45.676,59.212,45.676,59.212s3.582,1.433,6.068,0.872c-2.624,21.881-5.571,42.069-3.825,50.687
			c3.155,15.575,17.384,20.805,17.384,19.607c0-0.381,3.667-56.792,8.031-85.931c9.687-64.675,21.24-125.37,21.24-125.37
			C254.394,195.008,238.684,203.029,238.684,203.029z M208.517,282.734c-0.074-0.077-0.074-0.227-0.074-0.3
			c0-2.849,10.734-9.146,22.357-16.564c0.148-0.15,0.222-0.228,0.222-0.228c0.008-0.004,0.015-0.009,0.022-0.014
			c-0.206,6.062-0.183,12.01,0.172,17.547c0.66,10.269-0.078,22.542-1.305,35.039C224.378,309.465,209.598,285.957,208.517,282.734z
			"/>
		<path fill="#CED1EC" d="M319.561,192.629c0.092-1.885-8.728-4.49-8.728-4.49s-10.095,14.172-26.728,14.417
			c0,0,4.74,9.339,10.327,11.757C294.432,214.313,319.012,203.826,319.561,192.629z"/>
		<path fill="#FF4D67" d="M260.748,336.075c0.408,4.614,2.498,8.912,5.866,12.052l5.292,4.937c1.328,1.239,3.418,1.068,4.535-0.369
			l6.556-8.429c1.758-2.261,2.585-5.121,2.316-7.984c-0.613-6.378-1.756-18.667-2.671-30.529c-0.744-9.61-1.341-18.948-1.386-24.627
			c-0.144-18.135,3.41-75.965,3.41-75.965l-4.294,0.227c0,0-10.665,22.448-16.249,52.991c-1.378,7.519-2.44,15.523-2.968,23.81
			C261.154,282.189,258.916,315.219,260.748,336.075z"/>
		<path fill="#FF2948" d="M260.748,336.075c0.408,4.614,2.498,8.912,5.866,12.052l5.292,4.937c1.328,1.239,3.418,1.068,4.535-0.369
			l6.556-8.429c1.758-2.261,2.585-5.121,2.316-7.984c-0.613-6.378-1.756-18.667-2.671-30.529
			c-11.866-13.498-16.675-32.151-18.519-47.374c-1.378,7.519-2.44,15.523-2.968,23.81
			C261.154,282.189,258.916,315.219,260.748,336.075z"/>
		<path fill="#CED1EC" d="M284.106,202.224c0,0-8.811-5.288-8.841-11.021c0,0-5.691-0.722-8.176,2.072c0,0-2.089,9.825,0.682,15.533
			C267.771,208.808,280.459,206.851,284.106,202.224z"/>
		<path fill="#FF2948" d="M290.087,201.373l-11.948-2.899c0,0-1.56,0.137-1.517,2.108c0.043,1.97,3.364,7.728,4.836,8.188
			C282.93,209.23,292.914,205.361,290.087,201.373z"/>
		<path fill="#ECF1F9" d="M318.17,191.656c0.092-1.886-5.878-5.77-5.878-5.77s-11.554,13.673-28.186,13.918
			c0,0,4.74,9.339,10.326,11.757C294.432,211.561,317.621,202.852,318.17,191.656z"/>
		<path fill="#ECF1F9" d="M284.106,199.804c0,0-8.911-4.783-8.941-10.517c0,0-5.379,2.397-7.865,5.19c0,0-2.3,6.203,0.471,11.911
			C267.771,206.388,280.459,204.43,284.106,199.804z"/>
		<path fill="#FFCCBE" d="M218.514,336.608c0-5.034,4.374-9.077,9.291-8.321c1.366,0.209,2.598,0.78,3.45,1.929
			c3.384,4.56,6.603,17.829,0.608,18.449c-2.441,0.253-5.576-1.481-7.99-3.338c-2.454-1.888-5.359-4.843-5.359-7.963V336.608z"/>
		<path fill="#7398E6" d="M351.541,387.517c-10.882-11.469-29.686-34.029-29.019-52.544c0.888-25.933,30.278-64.532,30.278-64.532
			c-2.739,17.09-5.848,34.478-8.291,41.749C339.992,325.904,348.506,371.926,351.541,387.517z"/>
		<path fill="#FFCCBE" d="M351.2,342.408c0,0-7.824,3.96-12.574,1.98c-4.749-1.98-10.337-3.467-15.645,2.651
			c-5.309,6.119-6.426,10.362-5.309,12.624c1.118,2.264,13.494,1.415,15.548,0c2.054-1.414,5.302-4.896,7.362-4.289
			c5.685,1.673,10.473-2.718,13.153-6.215C355.351,347.049,350.989,346.027,351.2,342.408z"/>
		<path fill="#80B4FF" d="M321.929,192.865c0,0,31.16,3.492,38.508,17.231c7.348,13.738,45.558,69.416,44.307,92.553
			c-1.25,23.139-52.123,49.085-52.123,49.085s-11.268-4.821-11.437-10.007c-0.169-5.187,35.171-36.185,33.028-41.97
			c-2.142-5.785-41.055-51.537-44.809-66.623C325.649,218.049,321.929,192.865,321.929,192.865z"/>
		<path fill="#7398E6" d="M231.022,265.642c0,0-0.074,0.078-0.222,0.228c-11.623,7.418-22.357,13.715-22.357,16.564
			c-1.555-5.023,13.547-26.01,18.434-30.281C231.836,247.805,231.022,265.642,231.022,265.642z"/>
		<path fill="#7398E6" d="M312.292,185.886c0,0-23.654,100.311-19.89,138.098c0,0,8.698-40.38,29.626-73.455
			c0,0-7.637-6.801-7.223-9.308c0,0,5.67-1.703,11.17-0.557c0,0-0.608-43.239-4.038-47.808
			C318.508,188.289,312.292,185.886,312.292,185.886z"/>
		<path fill="#7398E6" d="M275.164,189.287c0.321,0.152-23.442,98.022-25.442,129.348c0,0,2.371-55.901,2.138-72.013
			c0,0,9.825-5.265,9.825-7.113c0-1.848-10.481-6.844-10.481-6.844s6.637-34.426,10.259-38.219
			C265.084,190.653,275.164,189.287,275.164,189.287z"/>
		<path fill="#2C2C2C" d="M465.736,505.535l48.106-0.058c6.261-0.007,11.377-5.199,11.37-11.538l-0.024-21.106
			c-0.007-6.339-5.136-11.52-11.397-11.512l-48.105,0.057c-6.261,0.007-11.377,5.199-11.37,11.538l0.024,21.107
			C454.347,500.361,459.476,505.542,465.736,505.535z"/>
		<path fill="#3A3A5B" d="M517.328,466.819l-0.001-0.003c-1.8-3.163-5.036-5.397-8.789-5.77l-0.003,0.001
			c-0.003,0.001-0.006,0.001-0.009-0.001c-0.368-0.036-0.739-0.056-1.118-0.056l-9.579,0.014l-0.006-4.555
			c0-1.016-0.393-1.974-1.108-2.696c-0.714-0.72-1.663-1.118-2.666-1.116l-2.499,0.002l-10.057,0.012l-1.814,0.002
			c-2.076,0.004-3.769,1.716-3.765,3.821l0.006,4.555l-16.534,0.018c-6.283,0.008-11.418,5.219-11.413,11.581L448,493.98
			c0.007,6.362,5.154,11.561,11.438,11.554l48.019-0.055c0.847,0,1.672-0.097,2.465-0.279h0.004c0.002,0,0.002,0,0.005,0
			c1.274-0.286,2.466-0.792,3.54-1.474c3.24-2.049,5.403-5.697,5.4-9.831l-0.024-21.35
			C518.843,470.463,518.291,468.51,517.328,466.819z M478.278,456.472c0-0.638,0.416-1.18,0.988-1.361
			c0.134-0.042,0.272-0.065,0.419-0.066l2.135-0.004l7.916-0.007l4.316-0.005c0.776-0.001,1.407,0.638,1.409,1.422l0.006,4.554
			l-17.183,0.018L478.278,456.472z"/>
		<path fill="#F8DCAC" stroke="#FFBA49" stroke-width="5" stroke-miterlimit="10" d="M172.792,511.789
			c-38.441-9.886-49.246-30.444-49.246-30.444h-4.44h-35.48H69.544c0,0-10.805,20.558-49.245,30.444
			c0,0-25.478,102.563,72.716,164.587h7.062C198.27,614.352,172.792,511.789,172.792,511.789z"/>
		<path fill="none" stroke="#FFBA49" stroke-width="7" d="M74.671,501.799c0.426-0.551,0.786-1.046,1.085-1.477h9.921h29.849h1.809
			c0.299,0.431,0.659,0.926,1.085,1.477c1.496,1.929,3.809,4.529,7.163,7.378c6.435,5.465,16.639,11.791,32.131,16.084
			c0.087,0.453,0.184,0.98,0.288,1.578c0.408,2.369,0.909,5.838,1.259,10.174c0.7,8.678,0.795,20.787-1.625,34.477
			c-4.794,27.109-19.45,60.501-59.138,85.909h-3.904c-39.688-25.408-54.345-58.8-59.138-85.909
			c-2.421-13.69-2.326-25.799-1.625-34.477c0.35-4.336,0.85-7.805,1.259-10.174c0.103-0.598,0.2-1.125,0.288-1.578
			c15.492-4.293,25.696-10.619,32.131-16.084C70.863,506.328,73.175,503.728,74.671,501.799z"/>
		<path fill="#FEEED4" d="M155.502,526.997c-29.723-7.644-38.079-23.54-38.079-23.54h-3.433H86.555H75.666
			c0,0-8.355,15.896-38.079,23.54c0,0-19.701,79.307,56.227,127.267h5.461C175.204,606.304,155.502,526.997,155.502,526.997z"/>
		<path opacity="0.5" fill="#F8DCAC" enable-background="new    " d="M96.546,622.932c28.235,0,51.124-23.175,51.124-51.762
			c0-28.587-22.889-51.761-51.124-51.761c-28.235,0-51.124,23.174-51.124,51.761C45.421,599.757,68.31,622.932,96.546,622.932z"/>
		<path fill="none" stroke="#FFBA49" stroke-width="3" stroke-miterlimit="10" d="M96.546,614.771
			c23.784,0,43.063-19.521,43.063-43.601c0-24.079-19.28-43.6-43.063-43.6c-23.783,0-43.063,19.521-43.063,43.6
			C53.482,595.25,72.762,614.771,96.546,614.771z"/>
		<path fill="#FFBA49" d="M75.634,573.973l18.536,11.561l23.58-41.022l4.235,2.889l-24.479,50.428l-26.401-14.692L75.634,573.973z"
			/>
	</g>
</g>
</svg>
