<?xml version="1.0" encoding="utf-8"?>
<!-- Generator: Adobe Illustrator 17.0.0, SVG Export Plug-In . SVG Version: 6.00 Build 0)  -->
<!DOCTYPE svg PUBLIC "-//W3C//DTD SVG 1.1//EN" "http://www.w3.org/Graphics/SVG/1.1/DTD/svg11.dtd">
<svg version="1.1" id="Layer_1" xmlns="http://www.w3.org/2000/svg" xmlns:xlink="http://www.w3.org/1999/xlink" x="0px" y="0px"
	 width="779px" height="814.865px" viewBox="0 -204.135 779 814.865" enable-background="new 0 -204.135 779 814.865"
	 xml:space="preserve">
<rect fill="none" width="811" height="739"/>
<path fill="#FFF4E1" d="M57.029,610.036c0,0-93.046-184.426-15.736-384.092c68.594-177.158,148.569-165.048,207.246-93.155
	c24.99,30.619,118.345,5.527,199.981-144.805c86.912-160.044,319.385-81.428,279.051,249.799
	c-22.457,184.422,77.847,189.683,25.147,372.642L57.029,610.036z"/>
<path fill="#227C9D" d="M760.032,175.92l-142.358,47.198l29.433,21.041v0.001L526.188,365.91l-111.268-81.993L-10.683,619.995
	l3.828-0.055l108.281-3.027l314.786-248.567l117.305,86.44l169.49-170.661l0.002-0.001l31.768,22.711L760.032,175.92z"/>
<g>
	<path fill="#66C88A" d="M444.342,512.803l-37.525-3.267c0,0,2.17-23.423-4.433-54.664c-4.87-23.078-14.527-50.419-33.37-75.743
		c-32.138-43.183-127.593-67.342-127.593-67.342v-5.589l3.431-0.377c0,0-1.479-1.043-3.431-1.65v-13.215
		c2.82-0.041,6.858,0.13,10.848,1.075c-2.236-0.564-7.004-1.672-10.848-1.971v-6.949c138.277,3.743,183.372,88.308,197.504,153.753
		C447.977,478.752,444.342,512.803,444.342,512.803z"/>
	<path fill="#81E3A5" d="M608.568,500.512l-164.226,12.291c-0.85-25.609-7.451-52.095-13.837-72.174
		c-6.383-20.078-12.561-33.756-12.561-33.756C368.816,297.882,241.423,283.11,241.423,283.11l141.393-58.626
		c68.306,5.205,116.226,38.418,149.743,80.122C598.203,386.284,608.568,500.512,608.568,500.512z"/>
	<path fill="#66C88A" d="M608.568,500.512l-164.226,12.291l-37.525-3.267c0,0,2.17-23.423-4.433-54.664
		c7.823-4.77,17.126-9.535,28.119-14.242c2.888-1.237,5.695-2.492,8.422-3.766c104.564-48.863,94.823-124.978,93.632-132.259
		C598.203,386.284,608.568,500.512,608.568,500.512z"/>
	<path fill="#5DD782" d="M595.654,513.317l-146.356-2.867l0.516-2.854c0.078-0.432,7.594-43.877-9.955-93.275
		c-10.279-28.94-27.039-54.256-49.811-75.247c-28.531-26.297-66.657-45.871-113.322-58.178l-7.188-1.895l114.232-46.028l0.438-0.011
		c1.236-0.028,30.657-0.478,68.476,17.632c22.167,10.615,42.575,25.446,60.659,44.083c22.56,23.252,41.538,52.521,56.406,86.993
		c1.175,2.649,28.976,65.84,27.506,103.782l-0.003,0.047L595.654,513.317z M455.034,505.63l136.029,2.664l1.325-23.059
		c0.582-15.157-3.904-37.499-12.977-64.613c-6.892-20.601-14.044-36.795-14.115-36.957c-14.611-33.874-33.213-62.599-55.298-85.399
		c-17.645-18.216-37.548-32.716-59.155-43.1c-23.445-11.266-43.888-15.191-55.721-16.554c-6.214-0.716-12.503,0.131-18.311,2.473
		l-79.169,31.9c-4.131,1.663-3.92,7.639,0.311,9.021c38.499,12.55,70.551,30.508,95.486,53.525
		c23.366,21.57,40.552,47.59,51.081,77.338c9.36,26.443,11.607,50.992,11.845,66.93C456.551,492.164,455.614,501.271,455.034,505.63
		z"/>
	<path fill="#5DD782" d="M516.903,343.054c0,24.41-14.125,39.161-38.236,39.161c-24.11,0-49.076-14.75-49.076-39.161
		c0-24.412,13.354-39.012,37.464-39.012C491.167,304.042,516.903,318.643,516.903,343.054z"/>
	<path fill="#FFD186" d="M686.621,597.001v11.245c0,0.896-0.269,1.728-0.734,2.419c-0.487,0.727-1.188,1.301-2.008,1.622
		c-0.251,0.099-0.513,0.175-0.784,0.222c-0.247,0.047-0.497,0.07-0.756,0.07h-176.9c-2.282,0-4.16-1.83-4.276-4.112
		c-0.003-0.074-0.005-0.148-0.005-0.222v-11.245c0-0.073,0.001-0.148,0.005-0.222c0.116-2.281,1.994-4.11,4.276-4.11h176.901
		c0.257,0,0.508,0.023,0.754,0.069c0.27,0.048,0.533,0.122,0.784,0.223c0.822,0.321,1.523,0.894,2.009,1.622
		C686.352,595.274,686.621,596.105,686.621,597.001z"/>
	<path fill="#FCBA64" d="M599.753,612.579H504.98c-2.035,0-3.711-1.83-3.816-4.112c-0.003-0.074-0.005-0.148-0.005-0.222v-11.245
		c0-0.073,0.001-0.148,0.005-0.222c0.104-2.281,1.781-4.11,3.816-4.11h83.135C589.443,598.53,592.538,606.635,599.753,612.579z"/>
	<path fill="#FCBA64" d="M665.096,592.669h-2.01v19.912h2.01V592.669z"/>
	<path fill="#FCBA64" d="M658.29,592.669h-2.01v19.912h2.01V592.669z"/>
	<path fill="#FCBA64" d="M650.128,592.669h-2.01v19.912h2.01V592.669z"/>
	<path fill="#FCBA64" d="M637.619,592.669h-2.01v19.912h2.01V592.669z"/>
	<path fill="#FCBA64" d="M624.39,592.669h-2.01v19.912h2.01V592.669z"/>
	<path fill="#FCBA64" d="M604.11,592.669H602.1v19.912h2.011V592.669z"/>
	<path fill="#FCBA64" d="M585.122,592.669h-2.011v19.912h2.011V592.669z"/>
	<path fill="#FCBA64" d="M568.167,592.669h-2.01v19.912h2.01V592.669z"/>
	<path fill="#FCBA64" d="M671.574,592.669h-2.011v19.912h2.011V592.669z"/>
	<path fill="#FCBA64" d="M675.853,592.669h-2.01v19.912h2.01V592.669z"/>
	<path fill="#FCBA64" d="M679.985,592.669h-2.011v19.912h2.011V592.669z"/>
	<path fill="#FCBA64" d="M683.095,592.736v19.773c-0.246,0.047-0.497,0.07-0.754,0.07h-1.256v-19.91h1.256
		C682.598,592.669,682.849,592.692,683.095,592.736z"/>
	<path fill="#FCBA64" d="M685.887,594.581v16.083c-0.487,0.729-1.187,1.301-2.008,1.622v-19.327
		C684.699,593.28,685.4,593.854,685.887,594.581z"/>
	<path fill="#FFD186" d="M667.707,577.09v11.245c0,0.896-0.269,1.726-0.733,2.418c-0.488,0.729-1.188,1.301-2.009,1.622
		c-0.251,0.101-0.513,0.176-0.782,0.223c-0.247,0.046-0.497,0.07-0.756,0.07H486.526c-2.281,0-4.16-1.831-4.275-4.112
		c-0.003-0.074-0.006-0.148-0.006-0.222V577.09c0-0.074,0.004-0.148,0.006-0.223c0.116-2.281,1.994-4.11,4.275-4.11h176.901
		c0.113,0,0.227,0.005,0.338,0.014c0.048,0.003,0.098,0.008,0.145,0.015c0.051,0.004,0.106,0.011,0.158,0.02
		c0.038,0.005,0.076,0.013,0.115,0.019c0.269,0.048,0.533,0.122,0.782,0.223c0.038,0.014,0.073,0.028,0.111,0.046
		c0.036,0.014,0.074,0.031,0.11,0.047c0.07,0.034,0.144,0.07,0.215,0.106c0.039,0.022,0.083,0.046,0.122,0.069
		c0.038,0.022,0.074,0.041,0.11,0.065c0.069,0.041,0.135,0.084,0.201,0.129c0.075,0.052,0.149,0.108,0.22,0.166
		c0.056,0.043,0.111,0.089,0.166,0.136c0.003,0.003,0.006,0.005,0.009,0.009c0.036,0.032,0.073,0.065,0.11,0.098
		c0.108,0.101,0.213,0.211,0.31,0.324c0.031,0.034,0.06,0.068,0.085,0.101c0.028,0.034,0.055,0.07,0.083,0.106
		c0.054,0.071,0.108,0.146,0.158,0.22C667.438,575.363,667.707,576.195,667.707,577.09z"/>
	<path fill="#FCBA64" d="M580.84,592.669h-94.773c-2.037,0-3.713-1.831-3.816-4.112c-0.003-0.074-0.006-0.148-0.006-0.222V577.09
		c0-0.074,0.004-0.148,0.006-0.223c0.103-2.281,1.779-4.11,3.816-4.11H569.2c0.037,0.162,0.075,0.325,0.116,0.491
		C570.703,579.064,573.82,586.889,580.84,592.669z"/>
	<path fill="#FCBA64" d="M646.181,572.757h-2.01v19.912h2.01V572.757z"/>
	<path fill="#FCBA64" d="M639.376,572.757h-2.011v19.912h2.011V572.757z"/>
	<path fill="#FCBA64" d="M631.214,572.757h-2.009v19.912h2.009V572.757z"/>
	<path fill="#FCBA64" d="M618.705,572.757h-2.012v19.912h2.012V572.757z"/>
	<path fill="#FCBA64" d="M605.476,572.757h-2.01v19.912h2.01V572.757z"/>
	<path fill="#FCBA64" d="M585.195,572.757h-2.011v19.912h2.011V572.757z"/>
	<path fill="#FCBA64" d="M566.208,572.757h-2.01v19.912h2.01V572.757z"/>
	<path fill="#FCBA64" d="M549.253,572.757h-2.01v19.912h2.01V572.757z"/>
	<path fill="#FCBA64" d="M652.66,572.757h-2.01v19.912h2.01V572.757z"/>
	<path fill="#FCBA64" d="M656.939,572.757h-2.011v19.912h2.011V572.757z"/>
	<path fill="#FCBA64" d="M661.073,572.757h-2.012v19.912h2.012V572.757z"/>
	<path fill="#FCBA64" d="M664.181,572.826v19.773c-0.246,0.045-0.497,0.069-0.754,0.069h-1.256v-19.91h1.256
		C663.684,572.757,663.935,572.779,664.181,572.826z"/>
	<path fill="#FCBA64" d="M666.974,574.669v16.084c-0.488,0.729-1.189,1.301-2.009,1.621v-19.327
		C665.785,573.37,666.486,573.941,666.974,574.669z"/>
	<path fill="#FFD186" d="M676.847,557.671v11.244c0,0.896-0.27,1.728-0.734,2.419c-0.488,0.729-1.187,1.302-2.008,1.622
		c-0.251,0.102-0.515,0.176-0.784,0.223c-0.246,0.046-0.497,0.069-0.754,0.069H495.665c-0.71,0-1.381-0.177-1.972-0.491
		c-1.252-0.663-2.146-1.938-2.288-3.425c-0.006-0.065-0.01-0.13-0.014-0.194c-0.003-0.074-0.005-0.149-0.005-0.223v-11.244
		c0-0.075,0.003-0.149,0.005-0.223c0.117-2.281,1.995-4.112,4.276-4.112h176.901c0.259,0,0.508,0.024,0.754,0.07
		c0.27,0.048,0.533,0.122,0.784,0.222c0.82,0.322,1.52,0.894,2.008,1.623C676.577,555.943,676.847,556.775,676.847,557.671z"/>
	<path fill="#FCBA64" d="M589.979,573.248h-94.772c-0.634,0-1.233-0.177-1.76-0.491c-1.12-0.663-1.916-1.938-2.042-3.425
		c-0.006-0.065-0.01-0.13-0.014-0.194c-0.003-0.074-0.005-0.149-0.005-0.223v-11.244c0-0.075,0.003-0.149,0.005-0.223
		c0.104-2.281,1.782-4.112,3.817-4.112h83.134c1.292,5.702,4.253,13.528,11.057,19.421
		C589.589,572.923,589.783,573.086,589.979,573.248z"/>
	<path fill="#FCBA64" d="M655.321,553.337h-2.01v19.91h2.01V553.337z"/>
	<path fill="#FCBA64" d="M648.516,553.337h-2.012v19.91h2.012V553.337z"/>
	<path fill="#FCBA64" d="M640.354,553.337h-2.011v19.91h2.011V553.337z"/>
	<path fill="#FCBA64" d="M627.844,553.337h-2.011v19.91h2.011V553.337z"/>
	<path fill="#FCBA64" d="M614.616,553.337h-2.011v19.91h2.011V553.337z"/>
	<path fill="#FCBA64" d="M594.337,553.337h-2.011v19.91h2.011V553.337z"/>
	<path fill="#FCBA64" d="M575.349,553.337h-2.01v19.91h2.01V553.337z"/>
	<path fill="#FCBA64" d="M558.394,553.337h-2.012v19.912h2.012V553.337z"/>
	<path fill="#FCBA64" d="M661.8,553.337h-2.011v19.91h2.011V553.337z"/>
	<path fill="#FCBA64" d="M666.08,553.337h-2.01v19.91h2.01V553.337z"/>
	<path fill="#FCBA64" d="M670.213,553.337h-2.012v19.91h2.012V553.337z"/>
	<path fill="#FCBA64" d="M673.323,553.405v19.773c-0.247,0.045-0.498,0.069-0.754,0.069h-1.258v-19.912h1.258
		C672.825,553.336,673.076,553.359,673.323,553.405z"/>
	<path fill="#FCBA64" d="M676.113,555.25v16.084c-0.487,0.728-1.187,1.3-2.008,1.622v-19.328
		C674.926,553.949,675.627,554.522,676.113,555.25z"/>
	<path fill="#FFD186" d="M681.085,537.759v11.245c0,0.896-0.27,1.728-0.734,2.419c-0.488,0.727-1.188,1.3-2.009,1.622
		c-0.251,0.099-0.513,0.175-0.784,0.223c-0.246,0.045-0.497,0.069-0.754,0.069H499.903c-2.279,0-4.16-1.83-4.275-4.11
		c-0.003-0.074-0.005-0.149-0.005-0.223V537.76c0-0.075,0.003-0.149,0.005-0.223c0.107-2.11,1.721-3.833,3.769-4.08
		c0.166-0.022,0.334-0.031,0.506-0.031h176.901c0.257,0,0.508,0.023,0.754,0.069c0.27,0.048,0.533,0.122,0.784,0.222
		c0.82,0.322,1.521,0.894,2.009,1.623C680.815,536.031,681.085,536.863,681.085,537.759z"/>
	<path fill="#FCBA64" d="M594.217,553.336h-94.771c-2.036,0-3.713-1.83-3.817-4.109c-0.003-0.075-0.005-0.149-0.005-0.224v-11.244
		c0-0.075,0.003-0.149,0.005-0.223c0.096-2.107,1.538-3.832,3.365-4.08c0.147-0.022,0.298-0.031,0.452-0.031h83.134
		c0.003,0.009,0.005,0.022,0.008,0.031C583.918,539.313,587.012,547.403,594.217,553.336z"/>
	<path fill="#FCBA64" d="M659.559,533.424h-2.011v19.912h2.011V533.424z"/>
	<path fill="#FCBA64" d="M652.754,533.424h-2.01v19.912h2.01V533.424z"/>
	<path fill="#FCBA64" d="M644.592,533.424h-2.011v19.912h2.011V533.424z"/>
	<path fill="#FCBA64" d="M632.082,533.424h-2.01v19.912h2.01V533.424z"/>
	<path fill="#FCBA64" d="M618.853,533.424h-2.011v19.912h2.011V533.424z"/>
	<path fill="#FCBA64" d="M598.574,533.424h-2.011v19.912h2.011V533.424z"/>
	<path fill="#FCBA64" d="M579.585,533.424h-2.011v19.912h2.011V533.424z"/>
	<path fill="#FCBA64" d="M562.631,533.426h-2.01v19.912h2.01V533.426z"/>
	<path fill="#FCBA64" d="M666.036,533.424h-2.011v19.912h2.011V533.424z"/>
	<path fill="#FCBA64" d="M670.317,533.424h-2.011v19.912h2.011V533.424z"/>
	<path fill="#FCBA64" d="M674.449,533.424h-2.01v19.912h2.01V533.424z"/>
	<path fill="#FCBA64" d="M677.559,533.493v19.773c-0.247,0.045-0.497,0.069-0.754,0.069h-1.256v-19.912h1.256
		C677.063,533.424,677.312,533.449,677.559,533.493z"/>
	<path fill="#FCBA64" d="M680.351,535.338v16.083c-0.487,0.729-1.186,1.301-2.008,1.623v-19.328
		C679.163,534.037,679.863,534.609,680.351,535.338z"/>
	<path fill="#FFD186" d="M668.079,517.878v11.244c0,0.897-0.269,1.729-0.734,2.419c-0.487,0.729-1.188,1.302-2.008,1.623
		c-0.251,0.099-0.515,0.175-0.784,0.222c-0.083,0.014-0.167,0.029-0.248,0.038c-0.045,0.005-0.092,0.01-0.14,0.014
		c-0.045,0.005-0.092,0.008-0.139,0.01c-0.076,0.004-0.153,0.006-0.227,0.006H486.898c-2.282,0-4.16-1.83-4.276-4.11
		c-0.001-0.075-0.004-0.149-0.004-0.223v-11.245c0-0.074,0.003-0.148,0.004-0.222c0.003-0.062,0.008-0.122,0.013-0.182
		c0.169-1.835,1.486-3.35,3.208-3.794c0.042-0.013,0.087-0.022,0.13-0.032c0.298-0.068,0.608-0.103,0.925-0.103h176.901
		c0.13,0,0.257,0.008,0.382,0.017c0.057,0.008,0.113,0.013,0.171,0.02h0.001c0.066,0.009,0.133,0.022,0.2,0.033
		c0.269,0.048,0.531,0.122,0.784,0.223c0.82,0.321,1.521,0.894,2.008,1.622C667.81,516.152,668.079,516.982,668.079,517.878z"/>
	<path fill="#FCBA64" d="M581.211,533.456h-94.772c-2.035,0-3.713-1.83-3.817-4.11c-0.001-0.075-0.004-0.149-0.004-0.223v-11.245
		c0-0.074,0.003-0.148,0.004-0.222c0.003-0.062,0.008-0.122,0.013-0.181c0.153-1.877,1.376-3.415,2.965-3.822
		c0.053-0.017,0.108-0.029,0.163-0.038c0.219-0.045,0.445-0.069,0.677-0.069h83.135c0.009,0.048,0.022,0.094,0.033,0.141
		c1.342,5.84,4.436,13.846,11.568,19.738C581.184,533.436,581.199,533.447,581.211,533.456z"/>
	<path fill="#FCBA64" d="M646.553,513.545h-2.01v19.912h2.01V513.545z"/>
	<path fill="#FCBA64" d="M639.748,513.545h-2.012v19.912h2.012V513.545z"/>
	<path fill="#FCBA64" d="M631.586,513.545h-2.01v19.912h2.01V513.545z"/>
	<path fill="#FCBA64" d="M619.077,513.545h-2.012v19.912h2.012V513.545z"/>
	<path fill="#FCBA64" d="M605.848,513.545h-2.011v19.912h2.011V513.545z"/>
	<path fill="#FCBA64" d="M585.567,513.545h-2.01v19.912h2.01V513.545z"/>
	<path fill="#FCBA64" d="M566.58,513.545h-2.011v19.912h2.011V513.545z"/>
	<path fill="#FCBA64" d="M549.625,513.545h-2.011v19.912h2.011V513.545z"/>
	<path fill="#FCBA64" d="M653.032,513.545h-2.012v19.912h2.012V513.545z"/>
	<path fill="#FCBA64" d="M657.311,513.545h-2.01v19.912h2.01V513.545z"/>
	<path fill="#FCBA64" d="M661.443,513.545h-2.011v19.912h2.011V513.545z"/>
	<path fill="#FCBA64" d="M664.553,513.614v19.773c-0.246,0.046-0.497,0.07-0.754,0.07h-1.256v-19.913h1.256
		C664.057,513.543,664.308,513.568,664.553,513.614z"/>
	<path fill="#FCBA64" d="M667.345,515.458v16.083c-0.488,0.729-1.188,1.301-2.009,1.623v-19.328
		C666.157,514.158,666.858,514.73,667.345,515.458z"/>
	<path fill="#FFD186" d="M667.707,498.109v11.245c0,0.896-0.269,1.726-0.733,2.419c-0.488,0.727-1.188,1.3-2.009,1.622
		c-0.196,0.079-0.403,0.141-0.61,0.187h-0.005c-0.056,0.014-0.111,0.026-0.167,0.036c-0.247,0.046-0.497,0.07-0.756,0.07H486.526
		c-0.187,0-0.373-0.013-0.554-0.038c-0.071-0.008-0.141-0.019-0.21-0.034c-1.924-0.353-3.409-2.02-3.511-4.039
		c-0.003-0.074-0.005-0.149-0.005-0.223V498.11c0-0.074,0.003-0.149,0.005-0.223c0.116-2.281,1.994-4.11,4.275-4.11h176.901
		c0.113,0,0.228,0.005,0.339,0.014c0.047,0.005,0.097,0.009,0.144,0.015c0.052,0.005,0.106,0.01,0.159,0.022
		c0.037,0.005,0.075,0.011,0.113,0.019c0.269,0.047,0.533,0.121,0.782,0.222c0.038,0.015,0.074,0.029,0.111,0.046
		c0.037,0.014,0.075,0.031,0.11,0.048c0.074,0.033,0.145,0.069,0.215,0.106c0.079,0.042,0.155,0.085,0.232,0.134
		c0.069,0.041,0.135,0.083,0.201,0.129c0.076,0.053,0.149,0.108,0.22,0.166c0.056,0.042,0.111,0.088,0.166,0.136
		c0.003,0.003,0.006,0.005,0.009,0.009c0.036,0.032,0.074,0.065,0.11,0.098c0.108,0.101,0.213,0.212,0.31,0.324
		c0.032,0.033,0.06,0.068,0.085,0.101c0.028,0.036,0.055,0.069,0.083,0.106c0.055,0.071,0.108,0.145,0.159,0.22
		C667.438,496.381,667.707,497.213,667.707,498.109z"/>
	<path fill="#FCBA64" d="M580.84,513.686h-94.773c-0.075,0-0.152-0.003-0.224-0.006c-0.083-0.006-0.164-0.014-0.245-0.027
		c-1.822-0.253-3.253-1.974-3.347-4.077c-0.003-0.074-0.005-0.149-0.005-0.223v-11.244c0-0.074,0.003-0.149,0.005-0.223
		c0.104-2.281,1.779-4.11,3.816-4.11H569.2c0.038,0.162,0.075,0.326,0.116,0.492c1.377,5.768,4.456,13.513,11.355,19.278
		C580.727,513.593,580.784,513.639,580.84,513.686z"/>
	<path fill="#FCBA64" d="M646.181,493.776h-2.01v19.912h2.01V493.776z"/>
	<path fill="#FCBA64" d="M639.376,493.776h-2.011v19.912h2.011V493.776z"/>
	<path fill="#FCBA64" d="M631.214,493.776h-2.009v19.912h2.009V493.776z"/>
	<path fill="#FCBA64" d="M618.705,493.776h-2.012v19.912h2.012V493.776z"/>
	<path fill="#FCBA64" d="M605.476,493.776h-2.01v19.912h2.01V493.776z"/>
	<path fill="#FCBA64" d="M585.195,493.776h-2.011v19.912h2.011V493.776z"/>
	<path fill="#FCBA64" d="M566.208,493.776h-2.01v19.912h2.01V493.776z"/>
	<path fill="#FCBA64" d="M549.253,493.776h-2.01v19.912h2.01V493.776z"/>
	<path fill="#FCBA64" d="M652.66,493.776h-2.01v19.912h2.01V493.776z"/>
	<path fill="#FCBA64" d="M656.939,493.776h-2.011v19.912h2.011V493.776z"/>
	<path fill="#FCBA64" d="M661.073,493.776h-2.012v19.912h2.012V493.776z"/>
	<path fill="#FCBA64" d="M664.181,493.845v19.773c-0.246,0.045-0.497,0.069-0.754,0.069h-1.256v-19.912h1.256
		C663.684,493.774,663.935,493.799,664.181,493.845z"/>
	<path fill="#FCBA64" d="M666.974,495.69v16.083c-0.488,0.728-1.189,1.301-2.009,1.622v-19.327
		C665.785,494.389,666.486,494.961,666.974,495.69z"/>
	<path fill="#FFD186" d="M676.847,478.688v11.244c0,0.897-0.27,1.728-0.734,2.421c-0.488,0.728-1.187,1.301-2.008,1.622
		c-0.251,0.099-0.515,0.175-0.784,0.222c-0.246,0.047-0.497,0.07-0.754,0.07H495.665c-0.71,0-1.381-0.177-1.972-0.492
		c-1.252-0.664-2.146-1.938-2.288-3.425c-0.006-0.066-0.01-0.13-0.014-0.195c-0.003-0.074-0.005-0.148-0.005-0.223v-11.244
		c0-0.074,0.003-0.148,0.005-0.223c0.117-2.281,1.995-4.11,4.276-4.11h176.901c0.259,0,0.508,0.024,0.754,0.069
		c0.27,0.048,0.533,0.124,0.784,0.223c0.82,0.321,1.52,0.893,2.008,1.622C676.577,476.96,676.847,477.792,676.847,478.688z"/>
	<path fill="#FCBA64" d="M589.979,494.266h-94.772c-0.634,0-1.233-0.177-1.76-0.492c-1.12-0.664-1.916-1.938-2.042-3.425
		c-0.006-0.066-0.01-0.13-0.014-0.195c-0.003-0.074-0.005-0.148-0.005-0.223v-11.244c0-0.074,0.003-0.148,0.005-0.223
		c0.104-2.281,1.782-4.11,3.817-4.11h83.134c1.292,5.702,4.253,13.527,11.057,19.421
		C589.589,493.94,589.783,494.103,589.979,494.266z"/>
	<path fill="#FCBA64" d="M655.321,474.355h-2.01v19.912h2.01V474.355z"/>
	<path fill="#FCBA64" d="M648.516,474.355h-2.012v19.912h2.012V474.355z"/>
	<path fill="#FCBA64" d="M640.354,474.355h-2.011v19.912h2.011V474.355z"/>
	<path fill="#FCBA64" d="M627.844,474.355h-2.011v19.912h2.011V474.355z"/>
	<path fill="#FCBA64" d="M614.616,474.355h-2.011v19.912h2.011V474.355z"/>
	<path fill="#FCBA64" d="M594.337,474.355h-2.011v19.912h2.011V474.355z"/>
	<path fill="#FCBA64" d="M575.349,474.355h-2.01v19.912h2.01V474.355z"/>
	<path fill="#FCBA64" d="M558.394,474.355h-2.012v19.912h2.012V474.355z"/>
	<path fill="#FCBA64" d="M661.8,474.355h-2.011v19.912h2.011V474.355z"/>
	<path fill="#FCBA64" d="M666.08,474.355h-2.01v19.912h2.01V474.355z"/>
	<path fill="#FCBA64" d="M670.213,474.355h-2.012v19.912h2.012V474.355z"/>
	<path fill="#FCBA64" d="M673.323,474.425v19.773c-0.247,0.045-0.498,0.07-0.754,0.07h-1.258v-19.913h1.258
		C672.825,474.355,673.076,474.379,673.323,474.425z"/>
	<path fill="#FCBA64" d="M676.113,476.27v16.083c-0.487,0.727-1.187,1.301-2.008,1.622v-19.327
		C674.926,474.968,675.627,475.541,676.113,476.27z"/>
	<path fill="#FFD186" d="M691.303,458.776v11.245c0,0.896-0.27,1.728-0.734,2.419c-0.488,0.728-1.187,1.301-2.009,1.622
		c-0.25,0.101-0.513,0.175-0.784,0.223c-0.246,0.045-0.497,0.069-0.754,0.069H510.121c-2.279,0-4.159-1.83-4.275-4.11
		c-0.003-0.074-0.005-0.149-0.005-0.222v-11.245c0-0.075,0.003-0.148,0.005-0.223c0.107-2.109,1.723-3.832,3.769-4.08
		c0.166-0.022,0.335-0.031,0.506-0.031h176.902c0.257,0,0.508,0.023,0.754,0.069c0.269,0.048,0.533,0.122,0.784,0.223
		c0.822,0.321,1.521,0.893,2.009,1.622C691.033,457.05,691.303,457.882,691.303,458.776z"/>
	<path fill="#FCBA64" d="M604.436,474.355h-94.772c-2.035,0-3.713-1.83-3.816-4.11c-0.003-0.074-0.005-0.149-0.005-0.222v-11.245
		c0-0.075,0.003-0.148,0.005-0.223c0.094-2.109,1.538-3.832,3.364-4.08c0.148-0.022,0.298-0.031,0.452-0.031h83.134
		c0.001,0.009,0.005,0.022,0.006,0.031C594.138,460.335,597.231,468.421,604.436,474.355z"/>
	<path fill="#FCBA64" d="M669.779,454.443h-2.01v19.912h2.01V454.443z"/>
	<path fill="#FCBA64" d="M662.974,454.443h-2.011v19.912h2.011V454.443z"/>
	<path fill="#FCBA64" d="M654.812,454.443h-2.011v19.912h2.011V454.443z"/>
	<path fill="#FCBA64" d="M642.303,454.443h-2.011v19.912h2.011V454.443z"/>
	<path fill="#FCBA64" d="M629.074,454.443h-2.011v19.912h2.011V454.443z"/>
	<path fill="#FCBA64" d="M608.794,454.443h-2.01v19.912h2.01V454.443z"/>
	<path fill="#FCBA64" d="M589.806,454.443h-2.011v19.912h2.011V454.443z"/>
	<path fill="#FCBA64" d="M572.849,454.444h-2.009v19.91h2.009V454.444z"/>
	<path fill="#FCBA64" d="M676.257,454.443h-2.011v19.912h2.011V454.443z"/>
	<path fill="#FCBA64" d="M680.537,454.443h-2.01v19.912h2.01V454.443z"/>
	<path fill="#FCBA64" d="M684.669,454.443h-2.01v19.912h2.01V454.443z"/>
	<path fill="#FCBA64" d="M687.779,454.512v19.773c-0.246,0.046-0.497,0.07-0.756,0.07h-1.256v-19.912h1.256
		C687.282,454.443,687.533,454.467,687.779,454.512z"/>
	<path fill="#FCBA64" d="M690.57,456.357v16.084c-0.488,0.729-1.188,1.301-2.009,1.622v-19.327
		C689.383,455.056,690.083,455.628,690.57,456.357z"/>
	<path fill="#FFD186" d="M668.079,438.895v11.246c0,0.894-0.269,1.726-0.734,2.418c-0.487,0.729-1.188,1.301-2.008,1.622
		c-0.251,0.101-0.515,0.176-0.784,0.223c-0.083,0.014-0.167,0.029-0.248,0.038c-0.066,0.009-0.133,0.014-0.199,0.019
		c-0.033,0.003-0.066,0.005-0.099,0.006c-0.069,0.003-0.138,0.005-0.208,0.005H486.898c-2.282,0-4.16-1.83-4.276-4.11
		c-0.001-0.074-0.004-0.149-0.004-0.222v-11.246c0-0.073,0.003-0.148,0.004-0.222c0.116-2.281,1.994-4.112,4.276-4.112h176.901
		c0.074,0,0.15,0.004,0.227,0.008c0.178,0.009,0.354,0.032,0.527,0.062c0.27,0.047,0.533,0.122,0.784,0.223
		c0.127,0.05,0.254,0.106,0.371,0.167c0.076,0.038,0.149,0.076,0.222,0.12c0.006,0.003,0.015,0.006,0.023,0.014
		c0.074,0.043,0.144,0.089,0.215,0.138c0.015,0.006,0.027,0.017,0.036,0.023c0.066,0.043,0.13,0.092,0.192,0.141
		c0.152,0.116,0.293,0.24,0.426,0.376c0.043,0.041,0.083,0.084,0.121,0.127c0.006,0.006,0.014,0.015,0.022,0.023
		c0.026,0.027,0.048,0.053,0.073,0.083c0.005,0.005,0.01,0.011,0.015,0.017c0.042,0.051,0.085,0.103,0.125,0.158
		c0.06,0.078,0.117,0.154,0.171,0.234C667.81,437.169,668.079,438.001,668.079,438.895z"/>
	<path fill="#FCBA64" d="M581.211,454.474h-94.772c-2.035,0-3.713-1.83-3.817-4.11c-0.001-0.074-0.004-0.149-0.004-0.222v-11.246
		c0-0.073,0.003-0.148,0.004-0.222c0.104-2.281,1.782-4.112,3.817-4.112h83.135c0.033,0.153,0.068,0.305,0.108,0.461
		c1.38,5.809,4.487,13.633,11.492,19.42C581.184,454.452,581.199,454.465,581.211,454.474z"/>
	<path fill="#FCBA64" d="M646.553,434.563h-2.01v19.912h2.01V434.563z"/>
	<path fill="#FCBA64" d="M639.748,434.563h-2.012v19.912h2.012V434.563z"/>
	<path fill="#FCBA64" d="M631.586,434.563h-2.01v19.912h2.01V434.563z"/>
	<path fill="#FCBA64" d="M619.077,434.563h-2.012v19.912h2.012V434.563z"/>
	<path fill="#FCBA64" d="M605.848,434.563h-2.011v19.912h2.011V434.563z"/>
	<path fill="#FCBA64" d="M585.567,434.563h-2.01v19.912h2.01V434.563z"/>
	<path fill="#FCBA64" d="M566.58,434.563h-2.011v19.912h2.011V434.563z"/>
	<path fill="#FCBA64" d="M549.625,434.563h-2.011v19.912h2.011V434.563z"/>
	<path fill="#FCBA64" d="M653.032,434.563h-2.012v19.912h2.012V434.563z"/>
	<path fill="#FCBA64" d="M657.311,434.563h-2.01v19.912h2.01V434.563z"/>
	<path fill="#FCBA64" d="M661.443,434.563h-2.011v19.912h2.011V434.563z"/>
	<path fill="#FCBA64" d="M664.553,434.632v19.773c-0.246,0.046-0.497,0.069-0.754,0.069h-1.256v-19.912h1.256
		C664.057,434.562,664.308,434.586,664.553,434.632z"/>
	<path fill="#FCBA64" d="M667.345,436.476v16.084c-0.488,0.729-1.188,1.301-2.009,1.622v-19.327
		C666.157,435.176,666.858,435.748,667.345,436.476z"/>
	<path fill="#FFD186" d="M681.085,419.445v11.245c0,0.896-0.27,1.728-0.734,2.419c-0.488,0.729-1.188,1.3-2.009,1.622
		c-0.251,0.101-0.513,0.176-0.784,0.222c-0.246,0.046-0.497,0.07-0.754,0.07H499.903c-0.685,0-1.337-0.164-1.911-0.46
		c-1.291-0.654-2.212-1.954-2.352-3.473c-0.005-0.057-0.009-0.117-0.011-0.177c-0.003-0.074-0.005-0.148-0.005-0.223v-11.244
		c0-0.074,0.003-0.149,0.005-0.223c0.107-2.11,1.723-3.832,3.769-4.08c0.166-0.022,0.335-0.032,0.507-0.032h176.901
		c0.257,0,0.507,0.024,0.754,0.07c0.269,0.048,0.533,0.122,0.784,0.223c0.82,0.321,1.52,0.893,2.008,1.621
		C680.815,417.719,681.085,418.549,681.085,419.445z"/>
	<path fill="#FCBA64" d="M594.217,435.022h-94.771c-0.614,0-1.193-0.164-1.706-0.46c-1.153-0.654-1.974-1.954-2.1-3.473
		c-0.005-0.057-0.009-0.117-0.011-0.177c-0.003-0.074-0.005-0.149-0.005-0.223v-11.244c0-0.074,0.003-0.149,0.005-0.223
		c0.096-2.107,1.538-3.832,3.365-4.08c0.147-0.022,0.298-0.032,0.452-0.032h83.134c0.003,0.01,0.005,0.022,0.008,0.032
		c1.296,5.708,4.27,13.533,11.086,19.42C593.85,434.719,594.033,434.872,594.217,435.022z"/>
	<path fill="#FCBA64" d="M659.559,415.112h-2.011v19.912h2.011V415.112z"/>
	<path fill="#FCBA64" d="M652.754,415.112h-2.01v19.912h2.01V415.112z"/>
	<path fill="#FCBA64" d="M644.592,415.112h-2.011v19.912h2.011V415.112z"/>
	<path fill="#FCBA64" d="M632.082,415.112h-2.01v19.912h2.01V415.112z"/>
	<path fill="#FCBA64" d="M618.853,415.112h-2.011v19.912h2.011V415.112z"/>
	<path fill="#FCBA64" d="M598.574,415.112h-2.011v19.912h2.011V415.112z"/>
	<path fill="#FCBA64" d="M579.585,415.112h-2.011v19.912h2.011V415.112z"/>
	<path fill="#FCBA64" d="M562.631,415.112h-2.01v19.912h2.01V415.112z"/>
	<path fill="#FCBA64" d="M666.036,415.112h-2.011v19.912h2.011V415.112z"/>
	<path fill="#FCBA64" d="M670.317,415.112h-2.011v19.912h2.011V415.112z"/>
	<path fill="#FCBA64" d="M674.449,415.112h-2.01v19.912h2.01V415.112z"/>
	<path fill="#FCBA64" d="M677.559,415.181v19.773c-0.247,0.046-0.497,0.07-0.754,0.07h-1.256v-19.912h1.256
		C677.063,415.11,677.312,415.135,677.559,415.181z"/>
	<path fill="#FCBA64" d="M680.351,417.025v16.083c-0.487,0.729-1.186,1.302-2.008,1.623v-19.329
		C679.163,415.723,679.863,416.297,680.351,417.025z"/>
	<path fill="#FFD186" d="M668.08,399.565v11.244c0,0.897-0.269,1.728-0.734,2.419c-0.487,0.729-1.187,1.301-2.008,1.622
		c-0.251,0.101-0.515,0.175-0.784,0.223c-0.083,0.014-0.167,0.029-0.248,0.038c-0.045,0.005-0.092,0.01-0.139,0.015
		c-0.046,0.005-0.093,0.006-0.14,0.009c-0.075,0.005-0.152,0.006-0.227,0.006H486.9c-2.282,0-4.159-1.83-4.276-4.11
		c-0.001-0.074-0.004-0.149-0.004-0.223v-11.244c0-0.075,0.003-0.149,0.004-0.223c0.117-2.281,1.994-4.112,4.276-4.112H663.8
		c0.257,0,0.508,0.024,0.754,0.07c0.269,0.048,0.531,0.122,0.784,0.222c0.82,0.322,1.521,0.894,2.008,1.622
		C667.811,397.837,668.08,398.668,668.08,399.565z"/>
	<path fill="#FCBA64" d="M581.211,415.142h-94.772c-2.035,0-3.713-1.83-3.817-4.11c-0.001-0.075-0.004-0.149-0.004-0.223v-11.244
		c0-0.075,0.003-0.149,0.004-0.223c0.104-2.281,1.782-4.112,3.817-4.112h83.135c1.324,5.853,4.41,13.94,11.601,19.88
		C581.184,415.121,581.199,415.132,581.211,415.142z"/>
	<path fill="#FCBA64" d="M646.553,395.231h-2.01v19.912h2.01V395.231z"/>
	<path fill="#FCBA64" d="M639.748,395.231h-2.012v19.912h2.012V395.231z"/>
	<path fill="#FCBA64" d="M631.586,395.231h-2.01v19.912h2.01V395.231z"/>
	<path fill="#FCBA64" d="M619.077,395.231h-2.012v19.912h2.012V395.231z"/>
	<path fill="#FCBA64" d="M605.848,395.231h-2.011v19.912h2.011V395.231z"/>
	<path fill="#FCBA64" d="M585.567,395.231h-2.01v19.912h2.01V395.231z"/>
	<path fill="#FCBA64" d="M566.58,395.231h-2.012v19.912h2.012V395.231z"/>
	<path fill="#FCBA64" d="M549.625,395.231h-2.011v19.912h2.011V395.231z"/>
	<path fill="#FCBA64" d="M653.032,395.231h-2.012v19.912h2.012V395.231z"/>
	<path fill="#FCBA64" d="M657.311,395.231h-2.01v19.912h2.01V395.231z"/>
	<path fill="#FCBA64" d="M661.445,395.231h-2.012v19.912h2.012V395.231z"/>
	<path fill="#FCBA64" d="M664.553,395.299v19.773c-0.246,0.046-0.497,0.07-0.754,0.07h-1.256v-19.912h1.256
		C664.057,395.231,664.308,395.255,664.553,395.299z"/>
	<path fill="#FCBA64" d="M667.345,397.144v16.083c-0.488,0.729-1.188,1.301-2.009,1.622v-19.327
		C666.157,395.844,666.858,396.417,667.345,397.144z"/>
	<path fill="#FFD345" d="M506.131,606.727c57.909,0,104.854-47.53,104.854-106.162s-46.945-106.16-104.854-106.16
		c-57.91,0-104.854,47.529-104.854,106.16S448.221,606.727,506.131,606.727z"/>
	<path fill="#FFE68D" d="M609.623,517.599l-81.882-17.622l81.169-20.49c-0.645-3.239-1.446-6.421-2.375-9.548l-81.145,20.485
		l63.994-54.368c-1.975-2.608-4.062-5.123-6.262-7.532l-63.983,54.358l33.96-77.226c-2.89-1.469-5.853-2.802-8.887-3.999
		l-33.22,75.543v-82.67c-1.613-0.075-3.231-0.125-4.862-0.125c-1.631,0-3.25,0.05-4.863,0.125v84.507l-36.606-75.988
		c-2.988,1.303-5.908,2.735-8.744,4.306l36.61,75.999l-65.814-52.062c-2.116,2.486-4.119,5.068-6.004,7.745l65.831,52.074
		l-81.816-17.607c-0.818,3.155-1.486,6.369-2.018,9.631l81.811,17.607l-81.238,20.507c0.632,3.244,1.418,6.428,2.335,9.557
		l81.254-20.51l-64.188,54.531c1.967,2.614,4.047,5.137,6.239,7.553l64.199-54.543l-34.108,77.563
		c2.886,1.473,5.847,2.812,8.879,4.015l33.375-75.895v83.084c1.613,0.074,3.231,0.125,4.862,0.125c1.631,0,3.25-0.05,4.863-0.125
		V521.68l36.769,76.329c2.985-1.31,5.903-2.748,8.737-4.322l-36.767-76.322l66.026,52.228c2.109-2.491,4.101-5.081,5.979-7.764
		l-66.019-52.221l81.924,17.63C608.451,524.081,609.103,520.863,609.623,517.599z"/>
	<path fill="#FF9F4C" d="M506.131,589.882c48.72,0,88.216-39.989,88.216-89.317s-39.496-89.316-88.216-89.316
		c-48.721,0-88.217,39.988-88.217,89.316S457.409,589.882,506.131,589.882z"/>
	<path fill="#FFBA49" d="M506.131,584.257c45.652,0,82.661-37.47,82.661-83.692c0-46.22-37.009-83.69-82.661-83.69
		s-82.661,37.47-82.661,83.69C423.47,546.787,460.479,584.257,506.131,584.257z"/>
	<path fill="#FFF2D2" d="M551.699,508.321c-1.156-7.753-5.615-12.425-13.047-14.339c-0.85-0.219-1.836-0.033-2.585-0.845
		c0.161-0.206,0.284-0.469,0.488-0.614c4.65-3.288,6.554-7.873,6.571-13.53c0.024-8.652-4.823-15.262-13-17.617
		c-4.182-1.205-8.432-1.625-12.742-1.582c-1.591,0.015-2.337-0.389-2.406-2.203c-0.163-4.272-0.623-8.531-0.838-12.801
		c-0.026-0.515-0.111-0.907-0.237-1.241l-10.297,0.763c0.001,0.121-0.014,0.218,0,0.358c0.451,4.462,0.745,8.94,1.19,13.404
		c0.124,1.245-0.191,1.853-1.451,1.966c-1.585,0.141-3.178,0.289-4.743,0.57c-1.682,0.303-2.142-0.346-2.211-2.008
		c-0.176-4.341-0.582-8.67-0.831-13.01c-0.015-0.268-0.059-0.479-0.113-0.675l-9.846,0.729c-0.061,0.271-0.082,0.591-0.046,0.982
		c0.364,4.047,0.6,8.105,0.936,12.154c0.256,3.073,0.164,3.235-2.761,3.536c-0.276,0.028-0.554,0.034-0.831,0.057
		c-4.964,0.415-9.928,0.84-14.893,1.245c-0.094,0.008-0.181,0.017-0.27,0.026l1.082,11.253c1.816-0.2,3.64-0.353,5.463-0.474
		c3.434-0.226,5.384,1.287,5.902,4.768c0.35,2.356,0.443,4.75,0.655,7.126c1.14,12.786,2.295,25.569,3.418,38.354
		c0.246,2.802-0.903,4.171-3.689,4.49c-1.511,0.173-3.029,0.328-4.546,0.413c-0.163,2.427-0.535,7.847-0.915,12.733
		c5.331-0.443,10.691-0.513,16.003-1.208c1.525-0.199,1.986,0.33,2.06,1.921c0.21,4.524,0.661,9.035,0.981,13.555l10.534-0.601
		c-0.005-0.073,0.006-0.119-0.001-0.195c-0.433-4.254-0.631-8.531-1.007-12.792c-0.139-1.58,0.152-2.534,1.976-2.553
		c1.377-0.014,2.767-0.191,4.126-0.445c1.599-0.299,2.222,0.213,2.306,1.905c0.219,4.41,0.623,8.808,0.897,13.215
		c0.009,0.15,0.041,0.257,0.059,0.39l10.617-0.605c-0.001-0.014,0.003-0.019,0.001-0.033c-0.385-4.392-0.487-8.808-0.873-13.201
		c-0.172-1.954,0.497-2.72,2.365-3.002c4.399-0.665,8.688-1.84,12.801-3.567c6.141-2.579,11.036-6.525,13.056-13.232
		C552.342,517.438,552.378,512.88,551.699,508.321z M500.669,494.398c-0.488-6.067-1.031-12.131-1.593-18.19
		c-0.108-1.18,0.092-1.672,1.472-1.767c5.588-0.387,11.185-1.105,16.677,0.586c6.908,2.128,9.363,10.087,4.613,14.884
		c-1.846,1.864-4.15,3-6.094,3.523c-4.808,1.619-9.23,1.898-13.647,2.207C501.163,495.704,500.752,495.431,500.669,494.398z
		 M526.497,524.378c-1.389,0.805-2.816,1.51-4.041,1.844c-5.939,2.088-11.833,2.384-17.674,3.02
		c-0.99,0.108-1.381-0.361-1.466-1.293c-0.613-6.763-1.232-13.525-1.869-20.284c-0.083-0.875-0.032-1.431,1.08-1.531
		c5.925-0.53,11.834-1.345,17.799-0.559c2.005,0.264,3.925,0.759,5.77,1.632c3.56,1.684,5.419,4.518,5.512,8.438
		C531.701,519.575,529.833,522.44,526.497,524.378z"/>
	<path fill="#2C2C2C" d="M597.484,391.913l61.292-0.074c7.977-0.009,14.495-6.624,14.487-14.701l-0.031-26.891
		c-0.009-8.077-6.544-14.678-14.521-14.667l-61.29,0.073c-7.977,0.009-14.495,6.624-14.487,14.701l0.031,26.892
		C582.973,385.321,589.508,391.922,597.484,391.913z"/>
	<path fill="#3A3A5B" d="M663.217,342.585l-0.001-0.004c-2.293-4.03-6.416-6.876-11.198-7.352l-0.004,0.001
		c-0.004,0.001-0.008,0.001-0.011-0.001c-0.469-0.046-0.942-0.071-1.424-0.071l-12.205,0.018l-0.008-5.803
		c0-1.294-0.501-2.515-1.412-3.435c-0.91-0.917-2.119-1.424-3.397-1.422l-3.184,0.003l-12.814,0.015l-2.311,0.003
		c-2.645,0.005-4.802,2.186-4.797,4.868l0.008,5.803l-21.066,0.023c-8.005,0.01-14.548,6.65-14.541,14.755l0.034,27.204
		c0.009,8.106,6.567,14.73,14.573,14.721l61.181-0.07c1.079,0,2.13-0.124,3.141-0.355h0.005c0.003,0,0.003,0,0.006,0
		c1.623-0.364,3.142-1.009,4.51-1.878c4.128-2.611,6.884-7.259,6.88-12.526l-0.031-27.202
		C665.147,347.228,664.444,344.739,663.217,342.585z M613.463,329.402c0-0.813,0.53-1.503,1.259-1.734
		c0.171-0.053,0.347-0.083,0.534-0.084l2.72-0.005l10.086-0.009l5.499-0.006c0.989-0.001,1.793,0.813,1.795,1.812l0.008,5.802
		l-21.893,0.023L613.463,329.402z"/>
</g>
<path fill="#FFCCBE" d="M322.859,120.863l0.02,3.731c0,0-1.004,11.669,13.189,13.373c14.191,1.708,25.83,1.484,25.445-7.52
	c-1.278-6.972-3.568-17.795-3.663-23.563c-0.036-2.143,0.109-4.418,0.505-6.987l-27.5-0.555l-8.1,1.34L322.859,120.863z"/>
<path fill="#E98C94" d="M322.755,100.68l0.104,20.182c2.922,1.375,6.218,2.214,9.912,2.214c12.639,0,20.809-9.384,25.079-16.194
	c-0.036-2.143,0.109-4.418,0.505-6.987l-27.5-0.555L322.755,100.68z"/>
<path fill="#FFCCBE" d="M360.461,95.416c-3.19,17.386-25.347,16.816-34.922,15.722c-2.695-0.303-4.39-0.651-4.39-0.651
	c-3.039-0.822-4.733-5.667-5.521-12.014c-1.563-12.561,0.411-30.999,2.507-35.714c3.154-7.096,9.096-14.771,31.408-9.234
	C371.859,59.065,364.555,73.14,360.461,95.416z"/>
<path fill="#2C2C2C" d="M378.591,610.157h-31.397c0.234-1.667,1.034-6.738,2.504-11.41c0.509-1.627,1.103-3.207,1.779-4.58
	c3.054-6.171,22.448-2.246,22.448-2.246s1.801,1.563,3.208,7.531C377.757,602.082,378.306,605.572,378.591,610.157z"/>
<path fill="#2C2C2C" d="M283.712,600.125c-0.085,4.325-0.623,8.417-2.173,10.033h-62.103c0.789-2.276,3.025-5.696,9.401-6.744
	c7.245-1.188,18.538-4.718,25.131-11.776c2.349-2.506,4.099-5.464,4.865-8.921c2.923-13.171,24.158,4.035,24.158,4.035
	S283.85,593.687,283.712,600.125z"/>
<path fill="#3A3A5B" d="M325.018,457.754c-0.864,4.824-1.413,8.779-1.558,11.616c-1.976,38.989-32.416,128.138-37.861,130.216
	c-8.426,3.22-21.693-3.623-28.634-5.862c-2.876-0.93-4.818-3.867-4.178-6.847c15.076-70.17,20.617-171.21,22.632-231.031
	c1.019-30.131,6.127-50.945,6.127-50.945s74.247-20.056,74.687,5.315C356.625,332.667,331.641,420.717,325.018,457.754z"/>
<path fill="#2C2C2C" d="M325.018,457.754L275.42,355.846c1.019-30.131,6.127-50.945,6.127-50.945s74.247-20.056,74.687,5.315
	C356.625,332.667,331.641,420.717,325.018,457.754z"/>
<path fill="#3A3A5B" d="M308.5,310.305l39.25,288.018c0,0,17.237,4.208,30.642,0.841c0,0,11.49-153.18,10.533-190.213
	c-0.958-37.033,8.247-99.093-2.101-105.937C376.476,296.169,308.5,310.305,308.5,310.305z"/>
<path fill="#2C2C2C" d="M311.286,46.208c0,0,9.821-0.765,21.406-5.865c9.402-4.139,21.265,0.419,25.115,2.473
	c-0.103-0.629-0.352-1.487-0.94-2.346c0,0,1.729,1.241,1.984,2.976c0.178,0.132,0.257,0.225,0.212,0.255c0,0,1.96-0.363,3.219,0.211
	c0,0-0.881-0.127-1.196,0.445c-0.033,0.062-0.082,0.112-0.141,0.159c14.666,7.175,16.021,30.643,11.302,36.073
	c-5.679,6.534-12.488,21.247-12.488,21.247s-2.482-3.476-1.45-9.226c1.032-5.75-3.873-5.75-10.067-8.363
	c-6.194-2.612-1.031-9.93-6.452-14.372c-5.421-4.443-25.295-1.829-25.037-5.227C309.375,61.929,311.286,46.973,311.286,46.208z"/>
<path fill="#ECF1F9" d="M364.86,135.45l-9.037,196.313c0,0-75.423,1.247-73.269-16.033c2.153-17.281,27.186-174.268,27.186-174.268
	L364.86,135.45z"/>
<path fill="#80B4FF" d="M391.788,246.725c-4.488,13.628,3.973,59.361,6.989,74.854c0.662,3.276,1.103,5.213,1.103,5.213
	c-10.446,17.203-48.699,16.982-48.699,16.982c-7.357-32.922-11.182-85.355-11.182-85.355l29.352-130.27l36.93,34.561
	c0,0-2.795,21.079-6.253,42.528C397.305,222.22,394.215,239.499,391.788,246.725z"/>
<path fill="#ECF1F9" d="M329.02,98.275c0,0-0.716,2.243-6.307,1.424c0,0-4.692-0.687-4.345-3.188
	C318.368,96.511,323.086,95.103,329.02,98.275z"/>
<path fill="#80B4FF" d="M286.628,138.249c0,0-0.007,0.033-0.017,0.081c-1.785,1.751-52.133,51.245-61.887,70.632
	c-9.931,19.665,45.389,58.84,45.389,58.84s3.56,1.424,6.03,0.867c-2.608,21.744-5.536,41.805-3.801,50.369
	c3.135,15.477,17.275,20.674,17.275,19.484c0-0.379,3.644-56.435,7.981-85.392c9.626-64.269,21.107-124.583,21.107-124.583
	C302.239,130.278,286.628,138.249,286.628,138.249z M256.65,217.454c-0.074-0.077-0.074-0.226-0.074-0.298
	c0-2.831,10.667-9.089,22.217-16.46c0.147-0.149,0.221-0.227,0.221-0.227c0.008-0.004,0.015-0.009,0.022-0.014
	c-0.205,6.024-0.182,11.935,0.171,17.437c0.656,10.205-0.078,22.4-1.297,34.819C272.412,244.017,257.725,220.656,256.65,217.454z"/>
<path fill="#CED1EC" d="M366.997,127.914c0.091-1.873-8.673-4.462-8.673-4.462s-10.032,14.083-26.56,14.326
	c0,0,4.71,9.28,10.262,11.683C342.026,149.462,366.452,139.041,366.997,127.914z"/>
<path fill="#FF4D67" d="M308.553,270.46c0.405,4.585,2.482,8.856,5.829,11.976l5.259,4.906c1.32,1.231,3.397,1.061,4.507-0.367
	l6.515-8.376c1.747-2.247,2.569-5.089,2.301-7.934c-0.609-6.338-1.745-18.55-2.654-30.337c-0.739-9.55-1.333-18.829-1.377-24.472
	c-0.143-18.021,3.389-75.488,3.389-75.488l-4.267,0.226c0,0-10.598,22.307-16.147,52.658c-1.369,7.472-2.425,15.426-2.949,23.661
	C308.957,216.912,306.733,249.735,308.553,270.46z"/>
<path fill="#FF2948" d="M308.553,270.46c0.405,4.585,2.482,8.856,5.829,11.976l5.259,4.906c1.32,1.231,3.397,1.061,4.507-0.367
	l6.515-8.376c1.747-2.247,2.569-5.089,2.301-7.934c-0.609-6.338-1.745-18.55-2.654-30.337
	c-11.792-13.413-16.57-31.949-18.403-47.077c-1.369,7.472-2.425,15.426-2.949,23.661
	C308.957,216.912,306.733,249.735,308.553,270.46z"/>
<path fill="#CED1EC" d="M331.765,137.449c0,0-8.756-5.255-8.786-10.952c0,0-5.655-0.717-8.125,2.059c0,0-2.076,9.763,0.678,15.435
	C315.532,143.992,328.141,142.047,331.765,137.449z"/>
<path fill="#FF2948" d="M337.708,136.603l-11.873-2.881c0,0-1.55,0.136-1.507,2.095c0.043,1.958,3.343,7.679,4.806,8.137
	C330.596,144.411,340.518,140.566,337.708,136.603z"/>
<path fill="#ECF1F9" d="M365.615,126.947c0.091-1.874-5.841-5.734-5.841-5.734s-11.481,13.587-28.009,13.831
	c0,0,4.71,9.28,10.261,11.683C342.026,146.727,365.069,138.073,365.615,126.947z"/>
<path fill="#ECF1F9" d="M331.765,135.044c0,0-8.855-4.753-8.885-10.451c0,0-5.345,2.382-7.816,5.157c0,0-2.286,6.164,0.468,11.836
	C315.532,141.587,328.141,139.641,331.765,135.044z"/>
<path fill="#FFCCBE" d="M266.585,270.989c0-5.002,4.347-9.02,9.233-8.269c1.357,0.208,2.582,0.775,3.428,1.917
	c3.363,4.531,6.562,17.717,0.604,18.333c-2.426,0.251-5.541-1.472-7.94-3.317c-2.439-1.876-5.325-4.813-5.325-7.913V270.989z"/>
<path fill="#7398E6" d="M398.777,321.579c-10.814-11.397-29.5-33.815-28.837-52.214c0.882-25.77,30.088-64.127,30.088-64.127
	c-2.722,16.983-5.811,34.262-8.239,41.487C387.3,260.353,395.761,306.086,398.777,321.579z"/>
<path fill="#FFCCBE" d="M398.438,276.753c0,0-7.775,3.935-12.495,1.968c-4.719-1.968-10.272-3.445-15.547,2.634
	c-5.276,6.081-6.386,10.297-5.276,12.545c1.111,2.25,13.409,1.406,15.45,0c2.041-1.405,5.269-4.865,7.316-4.262
	c5.649,1.663,10.407-2.701,13.07-6.176C402.563,281.365,398.228,280.349,398.438,276.753z"/>
<path fill="#80B4FF" d="M369.35,128.149c0,0,30.964,3.47,38.266,17.123c7.302,13.652,45.272,68.98,44.029,91.972
	c-1.242,22.994-51.796,48.777-51.796,48.777s-11.197-4.791-11.365-9.944c-0.168-5.154,34.95-35.958,32.821-41.707
	c-2.129-5.749-40.797-51.213-44.528-66.205C373.047,153.175,369.35,128.149,369.35,128.149z"/>
<path fill="#7398E6" d="M279.014,200.469c0,0-0.074,0.077-0.221,0.227c-11.55,7.371-22.217,13.629-22.217,16.46
	c-1.545-4.991,13.462-25.847,18.318-30.091C279.823,182.744,279.014,200.469,279.014,200.469z"/>
<path fill="#7398E6" d="M359.774,121.214c0,0-23.506,99.681-19.765,137.231c0,0,8.643-40.127,29.44-72.994
	c0,0-7.589-6.758-7.178-9.25c0,0,5.634-1.692,11.1-0.553c0,0-0.604-42.968-4.013-47.508
	C365.951,123.602,359.774,121.214,359.774,121.214z"/>
<path fill="#7398E6" d="M322.879,124.593c0.319,0.151-23.295,97.407-25.282,128.536c0,0,2.356-55.55,2.125-71.561
	c0,0,9.763-5.232,9.763-7.068c0-1.836-10.415-6.801-10.415-6.801s6.595-34.21,10.195-37.979
	C312.862,125.951,322.879,124.593,322.879,124.593z"/>
<g>
	<g>
		<path fill="#F8DCAC" stroke="#FFBA49" stroke-width="5" stroke-miterlimit="10" d="M626.39,122.211
			c-38.2-9.824-48.937-30.253-48.937-30.253h-4.412h-35.257h-13.994c0,0-10.737,20.429-48.936,30.253
			c0,0-25.318,101.919,72.26,163.554h7.018C651.708,224.13,626.39,122.211,626.39,122.211z"/>
		<path fill="none" stroke="#FFBA49" stroke-width="7" d="M528.885,112.284c0.423-0.548,0.781-1.039,1.078-1.468h9.859h29.662h1.798
			c0.297,0.428,0.655,0.92,1.078,1.468c1.487,1.917,3.785,4.501,7.118,7.332c6.395,5.431,16.535,11.717,31.929,15.983
			c0.086,0.45,0.183,0.974,0.286,1.568c0.405,2.354,0.903,5.801,1.251,10.11c0.696,8.624,0.79,20.656-1.615,34.261
			c-4.764,26.939-19.328,60.121-58.767,85.37h-3.879c-39.439-25.249-54.004-58.431-58.767-85.37
			c-2.406-13.604-2.311-25.637-1.615-34.261c0.348-4.309,0.845-7.756,1.251-10.11c0.102-0.594,0.199-1.118,0.286-1.568
			c15.395-4.266,25.535-10.552,31.929-15.983C525.101,116.784,527.399,114.2,528.885,112.284z"/>
		<path fill="#FEEED4" d="M609.209,137.323c-29.536-7.596-37.84-23.392-37.84-23.392h-3.411h-27.263h-10.821
			c0,0-8.303,15.796-37.84,23.392c0,0-19.577,78.809,55.874,126.468h5.427C628.787,216.133,609.209,137.323,609.209,137.323z"/>
		<path opacity="0.5" fill="#F8DCAC" enable-background="new    " d="M550.623,232.656c28.058,0,50.803-23.029,50.803-51.437
			c0-28.408-22.745-51.436-50.803-51.436c-28.058,0-50.803,23.029-50.803,51.436C499.819,209.627,522.564,232.656,550.623,232.656z"
			/>
		<path fill="none" stroke="#FFBA49" stroke-width="3" stroke-miterlimit="10" d="M550.623,224.546
			c23.635,0,42.793-19.398,42.793-43.327c0-23.928-19.159-43.326-42.793-43.326c-23.634,0-42.793,19.398-42.793,43.326
			C507.829,205.148,526.988,224.546,550.623,224.546z"/>
	</g>
	<path fill="#FFBA49" d="M529.842,184.004l18.42,11.488l23.432-40.764l4.208,2.871l-24.325,50.111l-26.235-14.6L529.842,184.004z"/>
</g>
</svg>
