<?xml version="1.0" encoding="utf-8"?>
<!-- Generator: Adobe Illustrator 17.0.0, SVG Export Plug-In . SVG Version: 6.00 Build 0)  -->
<!DOCTYPE svg PUBLIC "-//W3C//DTD SVG 1.1//EN" "http://www.w3.org/Graphics/SVG/1.1/DTD/svg11.dtd">
<svg version="1.1" id="Layer_1" xmlns="http://www.w3.org/2000/svg" xmlns:xlink="http://www.w3.org/1999/xlink" x="0px" y="0px"
	 width="638px" height="560px" viewBox="0 0 638 560" enable-background="new 0 0 638 560" xml:space="preserve">
<polygon opacity="0.2" fill="#227C9D" points="200.753,427.731 152.256,455.012 164.36,461.652 164.36,461.653 128.676,517.387 
	82.751,491.307 -49.087,650.613 -47.701,650.364 -8.595,642.72 88.915,524.895 137.332,552.389 187.35,474.266 187.351,474.265 
	200.415,481.432 "/>
<linearGradient id="SVGID_1_" gradientUnits="userSpaceOnUse" x1="472.5676" y1="258.1029" x2="523.1247" y2="258.1029">
	<stop  offset="0.0955" style="stop-color:#BA1E12"/>
	<stop  offset="0.2882" style="stop-color:#BF2418"/>
	<stop  offset="0.5469" style="stop-color:#CC3529"/>
	<stop  offset="0.8418" style="stop-color:#E25045"/>
	<stop  offset="0.9833" style="stop-color:#EE6055"/>
</linearGradient>
<polygon fill="none" stroke="url(#SVGID_1_)" stroke-width="0.2" stroke-miterlimit="10" points="523.022,280 513.311,274.675 
	515.706,273.327 515.706,273.327 508.485,262.312 499.401,267.601 472.82,236.179 473.097,236.226 480.896,237.663 500.555,260.903 
	510.132,255.327 520.254,270.768 520.254,270.768 522.839,269.313 "/>
<polygon fill="none" stroke="#727272" stroke-width="0.1" stroke-miterlimit="10" points="400.484,167.04 397.798,174.234 
	396.635,172.725 396.635,172.725 389.796,178.779 394.331,184.485 375.419,205.856 375.423,205.662 375.632,200.167 389.619,184.36 
	384.839,178.344 394.425,169.859 394.425,169.859 393.169,168.23 "/>
<g>
	<g>
		<g enable-background="new    ">
			<g>
				<polygon fill="#FFFFFF" stroke="#000000" stroke-width="0.1" stroke-miterlimit="10" points="595.444,442.517 595.401,457.489 
					589.3,461.036 589.341,446.062 				"/>
			</g>
			<g>
				<polygon fill="#FFFFFF" stroke="#000000" stroke-width="0.1" stroke-miterlimit="10" points="589.341,446.062 589.3,461.036 
					583.156,457.489 583.198,442.515 				"/>
			</g>
			<g>
				<polygon fill="#FFFFFF" stroke="#000000" stroke-width="0.1" stroke-miterlimit="10" points="595.444,442.517 589.341,446.062 
					583.198,442.515 589.3,438.969 				"/>
			</g>
		</g>
	</g>
	<g>
		<g enable-background="new    ">
			<g>
				<polygon fill="#FFFFFF" stroke="#000000" stroke-width="0.1" stroke-miterlimit="10" points="587.432,451.346 587.403,462.042 
					581.301,465.588 581.331,454.893 				"/>
			</g>
			<g>
				<polygon fill="#FFFFFF" stroke="#000000" stroke-width="0.1" stroke-miterlimit="10" points="581.331,454.893 581.301,465.588 
					575.159,462.042 575.189,451.346 				"/>
			</g>
			<g>
				<polygon fill="#FFFFFF" stroke="#000000" stroke-width="0.1" stroke-miterlimit="10" points="587.432,451.346 581.331,454.893 
					575.189,451.346 581.291,447.8 				"/>
			</g>
		</g>
	</g>
	<g>
		<g enable-background="new    ">
			<g>
				<polygon fill="#FFFFFF" stroke="#000000" stroke-width="0.1" stroke-miterlimit="10" points="579.294,460.051 579.275,466.468 
					573.173,470.014 573.192,463.597 				"/>
			</g>
			<g>
				<polygon fill="#FFFFFF" stroke="#000000" stroke-width="0.1" stroke-miterlimit="10" points="573.192,463.597 573.173,470.014 
					567.03,466.467 567.048,460.049 				"/>
			</g>
			<g>
				<g>
					<polygon fill="#FFFFFF" stroke="#000000" stroke-width="0.1" stroke-miterlimit="10" points="579.294,460.051 573.192,463.597 
						567.048,460.049 573.15,456.504 					"/>
				</g>
			</g>
		</g>
	</g>
	<g>
		<g enable-background="new    ">
			<g>
				<polygon fill="#FFFFFF" stroke="#000000" stroke-width="0.1" stroke-miterlimit="10" points="571.287,467.025 571.274,471.303 
					565.172,474.849 565.184,470.57 				"/>
			</g>
			<g>
				<polygon fill="#FFFFFF" stroke="#000000" stroke-width="0.1" stroke-miterlimit="10" points="565.184,470.57 565.172,474.849 
					559.029,471.301 559.041,467.024 				"/>
			</g>
			<g>
				<polygon fill="#FFFFFF" stroke="#000000" stroke-width="0.1" stroke-miterlimit="10" points="571.287,467.025 565.184,470.57 
					559.041,467.024 565.143,463.477 				"/>
			</g>
		</g>
	</g>
</g>
<g>
	<g>
		<g enable-background="new    ">
			<g>
				<linearGradient id="SVGID_2_" gradientUnits="userSpaceOnUse" x1="160.5572" y1="174.056" x2="150.8753" y2="150.8194">
					<stop  offset="0.0955" style="stop-color:#BA1E12"/>
					<stop  offset="0.2882" style="stop-color:#BF2418"/>
					<stop  offset="0.5469" style="stop-color:#CC3529"/>
					<stop  offset="0.8418" style="stop-color:#E25045"/>
					<stop  offset="0.9833" style="stop-color:#EE6055"/>
				</linearGradient>
				<polygon fill="#FFFFFF" stroke="url(#SVGID_2_)" stroke-width="0.1" stroke-miterlimit="10" points="157.211,148.263 
					161.823,169.646 154.221,176.613 149.607,155.228 				"/>
			</g>
			<g>
				<linearGradient id="SVGID_3_" gradientUnits="userSpaceOnUse" x1="152.4386" y1="177.4576" x2="141.5139" y2="151.2383">
					<stop  offset="0.0955" style="stop-color:#BA1E12"/>
					<stop  offset="0.2882" style="stop-color:#BF2418"/>
					<stop  offset="0.5469" style="stop-color:#CC3529"/>
					<stop  offset="0.8418" style="stop-color:#E25045"/>
					<stop  offset="0.9833" style="stop-color:#EE6055"/>
				</linearGradient>
				<polygon fill="#FFFFFF" stroke="url(#SVGID_3_)" stroke-width="0.1" stroke-miterlimit="10" points="149.607,155.228 
					154.221,176.613 144.345,173.468 139.732,152.083 				"/>
			</g>
			<g>
				<linearGradient id="SVGID_4_" gradientUnits="userSpaceOnUse" x1="150.4559" y1="154.9357" x2="146.4863" y2="145.4085">
					<stop  offset="0.0955" style="stop-color:#BA1E12"/>
					<stop  offset="0.2882" style="stop-color:#BF2418"/>
					<stop  offset="0.5469" style="stop-color:#CC3529"/>
					<stop  offset="0.8418" style="stop-color:#E25045"/>
					<stop  offset="0.9833" style="stop-color:#EE6055"/>
				</linearGradient>
				<polygon fill="#FFFFFF" stroke="url(#SVGID_4_)" stroke-width="0.1" stroke-miterlimit="10" points="157.211,148.263 
					149.607,155.228 139.732,152.083 147.334,145.117 				"/>
			</g>
		</g>
	</g>
	<g>
		<g enable-background="new    ">
			<g>
				<linearGradient id="SVGID_5_" gradientUnits="userSpaceOnUse" x1="150.0373" y1="183.267" x2="142.7195" y2="165.7043">
					<stop  offset="0.0955" style="stop-color:#BA1E12"/>
					<stop  offset="0.2882" style="stop-color:#BF2418"/>
					<stop  offset="0.5469" style="stop-color:#CC3529"/>
					<stop  offset="0.8418" style="stop-color:#E25045"/>
					<stop  offset="0.9833" style="stop-color:#EE6055"/>
				</linearGradient>
				<polygon fill="#FFFFFF" stroke="url(#SVGID_5_)" stroke-width="0.1" stroke-miterlimit="10" points="148.532,163.366 
					151.827,178.64 144.225,185.606 140.93,170.332 				"/>
			</g>
			<g>
				<linearGradient id="SVGID_6_" gradientUnits="userSpaceOnUse" x1="141.9203" y1="186.6678" x2="133.3608" y2="166.1252">
					<stop  offset="0.0955" style="stop-color:#BA1E12"/>
					<stop  offset="0.2882" style="stop-color:#BF2418"/>
					<stop  offset="0.5469" style="stop-color:#CC3529"/>
					<stop  offset="0.8418" style="stop-color:#E25045"/>
					<stop  offset="0.9833" style="stop-color:#EE6055"/>
				</linearGradient>
				<polygon fill="#FFFFFF" stroke="url(#SVGID_6_)" stroke-width="0.1" stroke-miterlimit="10" points="140.93,170.332 
					144.225,185.606 134.352,182.462 131.056,167.187 				"/>
			</g>
			<g>
				<linearGradient id="SVGID_7_" gradientUnits="userSpaceOnUse" x1="141.7786" y1="170.0398" x2="137.8094" y2="160.5137">
					<stop  offset="0.0955" style="stop-color:#BA1E12"/>
					<stop  offset="0.2882" style="stop-color:#BF2418"/>
					<stop  offset="0.5469" style="stop-color:#CC3529"/>
					<stop  offset="0.8418" style="stop-color:#E25045"/>
					<stop  offset="0.9833" style="stop-color:#EE6055"/>
				</linearGradient>
				<polygon fill="#FFFFFF" stroke="url(#SVGID_7_)" stroke-width="0.1" stroke-miterlimit="10" points="148.532,163.366 
					140.93,170.332 131.056,167.187 138.659,160.221 				"/>
			</g>
		</g>
	</g>
	<g>
		<g enable-background="new    ">
			<g>
				<linearGradient id="SVGID_8_" gradientUnits="userSpaceOnUse" x1="139.2963" y1="192.3392" x2="134.3426" y2="180.4504">
					<stop  offset="0.0955" style="stop-color:#BA1E12"/>
					<stop  offset="0.2882" style="stop-color:#BF2418"/>
					<stop  offset="0.5469" style="stop-color:#CC3529"/>
					<stop  offset="0.8418" style="stop-color:#E25045"/>
					<stop  offset="0.9833" style="stop-color:#EE6055"/>
				</linearGradient>
				<polygon fill="#FFFFFF" stroke="url(#SVGID_8_)" stroke-width="0.1" stroke-miterlimit="10" points="139.633,178.329 
					141.609,187.494 134.006,194.46 132.03,185.295 				"/>
			</g>
			<g>
				<linearGradient id="SVGID_9_" gradientUnits="userSpaceOnUse" x1="131.1781" y1="195.7405" x2="124.9817" y2="180.8694">
					<stop  offset="0.0955" style="stop-color:#BA1E12"/>
					<stop  offset="0.2882" style="stop-color:#BF2418"/>
					<stop  offset="0.5469" style="stop-color:#CC3529"/>
					<stop  offset="0.8418" style="stop-color:#E25045"/>
					<stop  offset="0.9833" style="stop-color:#EE6055"/>
				</linearGradient>
				<polygon fill="#FFFFFF" stroke="url(#SVGID_9_)" stroke-width="0.1" stroke-miterlimit="10" points="132.03,185.295 
					134.006,194.46 124.13,191.315 122.153,182.15 				"/>
			</g>
			<g>
				<g>
					<linearGradient id="SVGID_10_" gradientUnits="userSpaceOnUse" x1="132.878" y1="185.0032" x2="128.9083" y2="175.4759">
						<stop  offset="0.0955" style="stop-color:#BA1E12"/>
						<stop  offset="0.2882" style="stop-color:#BF2418"/>
						<stop  offset="0.5469" style="stop-color:#CC3529"/>
						<stop  offset="0.8418" style="stop-color:#E25045"/>
						<stop  offset="0.9833" style="stop-color:#EE6055"/>
					</linearGradient>
					<polygon fill="#FFFFFF" stroke="url(#SVGID_10_)" stroke-width="0.1" stroke-miterlimit="10" points="139.633,178.329 
						132.03,185.295 122.153,182.15 129.756,175.184 					"/>
				</g>
			</g>
		</g>
	</g>
	<g>
		<g enable-background="new    ">
			<g>
				<linearGradient id="SVGID_11_" gradientUnits="userSpaceOnUse" x1="129.1243" y1="201.8462" x2="125.3528" y2="192.7946">
					<stop  offset="0.0955" style="stop-color:#BA1E12"/>
					<stop  offset="0.2882" style="stop-color:#BF2418"/>
					<stop  offset="0.5469" style="stop-color:#CC3529"/>
					<stop  offset="0.8418" style="stop-color:#E25045"/>
					<stop  offset="0.9833" style="stop-color:#EE6055"/>
				</linearGradient>
				<polygon fill="#FFFFFF" stroke="url(#SVGID_11_)" stroke-width="0.1" stroke-miterlimit="10" points="130.381,190.783 
					131.698,196.892 124.096,203.858 122.777,197.748 				"/>
			</g>
			<g>
				<linearGradient id="SVGID_12_" gradientUnits="userSpaceOnUse" x1="121.0058" y1="205.2477" x2="115.9918" y2="193.214">
					<stop  offset="0.0955" style="stop-color:#BA1E12"/>
					<stop  offset="0.2882" style="stop-color:#BF2418"/>
					<stop  offset="0.5469" style="stop-color:#CC3529"/>
					<stop  offset="0.8418" style="stop-color:#E25045"/>
					<stop  offset="0.9833" style="stop-color:#EE6055"/>
				</linearGradient>
				<polygon fill="#FFFFFF" stroke="url(#SVGID_12_)" stroke-width="0.1" stroke-miterlimit="10" points="122.777,197.748 
					124.096,203.858 114.22,200.712 112.902,194.603 				"/>
			</g>
			<g>
				<linearGradient id="SVGID_13_" gradientUnits="userSpaceOnUse" x1="123.6261" y1="197.4561" x2="119.6565" y2="187.9289">
					<stop  offset="0.0955" style="stop-color:#BA1E12"/>
					<stop  offset="0.2882" style="stop-color:#BF2418"/>
					<stop  offset="0.5469" style="stop-color:#CC3529"/>
					<stop  offset="0.8418" style="stop-color:#E25045"/>
					<stop  offset="0.9833" style="stop-color:#EE6055"/>
				</linearGradient>
				<polygon fill="#FFFFFF" stroke="url(#SVGID_13_)" stroke-width="0.1" stroke-miterlimit="10" points="130.381,190.783 
					122.777,197.748 112.902,194.603 120.505,187.637 				"/>
			</g>
		</g>
	</g>
</g>
<linearGradient id="SVGID_14_" gradientUnits="userSpaceOnUse" x1="-19.5295" y1="-169.5905" x2="216.9698" y2="-169.5905">
	<stop  offset="0.0955" style="stop-color:#BA1E12"/>
	<stop  offset="0.2882" style="stop-color:#BF2418"/>
	<stop  offset="0.5469" style="stop-color:#CC3529"/>
	<stop  offset="0.8418" style="stop-color:#E25045"/>
	<stop  offset="0.9833" style="stop-color:#EE6055"/>
</linearGradient>
<polygon opacity="0.6" fill="url(#SVGID_14_)" points="216.97,130.415 202.257,25.094 181.998,41.999 181.998,41.999 
	107.722,-60.372 186.16,-123.895 -5.327,-469.596 -5.851,-466.955 -19.529,-392.044 122.097,-136.355 39.404,-69.385 
	143.519,74.106 143.52,74.108 121.654,92.355 "/>
<g>
	<g>
		<circle fill="#FFD345" cx="558.432" cy="76.737" r="42.862"/>
		<path fill="#FFE68D" d="M600.737,83.614l-33.471-7.115l33.18-8.273c-0.264-1.308-0.591-2.593-0.971-3.855l-33.17,8.27
			l26.159-21.95c-0.807-1.053-1.66-2.068-2.56-3.041l-26.155,21.946l13.882-31.179c-1.181-0.593-2.393-1.131-3.632-1.615
			l-13.579,30.5V33.925c-0.659-0.03-1.321-0.05-1.988-0.05s-1.328,0.02-1.988,0.05v34.119l-14.964-30.68
			c-1.221,0.527-2.415,1.105-3.575,1.739l14.965,30.684l-26.903-21.019c-0.865,1.003-1.684,2.046-2.454,3.127l26.91,21.024
			l-33.444-7.109c-0.335,1.274-0.608,2.572-0.825,3.888l33.443,7.108l-33.208,8.28c0.259,1.309,0.58,2.595,0.955,3.859l33.215-8.281
			l-26.239,22.017c0.804,1.056,1.654,2.074,2.55,3.049l26.244-22.021l-13.943,31.315c1.18,0.595,2.39,1.135,3.63,1.621
			l13.643-30.642v33.544c0.659,0.03,1.321,0.05,1.988,0.05s1.328-0.02,1.988-0.05V85.262l15.03,30.817
			c1.22-0.529,2.413-1.109,3.571-1.745L563.992,83.52l26.99,21.087c0.862-1.006,1.677-2.052,2.444-3.135l-26.986-21.084
			l33.488,7.118C600.258,86.231,600.524,84.931,600.737,83.614z"/>
		<circle fill="#FF9F4C" cx="558.432" cy="76.737" r="36.061"/>
		<circle fill="#FFBA49" cx="558.432" cy="76.737" r="33.789"/>
	</g>
	<path fill="#FFF2D2" d="M577.059,79.868c-0.472-3.13-2.295-5.016-5.333-5.789c-0.347-0.088-0.75-0.013-1.056-0.341
		c0.065-0.083,0.116-0.189,0.199-0.248c1.901-1.328,2.679-3.178,2.685-5.462c0.01-3.493-1.971-6.162-5.314-7.113
		c-1.709-0.486-3.447-0.656-5.209-0.639c-0.651,0.006-0.955-0.156-0.983-0.889c-0.066-1.725-0.254-3.444-0.343-5.169
		c-0.011-0.208-0.046-0.366-0.097-0.501l-4.209,0.308c0.001,0.049-0.006,0.088,0,0.145c0.185,1.802,0.305,3.61,0.486,5.412
		c0.051,0.503-0.078,0.748-0.593,0.794c-0.648,0.057-1.299,0.117-1.939,0.23c-0.688,0.122-0.876-0.14-0.903-0.811
		c-0.072-1.752-0.238-3.501-0.34-5.253c-0.006-0.108-0.024-0.194-0.046-0.273l-4.025,0.294c-0.025,0.11-0.033,0.238-0.019,0.397
		c0.149,1.634,0.245,3.272,0.383,4.907c0.105,1.241,0.067,1.306-1.129,1.428c-0.113,0.011-0.227,0.014-0.339,0.023
		c-2.029,0.168-4.058,0.339-6.088,0.502c-0.038,0.003-0.073,0.007-0.11,0.011l0.442,4.544c0.742-0.081,1.488-0.143,2.233-0.192
		c1.404-0.091,2.201,0.52,2.413,1.925c0.143,0.951,0.181,1.918,0.268,2.877c0.466,5.162,0.938,10.323,1.397,15.485
		c0.101,1.131-0.369,1.684-1.508,1.813c-0.618,0.07-1.238,0.132-1.858,0.167c-0.067,0.98-0.219,3.168-0.374,5.141
		c2.179-0.179,4.37-0.207,6.542-0.488c0.624-0.08,0.812,0.133,0.842,0.776c0.086,1.826,0.271,3.648,0.401,5.472l4.306-0.242
		c-0.002-0.029,0.003-0.048,0-0.079c-0.177-1.717-0.258-3.444-0.411-5.164c-0.057-0.638,0.062-1.023,0.807-1.031
		c0.563-0.006,1.131-0.077,1.686-0.18c0.654-0.121,0.909,0.086,0.943,0.77c0.089,1.78,0.255,3.556,0.367,5.335
		c0.004,0.06,0.017,0.103,0.024,0.157l4.34-0.244c-0.001-0.005,0.001-0.008,0-0.013c-0.157-1.773-0.199-3.557-0.357-5.33
		c-0.07-0.789,0.203-1.098,0.967-1.212c1.798-0.268,3.551-0.743,5.232-1.44c2.51-1.041,4.511-2.634,5.337-5.342
		C577.322,83.549,577.337,81.708,577.059,79.868z M556.199,74.247c-0.2-2.45-0.421-4.898-0.651-7.345
		c-0.045-0.476,0.037-0.674,0.602-0.713c2.284-0.157,4.572-0.446,6.817,0.236c2.824,0.859,3.827,4.073,1.885,6.009
		c-0.754,0.752-1.696,1.211-2.491,1.423c-1.966,0.654-3.773,0.766-5.579,0.891C556.401,74.774,556.233,74.664,556.199,74.247z
		 M566.757,86.351c-0.567,0.325-1.151,0.61-1.652,0.745c-2.428,0.843-4.837,0.962-7.225,1.219c-0.405,0.044-0.565-0.146-0.599-0.522
		c-0.251-2.73-0.504-5.46-0.764-8.19c-0.034-0.353-0.013-0.578,0.442-0.618c2.422-0.214,4.837-0.543,7.276-0.226
		c0.82,0.107,1.605,0.307,2.359,0.659c1.455,0.68,2.215,1.823,2.253,3.406C568.884,84.412,568.121,85.569,566.757,86.351z"/>
</g>
<polyline fill="none" stroke="#95CBE8" stroke-width="0.5" stroke-miterlimit="10" points="321.496,471.926 362.404,481.599 
	394.508,459.184 "/>
<g>
	
		<linearGradient id="SVGID_15_" gradientUnits="userSpaceOnUse" x1="279.54" y1="593.6939" x2="270.5844" y2="606.136" gradientTransform="matrix(0.627 0.779 -0.779 0.627 689.551 -131.2599)">
		<stop  offset="0" style="stop-color:#F27083"/>
		<stop  offset="1" style="stop-color:#D95B6D"/>
	</linearGradient>
	<circle fill="url(#SVGID_15_)" cx="394.508" cy="459.184" r="6.557"/>
	
		<linearGradient id="SVGID_16_" gradientUnits="userSpaceOnUse" x1="279.0806" y1="594.3322" x2="270.8354" y2="605.7874" gradientTransform="matrix(0.627 0.779 -0.779 0.627 689.551 -131.2599)">
		<stop  offset="0" style="stop-color:#FF8FA0"/>
		<stop  offset="1" style="stop-color:#BA4E5E"/>
	</linearGradient>
	<circle fill="none" stroke="url(#SVGID_16_)" stroke-miterlimit="10" cx="394.508" cy="459.184" r="6.557"/>
</g>
<g>
	<circle fill="#EE6055" cx="362.404" cy="481.599" r="6.557"/>
	<circle fill="#EE6055" cx="362.404" cy="481.599" r="6.557"/>
</g>
<g>
	<g>
		<circle fill="#FFD345" cx="412.249" cy="456.909" r="27.398"/>
		<path fill="#FFE68D" d="M425.781,480.731l-9.873-19.519l17.418,13.206c0.546-0.656,1.054-1.334,1.53-2.028l-17.413-13.202
			l21.415,4.228c0.201-0.824,0.365-1.656,0.488-2.494l-21.411-4.228l21.09-5.584c-0.178-0.826-0.396-1.645-0.652-2.456l-20.63,5.463
			l16.62-13.378c-0.249-0.34-0.504-0.678-0.772-1.01s-0.542-0.653-0.822-0.97l-16.99,13.675l9.28-19.748
			c-0.752-0.397-1.518-0.76-2.299-1.083l-9.281,19.75l-0.316-21.821c-0.846-0.029-1.694-0.018-2.541,0.031l0.317,21.826
			l-9.865-19.503c-0.768,0.344-1.524,0.728-2.267,1.148l9.864,19.502l-17.433-13.217c-0.548,0.654-1.06,1.329-1.539,2.022
			l17.436,13.22l-21.48-4.241c-0.203,0.823-0.37,1.655-0.496,2.492l21.484,4.242l-21.182,5.609c0.177,0.826,0.393,1.645,0.648,2.457
			l20.726-5.488l-16.703,13.445c0.249,0.34,0.504,0.678,0.772,1.01c0.267,0.332,0.542,0.653,0.822,0.97l17.073-13.742l-9.321,19.836
			c0.752,0.396,1.52,0.757,2.3,1.079l9.32-19.834l0.317,21.891c0.846,0.026,1.694,0.013,2.541-0.039l-0.317-21.888l9.878,19.529
			C424.285,481.541,425.039,481.154,425.781,480.731z"/>
		<circle fill="#FF9F4C" cx="412.249" cy="456.909" r="23.051"/>
		<circle fill="#FFBA49" cx="412.249" cy="456.909" r="21.599"/>
	</g>
	<path fill="#FFF2D2" d="M418.156,467.439c1.369-1.49,1.578-3.153,0.745-4.976c-0.095-0.208-0.294-0.379-0.253-0.663
		c0.068-0.001,0.141-0.018,0.203,0c1.423,0.415,2.656,0.06,3.796-0.852c1.743-1.395,2.278-3.451,1.412-5.497
		c-0.443-1.046-1.055-1.979-1.77-2.85c-0.264-0.322-0.305-0.538,0.049-0.846c0.832-0.724,1.613-1.507,2.437-2.242
		c0.099-0.089,0.164-0.169,0.21-0.249l-1.84-1.973c-0.024,0.02-0.046,0.032-0.072,0.058c-0.823,0.814-1.675,1.599-2.5,2.411
		c-0.23,0.227-0.404,0.261-0.633,0.023c-0.288-0.3-0.579-0.6-0.892-0.873c-0.336-0.294-0.281-0.492,0.042-0.775
		c0.844-0.738,1.648-1.522,2.479-2.275c0.051-0.046,0.087-0.09,0.117-0.132l-1.76-1.886c-0.065,0.032-0.132,0.079-0.205,0.15
		c-0.754,0.729-1.531,1.434-2.29,2.157c-0.576,0.549-0.624,0.557-1.163,0.01c-0.051-0.052-0.098-0.107-0.148-0.16
		c-0.897-0.943-1.795-1.885-2.69-2.83c-0.017-0.018-0.033-0.034-0.049-0.051l-2.085,2.041c0.338,0.337,0.668,0.683,0.991,1.035
		c0.608,0.662,0.624,1.304,0.008,1.973c-0.416,0.452-0.882,0.859-1.325,1.286c-2.383,2.301-4.764,4.605-7.151,6.902
		c-0.523,0.503-0.987,0.491-1.507-0.024c-0.282-0.28-0.562-0.564-0.828-0.859c-0.515,0.359-1.665,1.161-2.71,1.874
		c0.963,1.013,1.855,2.093,2.865,3.062c0.29,0.278,0.259,0.458-0.049,0.73c-0.875,0.775-1.708,1.597-2.564,2.393l1.847,2.047
		c0.014-0.013,0.025-0.018,0.039-0.032c0.784-0.776,1.612-1.509,2.407-2.275c0.295-0.284,0.534-0.38,0.837-0.011
		c0.229,0.278,0.492,0.532,0.765,0.768c0.322,0.277,0.321,0.487-0.005,0.778c-0.851,0.758-1.669,1.552-2.51,2.321
		c-0.029,0.026-0.045,0.05-0.069,0.075l1.861,2.063c0.002-0.002,0.004-0.003,0.007-0.005c0.82-0.789,1.691-1.525,2.511-2.314
		c0.365-0.351,0.628-0.339,0.991-0.004c0.854,0.788,1.793,1.471,2.814,2.028c1.525,0.833,3.12,1.191,4.799,0.517
		C416.428,469.046,417.35,468.315,418.156,467.439z M412.594,454.799c1.14-1.081,2.27-2.173,3.396-3.268
		c0.219-0.213,0.351-0.252,0.596,0.014c0.993,1.075,2.055,2.098,2.615,3.489c0.704,1.75-0.494,3.538-2.237,3.347
		c-0.677-0.074-1.283-0.359-1.707-0.67c-1.113-0.717-1.894-1.571-2.679-2.421C412.412,455.111,412.4,454.983,412.594,454.799z
		 M410.798,464.908c-0.389-0.152-0.765-0.329-1.033-0.524c-1.393-0.871-2.418-2.023-3.503-3.109c-0.184-0.184-0.154-0.34,0.02-0.508
		c1.259-1.219,2.517-2.439,3.772-3.663c0.162-0.158,0.282-0.238,0.485-0.028c1.077,1.12,2.209,2.191,3.029,3.532
		c0.275,0.451,0.491,0.922,0.617,1.439c0.245,0.997-0.02,1.834-0.793,2.487C412.617,465.19,411.735,465.274,410.798,464.908z"/>
</g>
<g>
	<polygon fill="#2BA0BF" points="341.083,447.874 340.916,507.911 306.664,527.815 306.831,467.782 	"/>
</g>
<g>
	<g>
		<polygon fill="#3B879B" points="306.831,467.782 306.664,527.815 272.186,507.911 272.353,447.874 		"/>
	</g>
</g>
<g>
	<polygon fill="#29839B" points="341.083,447.874 306.831,467.782 272.353,447.874 306.608,427.969 	"/>
</g>
<g>
	<polygon fill="#F9E062" points="295.401,496.734 295.294,532.756 261.039,552.663 261.144,516.64 	"/>
</g>
<g>
	<polygon fill="#FFDA00" points="261.144,516.64 261.039,552.663 226.554,532.752 226.656,496.727 	"/>
</g>
<g>
	<polygon fill="#FFBA49" points="295.401,496.734 261.144,516.64 226.656,496.727 260.91,476.823 	"/>
</g>
<g>
	<polygon fill="#EE6055" points="250.452,535.883 250.382,559.897 216.129,579.803 216.194,555.786 	"/>
</g>
<g>
	<polygon fill="#CC1F1F" points="216.194,555.786 216.129,579.803 181.642,559.888 181.709,535.876 	"/>
</g>
<g>
	<polygon fill="#ED0B00" points="250.452,535.883 216.194,555.786 181.709,535.876 215.964,515.97 	"/>
</g>
<g opacity="0.1">
	<path d="M518.26,451.326c11.302,6.527,11.362,15.701,0.131,22.225c-11.228,6.529-29.486,6.524-40.785-0.007
		c-11.304-6.522-11.365-15.689-0.135-22.211C488.699,444.81,506.959,444.802,518.26,451.326z"/>
</g>
<g>
	<path fill="#111114" d="M222.685,518.896c0,0,2.76,0.966,1.72,2.364c-1.039,1.397-4.855,3.084-5.506,3.968
		c-0.654,0.886-4.123,3.828-4.915,3.335c-0.794-0.493-3.144-0.463-1.992-4.366C213.155,520.294,218.921,517.976,222.685,518.896z"/>
	<path fill="#221F26" d="M213.749,461.993c0,0-4.325,6.676-2.304,16.942c2.026,10.264,0.934,24.58,0.934,24.58
		s-2.314,18.269-0.865,21.63c0,0,4.508,2.795,9.02-0.559l3.987-33.87l1.868-24.906C226.388,465.811,216.317,464.326,213.749,461.993
		z"/>
	<path fill="#1E1B21" d="M224.52,490.716l1.467-19.536l-3.896-0.938c0,0-2.639,17.521-1.506,21.704
		c0.89,3.287-2.673,23.747-2.787,33.994c0.886-0.246,1.808-0.665,2.734-1.354L224.52,490.716z"/>
	<path fill="#111114" d="M245.268,517.408c0,0,1.306,2.952,3.879,1.784c2.574-1.172,0.812-1.868,6.322-4.508
		c5.505-2.635,3.876-5.14,3.415-5.636c-1.056-1.145-4.381,1.196-5.59,1.767c-1.212,0.564-4.039,1.265-4.039,1.265l-4.789,4.78
		L245.268,517.408z"/>
	<path fill="#221F26" d="M219.911,464.962c0,0-3.335,8.595,1.881,12.266c5.214,3.672,10.916,10.323,12.278,13.269
		c1.362,2.948,8.728,26.546,8.728,26.546s5.622,2.392,9.871-1.624c0,0-5.68-27.595-7.835-31.314
		c-2.152-3.721-11.766-21.306-11.766-21.306S227.389,465.241,219.911,464.962z"/>
	<path fill="#1E1B21" d="M252.669,515.42c0,0-5.68-27.595-7.835-31.314c-2.01-3.471-10.503-18.997-11.638-21.076l-3.979,6.925
		c0,0,6.724,8.197,8.011,10.656c1.215,2.314,9.596,24.139,11.177,36.979C249.814,517.331,251.311,516.699,252.669,515.42z"/>
</g>
<g>
	<g>
		<g>
			<path fill="#E6A376" d="M215.196,425.133c0,0,4.515-0.416,2.516,6.516c-2.006,6.938-6.204,13.968-6.204,13.968
				s-4.084,13.86-4.087,16.427c0,0-0.081,1.037,0.596,2.303c0.245,0.455,0.497,1.097,0.227,2.688
				c-0.09,0.538-0.113,1.52,0.247,2.161c0.357,0.65-0.325,1.067-0.663,0.838c-0.411-0.279-1.128-1.222-1.02-2.694
				c0,0-0.515,0.666-0.769,4.064c-0.106,1.436-1.335,1.853-2.682-0.252c-0.235-0.361-0.898-3.436,0.035-6.04
				c0.711-1.995,0.681-2.937,0.819-4.787c0.132-1.853,0.066-11.774,2.527-19.754C208.011,436.432,211.447,424.711,215.196,425.133z"
				/>
			<path fill="#404063" d="M216.194,424.783c-6.084-1.546-11.629,18.76-11.946,24.123c0,0,1.88,1.158,6.523,0.113
				C210.771,449.018,223.199,426.561,216.194,424.783z"/>
		</g>
		<path fill="#404063" d="M204.248,448.905l-0.771,13.307c0,0,2.053,1.429,5.159,0.054l2.278-13.965L204.248,448.905z"/>
	</g>
	<path fill="#52517B" d="M215.063,424.397c0,0-4.261,0.289-2.364,8.111c1.894,7.82,2.729,16.296,2.364,19.121
		c-0.373,2.827-2.087,10.243-2.826,12.139c0,0-0.78,5.888,12.985,10.759c0,0,11.527,1.111,10.228-6.808
		c-1.298-7.921-1.054-20.529-0.53-23.495c0.524-2.964,2.748-8.799-4.259-13.42C223.651,426.177,219.773,424.474,215.063,424.397z"/>
	<path fill="#404063" d="M234.92,444.224c-0.524,2.966-0.768,15.574,0.53,23.495c0.904,5.493-4.347,6.941-7.646,6.826
		c-0.783-3.55,0.142-10.572-1.708-18.337c-2.287-9.598-0.036-15.557,1.963-20.406c1.299-3.148,3.206-3.08,4.598-3.426
		C237.186,436.684,235.383,441.588,234.92,444.224z"/>
	<g>
		<g>
			<path fill="#EFB185" d="M219.005,420.854c0,0,0.615,3.857-0.576,6.343c-1.094,2.251,7.942,3.858,8.064,1.809
				c0.011-0.218-1.848-3.477,0.145-7.528C227.676,419.355,219.005,420.854,219.005,420.854z"/>
			<path fill="#DD9569" d="M218.477,427.327c0.89-1.849,0.776-4.448,0.66-5.661l6.675,3.012c0,0.007-0.003,0.013-0.003,0.018
				c-0.239,0.072-4.598,1.408-5.41,4.684C219.026,428.882,218.086,428.147,218.477,427.327z"/>
			<path fill="#EFB185" d="M227.982,410.144c0,0,1.541,3.455,1.392,6.495c-0.154,3.276,0.347,3.91,0.212,5.367
				c-0.06,0.621-0.064,1.561-0.634,2.172c-0.944,1.016-2.964,1.466-5.762,0.561c-3.381-1.096-7.094-5.612-5.849-9.879
				C218.589,410.599,222.823,406.944,227.982,410.144z"/>
			<path fill="#E6A376" d="M217.688,419.405c1.17-3.843,4.291-8.528,4.247-8.766c-0.018-0.148,1.05-0.9,2.267-1.711
				c1.175,0.021,2.447,0.386,3.779,1.215c0,0,0.413,0.925,0.79,2.236c-0.754,0.946-2.33,2.043-2.541,2.824
				c-0.491,1.834-0.048,4.566,0.528,5.756c0.583,1.187-1.481,3.054-0.983,4.11c0.022,0.051,0.025,0.099,0.021,0.143
				c-0.769-0.019-1.637-0.161-2.607-0.474C221.028,424.041,218.735,421.941,217.688,419.405z"/>
			<path fill="#221101" d="M228.904,408.659c0,0,0.615,2.992-2.233,4.577c-1.714,0.954-1.437,3.821-1.326,4.354
				c0.105,0.529,0.726,2.928,0.522,3.248c-0.385,0.621-1.832-1.184-2.48-1.027c-1.637,0.403-0.925,1.947,0.649,3.535
				c1.678,1.677-2.505,2.591-4.514,1.229c-1.071-0.723-1.468-1.168-2.947-3.866c-2.151-3.931-2.457-8.758,2.088-11.54
				C223.211,406.383,226.066,409.956,228.904,408.659z"/>
			<path fill="#341C09" d="M219.523,424.575c-1.071-0.723-1.468-1.168-2.947-3.866c-2.151-3.931-2.457-8.758,2.088-11.54
				c4.547-2.785,7.402,0.787,10.24-0.509c0,0,0.105,0.509,0.028,1.209c-1.466,0.312-5.47,1.307-6.434,3.127
				c-1.193,2.236-2.643,1.595-2.42,4.306c0.214,2.607-0.301,6.058,4.066,7.344C222.594,425.885,220.304,425.103,219.523,424.575z"/>
		</g>
		<path fill="#DEF0F9" d="M226.187,427.565l3.42,2.381c0,0-9.354,3.05-12.207-1.367c-0.404-0.626-0.039-2.799,1.523-3.272
			C218.924,425.308,219.391,428.985,226.187,427.565z"/>
	</g>
	<g>
		<path fill="#E6A376" d="M249.258,472.589c-0.354,2.386-0.638,2.516-1.199,2.343c-2.713-0.842-4.946-5.487-4.917-5.985
			c0.099-1.388-0.359-2.276-0.359-2.276c-0.036-0.087-0.09-0.184-0.144-0.29l2.89-1.169c0.455,0.884,0.909,1.616,1.856,2.66
			C249.162,469.841,249.319,472.177,249.258,472.589z"/>
		<path fill="#52517B" d="M230.84,432.119c-5.456,2.145,2.218,20.649,5.005,25.007l6.525,11.241c0,0,2.354-0.015,3.919-2.8
			l-5.876-11.605C240.206,452.473,236.917,429.733,230.84,432.119z"/>
	</g>
</g>
<g>
	<path fill="#FFDA00" d="M521.705,454.487c-0.024,0.254-0.042,0.509-0.087,0.762c-0.039,0.198-0.098,0.397-0.152,0.597
		c-0.06,0.241-0.123,0.481-0.206,0.719c-0.069,0.196-0.159,0.386-0.243,0.578c-0.111,0.251-0.215,0.499-0.35,0.749
		c-0.182,0.338-0.38,0.675-0.608,1.001c-0.036,0.056-0.078,0.11-0.117,0.162c-0.239,0.331-0.499,0.662-0.787,0.984
		c-0.054,0.059-0.099,0.119-0.153,0.177c-0.305,0.337-0.646,0.665-1.005,0.989c-0.228,0.204-0.476,0.399-0.721,0.594
		c-0.222,0.181-0.44,0.362-0.679,0.539c-0.264,0.189-0.557,0.371-0.841,0.56c-0.302,0.197-0.592,0.401-0.916,0.589
		c-0.716,0.417-1.475,0.785-2.253,1.139c-0.22,0.098-0.446,0.193-0.675,0.287c-0.61,0.256-1.236,0.493-1.875,0.711
		c-0.229,0.079-0.452,0.159-0.683,0.232c-0.404,0.129-0.817,0.238-1.23,0.353c-0.308,0.084-0.616,0.175-0.935,0.251
		c-0.432,0.107-0.873,0.193-1.316,0.284c-0.3,0.055-0.595,0.127-0.897,0.18c-0.893,0.159-1.797,0.283-2.712,0.379
		c-0.276,0.028-0.556,0.044-0.84,0.067c-0.539,0.048-1.078,0.085-1.618,0.108c-0.339,0.016-0.684,0.023-1.024,0.028
		c-0.438,0.007-0.875,0.013-1.311,0.005c-0.366-0.005-0.729-0.014-1.093-0.028c-0.4-0.018-0.802-0.037-1.201-0.063
		c-0.37-0.028-0.739-0.057-1.106-0.094c-0.402-0.039-0.798-0.085-1.194-0.135c-0.351-0.046-0.704-0.094-1.054-0.15
		c-0.428-0.065-0.854-0.141-1.273-0.222c-0.329-0.061-0.66-0.127-0.984-0.2c-0.502-0.108-0.989-0.233-1.477-0.36
		c-0.274-0.071-0.55-0.142-0.825-0.223c-0.874-0.255-1.728-0.54-2.556-0.862c-0.409-0.161-0.806-0.336-1.199-0.511
		c-0.208-0.092-0.419-0.175-0.621-0.27c-0.601-0.284-1.182-0.589-1.748-0.914c-4.699-2.71-7.045-6.271-7.034-9.824l-0.021,6.632
		c-0.009,3.558,2.338,7.115,7.034,9.827c0.566,0.324,1.15,0.628,1.755,0.915c0.188,0.089,0.386,0.165,0.583,0.251
		c0.366,0.163,0.728,0.336,1.105,0.482c0.044,0.017,0.091,0.029,0.131,0.047c0.829,0.32,1.682,0.605,2.556,0.863
		c0.072,0.019,0.135,0.048,0.21,0.067c0.197,0.057,0.407,0.096,0.61,0.152c0.488,0.127,0.978,0.25,1.479,0.361
		c0.131,0.031,0.259,0.069,0.395,0.098c0.195,0.039,0.392,0.065,0.587,0.102c0.421,0.081,0.846,0.157,1.274,0.222
		c0.168,0.026,0.335,0.065,0.503,0.087c0.183,0.029,0.369,0.036,0.548,0.065c0.398,0.048,0.794,0.093,1.194,0.128
		c0.191,0.021,0.38,0.052,0.574,0.067c0.177,0.014,0.356,0.018,0.535,0.028c0.399,0.029,0.801,0.048,1.201,0.066
		c0.204,0.007,0.408,0.029,0.612,0.033c0.158,0.004,0.32-0.004,0.478-0.002c0.439,0.002,0.875,0.002,1.313-0.008
		c0.214-0.004,0.432,0.007,0.648-0.001c0.124-0.006,0.251-0.021,0.378-0.024c0.541-0.025,1.079-0.067,1.616-0.111
		c0.219-0.016,0.434-0.021,0.645-0.04c0.067-0.011,0.133-0.021,0.199-0.031c0.909-0.094,1.816-0.216,2.707-0.375
		c0.043-0.007,0.088-0.008,0.135-0.016c0.26-0.047,0.509-0.113,0.762-0.168c0.443-0.086,0.886-0.173,1.323-0.279
		c0.311-0.077,0.617-0.167,0.925-0.251c0.416-0.11,0.831-0.222,1.236-0.35c0.083-0.03,0.176-0.048,0.263-0.076
		c0.14-0.046,0.273-0.107,0.417-0.157c0.641-0.219,1.266-0.455,1.876-0.712c0.228-0.097,0.456-0.188,0.679-0.289
		c0.778-0.352,1.535-0.723,2.247-1.139c0.099-0.055,0.195-0.113,0.293-0.171c0.219-0.135,0.414-0.281,0.623-0.418
		c0.288-0.186,0.577-0.371,0.847-0.562c0.237-0.175,0.452-0.353,0.674-0.536c0.246-0.195,0.497-0.391,0.725-0.595
		c0.045-0.04,0.102-0.081,0.147-0.122c0.308-0.285,0.589-0.573,0.858-0.866c0.054-0.06,0.102-0.12,0.156-0.181
		c0.159-0.178,0.324-0.361,0.463-0.543c0.114-0.145,0.216-0.294,0.32-0.439c0.036-0.056,0.078-0.103,0.113-0.158
		c0.189-0.274,0.369-0.55,0.527-0.828c0.033-0.061,0.051-0.122,0.085-0.181c0.131-0.246,0.235-0.492,0.346-0.742
		c0.063-0.145,0.15-0.288,0.208-0.435c0.014-0.048,0.02-0.099,0.038-0.148c0.081-0.238,0.145-0.473,0.204-0.711
		c0.043-0.159,0.108-0.32,0.138-0.48c0.009-0.044,0.009-0.087,0.016-0.131c0.044-0.248,0.062-0.502,0.085-0.751
		c0.016-0.163,0.052-0.326,0.058-0.487c0-0.067,0.003-0.139,0.003-0.21l0.015-6.634
		C521.759,454.027,521.726,454.257,521.705,454.487z"/>
	<path fill="#FFD859" d="M521.618,455.249c-0.039,0.198-0.098,0.397-0.152,0.597c-0.06,0.241-0.123,0.481-0.206,0.719
		c-0.069,0.196-0.159,0.386-0.243,0.578c-0.111,0.251-0.215,0.499-0.35,0.749c-0.182,0.338-0.38,0.675-0.608,1.001
		c-0.036,0.056-0.078,0.11-0.117,0.162c-0.239,0.331-0.499,0.662-0.787,0.984c-0.054,0.059-0.099,0.119-0.153,0.177
		c-0.305,0.337-0.646,0.665-1.005,0.989c-0.228,0.204-0.476,0.399-0.721,0.594c-0.222,0.181-0.44,0.362-0.679,0.539
		c-0.264,0.189-0.557,0.371-0.841,0.56c-0.302,0.197-0.592,0.401-0.916,0.589c-0.716,0.417-1.475,0.785-2.253,1.139
		c-0.22,0.098-0.446,0.193-0.675,0.287c-0.61,0.256-1.236,0.493-1.875,0.711c-0.229,0.079-0.452,0.159-0.683,0.232
		c-0.404,0.129-0.817,0.238-1.23,0.353c-0.308,0.084-0.616,0.175-0.935,0.251c-0.432,0.107-0.873,0.193-1.316,0.284
		c-0.3,0.055-0.595,0.127-0.897,0.18c-0.893,0.159-1.797,0.283-2.712,0.379c-0.276,0.028-0.556,0.044-0.84,0.067
		c-0.539,0.048-1.078,0.085-1.618,0.108c-0.339,0.016-0.684,0.023-1.024,0.028c-0.438,0.007-0.875,0.013-1.311,0.005
		c-0.366-0.005-0.729-0.014-1.093-0.028c-0.4-0.018-0.802-0.037-1.201-0.063c-0.37-0.028-0.739-0.057-1.106-0.094
		c-0.402-0.039-0.798-0.085-1.194-0.135c-0.351-0.046-0.704-0.094-1.054-0.15c-0.428-0.065-0.854-0.141-1.273-0.222
		c-0.329-0.061-0.66-0.127-0.984-0.2c-0.502-0.108-0.989-0.233-1.477-0.36c-0.274-0.071-0.55-0.142-0.825-0.223
		c-0.874-0.255-1.728-0.54-2.556-0.862c-0.409-0.161-0.806-0.336-1.199-0.511c-0.208-0.092-0.419-0.175-0.621-0.27
		c-0.601-0.284-1.182-0.589-1.748-0.914c-4.699-2.71-7.045-6.271-7.034-9.824l-0.015,4.387c0.025,3.528,2.368,7.054,7.028,9.746
		c0.566,0.326,1.15,0.631,1.755,0.915c0.188,0.089,0.386,0.165,0.583,0.251c0.366,0.165,0.728,0.333,1.105,0.484
		c0.044,0.017,0.091,0.027,0.131,0.042c0.829,0.326,1.682,0.608,2.556,0.866c0.072,0.018,0.135,0.05,0.21,0.07
		c0.197,0.057,0.407,0.094,0.61,0.148c0.488,0.132,0.978,0.254,1.479,0.365c0.131,0.026,0.259,0.067,0.395,0.098
		c0.195,0.04,0.392,0.066,0.587,0.102c0.421,0.081,0.846,0.152,1.274,0.219c0.168,0.025,0.335,0.066,0.503,0.087
		c0.183,0.03,0.369,0.039,0.548,0.066c0.398,0.05,0.794,0.091,1.194,0.131c0.191,0.018,0.38,0.051,0.574,0.066
		c0.177,0.013,0.356,0.016,0.535,0.026c0.399,0.028,0.801,0.048,1.201,0.065c0.204,0.007,0.408,0.029,0.612,0.031
		c0.158,0.004,0.32-0.002,0.478,0c0.439,0.004,0.875,0,1.313-0.007c0.214-0.002,0.432,0.005,0.648-0.002
		c0.124-0.004,0.251-0.021,0.378-0.025c0.541-0.025,1.079-0.061,1.616-0.106c0.219-0.021,0.434-0.021,0.645-0.043
		c0.067-0.007,0.133-0.021,0.199-0.029c0.909-0.095,1.816-0.219,2.707-0.375c0.043-0.008,0.088-0.011,0.135-0.021
		c0.26-0.044,0.509-0.112,0.762-0.163c0.443-0.085,0.886-0.177,1.323-0.282c0.311-0.073,0.617-0.164,0.925-0.248
		c0.416-0.116,0.831-0.228,1.236-0.354c0.083-0.025,0.176-0.046,0.263-0.074c0.14-0.048,0.273-0.109,0.417-0.157
		c0.641-0.222,1.266-0.455,1.876-0.711c0.228-0.098,0.456-0.189,0.679-0.293c0.778-0.348,1.535-0.721,2.247-1.133
		c0.099-0.055,0.195-0.117,0.293-0.174c0.219-0.135,0.414-0.278,0.623-0.416c0.288-0.188,0.577-0.371,0.847-0.564
		c0.237-0.172,0.452-0.356,0.674-0.534c0.246-0.197,0.497-0.391,0.725-0.597c0.045-0.04,0.102-0.081,0.147-0.122
		c0.308-0.284,0.589-0.571,0.858-0.866c0.054-0.057,0.102-0.12,0.156-0.181c0.159-0.18,0.324-0.358,0.463-0.542
		c0.114-0.146,0.216-0.293,0.32-0.439c0.036-0.054,0.078-0.104,0.113-0.155c0.189-0.274,0.369-0.551,0.527-0.828
		c0.033-0.062,0.051-0.126,0.085-0.184c0.131-0.245,0.235-0.492,0.346-0.742c0.063-0.143,0.15-0.289,0.208-0.431
		c0.014-0.051,0.02-0.102,0.038-0.15c0.081-0.237,0.145-0.472,0.204-0.709c0.043-0.164,0.108-0.323,0.138-0.483
		c0.009-0.045,0.009-0.087,0.016-0.132c0.044-0.25,0.062-0.498,0.085-0.747c0.016-0.166,0.052-0.326,0.058-0.487
		c0-0.072,0.003-0.141,0.003-0.211l0.012-4.227c-0.01,0.205-0.034,0.406-0.052,0.61
		C521.681,454.741,521.663,454.996,521.618,455.249z"/>
	<path fill="#FF9E03" d="M521.618,455.249c-0.039,0.198-0.098,0.397-0.152,0.597c-0.06,0.241-0.123,0.481-0.206,0.719
		c-0.069,0.196-0.159,0.386-0.243,0.578c-0.111,0.251-0.215,0.499-0.35,0.749c-0.182,0.338-0.38,0.675-0.608,1.001
		c-0.036,0.056-0.078,0.11-0.117,0.162c-0.239,0.331-0.499,0.662-0.787,0.984c-0.054,0.059-0.099,0.119-0.153,0.177
		c-0.305,0.337-0.646,0.665-1.005,0.989c-0.228,0.204-0.476,0.399-0.721,0.594c-0.222,0.181-0.44,0.362-0.679,0.539
		c-0.264,0.189-0.557,0.371-0.841,0.56c-0.302,0.197-0.592,0.401-0.916,0.589c-0.716,0.417-1.475,0.785-2.253,1.139
		c-0.22,0.098-0.446,0.193-0.675,0.287c-0.61,0.256-1.236,0.493-1.875,0.711c-0.229,0.079-0.452,0.159-0.683,0.232
		c-0.404,0.129-0.817,0.238-1.23,0.353c-0.308,0.084-0.616,0.175-0.935,0.251c-0.432,0.107-0.873,0.193-1.316,0.284
		c-0.3,0.055-0.595,0.127-0.897,0.18c-0.893,0.159-1.797,0.283-2.712,0.379c-0.276,0.028-0.556,0.044-0.84,0.067
		c-0.539,0.048-1.078,0.085-1.618,0.108c-0.339,0.016-0.684,0.023-1.024,0.028c-0.438,0.007-0.875,0.013-1.311,0.005
		c-0.366-0.005-0.729-0.014-1.093-0.028c-0.4-0.018-0.802-0.037-1.201-0.063c-0.37-0.028-0.739-0.057-1.106-0.094
		c-0.402-0.039-0.798-0.085-1.194-0.135c-0.351-0.046-0.704-0.094-1.054-0.15c-0.428-0.065-0.854-0.141-1.273-0.222
		c-0.329-0.061-0.66-0.127-0.984-0.2c-0.502-0.108-0.989-0.233-1.477-0.36c-0.274-0.071-0.55-0.142-0.825-0.223
		c-0.874-0.255-1.728-0.54-2.556-0.862c-0.409-0.161-0.806-0.336-1.199-0.511c-0.208-0.092-0.419-0.175-0.621-0.27
		c-0.601-0.284-1.182-0.589-1.748-0.914c-4.699-2.71-7.045-6.271-7.034-9.824l-0.015,4.387c0.025,3.528,2.368,7.054,7.028,9.746
		c0.566,0.326,1.15,0.631,1.755,0.915c0.188,0.089,0.386,0.165,0.583,0.251c0.366,0.165,0.728,0.333,1.105,0.484
		c0.044,0.017,0.091,0.027,0.131,0.042c0.829,0.326,1.682,0.608,2.556,0.866c0.072,0.018,0.135,0.05,0.21,0.07
		c0.197,0.057,0.407,0.094,0.61,0.148c0.488,0.132,0.978,0.254,1.479,0.365c0.131,0.026,0.259,0.067,0.395,0.098
		c0.195,0.04,0.392,0.066,0.587,0.102c0.421,0.081,0.846,0.152,1.274,0.219c0.168,0.025,0.335,0.066,0.503,0.087
		c0.183,0.03,0.369,0.039,0.548,0.066c0.398,0.05,0.794,0.091,1.194,0.131c0.191,0.018,0.38,0.051,0.574,0.066
		c0.177,0.013,0.356,0.016,0.535,0.026c0.399,0.028,0.801,0.048,1.201,0.065c0.204,0.007,0.408,0.029,0.612,0.031
		c0.158,0.004,0.32-0.002,0.478,0c0.439,0.004,0.875,0,1.313-0.007c0.214-0.002,0.432,0.005,0.648-0.002
		c0.124-0.004,0.251-0.021,0.378-0.025c0.541-0.025,1.079-0.061,1.616-0.106c0.219-0.021,0.434-0.021,0.645-0.043
		c0.067-0.007,0.133-0.021,0.199-0.029c0.909-0.095,1.816-0.219,2.707-0.375c0.043-0.008,0.088-0.011,0.135-0.021
		c0.26-0.044,0.509-0.112,0.762-0.163c0.443-0.085,0.886-0.177,1.323-0.282c0.311-0.073,0.617-0.164,0.925-0.248
		c0.416-0.116,0.831-0.228,1.236-0.354c0.083-0.025,0.176-0.046,0.263-0.074c0.14-0.048,0.273-0.109,0.417-0.157
		c0.641-0.222,1.266-0.455,1.876-0.711c0.228-0.098,0.456-0.189,0.679-0.293c0.778-0.348,1.535-0.721,2.247-1.133
		c0.099-0.055,0.195-0.117,0.293-0.174c0.219-0.135,0.414-0.278,0.623-0.416c0.288-0.188,0.577-0.371,0.847-0.564
		c0.237-0.172,0.452-0.356,0.674-0.534c0.246-0.197,0.497-0.391,0.725-0.597c0.045-0.04,0.102-0.081,0.147-0.122
		c0.308-0.284,0.589-0.571,0.858-0.866c0.054-0.057,0.102-0.12,0.156-0.181c0.159-0.18,0.324-0.358,0.463-0.542
		c0.114-0.146,0.216-0.293,0.32-0.439c0.036-0.054,0.078-0.104,0.113-0.155c0.189-0.274,0.369-0.551,0.527-0.828
		c0.033-0.062,0.051-0.126,0.085-0.184c0.131-0.245,0.235-0.492,0.346-0.742c0.063-0.143,0.15-0.289,0.208-0.431
		c0.014-0.051,0.02-0.102,0.038-0.15c0.081-0.237,0.145-0.472,0.204-0.709c0.043-0.164,0.108-0.323,0.138-0.483
		c0.009-0.045,0.009-0.087,0.016-0.132c0.044-0.25,0.062-0.498,0.085-0.747c0.016-0.166,0.052-0.326,0.058-0.487
		c0-0.072,0.003-0.141,0.003-0.211l0.012-4.227c-0.01,0.205-0.034,0.406-0.052,0.61
		C521.681,454.741,521.663,454.996,521.618,455.249z"/>
	<g>
		<g>
			<path fill="#F2B42B" d="M514.725,443.965c9.338,5.393,9.39,14.133,0.113,19.523c-9.277,5.392-24.362,5.388-33.7-0.005
				c-9.336-5.387-9.387-14.12-0.111-19.515C490.304,438.578,505.39,438.573,514.725,443.965z"/>
		</g>
	</g>
	<g>
		<path fill="#FFD859" d="M514.725,443.965c9.338,5.393,9.39,14.133,0.113,19.523c-9.277,5.392-24.362,5.388-33.7-0.005
			c-9.336-5.387-9.387-14.12-0.111-19.515C490.304,438.578,505.39,438.573,514.725,443.965z"/>
	</g>
	<g>
		<g>
			<g>
				<path fill="#FFDA00" d="M514.725,445.13c9.341,5.388,9.39,12.968,0.113,18.358c-9.277,5.392-24.362,5.388-33.7-0.005
					c-9.336-5.387-9.387-12.962-0.111-18.351C490.304,439.742,505.39,439.737,514.725,445.13z"/>
			</g>
		</g>
	</g>
	<path fill="#FFED94" d="M481.027,445.132c9.277-5.391,24.362-5.396,33.698-0.002c4.408,2.543,6.723,5.576,6.983,8.635
		c0.297-3.447-2.014-6.932-6.983-9.8c-9.336-5.392-24.421-5.387-33.698,0.003c-4.895,2.847-7.167,6.299-6.872,9.718
		C474.414,450.656,476.687,447.656,481.027,445.132z"/>
	<g>
		<g>
			<path fill="#DE821F" d="M511.201,446.008c7.382,4.265,7.421,11.178,0.084,15.438c-7.332,4.26-19.259,4.259-26.638-0.007
				c-7.385-4.26-7.421-11.167-0.086-15.428C491.893,441.749,503.818,441.747,511.201,446.008z"/>
		</g>
	</g>
	<g>
		<g>
			<path fill="#FFB101" d="M510.679,446.746c7.086,4.223,7.126,11.081,0.081,15.309c-7.044,4.223-18.5,4.222-25.589-0.005
				c-7.091-4.226-7.13-11.074-0.084-15.3C492.129,442.522,503.585,442.52,510.679,446.746z"/>
		</g>
	</g>
	<g>
		<g>
			<g>
				<path fill="#FFD859" d="M509.937,447.831l-2.606,1.518c1.57,0.953,2.241,1.848,2.506,2.558l-2.389,0.663
					c-0.223-0.543-0.772-1.535-2.465-2.515c-2.079-1.198-4.067-0.931-5.149-0.302c-1.382,0.804-1.072,1.77,0.265,3.707
					c1.641,2.245,1.688,3.85-0.677,5.227c-2.122,1.231-5.579,1.514-8.825,0.172l-2.764,1.605l-1.672-0.965l2.684-1.561
					c-1.533-0.904-2.663-2.119-2.932-3.059l2.448-0.676c0.305,0.943,1.2,2.038,2.69,2.9c1.936,1.116,4.31,1.232,5.811,0.361
					c1.503-0.874,1.355-2.005,0.161-3.621c-1.681-2.202-2.15-3.915,0.149-5.25c2.225-1.295,5.523-1.342,8.384-0.176l2.686-1.561
					L509.937,447.831z"/>
			</g>
		</g>
	</g>
</g>
<g opacity="0.5">
	<path opacity="0" fill="#DEF4FF" d="M269.32,536.269c0,11.06-8.969,20.052-20.056,20.052c-11.057,0-20.047-8.992-20.047-20.052
		c0-11.081,8.99-20.052,20.047-20.052C260.351,516.216,269.32,525.188,269.32,536.269z"/>
	<path opacity="0.0833" fill="#DEF4FF" d="M266.191,536.483c0,9.334-7.57,16.922-16.928,16.922c-9.331,0-16.918-7.588-16.918-16.922
		c0-9.352,7.587-16.924,16.918-16.924C258.621,519.559,266.191,527.13,266.191,536.483z"/>
	<path opacity="0.1667" fill="#DEF4FF" d="M263.063,536.696c0,7.609-6.171,13.792-13.799,13.792c-7.605,0-13.79-6.184-13.79-13.792
		c0-7.624,6.184-13.796,13.79-13.796C256.892,522.901,263.063,529.072,263.063,536.696z"/>
	<path opacity="0.25" fill="#DEF4FF" d="M259.934,536.91c0,5.883-4.772,10.663-10.671,10.663c-5.88,0-10.661-4.78-10.661-10.663
		c0-5.895,4.781-10.667,10.661-10.667C255.163,526.243,259.934,531.015,259.934,536.91z"/>
	<path opacity="0.3333" fill="#DEF4FF" d="M256.806,537.123c0,4.157-3.373,7.533-7.542,7.533c-4.154,0-7.532-3.376-7.532-7.533
		c0-4.167,3.379-7.539,7.532-7.539C253.433,529.585,256.806,532.957,256.806,537.123z"/>
	<path opacity="0.4167" fill="#DEF4FF" d="M253.678,537.337c0,2.431-1.973,4.404-4.414,4.404c-2.428,0-4.404-1.972-4.404-4.404
		c0-2.438,1.976-4.41,4.404-4.41C251.704,532.927,253.678,534.899,253.678,537.337z"/>
	<path opacity="0.5" fill="#DEF4FF" d="M250.549,537.55c0,0.706-0.574,1.274-1.285,1.274c-0.702,0-1.275-0.568-1.275-1.274
		c0-0.71,0.573-1.281,1.275-1.281C249.975,536.269,250.549,536.841,250.549,537.55z"/>
</g>
<g>
	<g>
		<circle fill="#FFD345" cx="21.841" cy="76.244" r="51.734"/>
		<path fill="#FFE68D" d="M72.904,84.544l-40.4-8.587l40.048-9.985c-0.318-1.579-0.714-3.129-1.172-4.653l-40.037,9.982
			l31.574-26.494c-0.974-1.271-2.004-2.497-3.09-3.671L28.259,67.625l16.756-37.633c-1.425-0.715-2.888-1.365-4.384-1.949
			L24.24,64.856V24.57c-0.796-0.036-1.594-0.061-2.399-0.061c-0.805,0-1.603,0.024-2.399,0.061v41.182L1.381,28.721
			c-1.474,0.636-2.915,1.334-4.315,2.099L15.13,67.855l-32.472-25.37c-1.044,1.211-2.032,2.47-2.962,3.774l32.48,25.376
			l-40.367-8.58c-0.404,1.537-0.733,3.104-0.996,4.693l40.365,8.58l-40.082,9.994c0.312,1.58,0.7,3.132,1.153,4.657l40.09-9.995
			l-31.67,26.574c0.97,1.274,1.996,2.503,3.078,3.68L15.423,84.66l-16.829,37.798c1.424,0.718,2.885,1.37,4.381,1.956l16.467-36.985
			v40.488c0.796,0.036,1.594,0.061,2.399,0.061c0.805,0,1.603-0.024,2.399-0.061V86.533l18.142,37.196
			c1.473-0.638,2.912-1.339,4.311-2.106L28.552,84.43l32.577,25.452c1.04-1.214,2.024-2.476,2.95-3.784L31.506,80.649l40.421,8.592
			C72.325,87.703,72.647,86.134,72.904,84.544z"/>
		<circle fill="#FF9F4C" cx="21.841" cy="76.244" r="43.525"/>
		<circle fill="#FFBA49" cx="21.841" cy="76.244" r="40.784"/>
	</g>
	<path fill="#FFF2D2" d="M44.324,80.023c-0.57-3.778-2.77-6.055-6.437-6.988c-0.419-0.107-0.906-0.016-1.275-0.412
		c0.079-0.1,0.14-0.229,0.24-0.299c2.295-1.603,3.233-3.836,3.241-6.593c0.012-4.216-2.379-7.437-6.414-8.585
		c-2.063-0.587-4.161-0.792-6.287-0.771c-0.786,0.008-1.153-0.189-1.187-1.073c-0.08-2.082-0.307-4.158-0.413-6.239
		c-0.013-0.251-0.055-0.442-0.117-0.605l-5.081,0.372c0.001,0.059-0.007,0.106,0,0.175c0.223,2.175,0.368,4.357,0.587,6.532
		c0.061,0.607-0.094,0.903-0.716,0.958c-0.782,0.069-1.568,0.141-2.34,0.278c-0.83,0.147-1.057-0.169-1.09-0.978
		c-0.087-2.115-0.288-4.226-0.41-6.34c-0.008-0.131-0.029-0.234-0.056-0.329l-4.858,0.355c-0.03,0.133-0.04,0.288-0.023,0.479
		c0.18,1.972,0.296,3.949,0.462,5.922c0.126,1.498,0.081,1.576-1.362,1.723c-0.136,0.014-0.273,0.017-0.41,0.028
		c-2.449,0.203-4.898,0.409-7.348,0.606c-0.046,0.004-0.089,0.009-0.133,0.013l0.534,5.484c0.896-0.098,1.796-0.173,2.696-0.231
		c1.694-0.11,2.657,0.627,2.912,2.323c0.173,1.148,0.218,2.314,0.323,3.472c0.563,6.23,1.132,12.46,1.687,18.691
		c0.121,1.365-0.446,2.033-1.82,2.188c-0.746,0.084-1.494,0.159-2.243,0.201c-0.081,1.183-0.264,3.823-0.452,6.205
		c2.63-0.216,5.275-0.25,7.896-0.589c0.753-0.097,0.98,0.161,1.017,0.936c0.104,2.204,0.326,4.403,0.484,6.605l5.197-0.293
		c-0.003-0.035,0.004-0.058,0-0.095c-0.214-2.073-0.311-4.157-0.497-6.234c-0.069-0.77,0.074-1.235,0.975-1.244
		c0.68-0.007,1.366-0.094,2.035-0.217c0.789-0.146,1.097,0.104,1.138,0.929c0.108,2.149,0.307,4.292,0.443,6.44
		c0.004,0.073,0.02,0.125,0.029,0.19l5.239-0.295c-0.001-0.006,0.001-0.009,0-0.016c-0.19-2.14-0.24-4.293-0.431-6.433
		c-0.085-0.952,0.245-1.326,1.167-1.463c2.171-0.324,4.286-0.897,6.315-1.738c3.03-1.257,5.445-3.18,6.442-6.448
		C44.641,84.466,44.659,82.244,44.324,80.023z M19.146,73.238c-0.241-2.957-0.508-5.911-0.786-8.865
		c-0.054-0.575,0.045-0.814,0.726-0.861c2.757-0.189,5.518-0.539,8.228,0.285c3.408,1.037,4.62,4.916,2.276,7.253
		c-0.911,0.908-2.047,1.462-3.007,1.717c-2.373,0.789-4.553,0.925-6.733,1.075C19.39,73.874,19.187,73.741,19.146,73.238z
		 M31.89,87.847c-0.685,0.392-1.389,0.736-1.994,0.899c-2.93,1.017-5.838,1.162-8.72,1.471c-0.489,0.053-0.682-0.176-0.723-0.63
		c-0.303-3.296-0.608-6.591-0.922-9.885c-0.041-0.426-0.016-0.697,0.533-0.746c2.923-0.258,5.839-0.655,8.782-0.273
		c0.989,0.129,1.937,0.37,2.847,0.796c1.756,0.821,2.674,2.201,2.719,4.112C34.457,85.507,33.536,86.903,31.89,87.847z"/>
</g>
<polygon fill="none" stroke="#2BA0BF" stroke-width="0.2" stroke-miterlimit="10" points="403.987,32.667 402.806,43.678 
	400.641,41.986 400.641,41.986 393.25,52.889 401.626,59.24 382.845,95.861 382.782,95.587 381.109,87.836 394.999,60.75 
	386.169,54.054 396.529,38.772 396.529,38.772 394.192,36.946 "/>
<g>
	<g>
		<circle fill="#FFD345" cx="12.968" cy="429.38" r="42.862"/>
		<path fill="#FFE68D" d="M55.274,436.257l-33.471-7.115l33.18-8.273c-0.264-1.308-0.591-2.593-0.971-3.855l-33.17,8.27L47,403.335
			c-0.807-1.053-1.66-2.068-2.56-3.041L18.286,422.24l13.882-31.179c-1.181-0.593-2.393-1.131-3.632-1.615l-13.579,30.5v-33.377
			c-0.659-0.03-1.321-0.05-1.988-0.05c-0.667,0-1.328,0.02-1.988,0.05v34.119l-14.964-30.68c-1.221,0.527-2.415,1.105-3.575,1.739
			L7.408,422.43l-26.903-21.019c-0.865,1.003-1.684,2.046-2.454,3.127l26.91,21.024l-33.444-7.109
			c-0.335,1.274-0.608,2.572-0.825,3.888l33.443,7.108l-33.208,8.28c0.259,1.309,0.58,2.595,0.955,3.859l33.215-8.281
			l-26.239,22.017c0.804,1.056,1.654,2.074,2.55,3.049l26.244-22.021l-13.943,31.315c1.18,0.595,2.39,1.135,3.63,1.621
			l13.643-30.642v33.544c0.659,0.03,1.321,0.05,1.988,0.05c0.667,0,1.328-0.02,1.988-0.05v-34.286l15.03,30.817
			c1.22-0.529,2.413-1.109,3.571-1.745l-15.029-30.814l26.99,21.087c0.862-1.006,1.677-2.052,2.444-3.135L20.976,433.03
			l33.488,7.118C54.794,438.874,55.061,437.575,55.274,436.257z"/>
		<circle fill="#FF9F4C" cx="12.968" cy="429.38" r="36.061"/>
		<circle fill="#FFBA49" cx="12.968" cy="429.38" r="33.789"/>
	</g>
	<path fill="#FFF2D2" d="M31.596,432.511c-0.472-3.13-2.295-5.016-5.333-5.789c-0.347-0.088-0.75-0.013-1.056-0.341
		c0.065-0.083,0.116-0.189,0.199-0.248c1.901-1.328,2.679-3.178,2.685-5.462c0.01-3.493-1.971-6.162-5.314-7.113
		c-1.709-0.486-3.447-0.656-5.209-0.639c-0.651,0.006-0.955-0.156-0.983-0.889c-0.066-1.725-0.254-3.444-0.342-5.169
		c-0.011-0.208-0.046-0.366-0.097-0.501l-4.209,0.308c0.001,0.049-0.006,0.088,0,0.145c0.185,1.802,0.305,3.61,0.486,5.412
		c0.051,0.503-0.078,0.748-0.593,0.794c-0.648,0.057-1.299,0.117-1.939,0.23c-0.688,0.122-0.876-0.14-0.903-0.811
		c-0.072-1.753-0.238-3.501-0.34-5.253c-0.006-0.108-0.024-0.194-0.046-0.273l-4.025,0.294c-0.025,0.11-0.033,0.238-0.019,0.397
		c0.149,1.634,0.245,3.272,0.383,4.907c0.105,1.241,0.067,1.306-1.129,1.428c-0.113,0.011-0.227,0.014-0.34,0.023
		c-2.029,0.168-4.058,0.339-6.088,0.502c-0.038,0.003-0.074,0.007-0.11,0.011l0.442,4.544c0.743-0.081,1.488-0.143,2.233-0.192
		c1.404-0.091,2.201,0.52,2.413,1.925c0.143,0.951,0.181,1.918,0.268,2.877c0.467,5.162,0.938,10.323,1.397,15.485
		c0.101,1.131-0.369,1.684-1.508,1.813c-0.618,0.07-1.238,0.132-1.858,0.167c-0.067,0.98-0.219,3.168-0.374,5.141
		c2.179-0.179,4.37-0.207,6.542-0.488c0.624-0.08,0.812,0.133,0.842,0.776c0.086,1.826,0.27,3.648,0.401,5.472l4.306-0.242
		c-0.002-0.029,0.003-0.048,0-0.079c-0.177-1.717-0.258-3.444-0.412-5.164c-0.057-0.638,0.062-1.023,0.807-1.031
		c0.563-0.006,1.131-0.077,1.686-0.18c0.654-0.121,0.909,0.086,0.943,0.77c0.089,1.78,0.255,3.556,0.367,5.335
		c0.004,0.06,0.017,0.103,0.024,0.157l4.34-0.244c-0.001-0.005,0.001-0.008,0-0.013c-0.157-1.773-0.199-3.557-0.357-5.33
		c-0.07-0.789,0.203-1.098,0.967-1.212c1.798-0.268,3.551-0.743,5.232-1.44c2.51-1.041,4.511-2.634,5.337-5.342
		C31.858,436.192,31.873,434.352,31.596,432.511z M10.736,426.89c-0.2-2.45-0.421-4.898-0.651-7.345
		c-0.045-0.476,0.037-0.674,0.602-0.713c2.284-0.157,4.572-0.446,6.817,0.236c2.824,0.859,3.827,4.073,1.886,6.009
		c-0.754,0.752-1.696,1.211-2.491,1.423c-1.966,0.654-3.773,0.766-5.579,0.891C10.938,427.417,10.77,427.307,10.736,426.89z
		 M21.294,438.994c-0.567,0.325-1.151,0.61-1.652,0.745c-2.428,0.843-4.837,0.962-7.225,1.219c-0.405,0.044-0.565-0.146-0.599-0.522
		c-0.251-2.73-0.504-5.46-0.764-8.19c-0.034-0.353-0.013-0.578,0.442-0.618c2.422-0.214,4.837-0.543,7.276-0.226
		c0.82,0.107,1.605,0.307,2.359,0.659c1.455,0.68,2.215,1.823,2.253,3.406C23.421,437.055,22.658,438.212,21.294,438.994z"/>
</g>
<polygon fill="none" stroke="#2BA0BF" stroke-width="0.2" stroke-miterlimit="10" points="652.173,120.374 649.627,131.68 
	646.771,130.137 646.771,130.137 635.642,141.847 646.706,147.617 617.685,186.448 617.62,186.175 615.947,178.424 637.411,149.703 
	625.747,143.62 641.348,127.206 641.348,127.206 638.266,125.54 "/>
<g>
	<g>
		<circle fill="#FFD345" cx="535.342" cy="518.695" r="23.394"/>
		<path fill="#FFE68D" d="M558.432,522.448l-18.268-3.883l18.109-4.515c-0.144-0.714-0.323-1.415-0.53-2.104l-18.104,4.514
			l14.278-11.98c-0.441-0.575-0.906-1.129-1.397-1.66l-14.275,11.978l7.577-17.017c-0.644-0.324-1.306-0.617-1.983-0.881
			l-7.411,16.646v-18.217c-0.36-0.016-0.721-0.027-1.085-0.027s-0.725,0.011-1.085,0.027v18.622l-8.167-16.745
			c-0.667,0.287-1.318,0.603-1.951,0.949l8.168,16.747l-14.684-11.472c-0.472,0.548-0.919,1.117-1.339,1.707l14.687,11.475
			l-18.253-3.88c-0.183,0.695-0.332,1.404-0.45,2.122l18.253,3.88l-18.125,4.519c0.141,0.715,0.317,1.416,0.521,2.106l18.128-4.52
			l-14.321,12.017c0.439,0.576,0.903,1.132,1.392,1.664L532.44,522.5l-7.61,17.092c0.644,0.325,1.305,0.619,1.981,0.885
			l7.446-16.724v18.308c0.36,0.016,0.721,0.027,1.085,0.027s0.725-0.011,1.085-0.027v-18.713l8.203,16.82
			c0.666-0.288,1.317-0.605,1.949-0.952l-8.203-16.818l14.731,11.509c0.47-0.549,0.915-1.12,1.334-1.711l-14.729-11.508
			l18.278,3.885C558.17,523.876,558.316,523.167,558.432,522.448z"/>
		<circle fill="#FF9F4C" cx="535.342" cy="518.695" r="19.682"/>
		<circle fill="#FFBA49" cx="535.342" cy="518.695" r="18.442"/>
	</g>
	<path fill="#FFF2D2" d="M545.508,520.404c-0.258-1.708-1.253-2.738-2.911-3.16c-0.189-0.048-0.41-0.007-0.576-0.186
		c0.036-0.045,0.063-0.103,0.109-0.135c1.038-0.725,1.462-1.735,1.466-2.981c0.005-1.906-1.076-3.363-2.9-3.882
		c-0.933-0.266-1.881-0.358-2.843-0.349c-0.355,0.003-0.521-0.085-0.537-0.485c-0.036-0.941-0.139-1.88-0.187-2.821
		c-0.006-0.113-0.025-0.2-0.053-0.273l-2.297,0.168c0,0.027-0.003,0.048,0,0.079c0.101,0.983,0.166,1.97,0.265,2.954
		c0.028,0.274-0.043,0.408-0.324,0.433c-0.354,0.031-0.709,0.064-1.058,0.126c-0.375,0.067-0.478-0.076-0.493-0.442
		c-0.039-0.957-0.13-1.911-0.185-2.867c-0.003-0.059-0.013-0.106-0.025-0.149l-2.197,0.161c-0.014,0.06-0.018,0.13-0.01,0.216
		c0.081,0.892,0.134,1.786,0.209,2.678c0.057,0.677,0.036,0.713-0.616,0.779c-0.062,0.006-0.124,0.008-0.185,0.013
		c-1.108,0.092-2.215,0.185-3.323,0.274c-0.021,0.002-0.04,0.004-0.06,0.006l0.241,2.48c0.405-0.044,0.812-0.078,1.219-0.105
		c0.766-0.05,1.201,0.284,1.317,1.051c0.078,0.519,0.099,1.047,0.146,1.57c0.255,2.817,0.512,5.634,0.763,8.452
		c0.055,0.617-0.202,0.919-0.823,0.989c-0.337,0.038-0.676,0.072-1.014,0.091c-0.036,0.535-0.119,1.729-0.204,2.806
		c1.189-0.098,2.385-0.113,3.57-0.266c0.34-0.044,0.443,0.073,0.46,0.423c0.047,0.997,0.148,1.991,0.219,2.987l2.35-0.132
		c-0.001-0.016,0.002-0.026,0-0.043c-0.097-0.937-0.141-1.88-0.225-2.819c-0.031-0.348,0.034-0.559,0.441-0.563
		c0.307-0.003,0.617-0.042,0.92-0.098c0.357-0.066,0.496,0.047,0.515,0.42c0.049,0.972,0.139,1.941,0.2,2.912
		c0.002,0.033,0.009,0.056,0.013,0.086l2.369-0.133c0-0.003,0-0.004,0-0.007c-0.086-0.968-0.109-1.941-0.195-2.909
		c-0.038-0.431,0.111-0.599,0.528-0.662c0.981-0.146,1.938-0.405,2.856-0.786c1.37-0.568,2.462-1.438,2.913-2.916
		C545.652,522.413,545.66,521.408,545.508,520.404z M534.123,517.335c-0.109-1.337-0.23-2.673-0.355-4.009
		c-0.024-0.26,0.02-0.368,0.328-0.389c1.247-0.085,2.495-0.244,3.721,0.129c1.541,0.469,2.089,2.223,1.029,3.28
		c-0.412,0.411-0.926,0.661-1.36,0.776c-1.073,0.357-2.059,0.418-3.045,0.486C534.233,517.623,534.142,517.563,534.123,517.335z
		 M539.886,523.942c-0.31,0.177-0.628,0.333-0.902,0.407c-1.325,0.46-2.64,0.525-3.943,0.665c-0.221,0.024-0.308-0.079-0.327-0.285
		c-0.137-1.49-0.275-2.98-0.417-4.47c-0.018-0.193-0.007-0.315,0.241-0.337c1.322-0.117,2.64-0.296,3.971-0.123
		c0.447,0.058,0.876,0.167,1.288,0.36c0.794,0.371,1.209,0.995,1.23,1.859C541.047,522.883,540.63,523.515,539.886,523.942z"/>
</g>
<g>
	<path fill="#FFDA00" d="M392.61,531.009c0.026-0.254,0.045-0.508,0.092-0.762c0.04-0.198,0.1-0.396,0.156-0.596
		c0.061-0.24,0.126-0.48,0.211-0.717c0.07-0.195,0.161-0.385,0.247-0.576c0.113-0.251,0.219-0.498,0.355-0.747
		c0.185-0.337,0.384-0.673,0.615-0.997c0.037-0.056,0.079-0.11,0.118-0.161c0.241-0.329,0.504-0.659,0.794-0.979
		c0.055-0.059,0.099-0.118,0.154-0.176c0.307-0.335,0.65-0.66,1.012-0.982c0.23-0.202,0.478-0.396,0.725-0.589
		c0.223-0.179,0.443-0.359,0.683-0.534c0.265-0.187,0.559-0.368,0.845-0.555c0.304-0.195,0.595-0.397,0.92-0.583
		c0.718-0.412,1.481-0.775,2.261-1.124c0.221-0.096,0.447-0.19,0.676-0.282c0.611-0.252,1.239-0.485,1.88-0.699
		c0.23-0.077,0.453-0.156,0.684-0.227c0.405-0.126,0.818-0.233,1.232-0.345c0.309-0.082,0.617-0.171,0.937-0.245
		c0.433-0.104,0.875-0.187,1.318-0.275c0.3-0.053,0.596-0.123,0.898-0.174c0.894-0.153,1.799-0.271,2.714-0.361
		c0.276-0.026,0.556-0.04,0.84-0.062c0.539-0.044,1.078-0.077,1.618-0.098c0.339-0.013,0.684-0.018,1.025-0.021
		c0.438-0.004,0.875-0.007,1.311,0.004c0.365,0.007,0.729,0.019,1.093,0.035c0.4,0.021,0.802,0.042,1.201,0.071
		c0.37,0.03,0.739,0.062,1.105,0.101c0.401,0.041,0.797,0.09,1.194,0.143c0.35,0.048,0.703,0.099,1.053,0.157
		c0.428,0.068,0.853,0.147,1.271,0.23c0.328,0.063,0.659,0.132,0.983,0.206c0.501,0.112,0.988,0.239,1.475,0.37
		c0.274,0.073,0.549,0.146,0.823,0.228c0.872,0.261,1.724,0.551,2.55,0.879c0.408,0.164,0.804,0.341,1.196,0.519
		c0.207,0.093,0.418,0.178,0.619,0.274c0.599,0.288,1.178,0.597,1.742,0.926c4.681,2.742,7.002,6.318,6.968,9.871l0.066-6.632
		c0.032-3.558-2.29-7.131-6.968-9.874c-0.564-0.327-1.146-0.636-1.749-0.927c-0.188-0.09-0.385-0.168-0.582-0.255
		c-0.364-0.165-0.726-0.341-1.102-0.49c-0.043-0.018-0.091-0.029-0.131-0.048c-0.827-0.326-1.678-0.616-2.55-0.88
		c-0.072-0.019-0.134-0.049-0.21-0.069c-0.197-0.059-0.406-0.099-0.609-0.156c-0.487-0.13-0.976-0.256-1.476-0.371
		c-0.131-0.032-0.258-0.071-0.394-0.1c-0.194-0.041-0.391-0.068-0.587-0.106c-0.421-0.083-0.845-0.163-1.273-0.23
		c-0.168-0.027-0.335-0.067-0.502-0.09c-0.183-0.03-0.369-0.039-0.547-0.069c-0.398-0.05-0.793-0.098-1.194-0.136
		c-0.191-0.023-0.379-0.054-0.574-0.07c-0.176-0.015-0.356-0.02-0.535-0.031c-0.399-0.031-0.801-0.054-1.201-0.074
		c-0.204-0.009-0.408-0.031-0.612-0.037c-0.158-0.005-0.32,0.002-0.478-0.001c-0.439-0.005-0.875-0.008-1.313-0.001
		c-0.214,0.003-0.432-0.009-0.648-0.004c-0.124,0.005-0.251,0.02-0.378,0.021c-0.541,0.022-1.08,0.059-1.617,0.1
		c-0.219,0.015-0.434,0.018-0.645,0.036c-0.067,0.01-0.133,0.02-0.199,0.03c-0.91,0.088-1.817,0.204-2.709,0.357
		c-0.043,0.006-0.088,0.008-0.135,0.015c-0.26,0.045-0.51,0.109-0.763,0.163c-0.443,0.083-0.887,0.167-1.325,0.27
		c-0.312,0.075-0.618,0.163-0.927,0.245c-0.416,0.107-0.832,0.216-1.239,0.342c-0.083,0.029-0.176,0.047-0.263,0.074
		c-0.141,0.045-0.273,0.105-0.418,0.154c-0.642,0.215-1.269,0.447-1.881,0.7c-0.228,0.095-0.457,0.185-0.681,0.285
		c-0.78,0.346-1.539,0.713-2.254,1.124c-0.1,0.054-0.195,0.112-0.294,0.169c-0.22,0.133-0.416,0.278-0.625,0.414
		c-0.289,0.184-0.58,0.367-0.851,0.556c-0.238,0.173-0.454,0.35-0.677,0.532c-0.247,0.193-0.5,0.388-0.729,0.59
		c-0.045,0.04-0.102,0.08-0.148,0.121c-0.31,0.283-0.593,0.57-0.864,0.86c-0.055,0.06-0.103,0.119-0.157,0.18
		c-0.16,0.177-0.326,0.358-0.467,0.54c-0.115,0.145-0.218,0.293-0.323,0.437c-0.037,0.056-0.079,0.103-0.114,0.157
		c-0.191,0.272-0.373,0.547-0.533,0.824c-0.033,0.061-0.052,0.121-0.086,0.18c-0.132,0.245-0.238,0.49-0.351,0.739
		c-0.064,0.145-0.152,0.287-0.211,0.433c-0.014,0.048-0.02,0.099-0.039,0.148c-0.083,0.238-0.148,0.472-0.208,0.71
		c-0.044,0.159-0.111,0.319-0.141,0.479c-0.009,0.044-0.01,0.087-0.017,0.131c-0.046,0.248-0.065,0.502-0.09,0.75
		c-0.017,0.163-0.054,0.326-0.061,0.487c0,0.067-0.004,0.139-0.005,0.21l-0.059,6.633
		C392.553,531.468,392.588,531.239,392.61,531.009z"/>
	<path fill="#FFD859" d="M392.703,530.247c0.04-0.198,0.1-0.396,0.156-0.596c0.061-0.24,0.126-0.48,0.211-0.717
		c0.07-0.195,0.161-0.385,0.247-0.576c0.113-0.251,0.219-0.498,0.355-0.747c0.185-0.337,0.384-0.673,0.615-0.997
		c0.037-0.056,0.079-0.11,0.118-0.161c0.241-0.329,0.504-0.659,0.794-0.979c0.055-0.059,0.099-0.118,0.154-0.176
		c0.307-0.335,0.65-0.66,1.012-0.982c0.23-0.202,0.478-0.396,0.725-0.589c0.223-0.179,0.443-0.359,0.683-0.534
		c0.265-0.187,0.559-0.368,0.845-0.555c0.304-0.195,0.595-0.397,0.92-0.583c0.718-0.412,1.481-0.775,2.261-1.124
		c0.221-0.096,0.447-0.19,0.676-0.282c0.611-0.252,1.239-0.485,1.88-0.699c0.23-0.077,0.453-0.156,0.684-0.227
		c0.405-0.126,0.818-0.233,1.232-0.345c0.309-0.082,0.617-0.171,0.937-0.245c0.433-0.104,0.875-0.187,1.318-0.275
		c0.3-0.053,0.596-0.123,0.898-0.174c0.894-0.153,1.799-0.271,2.714-0.361c0.276-0.026,0.556-0.04,0.84-0.062
		c0.539-0.044,1.078-0.077,1.618-0.098c0.339-0.013,0.684-0.018,1.025-0.021c0.438-0.004,0.875-0.007,1.311,0.004
		c0.365,0.007,0.729,0.019,1.093,0.035c0.4,0.021,0.802,0.042,1.201,0.071c0.37,0.03,0.739,0.062,1.105,0.101
		c0.401,0.041,0.797,0.09,1.194,0.143c0.35,0.048,0.703,0.099,1.053,0.157c0.428,0.068,0.853,0.147,1.271,0.23
		c0.328,0.063,0.659,0.132,0.983,0.206c0.501,0.112,0.988,0.239,1.475,0.37c0.274,0.073,0.549,0.146,0.823,0.228
		c0.872,0.261,1.724,0.551,2.55,0.879c0.408,0.164,0.804,0.341,1.196,0.519c0.207,0.093,0.418,0.178,0.619,0.274
		c0.599,0.288,1.178,0.597,1.742,0.926c4.681,2.742,7.002,6.318,6.968,9.871l0.045-4.387c-0.002-3.528-2.321-7.07-6.962-9.793
		c-0.564-0.33-1.146-0.639-1.749-0.927c-0.188-0.09-0.385-0.168-0.582-0.255c-0.364-0.168-0.726-0.338-1.102-0.491
		c-0.043-0.017-0.091-0.028-0.131-0.043c-0.827-0.332-1.678-0.619-2.55-0.883c-0.072-0.019-0.134-0.051-0.21-0.071
		c-0.197-0.058-0.406-0.096-0.609-0.152c-0.487-0.135-0.976-0.26-1.476-0.375c-0.131-0.027-0.258-0.069-0.394-0.1
		c-0.194-0.042-0.391-0.068-0.587-0.106c-0.421-0.083-0.845-0.158-1.273-0.227c-0.168-0.026-0.335-0.068-0.502-0.09
		c-0.183-0.031-0.369-0.042-0.547-0.069c-0.398-0.053-0.793-0.096-1.194-0.139c-0.191-0.019-0.379-0.053-0.574-0.07
		c-0.176-0.014-0.356-0.018-0.535-0.03c-0.399-0.031-0.801-0.053-1.201-0.073c-0.204-0.009-0.408-0.031-0.612-0.035
		c-0.158-0.005-0.32,0-0.478-0.003c-0.439-0.007-0.875-0.006-1.313-0.001c-0.214,0.001-0.432-0.008-0.648-0.002
		c-0.124,0.003-0.251,0.02-0.378,0.023c-0.541,0.022-1.08,0.053-1.617,0.095c-0.22,0.02-0.434,0.018-0.645,0.039
		c-0.067,0.007-0.133,0.02-0.199,0.027c-0.91,0.089-1.817,0.206-2.709,0.357c-0.043,0.008-0.088,0.01-0.135,0.02
		c-0.26,0.043-0.51,0.108-0.763,0.158c-0.443,0.082-0.887,0.171-1.325,0.273c-0.312,0.071-0.618,0.16-0.927,0.242
		c-0.416,0.113-0.832,0.222-1.239,0.346c-0.083,0.024-0.176,0.045-0.263,0.072c-0.141,0.047-0.273,0.107-0.418,0.154
		c-0.642,0.218-1.269,0.447-1.881,0.699c-0.228,0.096-0.457,0.186-0.681,0.289c-0.78,0.342-1.539,0.711-2.254,1.118
		c-0.1,0.054-0.196,0.115-0.294,0.172c-0.22,0.133-0.416,0.275-0.625,0.411c-0.289,0.186-0.58,0.367-0.851,0.559
		c-0.238,0.17-0.454,0.353-0.677,0.529c-0.247,0.195-0.5,0.388-0.729,0.592c-0.045,0.04-0.102,0.08-0.148,0.121
		c-0.31,0.282-0.593,0.567-0.864,0.86c-0.055,0.056-0.103,0.119-0.157,0.18c-0.16,0.179-0.326,0.356-0.467,0.539
		c-0.115,0.146-0.218,0.292-0.323,0.437c-0.037,0.054-0.079,0.104-0.114,0.155c-0.191,0.273-0.373,0.549-0.533,0.825
		c-0.033,0.061-0.052,0.125-0.086,0.183c-0.132,0.244-0.238,0.49-0.351,0.74c-0.064,0.143-0.152,0.288-0.211,0.43
		c-0.014,0.051-0.02,0.102-0.039,0.15c-0.083,0.236-0.148,0.471-0.208,0.708c-0.044,0.163-0.111,0.322-0.141,0.482
		c-0.009,0.045-0.01,0.087-0.017,0.132c-0.046,0.249-0.065,0.497-0.09,0.746c-0.017,0.166-0.054,0.326-0.061,0.487
		c0,0.072-0.004,0.141-0.005,0.211l-0.041,4.227c0.011-0.205,0.036-0.406,0.056-0.609
		C392.636,530.755,392.656,530.501,392.703,530.247z"/>
	<path fill="#FF9E03" d="M392.703,530.247c0.04-0.198,0.1-0.396,0.156-0.596c0.061-0.24,0.126-0.48,0.211-0.717
		c0.07-0.195,0.161-0.385,0.247-0.576c0.113-0.251,0.219-0.498,0.355-0.747c0.185-0.337,0.384-0.673,0.615-0.997
		c0.037-0.056,0.079-0.11,0.118-0.161c0.241-0.329,0.504-0.659,0.794-0.979c0.055-0.059,0.099-0.118,0.154-0.176
		c0.307-0.335,0.65-0.66,1.012-0.982c0.23-0.202,0.478-0.396,0.725-0.589c0.223-0.179,0.443-0.359,0.683-0.534
		c0.265-0.187,0.559-0.368,0.845-0.555c0.304-0.195,0.595-0.397,0.92-0.583c0.718-0.412,1.481-0.775,2.261-1.124
		c0.221-0.096,0.447-0.19,0.676-0.282c0.611-0.252,1.239-0.485,1.88-0.699c0.23-0.077,0.453-0.156,0.684-0.227
		c0.405-0.126,0.818-0.233,1.232-0.345c0.309-0.082,0.617-0.171,0.937-0.245c0.433-0.104,0.875-0.187,1.318-0.275
		c0.3-0.053,0.596-0.123,0.898-0.174c0.894-0.153,1.799-0.271,2.714-0.361c0.276-0.026,0.556-0.04,0.84-0.062
		c0.539-0.044,1.078-0.077,1.618-0.098c0.339-0.013,0.684-0.018,1.025-0.021c0.438-0.004,0.875-0.007,1.311,0.004
		c0.365,0.007,0.729,0.019,1.093,0.035c0.4,0.021,0.802,0.042,1.201,0.071c0.37,0.03,0.739,0.062,1.105,0.101
		c0.401,0.041,0.797,0.09,1.194,0.143c0.35,0.048,0.703,0.099,1.053,0.157c0.428,0.068,0.853,0.147,1.271,0.23
		c0.328,0.063,0.659,0.132,0.983,0.206c0.501,0.112,0.988,0.239,1.475,0.37c0.274,0.073,0.549,0.146,0.823,0.228
		c0.872,0.261,1.724,0.551,2.55,0.879c0.408,0.164,0.804,0.341,1.196,0.519c0.207,0.093,0.418,0.178,0.619,0.274
		c0.599,0.288,1.178,0.597,1.742,0.926c4.681,2.742,7.002,6.318,6.968,9.871l0.045-4.387c-0.002-3.528-2.321-7.07-6.962-9.793
		c-0.564-0.33-1.146-0.639-1.749-0.927c-0.188-0.09-0.385-0.168-0.582-0.255c-0.364-0.168-0.726-0.338-1.102-0.491
		c-0.043-0.017-0.091-0.028-0.131-0.043c-0.827-0.332-1.678-0.619-2.55-0.883c-0.072-0.019-0.134-0.051-0.21-0.071
		c-0.197-0.058-0.406-0.096-0.609-0.152c-0.487-0.135-0.976-0.26-1.476-0.375c-0.131-0.027-0.258-0.069-0.394-0.1
		c-0.194-0.042-0.391-0.068-0.587-0.106c-0.421-0.083-0.845-0.158-1.273-0.227c-0.168-0.026-0.335-0.068-0.502-0.09
		c-0.183-0.031-0.369-0.042-0.547-0.069c-0.398-0.053-0.793-0.096-1.194-0.139c-0.191-0.019-0.379-0.053-0.574-0.07
		c-0.176-0.014-0.356-0.018-0.535-0.03c-0.399-0.031-0.801-0.053-1.201-0.073c-0.204-0.009-0.408-0.031-0.612-0.035
		c-0.158-0.005-0.32,0-0.478-0.003c-0.439-0.007-0.875-0.006-1.313-0.001c-0.214,0.001-0.432-0.008-0.648-0.002
		c-0.124,0.003-0.251,0.02-0.378,0.023c-0.541,0.022-1.08,0.053-1.617,0.095c-0.22,0.02-0.434,0.018-0.645,0.039
		c-0.067,0.007-0.133,0.02-0.199,0.027c-0.91,0.089-1.817,0.206-2.709,0.357c-0.043,0.008-0.088,0.01-0.135,0.02
		c-0.26,0.043-0.51,0.108-0.763,0.158c-0.443,0.082-0.887,0.171-1.325,0.273c-0.312,0.071-0.618,0.16-0.927,0.242
		c-0.416,0.113-0.832,0.222-1.239,0.346c-0.083,0.024-0.176,0.045-0.263,0.072c-0.141,0.047-0.273,0.107-0.418,0.154
		c-0.642,0.218-1.269,0.447-1.881,0.699c-0.228,0.096-0.457,0.186-0.681,0.289c-0.78,0.342-1.539,0.711-2.254,1.118
		c-0.1,0.054-0.196,0.115-0.294,0.172c-0.22,0.133-0.416,0.275-0.625,0.411c-0.289,0.186-0.58,0.367-0.851,0.559
		c-0.238,0.17-0.454,0.353-0.677,0.529c-0.247,0.195-0.5,0.388-0.729,0.592c-0.045,0.04-0.102,0.08-0.148,0.121
		c-0.31,0.282-0.593,0.567-0.864,0.86c-0.055,0.056-0.103,0.119-0.157,0.18c-0.16,0.179-0.326,0.356-0.467,0.539
		c-0.115,0.146-0.218,0.292-0.323,0.437c-0.037,0.054-0.079,0.104-0.114,0.155c-0.191,0.273-0.373,0.549-0.533,0.825
		c-0.033,0.061-0.052,0.125-0.086,0.183c-0.132,0.244-0.238,0.49-0.351,0.74c-0.064,0.143-0.152,0.288-0.211,0.43
		c-0.014,0.051-0.02,0.102-0.039,0.15c-0.083,0.236-0.148,0.471-0.208,0.708c-0.044,0.163-0.111,0.322-0.141,0.482
		c-0.009,0.045-0.01,0.087-0.017,0.132c-0.046,0.249-0.065,0.497-0.09,0.746c-0.017,0.166-0.054,0.326-0.061,0.487
		c0,0.072-0.004,0.141-0.005,0.211l-0.041,4.227c0.011-0.205,0.036-0.406,0.056-0.609
		C392.636,530.755,392.656,530.501,392.703,530.247z"/>
	<g>
		<g>
			<path fill="#F2B42B" d="M399.52,541.577c-9.302-5.456-9.295-14.195,0.017-19.524c9.313-5.33,24.398-5.225,33.699,0.23
				c9.299,5.45,9.292,14.183-0.02,19.516C423.904,547.128,408.819,547.032,399.52,541.577z"/>
		</g>
	</g>
	<g>
		<path fill="#FFD859" d="M399.52,541.577c-9.302-5.456-9.295-14.195,0.017-19.524c9.313-5.33,24.398-5.225,33.699,0.23
			c9.299,5.45,9.292,14.183-0.02,19.516C423.904,547.128,408.819,547.032,399.52,541.577z"/>
	</g>
	<g>
		<g>
			<g>
				<path fill="#FFDA00" d="M399.527,540.412c-9.305-5.45-9.303-13.03,0.009-18.359c9.313-5.33,24.398-5.225,33.699,0.23
					c9.299,5.45,9.3,13.024-0.012,18.351C423.912,545.964,408.827,545.868,399.527,540.412z"/>
			</g>
		</g>
	</g>
	<path fill="#FFED94" d="M433.224,540.635c-9.312,5.329-24.398,5.232-33.697-0.223c-4.391-2.573-6.685-5.621-6.925-8.681
		c-0.32,3.445,1.968,6.945,6.917,9.846c9.299,5.455,24.385,5.551,33.697,0.222c4.914-2.814,7.209-6.251,6.937-9.672
		C439.874,535.156,437.581,538.141,433.224,540.635z"/>
	<g>
		<g>
			<path fill="#DE821F" d="M403.057,539.558c-7.353-4.314-7.346-11.228,0.02-15.438c7.36-4.211,19.287-4.13,26.638,0.185
				c7.357,4.309,7.346,11.216-0.017,15.428C422.337,543.946,410.412,543.868,403.057,539.558z"/>
		</g>
	</g>
	<g>
		<g>
			<path fill="#FFB101" d="M403.584,538.824c-7.058-4.271-7.051-11.128,0.022-15.309c7.072-4.176,18.528-4.098,25.589,0.176
				c7.063,4.273,7.056,11.122-0.019,15.3C422.105,543.171,410.65,543.097,403.584,538.824z"/>
		</g>
	</g>
	<g>
		<g>
			<g>
				<path fill="#FFD859" d="M404.334,537.743l2.616-1.501c-1.564-0.963-2.229-1.863-2.488-2.575l2.393-0.647
					c0.219,0.544,0.762,1.541,2.448,2.532c2.071,1.212,4.06,0.958,5.147,0.336c1.387-0.795,1.084-1.762-0.24-3.708
					c-1.626-2.256-1.662-3.862,0.712-5.222c2.13-1.217,5.589-1.477,8.826-0.113l2.774-1.587l1.665,0.976l-2.694,1.543
					c1.527,0.914,2.648,2.136,2.911,3.079l-2.453,0.66c-0.298-0.945-1.187-2.046-2.67-2.918c-1.929-1.129-4.302-1.261-5.809-0.4
					c-1.508,0.864-1.369,1.996-0.185,3.62c1.666,2.213,2.124,3.929-0.185,5.249c-2.234,1.28-5.532,1.305-8.385,0.12l-2.696,1.543
					L404.334,537.743z"/>
			</g>
		</g>
	</g>
</g>
<g>
	<g>
		<g enable-background="new    ">
			<g>
				<polygon fill="#FFFFFF" stroke="#000000" stroke-width="0.1" stroke-miterlimit="10" points="167.815,296.902 167.772,311.875 
					161.67,315.422 161.712,300.448 				"/>
			</g>
			<g>
				<polygon fill="#FFFFFF" stroke="#000000" stroke-width="0.1" stroke-miterlimit="10" points="161.712,300.448 161.67,315.422 
					155.526,311.874 155.569,296.901 				"/>
			</g>
			<g>
				<polygon fill="#FFFFFF" stroke="#000000" stroke-width="0.1" stroke-miterlimit="10" points="167.815,296.902 161.712,300.448 
					155.569,296.901 161.67,293.355 				"/>
			</g>
		</g>
	</g>
	<g>
		<g enable-background="new    ">
			<g>
				<polygon fill="#FFFFFF" stroke="#000000" stroke-width="0.1" stroke-miterlimit="10" points="159.803,305.732 159.773,316.427 
					153.671,319.973 153.701,309.278 				"/>
			</g>
			<g>
				<polygon fill="#FFFFFF" stroke="#000000" stroke-width="0.1" stroke-miterlimit="10" points="153.701,309.278 153.671,319.973 
					147.529,316.427 147.559,305.732 				"/>
			</g>
			<g>
				<polygon fill="#FFFFFF" stroke="#000000" stroke-width="0.1" stroke-miterlimit="10" points="159.803,305.732 153.701,309.278 
					147.559,305.732 153.661,302.186 				"/>
			</g>
		</g>
	</g>
	<g>
		<g enable-background="new    ">
			<g>
				<polygon fill="#FFFFFF" stroke="#000000" stroke-width="0.1" stroke-miterlimit="10" points="151.665,314.436 151.646,320.853 
					145.543,324.399 145.562,317.982 				"/>
			</g>
			<g>
				<polygon fill="#FFFFFF" stroke="#000000" stroke-width="0.1" stroke-miterlimit="10" points="145.562,317.982 145.543,324.399 
					139.4,320.852 139.418,314.435 				"/>
			</g>
			<g>
				<g>
					<polygon fill="#FFFFFF" stroke="#000000" stroke-width="0.1" stroke-miterlimit="10" points="151.665,314.436 145.562,317.982 
						139.418,314.435 145.521,310.889 					"/>
				</g>
			</g>
		</g>
	</g>
	<g>
		<g enable-background="new    ">
			<g>
				<polygon fill="#FFFFFF" stroke="#000000" stroke-width="0.1" stroke-miterlimit="10" points="143.657,321.41 143.645,325.688 
					137.543,329.234 137.555,324.956 				"/>
			</g>
			<g>
				<polygon fill="#FFFFFF" stroke="#000000" stroke-width="0.1" stroke-miterlimit="10" points="137.555,324.956 137.543,329.234 
					131.399,325.686 131.411,321.409 				"/>
			</g>
			<g>
				<polygon fill="#FFFFFF" stroke="#000000" stroke-width="0.1" stroke-miterlimit="10" points="143.657,321.41 137.555,324.956 
					131.411,321.409 137.514,317.863 				"/>
			</g>
		</g>
	</g>
</g>
</svg>
