<?xml version="1.0" encoding="utf-8"?>
<!-- Generator: Adobe Illustrator 17.0.0, SVG Export Plug-In . SVG Version: 6.00 Build 0)  -->
<!DOCTYPE svg PUBLIC "-//W3C//DTD SVG 1.1//EN" "http://www.w3.org/Graphics/SVG/1.1/DTD/svg11.dtd">
<svg version="1.1" id="Layer_1" xmlns="http://www.w3.org/2000/svg" xmlns:xlink="http://www.w3.org/1999/xlink" x="0px" y="0px"
	 width="960px" height="960px" viewBox="0 0 960 960" enable-background="new 0 0 960 960" xml:space="preserve">
<linearGradient id="SVGID_1_" gradientUnits="userSpaceOnUse" x1="722.3729" y1="176.7439" x2="772.9309" y2="176.7439" gradientTransform="matrix(1 0 0 -1 174 1045)">
	<stop  offset="0.0955" style="stop-color:#BA1E12"/>
	<stop  offset="0.2882" style="stop-color:#BF2418"/>
	<stop  offset="0.5469" style="stop-color:#CC3529"/>
	<stop  offset="0.8418" style="stop-color:#E25045"/>
	<stop  offset="0.9833" style="stop-color:#EE6055"/>
</linearGradient>
<polygon fill="none" stroke="url(#SVGID_1_)" stroke-width="0.2" stroke-miterlimit="10" points="946.828,890.154 937.117,884.828 
	939.512,883.481 939.512,883.481 932.29,872.466 923.206,877.755 896.626,846.333 896.903,846.38 904.702,847.817 924.361,871.057 
	933.938,865.481 944.06,880.922 944.06,880.922 946.645,879.467 "/>
<polygon fill="none" stroke="#D3D3D3" stroke-miterlimit="10" points="945.283,629.761 950.32,641.303 947.228,640.851 
	947.228,640.851 946.069,655.785 957.921,657.34 960,704.095 959.784,703.861 953.764,697.146 952.226,662.565 939.731,660.925 
	941.355,639.993 941.355,639.993 938.018,639.505 "/>
<polygon fill="none" stroke="#727272" stroke-width="0.1" stroke-miterlimit="10" points="193.379,109.751 190.137,118.435 
	188.732,116.613 188.732,116.613 180.478,123.92 185.952,130.807 163.125,156.603 163.13,156.369 163.382,149.736 180.266,130.657 
	174.494,123.396 186.065,113.154 186.065,113.154 184.551,111.188 "/>
<g>
	<g>
		<g enable-background="new    ">
			<g>
				<polygon fill="#FFFFFF" stroke="#000000" stroke-width="0.1" stroke-miterlimit="10" points="304.65,840.331 304.574,866.735 
					293.814,872.989 293.887,846.583 				"/>
			</g>
			<g>
				<polygon fill="#FFFFFF" stroke="#000000" stroke-width="0.1" stroke-miterlimit="10" points="293.887,846.583 293.814,872.989 
					282.98,866.734 283.054,840.328 				"/>
			</g>
			<g>
				<polygon fill="#FFFFFF" stroke="#000000" stroke-width="0.1" stroke-miterlimit="10" points="304.65,840.331 293.887,846.583 
					283.054,840.328 293.814,834.075 				"/>
			</g>
		</g>
	</g>
	<g>
		<g enable-background="new    ">
			<g>
				<polygon fill="#FFFFFF" stroke="#000000" stroke-width="0.1" stroke-miterlimit="10" points="290.521,855.902 290.468,874.762 
					279.708,881.015 279.761,862.156 				"/>
			</g>
			<g>
				<polygon fill="#FFFFFF" stroke="#000000" stroke-width="0.1" stroke-miterlimit="10" points="279.761,862.156 279.708,881.015 
					268.877,874.762 268.929,855.902 				"/>
			</g>
			<g>
				<polygon fill="#FFFFFF" stroke="#000000" stroke-width="0.1" stroke-miterlimit="10" points="290.521,855.902 279.761,862.156 
					268.929,855.902 279.69,849.648 				"/>
			</g>
		</g>
	</g>
	<g>
		<g enable-background="new    ">
			<g>
				<polygon fill="#FFFFFF" stroke="#000000" stroke-width="0.1" stroke-miterlimit="10" points="276.17,871.251 276.136,882.567 
					265.375,888.821 265.408,877.504 				"/>
			</g>
			<g>
				<polygon fill="#FFFFFF" stroke="#000000" stroke-width="0.1" stroke-miterlimit="10" points="265.408,877.504 265.375,888.821 
					254.541,882.566 254.573,871.249 				"/>
			</g>
			<g>
				<g>
					<polygon fill="#FFFFFF" stroke="#000000" stroke-width="0.1" stroke-miterlimit="10" points="276.17,871.251 265.408,877.504 
						254.573,871.249 265.335,864.996 					"/>
				</g>
			</g>
		</g>
	</g>
	<g>
		<g enable-background="new    ">
			<g>
				<polygon fill="#FFFFFF" stroke="#000000" stroke-width="0.1" stroke-miterlimit="10" points="262.049,883.55 262.027,891.094 
					251.266,897.347 251.287,889.802 				"/>
			</g>
			<g>
				<polygon fill="#FFFFFF" stroke="#000000" stroke-width="0.1" stroke-miterlimit="10" points="251.287,889.802 251.266,897.347 
					240.432,891.091 240.454,883.548 				"/>
			</g>
			<g>
				<polygon fill="#FFFFFF" stroke="#000000" stroke-width="0.1" stroke-miterlimit="10" points="262.049,883.55 251.287,889.802 
					240.454,883.548 251.215,877.294 				"/>
			</g>
		</g>
	</g>
</g>
<polyline fill="none" stroke="#95CBE8" stroke-width="0.5" stroke-miterlimit="10" points="30.333,447.935 38.887,515.924 
	-41.879,539.686 "/>
<g>
	
		<linearGradient id="SVGID_2_" gradientUnits="userSpaceOnUse" x1="291.2446" y1="764.5173" x2="304.6199" y2="778.9215" gradientTransform="matrix(-0.6026 -0.798 -0.798 0.6026 828.4002 274.5885)">
		<stop  offset="0.0955" style="stop-color:#BA1E12"/>
		<stop  offset="0.2882" style="stop-color:#BF2418"/>
		<stop  offset="0.5469" style="stop-color:#CC3529"/>
		<stop  offset="0.8418" style="stop-color:#E25045"/>
		<stop  offset="0.9833" style="stop-color:#EE6055"/>
	</linearGradient>
	<circle fill="url(#SVGID_2_)" cx="32.782" cy="501.851" r="9.097"/>
	
		<linearGradient id="SVGID_3_" gradientUnits="userSpaceOnUse" x1="-150.315" y1="543.149" x2="-132.121" y2="543.149" gradientTransform="matrix(1 0 0 -1 174 1045)">
		<stop  offset="0.0955" style="stop-color:#BA1E12"/>
		<stop  offset="0.2882" style="stop-color:#BF2418"/>
		<stop  offset="0.5469" style="stop-color:#CC3529"/>
		<stop  offset="0.8418" style="stop-color:#E25045"/>
		<stop  offset="0.9833" style="stop-color:#EE6055"/>
	</linearGradient>
	<circle fill="url(#SVGID_3_)" cx="32.782" cy="501.851" r="9.097"/>
</g>
<g>
	
		<linearGradient id="SVGID_4_" gradientUnits="userSpaceOnUse" x1="347.1237" y1="756.2341" x2="334.6985" y2="738.9716" gradientTransform="matrix(-0.6026 -0.798 -0.798 0.6026 828.4002 274.5885)">
		<stop  offset="0.0955" style="stop-color:#009D88"/>
		<stop  offset="0.2489" style="stop-color:#06A089"/>
		<stop  offset="0.4549" style="stop-color:#17AA8B"/>
		<stop  offset="0.6908" style="stop-color:#33BA8E"/>
		<stop  offset="0.9471" style="stop-color:#5AD093"/>
		<stop  offset="0.9833" style="stop-color:#60D394"/>
	</linearGradient>
	<circle fill="url(#SVGID_4_)" cx="26.641" cy="453.041" r="9.097"/>
	
		<linearGradient id="SVGID_5_" gradientUnits="userSpaceOnUse" x1="-156.456" y1="591.959" x2="-138.262" y2="591.959" gradientTransform="matrix(1 0 0 -1 174 1045)">
		<stop  offset="0.0955" style="stop-color:#009D88"/>
		<stop  offset="0.2489" style="stop-color:#06A089"/>
		<stop  offset="0.4549" style="stop-color:#17AA8B"/>
		<stop  offset="0.6908" style="stop-color:#33BA8E"/>
		<stop  offset="0.9471" style="stop-color:#5AD093"/>
		<stop  offset="0.9833" style="stop-color:#60D394"/>
	</linearGradient>
	<circle fill="url(#SVGID_5_)" cx="26.641" cy="453.041" r="9.097"/>
</g>
<g opacity="0.6">
	
		<linearGradient id="SVGID_6_" gradientUnits="userSpaceOnUse" x1="276.4694" y1="882.6375" x2="440.8344" y2="882.6375" gradientTransform="matrix(1 0 0 -1 174 1045)">
		<stop  offset="0" style="stop-color:#E9F4FD"/>
		<stop  offset="1" style="stop-color:#DAEDFD"/>
	</linearGradient>
	
		<line fill="none" stroke="url(#SVGID_6_)" stroke-width="0.25" stroke-miterlimit="10" x1="450.469" y1="162.362" x2="614.834" y2="162.362"/>
	
		<linearGradient id="SVGID_7_" gradientUnits="userSpaceOnUse" x1="276.4694" y1="901.8585" x2="440.8344" y2="901.8585" gradientTransform="matrix(1 0 0 -1 174 1045)">
		<stop  offset="0" style="stop-color:#E9F4FD"/>
		<stop  offset="1" style="stop-color:#DAEDFD"/>
	</linearGradient>
	
		<line fill="none" stroke="url(#SVGID_7_)" stroke-width="0.25" stroke-miterlimit="10" x1="450.469" y1="143.142" x2="614.834" y2="143.142"/>
	
		<linearGradient id="SVGID_8_" gradientUnits="userSpaceOnUse" x1="276.4694" y1="921.0795" x2="440.8344" y2="921.0795" gradientTransform="matrix(1 0 0 -1 174 1045)">
		<stop  offset="0" style="stop-color:#E9F4FD"/>
		<stop  offset="1" style="stop-color:#DAEDFD"/>
	</linearGradient>
	
		<line fill="none" stroke="url(#SVGID_8_)" stroke-width="0.25" stroke-miterlimit="10" x1="450.469" y1="123.921" x2="614.834" y2="123.921"/>
	
		<linearGradient id="SVGID_9_" gradientUnits="userSpaceOnUse" x1="276.4694" y1="940.3005" x2="440.8344" y2="940.3005" gradientTransform="matrix(1 0 0 -1 174 1045)">
		<stop  offset="0" style="stop-color:#E9F4FD"/>
		<stop  offset="1" style="stop-color:#DAEDFD"/>
	</linearGradient>
	
		<line fill="none" stroke="url(#SVGID_9_)" stroke-width="0.25" stroke-miterlimit="10" x1="450.469" y1="104.7" x2="614.834" y2="104.7"/>
	
		<linearGradient id="SVGID_10_" gradientUnits="userSpaceOnUse" x1="276.4694" y1="959.5215" x2="440.8344" y2="959.5215" gradientTransform="matrix(1 0 0 -1 174 1045)">
		<stop  offset="0" style="stop-color:#E9F4FD"/>
		<stop  offset="1" style="stop-color:#DAEDFD"/>
	</linearGradient>
	
		<line fill="none" stroke="url(#SVGID_10_)" stroke-width="0.25" stroke-miterlimit="10" x1="450.469" y1="85.479" x2="614.834" y2="85.479"/>
	
		<linearGradient id="SVGID_11_" gradientUnits="userSpaceOnUse" x1="276.4694" y1="978.7425" x2="440.8344" y2="978.7425" gradientTransform="matrix(1 0 0 -1 174 1045)">
		<stop  offset="0" style="stop-color:#E9F4FD"/>
		<stop  offset="1" style="stop-color:#DAEDFD"/>
	</linearGradient>
	
		<line fill="none" stroke="url(#SVGID_11_)" stroke-width="0.25" stroke-miterlimit="10" x1="450.469" y1="66.258" x2="614.834" y2="66.258"/>
</g>
<g>
	
		<image overflow="visible" opacity="0.69" enable-background="new    " width="24" height="44" xlink:href="8BA1658E.png"  transform="matrix(0.973 0 0 0.973 435.9728 119.2713)">
	</image>
	<g>
		<g>
			<path fill="none" stroke="#727272" stroke-width="0.1" stroke-miterlimit="10" d="M447.964,120.578L447.964,120.578
				c-5.254,0-9.513,4.259-9.513,9.514v19.415c0,5.254,4.259,9.514,9.513,9.514l0,0c5.254,0,9.514-4.259,9.514-9.514v-19.415
				C457.477,124.836,453.218,120.578,447.964,120.578z"/>
			<path fill="none" stroke="#727272" stroke-width="0.1" stroke-miterlimit="10" d="M447.964,120.578L447.964,120.578
				c-5.254,0-9.513,4.259-9.513,9.514v19.415c0,5.254,4.259,9.514,9.513,9.514l0,0c5.254,0,9.514-4.259,9.514-9.514v-19.415
				C457.477,124.836,453.218,120.578,447.964,120.578z"/>
		</g>
	</g>
</g>
<g>
	
		<image overflow="visible" opacity="0.69" enable-background="new    " width="24" height="32" xlink:href="8BA1658F.png"  transform="matrix(0.965 0 0 0.965 582.0682 131.2363)">
	</image>
	<g>
		<g>
			<path fill="none" stroke="#727272" stroke-width="0.1" stroke-miterlimit="10" d="M593.301,132.336L593.301,132.336
				c-5.254,0-9.513,4.259-9.513,9.513v7.657c0,5.254,4.259,9.514,9.513,9.514l0,0c5.254,0,9.514-4.259,9.514-9.514v-7.657
				C602.815,136.595,598.555,132.336,593.301,132.336z"/>
			<path fill="none" stroke="#727272" stroke-width="0.1" stroke-miterlimit="10" d="M593.301,132.336L593.301,132.336
				c-5.254,0-9.513,4.259-9.513,9.513v7.657c0,5.254,4.259,9.514,9.513,9.514l0,0c5.254,0,9.514-4.259,9.514-9.514v-7.657
				C602.815,136.595,598.555,132.336,593.301,132.336z"/>
		</g>
	</g>
</g>
<g>
	
		<image overflow="visible" opacity="0.69" enable-background="new    " width="24" height="59" xlink:href="8BA16594.png"  transform="matrix(0.9796 0 0 0.9796 472.8935 104.2789)">
	</image>
	<g>
		<g>
			<path fill="none" stroke="#727272" stroke-width="0.1" stroke-miterlimit="10" d="M484.298,105.651L484.298,105.651
				c-5.254,0-9.514,4.259-9.514,9.514v34.341c0,5.254,4.259,9.514,9.514,9.514l0,0c5.254,0,9.514-4.259,9.514-9.514v-34.341
				C493.812,109.911,489.552,105.651,484.298,105.651z"/>
			<path fill="none" stroke="#727272" stroke-width="0.1" stroke-miterlimit="10" d="M484.298,105.651L484.298,105.651
				c-5.254,0-9.514,4.259-9.514,9.514v34.341c0,5.254,4.259,9.514,9.514,9.514l0,0c5.254,0,9.514-4.259,9.514-9.514v-34.341
				C493.812,109.911,489.552,105.651,484.298,105.651z"/>
		</g>
	</g>
</g>
<g>
	
		<image overflow="visible" opacity="0.69" enable-background="new    " width="24" height="73" xlink:href="8BA16597.png"  transform="matrix(0.9836 0 0 0.9836 544.8451 90.2748)">
	</image>
	<g>
		<g>
			<path fill="none" stroke="#727272" stroke-width="0.1" stroke-miterlimit="10" d="M556.967,91.595L556.967,91.595
				c-5.254,0-9.514,4.259-9.514,9.514v48.397c0,5.254,4.259,9.514,9.513,9.514l0,0c5.254,0,9.513-4.259,9.513-9.514v-48.397
				C566.481,95.854,562.221,91.595,556.967,91.595z"/>
			<path fill="none" stroke="#727272" stroke-width="0.1" stroke-miterlimit="10" d="M556.967,91.595L556.967,91.595
				c-5.254,0-9.514,4.259-9.514,9.514v48.397c0,5.254,4.259,9.514,9.513,9.514l0,0c5.254,0,9.513-4.259,9.513-9.514v-48.397
				C566.481,95.854,562.221,91.595,556.967,91.595z"/>
		</g>
	</g>
</g>
<g>
	
		<image overflow="visible" opacity="0.69" enable-background="new    " width="24" height="95" xlink:href="8BA1659A.png"  transform="matrix(0.9876 0 0 0.9876 508.7968 68.2639)">
	</image>
	<g>
		<g>
			<path fill="none" stroke="#727272" stroke-width="0.1" stroke-miterlimit="10" d="M520.633,69.596L520.633,69.596
				c-5.254,0-9.514,4.259-9.514,9.513v70.396c0,5.254,4.259,9.514,9.514,9.514l0,0c5.254,0,9.513-4.259,9.513-9.514V79.109
				C530.146,73.856,525.887,69.596,520.633,69.596z"/>
			<path fill="none" stroke="#727272" stroke-width="0.1" stroke-miterlimit="10" d="M520.633,69.596L520.633,69.596
				c-5.254,0-9.514,4.259-9.514,9.513v70.396c0,5.254,4.259,9.514,9.514,9.514l0,0c5.254,0,9.513-4.259,9.513-9.514V79.109
				C530.146,73.856,525.887,69.596,520.633,69.596z"/>
		</g>
	</g>
</g>
<g>
	<g>
		<g enable-background="new    ">
			<g>
				<polygon fill="#FFFFFF" stroke="#000000" stroke-width="0.1" stroke-miterlimit="10" points="903.124,65.978 908.691,91.789 
					899.516,100.197 893.946,74.386 				"/>
			</g>
			<g>
				<polygon fill="#FFFFFF" stroke="#000000" stroke-width="0.1" stroke-miterlimit="10" points="893.946,74.386 899.516,100.197 
					887.595,96.401 882.026,70.589 				"/>
			</g>
			<g>
				<polygon fill="#FFFFFF" stroke="#000000" stroke-width="0.1" stroke-miterlimit="10" points="903.124,65.978 893.946,74.386 
					882.026,70.589 891.202,62.182 				"/>
			</g>
		</g>
	</g>
	<g>
		<g enable-background="new    ">
			<g>
				<polygon fill="#FFFFFF" stroke="#000000" stroke-width="0.1" stroke-miterlimit="10" points="892.648,84.208 896.626,102.644 
					887.45,111.052 883.472,92.616 				"/>
			</g>
			<g>
				<polygon fill="#FFFFFF" stroke="#000000" stroke-width="0.1" stroke-miterlimit="10" points="883.472,92.616 887.45,111.052 
					875.533,107.257 871.555,88.821 				"/>
			</g>
			<g>
				<polygon fill="#FFFFFF" stroke="#000000" stroke-width="0.1" stroke-miterlimit="10" points="892.648,84.208 883.472,92.616 
					871.555,88.821 880.732,80.413 				"/>
			</g>
		</g>
	</g>
	<g>
		<g enable-background="new    ">
			<g>
				<polygon fill="#FFFFFF" stroke="#000000" stroke-width="0.1" stroke-miterlimit="10" points="881.907,102.269 884.292,113.331 
					875.116,121.74 872.73,110.677 				"/>
			</g>
			<g>
				<polygon fill="#FFFFFF" stroke="#000000" stroke-width="0.1" stroke-miterlimit="10" points="872.73,110.677 875.116,121.74 
					863.196,117.943 860.809,106.88 				"/>
			</g>
			<g>
				<g>
					<polygon fill="#FFFFFF" stroke="#000000" stroke-width="0.1" stroke-miterlimit="10" points="881.907,102.269 872.73,110.677 
						860.809,106.88 869.986,98.473 					"/>
				</g>
			</g>
		</g>
	</g>
	<g>
		<g enable-background="new    ">
			<g>
				<polygon fill="#FFFFFF" stroke="#000000" stroke-width="0.1" stroke-miterlimit="10" points="870.74,117.3 872.33,124.675 
					863.154,133.083 861.563,125.708 				"/>
			</g>
			<g>
				<polygon fill="#FFFFFF" stroke="#000000" stroke-width="0.1" stroke-miterlimit="10" points="861.563,125.708 863.154,133.083 
					851.234,129.286 849.643,121.912 				"/>
			</g>
			<g>
				<polygon fill="#FFFFFF" stroke="#000000" stroke-width="0.1" stroke-miterlimit="10" points="870.74,117.3 861.563,125.708 
					849.643,121.912 858.82,113.504 				"/>
			</g>
		</g>
	</g>
</g>
</svg>
