<?xml version="1.0" encoding="utf-8"?>
<!-- Generator: Adobe Illustrator 17.0.0, SVG Export Plug-In . SVG Version: 6.00 Build 0)  -->
<!DOCTYPE svg PUBLIC "-//W3C//DTD SVG 1.1//EN" "http://www.w3.org/Graphics/SVG/1.1/DTD/svg11.dtd">
<svg version="1.1" id="Layer_1" xmlns="http://www.w3.org/2000/svg" xmlns:xlink="http://www.w3.org/1999/xlink" x="0px" y="0px"
	 width="960px" height="560px" viewBox="0 200 960 560" enable-background="new 0 200 960 560" xml:space="preserve">
<g>
	
		<image overflow="visible" opacity="0.11" enable-background="new    " width="679" height="210" xlink:href="CBB43BD6.png"  transform="matrix(0.5879 0 0 0.5879 0 463.4182)">
	</image>
	<g>
		<g>
			
				<line fill="none" stroke="#D3D3D3" stroke-width="0.5" stroke-miterlimit="10" x1="75.354" y1="472.156" x2="389.637" y2="472.156"/>
			
				<line fill="none" stroke="#D3D3D3" stroke-width="0.5" stroke-miterlimit="10" x1="8.804" y1="524.401" x2="255.024" y2="524.401"/>
			
				<line fill="none" stroke="#D3D3D3" stroke-width="0.5" stroke-miterlimit="10" x1="57.693" y1="576.646" x2="171.461" y2="576.646"/>
			
				<line fill="none" stroke="#D3D3D3" stroke-width="0.5" stroke-miterlimit="10" x1="194.143" y1="472.156" x2="194.143" y2="524.401"/>
			
				<line fill="none" stroke="#D3D3D3" stroke-width="0.5" stroke-miterlimit="10" x1="114.576" y1="524.401" x2="114.576" y2="577.171"/>
		</g>
	</g>
</g>
<linearGradient id="SVGID_1_" gradientUnits="userSpaceOnUse" x1="151.9989" y1="1347.186" x2="312.5" y2="1347.186" gradientTransform="matrix(1 0 0 -1 175 2006)">
	<stop  offset="0.0955" style="stop-color:#BA1E12"/>
	<stop  offset="0.2882" style="stop-color:#BF2418"/>
	<stop  offset="0.5469" style="stop-color:#CC3529"/>
	<stop  offset="0.8418" style="stop-color:#E25045"/>
	<stop  offset="0.9833" style="stop-color:#EE6055"/>
</linearGradient>
<polygon fill="url(#SVGID_1_)" points="487.5,702.634 458.054,693.671 463.965,689.136 463.965,689.136 438.485,664.587 
	416.151,682.237 326.999,615.005 327.784,614.994 349.993,614.994 415.932,664.72 439.478,646.113 475.193,680.524 475.193,680.524 
	481.573,675.63 "/>
<polyline fill="none" stroke="#95CBE8" stroke-width="0.5" stroke-miterlimit="10" points="370.091,436.799 308.715,308.71 
	236.44,305.694 "/>
<g>
	
		<linearGradient id="SVGID_2_" gradientUnits="userSpaceOnUse" x1="480.1895" y1="1699.2419" x2="470.2479" y2="1685.4298" gradientTransform="matrix(1 0 0 -1 175 2006)">
		<stop  offset="0" style="stop-color:#F27083"/>
		<stop  offset="1" style="stop-color:#D95B6D"/>
	</linearGradient>
	<circle fill="url(#SVGID_2_)" cx="650.103" cy="313.825" r="7.278"/>
	
		<linearGradient id="SVGID_3_" gradientUnits="userSpaceOnUse" x1="479.647" y1="1698.4882" x2="470.5585" y2="1685.8613" gradientTransform="matrix(1 0 0 -1 175 2006)">
		<stop  offset="0" style="stop-color:#FF8FA0"/>
		<stop  offset="1" style="stop-color:#BA4E5E"/>
	</linearGradient>
	<circle fill="none" stroke="url(#SVGID_3_)" stroke-miterlimit="10" cx="650.103" cy="313.825" r="7.278"/>
</g>
<g>
	<circle fill="#EE6055" cx="314.088" cy="320.011" r="9.327"/>
	<circle fill="#EE6055" cx="314.088" cy="320.011" r="9.327"/>
</g>
<g>
	<g>
		<circle fill="#FFD345" cx="660.484" cy="296.9" r="30.415"/>
		<path fill="#FFE68D" d="M690.505,301.78l-23.751-5.048l23.544-5.87c-0.187-0.928-0.42-1.84-0.689-2.736l-23.538,5.868
			l18.562-15.576c-0.573-0.747-1.178-1.468-1.817-2.158l-18.56,15.573l9.851-22.125c-0.838-0.42-1.698-0.802-2.577-1.146
			l-9.636,21.642v-23.684c-0.468-0.021-0.937-0.036-1.41-0.036s-0.942,0.014-1.41,0.036v24.211l-10.618-21.771
			c-0.867,0.374-1.714,0.784-2.537,1.234l10.619,21.773l-19.09-14.915c-0.614,0.712-1.195,1.452-1.741,2.219l19.095,14.919
			l-23.732-5.044c-0.237,0.904-0.431,1.825-0.586,2.759l23.731,5.044l-23.564,5.875c0.183,0.929,0.411,1.841,0.678,2.738
			l23.569-5.876l-18.619,15.623c0.57,0.749,1.173,1.472,1.81,2.163l18.622-15.626l-9.894,22.222c0.837,0.422,1.696,0.805,2.576,1.15
			l9.681-21.744v23.803c0.468,0.021,0.937,0.036,1.41,0.036c0.473,0,0.942-0.014,1.41-0.036v-24.33l10.666,21.868
			c0.866-0.375,1.712-0.787,2.534-1.238l-10.665-21.866l19.152,14.963c0.611-0.714,1.19-1.456,1.734-2.225l-19.15-14.962
			l23.764,5.051C690.164,303.637,690.354,302.715,690.505,301.78z"/>
		<circle fill="#FF9F4C" cx="660.484" cy="296.9" r="25.588"/>
		<circle fill="#FFBA49" cx="660.484" cy="296.9" r="23.977"/>
	</g>
	<path fill="#FFF2D2" d="M673.702,299.122c-0.335-2.221-1.628-3.56-3.784-4.108c-0.246-0.063-0.533-0.009-0.75-0.242
		c0.046-0.059,0.082-0.135,0.141-0.176c1.349-0.942,1.901-2.255,1.905-3.876c0.007-2.479-1.399-4.372-3.771-5.047
		c-1.213-0.345-2.446-0.466-3.696-0.453c-0.462,0.004-0.678-0.111-0.698-0.631c-0.047-1.224-0.18-2.445-0.243-3.668
		c-0.008-0.148-0.032-0.26-0.069-0.356l-2.987,0.219c0.001,0.035-0.004,0.062,0,0.103c0.131,1.279,0.216,2.561,0.345,3.84
		c0.036,0.357-0.055,0.531-0.421,0.563c-0.46,0.041-0.922,0.083-1.376,0.163c-0.488,0.086-0.621-0.099-0.641-0.575
		c-0.051-1.243-0.169-2.484-0.241-3.727c-0.005-0.077-0.017-0.138-0.033-0.193l-2.856,0.209c-0.018,0.078-0.023,0.169-0.014,0.282
		c0.106,1.159,0.174,2.322,0.272,3.482c0.074,0.881,0.048,0.927-0.801,1.013c-0.08,0.008-0.161,0.01-0.241,0.016
		c-1.44,0.119-2.88,0.24-4.32,0.356c-0.027,0.002-0.052,0.005-0.078,0.008l0.314,3.224c0.527-0.058,1.056-0.102,1.585-0.136
		c0.996-0.065,1.562,0.369,1.712,1.366c0.102,0.675,0.128,1.36,0.19,2.041c0.331,3.663,0.666,7.325,0.992,10.988
		c0.071,0.802-0.262,1.195-1.07,1.286c-0.439,0.049-0.878,0.093-1.319,0.118c-0.048,0.695-0.155,2.248-0.266,3.648
		c1.546-0.127,3.101-0.147,4.642-0.346c0.443-0.057,0.576,0.095,0.598,0.55c0.061,1.296,0.192,2.589,0.285,3.883l3.055-0.172
		c-0.002-0.021,0.002-0.034,0-0.056c-0.126-1.219-0.183-2.444-0.292-3.665c-0.041-0.453,0.044-0.726,0.573-0.731
		c0.4-0.004,0.803-0.055,1.196-0.128c0.464-0.086,0.645,0.061,0.669,0.546c0.063,1.263,0.18,2.523,0.26,3.786
		c0.002,0.043,0.012,0.073,0.017,0.112l3.08-0.173c-0.001-0.004,0.001-0.005,0-0.009c-0.112-1.258-0.141-2.524-0.253-3.782
		c-0.05-0.56,0.144-0.78,0.686-0.86c1.276-0.19,2.52-0.527,3.713-1.022c1.781-0.739,3.201-1.87,3.787-3.791
		C673.889,301.734,673.899,300.428,673.702,299.122z M658.9,295.133c-0.142-1.738-0.299-3.475-0.462-5.212
		c-0.032-0.338,0.026-0.479,0.427-0.506c1.621-0.111,3.244-0.317,4.837,0.168c2.004,0.61,2.716,2.89,1.338,4.264
		c-0.536,0.534-1.203,0.86-1.768,1.009c-1.395,0.464-2.677,0.544-3.958,0.632C659.044,295.507,658.924,295.429,658.9,295.133z
		 M666.392,303.722c-0.403,0.23-0.817,0.433-1.172,0.529c-1.723,0.598-3.432,0.683-5.126,0.865c-0.288,0.031-0.401-0.103-0.425-0.37
		c-0.178-1.937-0.357-3.875-0.542-5.811c-0.024-0.25-0.009-0.41,0.313-0.439c1.718-0.152,3.433-0.385,5.163-0.16
		c0.581,0.076,1.139,0.218,1.674,0.468c1.032,0.483,1.572,1.294,1.599,2.417C667.902,302.346,667.36,303.167,666.392,303.722z"/>
</g>
<g>
	<g enable-background="new    ">
		<g>
			
				<linearGradient id="SVGID_4_" gradientUnits="userSpaceOnUse" x1="476.8571" y1="1631.9885" x2="552.2137" y2="1631.9885" gradientTransform="matrix(1 0 0 -1 175 2006)">
				<stop  offset="0.0955" style="stop-color:#009D88"/>
				<stop  offset="0.2489" style="stop-color:#06A089"/>
				<stop  offset="0.4549" style="stop-color:#17AA8B"/>
				<stop  offset="0.6908" style="stop-color:#33BA8E"/>
				<stop  offset="0.9471" style="stop-color:#5AD093"/>
				<stop  offset="0.9833" style="stop-color:#60D394"/>
			</linearGradient>
			<polygon fill="url(#SVGID_4_)" points="727.214,260.449 726.688,444.076 651.857,487.574 652.367,303.931 			"/>
		</g>
		<g>
			
				<linearGradient id="SVGID_5_" gradientUnits="userSpaceOnUse" x1="401.5081" y1="1631.9979" x2="477.3672" y2="1631.9979" gradientTransform="matrix(1 0 0 -1 175 2006)">
				<stop  offset="0.0955" style="stop-color:#009D88"/>
				<stop  offset="0.2489" style="stop-color:#06A089"/>
				<stop  offset="0.4549" style="stop-color:#17AA8B"/>
				<stop  offset="0.6908" style="stop-color:#33BA8E"/>
				<stop  offset="0.9471" style="stop-color:#5AD093"/>
				<stop  offset="0.9833" style="stop-color:#60D394"/>
			</linearGradient>
			<polygon fill="url(#SVGID_5_)" points="652.367,303.931 651.857,487.574 576.508,444.069 577.025,260.431 			"/>
		</g>
		<g>
			
				<linearGradient id="SVGID_6_" gradientUnits="userSpaceOnUse" x1="402.0249" y1="1745.5638" x2="552.2137" y2="1745.5638" gradientTransform="matrix(1 0 0 -1 175 2006)">
				<stop  offset="0.0955" style="stop-color:#009D88"/>
				<stop  offset="0.2489" style="stop-color:#06A089"/>
				<stop  offset="0.4549" style="stop-color:#17AA8B"/>
				<stop  offset="0.6908" style="stop-color:#33BA8E"/>
				<stop  offset="0.9471" style="stop-color:#5AD093"/>
				<stop  offset="0.9833" style="stop-color:#60D394"/>
			</linearGradient>
			<polygon fill="url(#SVGID_6_)" points="727.214,260.449 652.367,303.931 577.025,260.431 651.857,216.941 			"/>
		</g>
	</g>
</g>
<g>
	<polygon fill="#2BA0BF" points="628.955,368.736 628.589,499.905 553.755,543.392 554.12,412.231 	"/>
</g>
<g>
	<g>
		<polygon fill="#3B879B" points="554.12,412.231 553.755,543.392 478.428,499.905 478.794,368.736 		"/>
	</g>
</g>
<g>
	<polygon fill="#29839B" points="628.955,368.736 554.12,412.231 478.794,368.736 553.633,325.247 	"/>
</g>
<g>
	<polygon fill="#F9E062" points="529.147,475.486 528.914,554.186 454.074,597.678 454.303,518.974 	"/>
</g>
<g>
	<polygon fill="#FFDA00" points="454.303,518.974 454.074,597.678 378.731,554.177 378.954,475.469 	"/>
</g>
<g>
	<polygon fill="#FFBA49" points="529.147,475.486 454.303,518.974 378.954,475.469 453.793,431.984 	"/>
</g>
<g>
	<polygon fill="#EE6055" points="430.944,561.017 430.791,613.482 355.954,656.973 356.098,604.502 	"/>
</g>
<g>
	<polygon fill="#CC1F1F" points="356.098,604.502 355.954,656.973 280.607,613.464 280.755,561.003 	"/>
</g>
<g>
	<polygon fill="#ED0B00" points="430.944,561.017 356.098,604.502 280.755,561.003 355.595,517.512 	"/>
</g>
<g opacity="0.1">
	<path d="M926.456,649.275c24.688,14.255,24.817,34.301,0.289,48.558c-24.532,14.255-64.429,14.246-89.116-0.02
		c-24.701-14.253-24.83-34.276-0.287-48.527C861.87,635.033,901.757,635.021,926.456,649.275z"/>
</g>
<g>
	<path fill="#111114" d="M370.279,523.903c0,0,6.03,2.111,3.758,5.166c-2.27,3.053-10.608,6.738-12.03,8.669
		c-1.43,1.935-9.008,8.364-10.737,7.287c-1.734-1.077-6.869-1.01-4.352-9.539C349.457,526.958,362.055,521.895,370.279,523.903z"/>
	<path fill="#221F26" d="M350.755,399.583c0,0-9.449,14.586-5.035,37.014c4.427,22.425,2.04,53.703,2.04,53.703
		s-5.055,39.914-1.89,47.256c0,0,9.848,6.106,19.707-1.22l8.711-73.999l4.081-54.414
		C378.369,407.924,356.366,404.68,350.755,399.583z"/>
	<path fill="#1E1B21" d="M374.288,462.337l3.205-42.682l-8.511-2.05c0,0-5.765,38.281-3.29,47.418
		c1.945,7.182-5.84,51.883-6.088,74.27c1.935-0.536,3.951-1.454,5.974-2.958L374.288,462.337z"/>
	<path fill="#111114" d="M419.617,520.653c0,0,2.854,6.449,8.475,3.898c5.624-2.559,1.775-4.081,13.811-9.85
		c12.026-5.756,8.469-11.231,7.462-12.314c-2.308-2.502-9.571,2.614-12.213,3.86c-2.648,1.233-8.825,2.764-8.825,2.764
		l-10.463,10.442L419.617,520.653z"/>
	<path fill="#221F26" d="M364.217,406.07c0,0-7.285,18.778,4.111,26.8c11.392,8.023,23.85,22.554,26.825,28.99
		c2.977,6.441,19.069,57.998,19.069,57.998s12.283,5.227,21.565-3.549c0,0-12.408-60.289-17.117-68.414
		c-4.702-8.129-25.707-46.549-25.707-46.549S380.556,406.678,364.217,406.07z"/>
	<path fill="#1E1B21" d="M435.786,516.31c0,0-12.408-60.289-17.117-68.414c-4.392-7.583-22.948-41.504-25.426-46.046l-8.694,15.129
		c0,0,14.691,17.909,17.504,23.282c2.655,5.055,20.965,52.74,24.419,80.792C429.55,520.484,432.82,519.104,435.786,516.31z"/>
</g>
<g>
	<g>
		<g>
			<path fill="#E6A376" d="M353.916,319.051c0,0,9.866-0.909,5.497,14.237c-4.382,15.158-13.554,30.517-13.554,30.517
				s-8.923,30.282-8.93,35.89c0,0-0.176,2.266,1.302,5.032c0.536,0.994,1.086,2.397,0.496,5.873
				c-0.196,1.177-0.248,3.321,0.54,4.721c0.781,1.42-0.71,2.332-1.45,1.831c-0.898-0.61-2.464-2.671-2.229-5.886
				c0,0-1.126,1.456-1.681,8.878c-0.231,3.138-2.916,4.047-5.86-0.55c-0.512-0.788-1.962-7.507,0.075-13.196
				c1.554-4.36,1.488-6.417,1.789-10.458c0.288-4.047,0.145-25.724,5.52-43.158C338.218,343.738,345.725,318.128,353.916,319.051z"
				/>
			<path fill="#404063" d="M356.098,318.286c-13.291-3.378-25.407,40.988-26.1,52.703c0,0,4.107,2.531,14.25,0.246
				C344.249,371.234,371.401,322.17,356.098,318.286z"/>
		</g>
		<path fill="#404063" d="M329.998,370.989l-1.684,29.072c0,0,4.486,3.123,11.272,0.118l4.976-30.51L329.998,370.989z"/>
	</g>
	<path fill="#52517B" d="M353.626,317.443c0,0-9.31,0.631-5.164,17.721c4.137,17.085,5.962,35.602,5.164,41.775
		c-0.815,6.177-4.559,22.378-6.174,26.522c0,0-1.703,12.863,28.37,23.506c0,0,25.184,2.427,22.346-14.873
		c-2.835-17.307-2.302-44.852-1.158-51.332c1.145-6.475,6.004-19.224-9.305-29.321C372.388,321.333,363.916,317.611,353.626,317.443
		z"/>
	<path fill="#404063" d="M397.009,360.761c-1.144,6.48-1.677,34.025,1.158,51.332c1.975,12-9.498,15.166-16.705,14.913
		c-1.71-7.755,0.31-23.097-3.732-40.062c-4.996-20.969-0.078-33.989,4.29-44.583c2.839-6.877,7.004-6.73,10.045-7.484
		C401.96,344.288,398.02,355.003,397.009,360.761z"/>
	<g>
		<g>
			<path fill="#EFB185" d="M362.239,309.702c0,0,1.343,8.426-1.259,13.858c-2.391,4.917,17.353,8.429,17.617,3.952
				c0.023-0.478-4.037-7.596,0.318-16.446C381.184,306.427,362.239,309.702,362.239,309.702z"/>
			<path fill="#DD9569" d="M361.085,323.845c1.944-4.039,1.696-9.718,1.441-12.368l14.584,6.58c0,0.016-0.008,0.029-0.008,0.038
				c-0.523,0.157-10.045,3.076-11.82,10.234C362.285,327.242,360.23,325.636,361.085,323.845z"/>
			<path fill="#EFB185" d="M381.851,286.304c0,0,3.367,7.549,3.041,14.191c-0.338,7.158,0.757,8.543,0.463,11.725
				c-0.13,1.357-0.14,3.411-1.385,4.745c-2.064,2.22-6.475,3.202-12.589,1.226c-7.387-2.394-15.499-12.261-12.778-21.583
				C361.329,287.299,370.58,279.312,381.851,286.304z"/>
			<path fill="#E6A376" d="M359.362,306.537c2.555-8.397,9.374-18.631,9.28-19.151c-0.039-0.324,2.295-1.966,4.954-3.738
				c2.567,0.047,5.346,0.844,8.256,2.656c0,0,0.902,2.021,1.726,4.885c-1.647,2.067-5.091,4.464-5.552,6.17
				c-1.072,4.008-0.105,9.976,1.153,12.576c1.273,2.592-3.236,6.673-2.147,8.979c0.048,0.112,0.056,0.215,0.046,0.313
				c-1.681-0.042-3.577-0.353-5.696-1.037C366.659,316.664,361.649,312.077,359.362,306.537z"/>
			<path fill="#221101" d="M383.865,283.06c0,0,1.343,6.536-4.878,9.999c-3.744,2.084-3.139,8.349-2.897,9.512
				c0.229,1.155,1.586,6.397,1.141,7.096c-0.841,1.357-4.003-2.586-5.418-2.244c-3.577,0.881-2.021,4.254,1.419,7.724
				c3.665,3.665-5.473,5.66-9.862,2.684c-2.341-1.579-3.207-2.551-6.438-8.446c-4.699-8.589-5.369-19.135,4.562-25.213
				C371.426,278.087,377.665,285.892,383.865,283.06z"/>
			<path fill="#341C09" d="M363.37,317.831c-2.341-1.579-3.207-2.551-6.438-8.446c-4.699-8.589-5.369-19.135,4.562-25.213
				c9.933-6.084,16.172,1.72,22.372-1.112c0,0,0.229,1.112,0.062,2.642c-3.203,0.681-11.95,2.855-14.056,6.831
				c-2.606,4.885-5.774,3.486-5.288,9.407c0.468,5.697-0.657,13.236,8.883,16.045C370.079,320.695,365.077,318.986,363.37,317.831z"
				/>
		</g>
		<path fill="#DEF0F9" d="M377.931,324.365l7.472,5.202c0,0-20.437,6.664-26.669-2.986c-0.883-1.367-0.085-6.115,3.328-7.148
			C362.062,319.433,363.081,327.467,377.931,324.365z"/>
	</g>
	<g>
		<path fill="#E6A376" d="M428.335,422.733c-0.773,5.213-1.394,5.497-2.62,5.118c-5.928-1.841-10.807-11.988-10.742-13.077
			c0.216-3.032-0.784-4.973-0.784-4.973c-0.079-0.189-0.196-0.402-0.314-0.634l6.314-2.553c0.994,1.932,1.985,3.53,4.055,5.812
			C428.126,416.73,428.468,421.834,428.335,422.733z"/>
		<path fill="#52517B" d="M388.095,334.313c-11.92,4.686,4.846,45.115,10.935,54.636l14.256,24.56c0,0,5.143-0.033,8.563-6.118
			l-12.838-25.355C408.559,378.785,401.372,329.102,388.095,334.313z"/>
	</g>
</g>
<g>
	<path fill="#FFDA00" d="M933.951,655.512c-0.052,0.553-0.092,1.107-0.191,1.664c-0.084,0.431-0.217,0.872-0.332,1.31
		c-0.133,0.521-0.269,1.044-0.447,1.567c-0.151,0.431-0.353,0.844-0.53,1.267c-0.248,0.542-0.475,1.088-0.765,1.63
		c-0.408,0.739-0.831,1.479-1.328,2.195c-0.084,0.113-0.176,0.237-0.26,0.348c-0.512,0.727-1.093,1.443-1.714,2.155
		c-0.118,0.121-0.222,0.255-0.334,0.39c-0.675,0.732-1.42,1.441-2.198,2.158c-0.495,0.438-1.039,0.869-1.574,1.294
		c-0.49,0.399-0.955,0.79-1.492,1.179c-0.576,0.414-1.21,0.814-1.831,1.219c-0.668,0.436-1.296,0.879-2.006,1.287
		c-1.556,0.913-3.22,1.723-4.914,2.489c-0.483,0.222-0.987,0.422-1.484,0.635c-1.324,0.551-2.699,1.075-4.092,1.553
		c-0.497,0.165-0.98,0.344-1.492,0.506c-0.883,0.274-1.792,0.518-2.687,0.771c-0.682,0.183-1.348,0.377-2.036,0.544
		c-0.953,0.231-1.92,0.422-2.89,0.621c-0.648,0.127-1.294,0.278-1.949,0.398c-1.954,0.341-3.936,0.612-5.925,0.823
		c-0.606,0.066-1.222,0.097-1.836,0.151c-1.178,0.097-2.354,0.183-3.533,0.237c-0.747,0.034-1.497,0.043-2.241,0.061
		c-0.957,0.016-1.911,0.022-2.864,0.005c-0.799-0.005-1.59-0.032-2.396-0.054c-0.874-0.039-1.745-0.082-2.615-0.143
		c-0.81-0.06-1.621-0.122-2.425-0.201c-0.87-0.09-1.74-0.191-2.602-0.295c-0.774-0.1-1.544-0.213-2.302-0.326
		c-0.935-0.145-1.858-0.31-2.779-0.483c-0.722-0.142-1.44-0.287-2.159-0.44c-1.079-0.234-2.158-0.513-3.225-0.788
		c-0.6-0.156-1.201-0.314-1.789-0.492c-1.917-0.553-3.787-1.177-5.592-1.879c-0.896-0.347-1.759-0.736-2.623-1.117
		c-0.451-0.201-0.908-0.377-1.353-0.588c-1.314-0.623-2.59-1.281-3.82-1.997c-10.261-5.919-15.395-13.698-15.374-21.461
		l-0.039,14.485c-0.018,7.773,5.108,15.547,15.377,21.472c1.22,0.71,2.51,1.371,3.825,2.007c0.405,0.185,0.844,0.352,1.269,0.542
		c0.804,0.359,1.596,0.732,2.412,1.057c0.099,0.038,0.203,0.065,0.301,0.099c1.798,0.704,3.669,1.319,5.577,1.888
		c0.151,0.043,0.301,0.104,0.451,0.147c0.44,0.127,0.897,0.205,1.337,0.332c1.065,0.28,2.145,0.548,3.231,0.789
		c0.286,0.061,0.574,0.151,0.869,0.206c0.418,0.086,0.849,0.144,1.289,0.222c0.921,0.182,1.844,0.343,2.771,0.49
		c0.375,0.056,0.732,0.143,1.1,0.185c0.399,0.063,0.811,0.093,1.21,0.142c0.863,0.104,1.727,0.205,2.602,0.289
		c0.417,0.038,0.829,0.104,1.254,0.144c0.386,0.029,0.774,0.038,1.165,0.061c0.876,0.056,1.745,0.1,2.623,0.143
		c0.451,0.013,0.891,0.056,1.341,0.066c0.347,0.013,0.7-0.01,1.046-0.005c0.962,0.013,1.91,0.005,2.87-0.014
		c0.472-0.014,0.935,0.009,1.413,0c0.282-0.014,0.542-0.047,0.826-0.056c1.19-0.056,2.367-0.144,3.538-0.239
		c0.47-0.039,0.935-0.052,1.406-0.095c0.143-0.016,0.287-0.047,0.432-0.061c1.992-0.206,3.961-0.472,5.916-0.827
		c0.093-0.011,0.197-0.011,0.289-0.032c0.569-0.102,1.111-0.246,1.675-0.361c0.967-0.197,1.935-0.387,2.877-0.617
		c0.687-0.169,1.355-0.357,2.028-0.544c0.901-0.246,1.818-0.49,2.706-0.768c0.178-0.057,0.374-0.104,0.562-0.167
		c0.314-0.099,0.603-0.231,0.91-0.343c1.4-0.478,2.766-0.995,4.099-1.554c0.499-0.212,1.001-0.413,1.492-0.631
		c1.694-0.768,3.35-1.578,4.905-2.484c0.222-0.126,0.431-0.248,0.646-0.375c0.478-0.295,0.896-0.612,1.361-0.912
		c0.626-0.408,1.271-0.806,1.845-1.227c0.522-0.39,0.987-0.779,1.47-1.174c0.542-0.426,1.088-0.86,1.585-1.303
		c0.104-0.088,0.228-0.178,0.327-0.266c0.673-0.621,1.287-1.249,1.876-1.886c0.112-0.131,0.222-0.269,0.332-0.402
		c0.356-0.391,0.707-0.783,1.023-1.188c0.253-0.31,0.47-0.634,0.698-0.953c0.079-0.126,0.163-0.23,0.248-0.344
		c0.42-0.601,0.805-1.199,1.152-1.804c0.072-0.135,0.109-0.275,0.19-0.402c0.275-0.539,0.508-1.068,0.752-1.617
		c0.13-0.319,0.319-0.63,0.443-0.946c0.032-0.106,0.052-0.217,0.093-0.328c0.182-0.515,0.305-1.034,0.438-1.557
		c0.099-0.343,0.235-0.7,0.3-1.043c0.027-0.102,0.027-0.188,0.032-0.287c0.113-0.549,0.145-1.102,0.191-1.646
		c0.032-0.357,0.112-0.707,0.124-1.055c0.013-0.154,0.013-0.31,0.013-0.465l0.039-14.491
		C934.08,654.509,933.996,655.011,933.951,655.512z"/>
	<path fill="#FFD859" d="M933.761,657.176c-0.084,0.431-0.217,0.872-0.332,1.31c-0.133,0.521-0.269,1.044-0.447,1.567
		c-0.151,0.431-0.353,0.844-0.53,1.267c-0.248,0.542-0.475,1.088-0.765,1.63c-0.408,0.739-0.831,1.479-1.328,2.195
		c-0.084,0.113-0.176,0.237-0.26,0.348c-0.512,0.727-1.093,1.443-1.714,2.155c-0.118,0.121-0.222,0.255-0.334,0.39
		c-0.675,0.732-1.42,1.441-2.198,2.158c-0.495,0.438-1.039,0.869-1.574,1.294c-0.49,0.399-0.955,0.79-1.492,1.179
		c-0.576,0.414-1.21,0.814-1.831,1.219c-0.668,0.436-1.296,0.879-2.006,1.287c-1.556,0.913-3.22,1.723-4.914,2.489
		c-0.483,0.222-0.987,0.422-1.484,0.635c-1.324,0.551-2.699,1.075-4.092,1.553c-0.497,0.165-0.98,0.344-1.492,0.506
		c-0.883,0.274-1.792,0.518-2.687,0.771c-0.682,0.183-1.348,0.377-2.036,0.544c-0.953,0.231-1.92,0.422-2.89,0.621
		c-0.648,0.127-1.294,0.278-1.949,0.398c-1.954,0.341-3.936,0.612-5.925,0.823c-0.606,0.066-1.222,0.097-1.836,0.151
		c-1.178,0.097-2.354,0.183-3.533,0.237c-0.747,0.034-1.497,0.043-2.241,0.061c-0.957,0.016-1.911,0.022-2.864,0.005
		c-0.799-0.005-1.59-0.032-2.396-0.054c-0.874-0.039-1.745-0.082-2.615-0.143c-0.81-0.06-1.621-0.122-2.425-0.201
		c-0.87-0.09-1.74-0.191-2.602-0.295c-0.774-0.1-1.544-0.213-2.302-0.326c-0.935-0.145-1.858-0.31-2.779-0.483
		c-0.722-0.142-1.44-0.287-2.159-0.44c-1.079-0.234-2.158-0.513-3.225-0.788c-0.6-0.156-1.201-0.314-1.789-0.492
		c-1.917-0.553-3.787-1.177-5.592-1.879c-0.896-0.347-1.759-0.736-2.623-1.117c-0.451-0.201-0.908-0.377-1.353-0.588
		c-1.314-0.623-2.59-1.281-3.82-1.997c-10.261-5.919-15.395-13.698-15.374-21.461l-0.025,9.582
		c0.052,7.713,5.173,15.409,15.362,21.294c1.22,0.709,2.51,1.375,3.825,1.996c0.405,0.201,0.844,0.368,1.269,0.558
		c0.804,0.357,1.596,0.722,2.412,1.055c0.099,0.032,0.203,0.06,0.301,0.093c1.798,0.704,3.669,1.324,5.577,1.883
		c0.151,0.045,0.301,0.109,0.451,0.156c0.44,0.12,0.897,0.21,1.337,0.328c1.065,0.28,2.145,0.548,3.231,0.793
		c0.286,0.056,0.574,0.143,0.869,0.208c0.418,0.09,0.849,0.144,1.289,0.222c0.921,0.181,1.844,0.341,2.771,0.484
		c0.375,0.056,0.732,0.136,1.1,0.191c0.399,0.057,0.811,0.081,1.21,0.136c0.863,0.112,1.727,0.205,2.602,0.289
		c0.417,0.045,0.829,0.109,1.254,0.147c0.386,0.03,0.774,0.03,1.165,0.057c0.876,0.056,1.745,0.104,2.623,0.143
		c0.451,0.018,0.891,0.056,1.341,0.07c0.347,0.009,0.7-0.014,1.046-0.009c0.962,0.01,1.91,0.009,2.87-0.009
		c0.472-0.01,0.935,0.004,1.413-0.005c0.282-0.016,0.542-0.047,0.826-0.063c1.19-0.048,2.367-0.133,3.538-0.231
		c0.47-0.039,0.935-0.047,1.406-0.095c0.143-0.018,0.287-0.039,0.432-0.061c1.992-0.205,3.961-0.472,5.916-0.822
		c0.093-0.009,0.197-0.023,0.289-0.041c0.569-0.095,1.111-0.242,1.675-0.357c0.967-0.191,1.935-0.383,2.877-0.612
		c0.687-0.165,1.355-0.365,2.028-0.544c0.901-0.253,1.818-0.495,2.706-0.777c0.178-0.053,0.374-0.1,0.562-0.158
		c0.314-0.104,0.603-0.24,0.91-0.348c1.4-0.478,2.766-0.994,4.099-1.554c0.499-0.204,1.001-0.404,1.492-0.632
		c1.694-0.766,3.35-1.578,4.905-2.482c0.222-0.122,0.431-0.255,0.646-0.377c0.478-0.291,0.896-0.612,1.361-0.912
		c0.626-0.411,1.271-0.811,1.845-1.233c0.522-0.379,0.987-0.774,1.47-1.163c0.542-0.431,1.088-0.858,1.585-1.301
		c0.104-0.09,0.228-0.187,0.327-0.267c0.673-0.619,1.287-1.254,1.876-1.893c0.112-0.127,0.222-0.258,0.332-0.395
		c0.356-0.399,0.707-0.788,1.023-1.187c0.253-0.318,0.47-0.644,0.698-0.953c0.079-0.126,0.163-0.237,0.248-0.35
		c0.42-0.596,0.805-1.196,1.152-1.807c0.072-0.133,0.109-0.267,0.19-0.399c0.275-0.533,0.508-1.079,0.752-1.619
		c0.13-0.312,0.319-0.623,0.443-0.948c0.032-0.112,0.052-0.216,0.093-0.321c0.182-0.522,0.305-1.032,0.438-1.557
		c0.099-0.352,0.235-0.7,0.3-1.054c0.027-0.093,0.027-0.191,0.032-0.282c0.113-0.542,0.145-1.097,0.191-1.639
		c0.032-0.356,0.112-0.71,0.124-1.068c0.013-0.149,0.013-0.298,0.013-0.452l0.02-9.234c-0.01,0.445-0.065,0.883-0.109,1.328
		C933.899,656.064,933.859,656.62,933.761,657.176z"/>
	<path fill="#FF9E03" d="M933.761,657.176c-0.084,0.431-0.217,0.872-0.332,1.31c-0.133,0.521-0.269,1.044-0.447,1.567
		c-0.151,0.431-0.353,0.844-0.53,1.267c-0.248,0.542-0.475,1.088-0.765,1.63c-0.408,0.739-0.831,1.479-1.328,2.195
		c-0.084,0.113-0.176,0.237-0.26,0.348c-0.512,0.727-1.093,1.443-1.714,2.155c-0.118,0.121-0.222,0.255-0.334,0.39
		c-0.675,0.732-1.42,1.441-2.198,2.158c-0.495,0.438-1.039,0.869-1.574,1.294c-0.49,0.399-0.955,0.79-1.492,1.179
		c-0.576,0.414-1.21,0.814-1.831,1.219c-0.668,0.436-1.296,0.879-2.006,1.287c-1.556,0.913-3.22,1.723-4.914,2.489
		c-0.483,0.222-0.987,0.422-1.484,0.635c-1.324,0.551-2.699,1.075-4.092,1.553c-0.497,0.165-0.98,0.344-1.492,0.506
		c-0.883,0.274-1.792,0.518-2.687,0.771c-0.682,0.183-1.348,0.377-2.036,0.544c-0.953,0.231-1.92,0.422-2.89,0.621
		c-0.648,0.127-1.294,0.278-1.949,0.398c-1.954,0.341-3.936,0.612-5.925,0.823c-0.606,0.066-1.222,0.097-1.836,0.151
		c-1.178,0.097-2.354,0.183-3.533,0.237c-0.747,0.034-1.497,0.043-2.241,0.061c-0.957,0.016-1.911,0.022-2.864,0.005
		c-0.799-0.005-1.59-0.032-2.396-0.054c-0.874-0.039-1.745-0.082-2.615-0.143c-0.81-0.06-1.621-0.122-2.425-0.201
		c-0.87-0.09-1.74-0.191-2.602-0.295c-0.774-0.1-1.544-0.213-2.302-0.326c-0.935-0.145-1.858-0.31-2.779-0.483
		c-0.722-0.142-1.44-0.287-2.159-0.44c-1.079-0.234-2.158-0.513-3.225-0.788c-0.6-0.156-1.201-0.314-1.789-0.492
		c-1.917-0.553-3.787-1.177-5.592-1.879c-0.896-0.347-1.759-0.736-2.623-1.117c-0.451-0.201-0.908-0.377-1.353-0.588
		c-1.314-0.623-2.59-1.281-3.82-1.997c-10.261-5.919-15.395-13.698-15.374-21.461l-0.025,9.582
		c0.052,7.713,5.173,15.409,15.362,21.294c1.22,0.709,2.51,1.375,3.825,1.996c0.405,0.201,0.844,0.368,1.269,0.558
		c0.804,0.357,1.596,0.722,2.412,1.055c0.099,0.032,0.203,0.06,0.301,0.093c1.798,0.704,3.669,1.324,5.577,1.883
		c0.151,0.045,0.301,0.109,0.451,0.156c0.44,0.12,0.897,0.21,1.337,0.328c1.065,0.28,2.145,0.548,3.231,0.793
		c0.286,0.056,0.574,0.143,0.869,0.208c0.418,0.09,0.849,0.144,1.289,0.222c0.921,0.181,1.844,0.341,2.771,0.484
		c0.375,0.056,0.732,0.136,1.1,0.191c0.399,0.057,0.811,0.081,1.21,0.136c0.863,0.112,1.727,0.205,2.602,0.289
		c0.417,0.045,0.829,0.109,1.254,0.147c0.386,0.03,0.774,0.03,1.165,0.057c0.876,0.056,1.745,0.104,2.623,0.143
		c0.451,0.018,0.891,0.056,1.341,0.07c0.347,0.009,0.7-0.014,1.046-0.009c0.962,0.01,1.91,0.009,2.87-0.009
		c0.472-0.01,0.935,0.004,1.413-0.005c0.282-0.016,0.542-0.047,0.826-0.063c1.19-0.048,2.367-0.133,3.538-0.231
		c0.47-0.039,0.935-0.047,1.406-0.095c0.143-0.018,0.287-0.039,0.432-0.061c1.992-0.205,3.961-0.472,5.916-0.822
		c0.093-0.009,0.197-0.023,0.289-0.041c0.569-0.095,1.111-0.242,1.675-0.357c0.967-0.191,1.935-0.383,2.877-0.612
		c0.687-0.165,1.355-0.365,2.028-0.544c0.901-0.253,1.818-0.495,2.706-0.777c0.178-0.053,0.374-0.1,0.562-0.158
		c0.314-0.104,0.603-0.24,0.91-0.348c1.4-0.478,2.766-0.994,4.099-1.554c0.499-0.204,1.001-0.404,1.492-0.632
		c1.694-0.766,3.35-1.578,4.905-2.482c0.222-0.122,0.431-0.255,0.646-0.377c0.478-0.291,0.896-0.612,1.361-0.912
		c0.626-0.411,1.271-0.811,1.845-1.233c0.522-0.379,0.987-0.774,1.47-1.163c0.542-0.431,1.088-0.858,1.585-1.301
		c0.104-0.09,0.228-0.187,0.327-0.267c0.673-0.619,1.287-1.254,1.876-1.893c0.112-0.127,0.222-0.258,0.332-0.395
		c0.356-0.399,0.707-0.788,1.023-1.187c0.253-0.318,0.47-0.644,0.698-0.953c0.079-0.126,0.163-0.237,0.248-0.35
		c0.42-0.596,0.805-1.196,1.152-1.807c0.072-0.133,0.109-0.267,0.19-0.399c0.275-0.533,0.508-1.079,0.752-1.619
		c0.13-0.312,0.319-0.623,0.443-0.948c0.032-0.112,0.052-0.216,0.093-0.321c0.182-0.522,0.305-1.032,0.438-1.557
		c0.099-0.352,0.235-0.7,0.3-1.054c0.027-0.093,0.027-0.191,0.032-0.282c0.113-0.542,0.145-1.097,0.191-1.639
		c0.032-0.356,0.112-0.71,0.124-1.068c0.013-0.149,0.013-0.298,0.013-0.452l0.02-9.234c-0.01,0.445-0.065,0.883-0.109,1.328
		C933.899,656.064,933.859,656.62,933.761,657.176z"/>
	<g>
		<g>
			<path fill="#F2B42B" d="M918.707,632.525c20.402,11.781,20.506,30.879,0.243,42.65c-20.267,11.785-53.228,11.772-73.624-0.008
				c-20.404-11.772-20.513-30.852-0.243-42.634C865.35,620.757,898.309,620.747,918.707,632.525z"/>
		</g>
	</g>
	<g>
		<path fill="#FFD859" d="M918.707,632.525c20.402,11.781,20.506,30.879,0.243,42.65c-20.267,11.785-53.228,11.772-73.624-0.008
			c-20.404-11.772-20.513-30.852-0.243-42.634C865.35,620.757,898.309,620.747,918.707,632.525z"/>
	</g>
	<g>
		<g>
			<g>
				<path fill="#FFDA00" d="M918.712,635.063c20.397,11.773,20.501,28.341,0.237,40.111c-20.267,11.785-53.228,11.772-73.624-0.008
					c-20.404-11.772-20.513-28.319-0.248-40.088C865.35,623.293,898.309,623.284,918.712,635.063z"/>
			</g>
		</g>
	</g>
	<path fill="#FFED94" d="M845.077,635.079c20.273-11.786,53.232-11.796,73.635-0.016c9.631,5.568,14.675,12.191,15.256,18.87
		c0.635-7.526-4.407-15.147-15.256-21.408c-20.403-11.778-53.363-11.768-73.635,0.009c-10.692,6.211-15.655,13.762-15.014,21.232
		C830.632,647.146,835.595,640.584,845.077,635.079z"/>
	<g>
		<g>
			<path fill="#DE821F" d="M911.009,636.996c16.12,9.307,16.211,24.41,0.188,33.714c-16.026,9.317-42.08,9.306-58.214-0.008
				c-16.121-9.306-16.213-24.393-0.191-33.707C868.823,627.685,894.868,627.681,911.009,636.996z"/>
		</g>
	</g>
	<g>
		<g>
			<path fill="#FFB101" d="M909.859,638.597c15.491,9.234,15.577,24.209,0.183,33.449c-15.396,9.228-40.422,9.228-55.915-0.013
				c-15.491-9.228-15.57-24.191-0.176-33.423C869.346,629.369,894.366,629.369,909.859,638.597z"/>
		</g>
	</g>
	<g>
		<g>
			<g>
				<path fill="#FFD859" d="M908.243,640.974l-5.697,3.308c3.433,2.091,4.899,4.042,5.482,5.592l-5.227,1.456
					c-0.484-1.196-1.68-3.36-5.388-5.496c-4.532-2.617-8.874-2.039-11.248-0.662c-3.021,1.754-2.341,3.864,0.576,8.094
					c3.59,4.909,3.686,8.416-1.472,11.417c-4.638,2.69-12.196,3.308-19.273,0.375l-6.049,3.511l-3.655-2.111l5.871-3.405
					c-3.347-1.98-5.826-4.636-6.415-6.689l5.356-1.479c0.667,2.06,2.617,4.455,5.873,6.338c4.23,2.443,9.417,2.698,12.701,0.796
					c3.277-1.911,2.956-4.388,0.352-7.919c-3.669-4.808-4.703-8.544,0.327-11.471c4.866-2.821,12.06-2.928,18.313-0.377l5.873-3.411
					L908.243,640.974z"/>
			</g>
		</g>
	</g>
</g>
<g>
	<path fill="#FFDA00" d="M944.878,631.272c-0.06,0.555-0.091,1.113-0.196,1.661c-0.081,0.438-0.217,0.877-0.328,1.31
		c-0.136,0.524-0.267,1.057-0.451,1.578c-0.151,0.422-0.353,0.84-0.536,1.256c-0.235,0.555-0.47,1.097-0.757,1.637
		c-0.4,0.739-0.831,1.472-1.328,2.195c-0.077,0.121-0.175,0.23-0.257,0.352c-0.522,0.723-1.097,1.432-1.718,2.146
		c-0.113,0.133-0.217,0.26-0.335,0.388c-0.666,0.734-1.411,1.454-2.202,2.164c-0.484,0.439-1.034,0.866-1.576,1.3
		c-0.484,0.388-0.957,0.788-1.479,1.172c-0.574,0.414-1.215,0.814-1.845,1.22c-0.658,0.435-1.287,0.881-2,1.289
		c-1.563,0.912-3.218,1.714-4.913,2.489c-0.49,0.213-0.98,0.42-1.477,0.626c-1.333,0.565-2.699,1.077-4.099,1.553
		c-0.497,0.167-0.989,0.357-1.492,0.512c-0.883,0.276-1.786,0.522-2.687,0.766c-0.682,0.191-1.355,0.391-2.041,0.549
		c-0.943,0.234-1.91,0.422-2.879,0.615c-0.653,0.133-1.3,0.286-1.96,0.402c-1.944,0.343-3.924,0.616-5.919,0.822
		c-0.614,0.065-1.224,0.097-1.831,0.156c-1.178,0.099-2.355,0.183-3.545,0.23c-0.745,0.036-1.489,0.05-2.229,0.066
		c-0.955,0.014-1.917,0.023-2.872,0.014c-0.797-0.014-1.588-0.038-2.387-0.068c-0.876-0.032-1.754-0.079-2.628-0.144
		c-0.806-0.057-1.61-0.12-2.419-0.201c-0.87-0.086-1.734-0.176-2.604-0.287c-0.771-0.1-1.542-0.212-2.308-0.332
		c-0.928-0.145-1.85-0.31-2.773-0.479c-0.726-0.144-1.445-0.283-2.158-0.434c-1.086-0.243-2.159-0.517-3.218-0.788
		c-0.601-0.167-1.202-0.319-1.797-0.487c-1.911-0.556-3.787-1.184-5.587-1.892c-0.901-0.341-1.764-0.732-2.628-1.109
		c-0.452-0.197-0.917-0.386-1.348-0.594c-1.321-0.621-2.595-1.283-3.825-1.994c-10.266-5.919-15.394-13.703-15.374-21.463
		l-0.034,14.492c-0.025,7.763,5.103,15.534,15.369,21.463c1.23,0.714,2.506,1.38,3.825,2.001c0.413,0.192,0.851,0.366,1.271,0.557
		c0.797,0.352,1.596,0.719,2.412,1.048c0.099,0.038,0.203,0.061,0.295,0.099c1.806,0.707,3.676,1.323,5.583,1.883
		c0.156,0.043,0.295,0.113,0.452,0.156c0.438,0.124,0.894,0.21,1.333,0.325c1.074,0.287,2.137,0.553,3.236,0.796
		c0.289,0.056,0.571,0.143,0.87,0.206c0.411,0.093,0.851,0.151,1.275,0.23c0.924,0.174,1.85,0.335,2.785,0.479
		c0.368,0.056,0.727,0.14,1.095,0.19c0.399,0.063,0.802,0.084,1.21,0.14c0.863,0.112,1.727,0.203,2.601,0.287
		c0.413,0.041,0.826,0.112,1.257,0.145c0.38,0.027,0.779,0.03,1.163,0.053c0.872,0.063,1.746,0.106,2.629,0.144
		c0.44,0.018,0.885,0.063,1.328,0.074c0.359,0.005,0.7-0.01,1.061-0.004c0.953,0.009,1.908,0.004,2.863-0.014
		c0.465-0.009,0.942,0.007,1.407-0.009c0.28-0.011,0.555-0.047,0.83-0.053c1.183-0.051,2.36-0.136,3.539-0.231
		c0.47-0.041,0.94-0.047,1.406-0.097c0.151-0.016,0.287-0.045,0.426-0.063c2-0.213,3.976-0.475,5.918-0.82
		c0.099-0.013,0.203-0.023,0.3-0.047c0.563-0.093,1.113-0.237,1.669-0.357c0.962-0.185,1.929-0.38,2.876-0.606
		c0.687-0.173,1.355-0.366,2.03-0.545c0.906-0.257,1.811-0.493,2.699-0.779c0.191-0.053,0.386-0.097,0.569-0.158
		c0.321-0.099,0.594-0.24,0.915-0.353c1.395-0.475,2.76-0.987,4.099-1.55c0.499-0.197,1.001-0.405,1.487-0.628
		c1.693-0.766,3.347-1.583,4.911-2.48c0.208-0.126,0.426-0.257,0.64-0.38c0.484-0.295,0.896-0.607,1.361-0.91
		c0.628-0.409,1.262-0.809,1.845-1.231c0.517-0.379,0.993-0.777,1.47-1.169c0.544-0.429,1.092-0.853,1.583-1.305
		c0.112-0.086,0.23-0.182,0.334-0.264c0.661-0.619,1.281-1.249,1.87-1.892c0.112-0.124,0.222-0.257,0.334-0.391
		c0.347-0.399,0.705-0.787,1.022-1.188c0.248-0.321,0.47-0.644,0.698-0.961c0.084-0.117,0.17-0.23,0.248-0.339
		c0.413-0.597,0.799-1.201,1.145-1.815c0.079-0.127,0.124-0.262,0.191-0.397c0.287-0.531,0.522-1.074,0.752-1.621
		c0.142-0.31,0.327-0.628,0.445-0.944c0.045-0.108,0.057-0.221,0.099-0.325c0.182-0.517,0.312-1.031,0.443-1.55
		c0.091-0.356,0.23-0.698,0.301-1.053c0.02-0.097,0.011-0.191,0.032-0.287c0.104-0.542,0.138-1.091,0.191-1.633
		c0.025-0.365,0.109-0.713,0.117-1.066c0.008-0.149,0.008-0.309,0.008-0.461l0.045-14.492
		C945.001,630.267,944.915,630.775,944.878,631.272z"/>
	<path fill="#FFD859" d="M944.682,632.933c-0.081,0.438-0.217,0.877-0.328,1.31c-0.136,0.524-0.267,1.057-0.451,1.578
		c-0.151,0.422-0.353,0.84-0.536,1.256c-0.235,0.555-0.47,1.097-0.757,1.637c-0.4,0.739-0.831,1.472-1.328,2.195
		c-0.077,0.121-0.176,0.23-0.257,0.352c-0.522,0.723-1.097,1.432-1.718,2.146c-0.113,0.133-0.217,0.26-0.335,0.388
		c-0.666,0.734-1.411,1.454-2.202,2.164c-0.484,0.439-1.034,0.866-1.576,1.3c-0.484,0.388-0.957,0.788-1.479,1.172
		c-0.574,0.414-1.215,0.814-1.845,1.22c-0.659,0.435-1.287,0.881-2,1.289c-1.563,0.912-3.218,1.714-4.913,2.489
		c-0.49,0.213-0.98,0.42-1.477,0.626c-1.333,0.565-2.699,1.077-4.099,1.553c-0.497,0.167-0.989,0.357-1.492,0.512
		c-0.883,0.276-1.786,0.522-2.687,0.766c-0.682,0.191-1.355,0.391-2.041,0.549c-0.942,0.234-1.91,0.422-2.879,0.615
		c-0.653,0.133-1.3,0.286-1.96,0.402c-1.944,0.343-3.924,0.616-5.919,0.822c-0.614,0.065-1.224,0.097-1.831,0.156
		c-1.178,0.099-2.355,0.183-3.545,0.23c-0.745,0.036-1.489,0.05-2.229,0.066c-0.955,0.014-1.917,0.023-2.872,0.014
		c-0.797-0.014-1.588-0.038-2.387-0.068c-0.876-0.032-1.754-0.079-2.628-0.144c-0.806-0.057-1.61-0.12-2.419-0.201
		c-0.87-0.086-1.734-0.176-2.604-0.287c-0.771-0.1-1.542-0.212-2.308-0.332c-0.928-0.145-1.85-0.31-2.773-0.479
		c-0.726-0.144-1.445-0.283-2.158-0.434c-1.086-0.243-2.159-0.517-3.218-0.788c-0.601-0.167-1.202-0.319-1.797-0.487
		c-1.911-0.556-3.787-1.184-5.587-1.892c-0.901-0.341-1.764-0.732-2.628-1.109c-0.452-0.197-0.917-0.386-1.348-0.594
		c-1.321-0.621-2.595-1.283-3.825-1.994c-10.266-5.919-15.394-13.703-15.374-21.463l-0.025,9.582
		c0.057,7.707,5.171,15.414,15.36,21.296c1.23,0.709,2.506,1.376,3.825,2.003c0.413,0.188,0.851,0.356,1.271,0.544
		c0.797,0.357,1.596,0.732,2.412,1.057c0.099,0.039,0.203,0.065,0.295,0.097c1.806,0.707,3.676,1.321,5.583,1.89
		c0.156,0.038,0.295,0.104,0.452,0.151c0.438,0.127,0.894,0.203,1.333,0.327c1.074,0.282,2.137,0.557,3.236,0.796
		c0.289,0.059,0.571,0.147,0.87,0.203c0.411,0.093,0.851,0.147,1.275,0.222c0.924,0.179,1.85,0.347,2.785,0.488
		c0.368,0.057,0.727,0.145,1.095,0.187c0.399,0.065,0.802,0.093,1.21,0.144c0.863,0.104,1.727,0.204,2.601,0.286
		c0.413,0.039,0.826,0.106,1.257,0.14c0.38,0.034,0.779,0.041,1.163,0.066c0.872,0.056,1.746,0.102,2.629,0.145
		c0.44,0.013,0.885,0.056,1.328,0.066c0.359,0.013,0.7-0.01,1.061,0c0.953,0.004,1.908,0,2.863-0.023
		c0.465-0.005,0.942,0.013,1.407,0c0.28-0.01,0.555-0.043,0.83-0.053c1.183-0.056,2.36-0.142,3.539-0.24
		c0.47-0.038,0.94-0.045,1.406-0.091c0.151-0.013,0.287-0.047,0.426-0.063c2-0.206,3.976-0.472,5.918-0.827
		c0.099-0.011,0.203-0.011,0.3-0.034c0.563-0.102,1.113-0.246,1.669-0.356c0.962-0.199,1.929-0.39,2.876-0.621
		c0.687-0.167,1.355-0.357,2.03-0.542c0.906-0.246,1.811-0.492,2.699-0.772c0.191-0.053,0.386-0.104,0.569-0.165
		c0.321-0.097,0.594-0.234,0.915-0.343c1.395-0.479,2.76-0.993,4.099-1.554c0.499-0.212,1.001-0.411,1.487-0.634
		c1.693-0.765,3.347-1.578,4.911-2.48c0.208-0.122,0.426-0.251,0.64-0.375c0.484-0.298,0.896-0.61,1.361-0.913
		c0.628-0.405,1.262-0.804,1.845-1.235c0.517-0.375,0.993-0.77,1.47-1.159c0.544-0.431,1.092-0.867,1.583-1.31
		c0.112-0.088,0.23-0.178,0.334-0.267c0.661-0.619,1.281-1.248,1.87-1.884c0.112-0.136,0.222-0.267,0.334-0.402
		c0.347-0.39,0.705-0.783,1.022-1.181c0.248-0.318,0.47-0.643,0.698-0.96c0.084-0.118,0.17-0.228,0.248-0.344
		c0.413-0.6,0.799-1.201,1.145-1.813c0.079-0.118,0.124-0.262,0.191-0.386c0.287-0.544,0.522-1.084,0.752-1.623
		c0.142-0.314,0.327-0.632,0.445-0.948c0.045-0.106,0.057-0.217,0.099-0.328c0.182-0.509,0.312-1.034,0.443-1.55
		c0.091-0.356,0.23-0.705,0.301-1.055c0.02-0.093,0.011-0.187,0.032-0.282c0.104-0.545,0.138-1.093,0.191-1.642
		c0.025-0.357,0.109-0.709,0.117-1.059c0.008-0.154,0.008-0.309,0.008-0.463l0.032-9.228c-0.02,0.441-0.079,0.887-0.112,1.324
		C944.818,631.827,944.787,632.385,944.682,632.933z"/>
	<path fill="#FF9E03" d="M944.682,632.933c-0.081,0.438-0.217,0.877-0.328,1.31c-0.136,0.524-0.267,1.057-0.451,1.578
		c-0.151,0.422-0.353,0.84-0.536,1.256c-0.235,0.555-0.47,1.097-0.757,1.637c-0.4,0.739-0.831,1.472-1.328,2.195
		c-0.077,0.121-0.176,0.23-0.257,0.352c-0.522,0.723-1.097,1.432-1.718,2.146c-0.113,0.133-0.217,0.26-0.335,0.388
		c-0.666,0.734-1.411,1.454-2.202,2.164c-0.484,0.439-1.034,0.866-1.576,1.3c-0.484,0.388-0.957,0.788-1.479,1.172
		c-0.574,0.414-1.215,0.814-1.845,1.22c-0.659,0.435-1.287,0.881-2,1.289c-1.563,0.912-3.218,1.714-4.913,2.489
		c-0.49,0.213-0.98,0.42-1.477,0.626c-1.333,0.565-2.699,1.077-4.099,1.553c-0.497,0.167-0.989,0.357-1.492,0.512
		c-0.883,0.276-1.786,0.522-2.687,0.766c-0.682,0.191-1.355,0.391-2.041,0.549c-0.942,0.234-1.91,0.422-2.879,0.615
		c-0.653,0.133-1.3,0.286-1.96,0.402c-1.944,0.343-3.924,0.616-5.919,0.822c-0.614,0.065-1.224,0.097-1.831,0.156
		c-1.178,0.099-2.355,0.183-3.545,0.23c-0.745,0.036-1.489,0.05-2.229,0.066c-0.955,0.014-1.917,0.023-2.872,0.014
		c-0.797-0.014-1.588-0.038-2.387-0.068c-0.876-0.032-1.754-0.079-2.628-0.144c-0.806-0.057-1.61-0.12-2.419-0.201
		c-0.87-0.086-1.734-0.176-2.604-0.287c-0.771-0.1-1.542-0.212-2.308-0.332c-0.928-0.145-1.85-0.31-2.773-0.479
		c-0.726-0.144-1.445-0.283-2.158-0.434c-1.086-0.243-2.159-0.517-3.218-0.788c-0.601-0.167-1.202-0.319-1.797-0.487
		c-1.911-0.556-3.787-1.184-5.587-1.892c-0.901-0.341-1.764-0.732-2.628-1.109c-0.452-0.197-0.917-0.386-1.348-0.594
		c-1.321-0.621-2.595-1.283-3.825-1.994c-10.266-5.919-15.394-13.703-15.374-21.463l-0.025,9.582
		c0.057,7.707,5.171,15.414,15.36,21.296c1.23,0.709,2.506,1.376,3.825,2.003c0.413,0.188,0.851,0.356,1.271,0.544
		c0.797,0.357,1.596,0.732,2.412,1.057c0.099,0.039,0.203,0.065,0.295,0.097c1.806,0.707,3.676,1.321,5.583,1.89
		c0.156,0.038,0.295,0.104,0.452,0.151c0.438,0.127,0.894,0.203,1.333,0.327c1.074,0.282,2.137,0.557,3.236,0.796
		c0.289,0.059,0.571,0.147,0.87,0.203c0.411,0.093,0.851,0.147,1.275,0.222c0.924,0.179,1.85,0.347,2.785,0.488
		c0.368,0.057,0.727,0.145,1.095,0.187c0.399,0.065,0.802,0.093,1.21,0.144c0.863,0.104,1.727,0.204,2.601,0.286
		c0.413,0.039,0.826,0.106,1.257,0.14c0.38,0.034,0.779,0.041,1.163,0.066c0.872,0.056,1.746,0.102,2.629,0.145
		c0.44,0.013,0.885,0.056,1.328,0.066c0.359,0.013,0.7-0.01,1.061,0c0.953,0.004,1.908,0,2.863-0.023
		c0.465-0.005,0.942,0.013,1.407,0c0.28-0.01,0.555-0.043,0.83-0.053c1.183-0.056,2.36-0.142,3.539-0.24
		c0.47-0.038,0.94-0.045,1.406-0.091c0.151-0.013,0.287-0.047,0.426-0.063c2-0.206,3.976-0.472,5.918-0.827
		c0.099-0.011,0.203-0.011,0.3-0.034c0.563-0.102,1.113-0.246,1.669-0.356c0.962-0.199,1.929-0.39,2.876-0.621
		c0.687-0.167,1.355-0.357,2.03-0.542c0.906-0.246,1.811-0.492,2.699-0.772c0.191-0.053,0.386-0.104,0.569-0.165
		c0.321-0.097,0.594-0.234,0.915-0.343c1.395-0.479,2.76-0.993,4.099-1.554c0.499-0.212,1.001-0.411,1.487-0.634
		c1.693-0.765,3.347-1.578,4.911-2.48c0.208-0.122,0.426-0.251,0.64-0.375c0.484-0.298,0.896-0.61,1.361-0.913
		c0.628-0.405,1.262-0.804,1.845-1.235c0.517-0.375,0.993-0.77,1.47-1.159c0.544-0.431,1.092-0.867,1.583-1.31
		c0.112-0.088,0.23-0.178,0.334-0.267c0.661-0.619,1.281-1.248,1.87-1.884c0.112-0.136,0.222-0.267,0.334-0.402
		c0.347-0.39,0.705-0.783,1.022-1.181c0.248-0.318,0.47-0.643,0.698-0.96c0.084-0.118,0.17-0.228,0.248-0.344
		c0.413-0.6,0.799-1.201,1.145-1.813c0.079-0.118,0.124-0.262,0.191-0.386c0.287-0.544,0.522-1.084,0.752-1.623
		c0.142-0.314,0.327-0.632,0.445-0.948c0.045-0.106,0.057-0.217,0.099-0.328c0.182-0.509,0.312-1.034,0.443-1.55
		c0.091-0.356,0.23-0.705,0.301-1.055c0.02-0.093,0.011-0.187,0.032-0.282c0.104-0.545,0.138-1.093,0.191-1.642
		c0.025-0.357,0.109-0.709,0.117-1.059c0.008-0.154,0.008-0.309,0.008-0.463l0.032-9.228c-0.02,0.441-0.079,0.887-0.112,1.324
		C944.818,631.827,944.787,632.385,944.682,632.933z"/>
	<g>
		<g>
			<path fill="#F2B42B" d="M929.627,608.286c20.404,11.784,20.515,30.875,0.243,42.655c-20.265,11.788-53.226,11.776-73.623-0.008
				c-20.397-11.782-20.508-30.86-0.243-42.642C876.272,596.521,909.23,596.511,929.627,608.286z"/>
		</g>
	</g>
	<g>
		<path fill="#FFD859" d="M929.627,608.286c20.404,11.784,20.515,30.875,0.243,42.655c-20.265,11.788-53.226,11.776-73.623-0.008
			c-20.397-11.782-20.508-30.86-0.243-42.642C876.272,596.521,909.23,596.511,929.627,608.286z"/>
	</g>
	<g>
		<g>
			<g>
				<path fill="#FFDA00" d="M929.627,610.822c20.404,11.785,20.515,28.339,0.243,40.118c-20.265,11.788-53.226,11.776-73.623-0.008
					c-20.403-11.782-20.508-28.326-0.243-40.098C876.272,599.063,909.23,599.051,929.627,610.822z"/>
			</g>
		</g>
	</g>
	<path fill="#FFED94" d="M856.004,610.835c20.267-11.772,53.226-11.784,73.623-0.014c9.633,5.566,14.682,12.194,15.264,18.88
		c0.64-7.53-4.408-15.152-15.264-21.416c-20.397-11.775-53.355-11.765-73.623,0.005c-10.699,6.219-15.662,13.769-15.021,21.235
		C841.558,622.905,846.515,616.349,856.004,610.835z"/>
	<g>
		<g>
			<path fill="#DE821F" d="M921.923,612.755c16.132,9.305,16.211,24.41,0.191,33.729c-16.022,9.304-42.076,9.304-58.211-0.014
				c-16.125-9.312-16.211-24.396-0.188-33.714C879.736,603.449,905.799,603.44,921.923,612.755z"/>
		</g>
	</g>
	<g>
		<g>
			<path fill="#FFB101" d="M920.781,614.36c15.491,9.234,15.576,24.212,0.176,33.448c-15.382,9.233-40.409,9.224-55.9-0.013
				c-15.494-9.233-15.579-24.192-0.191-33.428C880.26,605.14,905.287,605.126,920.781,614.36z"/>
		</g>
	</g>
	<g>
		<g>
			<g>
				<path fill="#FFD859" d="M919.158,616.731l-5.69,3.31c3.434,2.089,4.904,4.056,5.482,5.596l-5.219,1.456
					c-0.492-1.2-1.688-3.36-5.388-5.496c-4.539-2.623-8.881-2.043-11.248-0.661c-3.023,1.752-2.349,3.86,0.574,8.088
					c3.585,4.909,3.69,8.417-1.471,11.421c-4.643,2.692-12.196,3.31-19.279,0.384l-6.041,3.509l-3.663-2.123l5.874-3.396
					c-3.358-1.989-5.83-4.63-6.418-6.685l5.358-1.477c0.668,2.052,2.617,4.441,5.873,6.329c4.236,2.443,9.423,2.698,12.698,0.788
					c3.283-1.911,2.962-4.374,0.353-7.907c-3.674-4.819-4.703-8.549,0.322-11.476c4.865-2.824,12.072-2.925,18.316-0.382l5.873-3.41
					L919.158,616.731z"/>
			</g>
		</g>
	</g>
</g>
<g opacity="0.5">
	<path fill="#DEF4FF" fill-opacity="0" d="M472.166,561.86c0,24.164-19.596,43.808-43.819,43.808
		c-24.158,0-43.798-19.645-43.798-43.808c0-24.209,19.641-43.81,43.798-43.81C452.57,518.05,472.166,537.652,472.166,561.86z"/>
	<path opacity="0.0833" fill="#DEF4FF" enable-background="new    " d="M465.331,562.328c0,20.394-16.539,36.971-36.983,36.971
		c-20.388,0-36.964-16.578-36.964-36.971c0-20.433,16.576-36.976,36.964-36.976C448.792,525.352,465.331,541.895,465.331,562.328z"
		/>
	<path opacity="0.1667" fill="#DEF4FF" enable-background="new    " d="M458.496,562.794c0,16.624-13.482,30.133-30.148,30.133
		c-16.617,0-30.128-13.511-30.128-30.133c0-16.656,13.511-30.14,30.128-30.14C445.014,532.654,458.496,546.138,458.496,562.794z"/>
	<path opacity="0.25" fill="#DEF4FF" enable-background="new    " d="M451.661,563.261c0,12.853-10.425,23.296-23.313,23.296
		c-12.846,0-23.293-10.443-23.293-23.296c0-12.88,10.447-23.305,23.293-23.305C441.236,539.956,451.661,550.381,451.661,563.261z"/>
	<path opacity="0.3333" fill="#DEF4FF" enable-background="new    " d="M444.826,563.727c0,9.082-7.368,16.459-16.478,16.459
		c-9.075,0-16.457-7.376-16.457-16.459c0-9.103,7.382-16.47,16.457-16.47C437.458,547.257,444.826,554.624,444.826,563.727z"/>
	<path opacity="0.4167" fill="#DEF4FF" enable-background="new    " d="M437.991,564.194c0,5.312-4.312,9.622-9.643,9.622
		c-5.305,0-9.622-4.309-9.622-9.622c0-5.327,4.317-9.635,9.622-9.635C433.679,554.559,437.991,558.866,437.991,564.194z"/>
	<path opacity="0.5" fill="#DEF4FF" enable-background="new    " d="M431.155,564.661c0,1.542-1.254,2.784-2.808,2.784
		c-1.534,0-2.786-1.242-2.786-2.784c0-1.55,1.252-2.8,2.786-2.8C429.901,561.86,431.155,563.11,431.155,564.661z"/>
</g>
<polygon opacity="0.2" fill="#227C9D" enable-background="new    " points="786.814,626.234 684.433,683.828 709.986,697.846 
	709.986,697.846 634.653,815.507 537.7,760.451 259.379,1096.759 262.306,1096.233 344.86,1080.097 550.714,831.358 652.927,889.4 
	758.519,724.474 758.521,724.472 786.102,739.603 "/>
<polygon fill="none" stroke="#D3D3D3" stroke-miterlimit="10" points="921.025,407.235 914.409,422.859 911.985,419.417 
	911.984,419.417 896.311,432.128 905.777,445.156 861.994,490.528 862.022,490.1 863.007,477.99 895.39,444.431 885.41,430.696 
	907.38,412.88 907.38,412.88 904.764,409.165 "/>
<g>
	<g>
		<circle fill="#FFD345" cx="221.892" cy="288.143" r="51.978"/>
		<path fill="#FFE68D" d="M259.104,251.854l-31.073,27.504l15.86-38.316c-1.466-0.687-2.954-1.293-4.459-1.833l-15.856,38.305
			l-2.538-41.335c-1.609,0.027-3.214,0.127-4.811,0.303l2.537,41.327l-20.39-36.019c-1.43,0.724-2.828,1.517-4.194,2.377
			l19.945,35.234l-32.543-24.069c-0.505,0.621-1.002,1.252-1.482,1.902c-0.481,0.65-0.938,1.31-1.384,1.974l33.266,24.603
			l-40.704-7.534c-0.367,1.571-0.664,3.151-0.882,4.739l40.708,7.535l-39.894,11.074c0.354,1.567,0.781,3.117,1.28,4.648
			l39.904-11.077l-31.048,27.482c1,1.245,2.069,2.447,3.196,3.609l31.046-27.481l-15.874,38.349
			c1.463,0.692,2.949,1.306,4.451,1.852l15.877-38.356l2.546,41.46c1.609-0.023,3.215-0.117,4.812-0.288l-2.546-41.467
			l20.479,36.176c1.431-0.721,2.83-1.512,4.198-2.37l-20.038-35.398l32.706,24.189c0.505-0.621,1.002-1.252,1.482-1.902
			c0.481-0.65,0.938-1.31,1.384-1.974l-33.429-24.724l40.885,7.568c0.365-1.571,0.658-3.153,0.874-4.741l-40.882-7.567
			l40.022-11.109c-0.359-1.566-0.791-3.115-1.294-4.644l-40.017,11.108l31.089-27.518
			C261.31,254.209,260.236,253.012,259.104,251.854z"/>
		<circle fill="#FF9F4C" cx="221.892" cy="288.143" r="43.731"/>
		<circle fill="#FFBA49" cx="221.892" cy="288.143" r="40.976"/>
	</g>
	<path fill="#FFF2D2" d="M238.378,272.24c-3.392-1.796-6.546-1.379-9.491,1.026c-0.336,0.275-0.554,0.722-1.094,0.784
		c-0.034-0.123-0.101-0.249-0.098-0.373c0.076-2.811-1.167-4.904-3.389-6.557c-3.399-2.529-7.429-2.522-10.767,0.051
		c-1.707,1.316-3.125,2.888-4.379,4.618c-0.463,0.639-0.841,0.818-1.576,0.318c-1.729-1.179-3.542-2.236-5.287-3.393
		c-0.21-0.139-0.39-0.219-0.559-0.267l-2.735,4.326c0.048,0.034,0.082,0.069,0.141,0.104c1.89,1.119,3.739,2.306,5.627,3.428
		c0.526,0.313,0.673,0.616,0.346,1.151c-0.411,0.673-0.823,1.35-1.173,2.056c-0.377,0.759-0.768,0.753-1.442,0.297
		c-1.761-1.193-3.585-2.292-5.366-3.457c-0.11-0.072-0.207-0.116-0.299-0.152l-2.615,4.137c0.089,0.104,0.208,0.205,0.374,0.304
		c1.7,1.033,3.367,2.121,5.06,3.165c1.285,0.793,1.322,0.876,0.578,2.13c-0.07,0.118-0.149,0.231-0.222,0.348
		c-1.3,2.1-2.596,4.201-3.901,6.298c-0.025,0.039-0.046,0.077-0.069,0.115l4.749,2.845c0.456-0.782,0.933-1.554,1.424-2.316
		c0.923-1.435,2.094-1.772,3.616-0.964c1.03,0.546,2,1.206,2.998,1.813c5.369,3.267,10.742,6.529,16.106,9.804
		c1.175,0.717,1.375,1.574,0.681,2.777c-0.378,0.653-0.764,1.302-1.177,1.933c0.907,0.772,2.931,2.497,4.742,4.072
		c1.397-2.254,2.949-4.41,4.242-6.73c0.371-0.666,0.715-0.696,1.364-0.262c1.843,1.233,3.752,2.366,5.625,3.555l2.869-4.373
		c-0.03-0.019-0.045-0.037-0.077-0.057c-1.802-1.066-3.545-2.232-5.332-3.323c-0.663-0.405-0.953-0.798-0.423-1.531
		c0.401-0.553,0.74-1.159,1.041-1.774c0.354-0.724,0.739-0.824,1.431-0.365c1.8,1.197,3.651,2.316,5.466,3.49
		c0.062,0.04,0.113,0.058,0.17,0.09l2.891-4.408c-0.006-0.004-0.007-0.006-0.012-0.01c-1.842-1.125-3.612-2.37-5.454-3.495
		c-0.82-0.5-0.925-0.99-0.484-1.817c1.035-1.947,1.837-3.998,2.369-6.14c0.795-3.198,0.685-6.298-1.36-9.056
		C242.156,274.637,240.372,273.296,238.378,272.24z M217.854,288.524c-2.532-1.572-5.079-3.121-7.63-4.662
		c-0.497-0.3-0.631-0.523-0.262-1.101c1.494-2.34,2.861-4.779,5.146-6.476c2.874-2.134,6.731-0.795,7.219,2.495
		c0.19,1.278-0.042,2.527-0.409,3.454c-0.78,2.388-1.973,4.231-3.155,6.081C218.515,288.708,218.286,288.792,217.854,288.524z
		 M237.269,286.959c-0.092,0.788-0.235,1.562-0.465,2.148c-0.929,2.975-2.55,5.41-4.022,7.923c-0.25,0.426-0.549,0.446-0.941,0.208
		c-2.843-1.724-5.687-3.446-8.536-5.161c-0.369-0.221-0.573-0.404-0.284-0.876c1.537-2.515,2.959-5.108,5.026-7.257
		c0.695-0.722,1.456-1.344,2.344-1.825c1.712-0.928,3.375-0.845,4.946,0.26C236.913,283.486,237.491,285.064,237.269,286.959z"/>
</g>
</svg>
