<svg width="44" height="45" viewBox="0 0 44 45" fill="none" xmlns="http://www.w3.org/2000/svg">
<g clip-path="url(#clip0)">
<path d="M24.4805 21.4461C24.205 21.3422 23.9185 21.3966 23.6366 21.384C23.4497 21.3914 23.2626 21.4061 23.0807 21.3443C21.7959 21.0606 20.9773 20.2174 20.4568 19.0516C20.0401 18.1183 19.8813 17.1223 19.882 16.1009C19.8551 15.5758 19.7782 15.0552 19.7831 14.5244C19.7999 12.6857 19.7893 10.8468 19.79 9.00796C19.7901 8.80308 19.8046 8.60279 19.8459 8.39763C20.0335 7.466 19.2671 6.49179 18.3535 6.52358C17.51 6.55292 16.6674 6.53229 15.8244 6.54254C15.2054 6.55004 15.1787 6.57704 15.2467 7.19129C15.2644 7.35179 15.2513 7.51467 15.2513 7.67646C15.2513 7.79075 15.2119 7.89825 15.0952 7.90825C14.7177 7.94054 14.3283 8.087 13.9729 7.82054C13.9385 7.52796 13.9373 7.23542 13.9741 6.94296C14.0923 6.62571 13.9447 6.49662 13.6505 6.51221C12.2738 6.58508 10.8965 6.52071 9.51975 6.54592C9.37947 6.5485 9.2305 6.50138 9.09933 6.59379C9.10015 6.59392 9.10094 6.59396 9.10176 6.59404L9.09731 6.59508C9.09797 6.59462 9.09867 6.59425 9.09933 6.59379C8.67541 6.53346 8.34534 6.71879 8.0631 7.01196C7.79812 7.28717 7.72458 7.64579 7.66658 8.00758C7.72648 8.48246 7.62468 8.96967 7.77118 9.43821C8.11353 9.63871 8.49938 9.48821 8.85701 9.57375C9.03914 9.74679 9.14057 10.311 9.03791 10.5747C8.92956 10.8529 8.68621 10.7767 8.4782 10.7897C8.39152 10.7951 8.30419 10.789 8.2173 10.7928C7.77349 10.8123 7.67379 10.8984 7.66889 11.3411C7.65702 12.4115 7.65735 13.4821 7.66876 14.5525C7.67334 14.9801 7.77287 15.1073 8.17726 15.0883C9.22123 15.0394 9.04561 15.2105 9.06007 16.0612C9.06131 16.1345 9.05719 16.2078 9.03865 16.2808C9.01994 16.3232 8.99696 16.3624 8.97306 16.4025C8.71447 16.5475 8.43944 16.4121 8.17244 16.4482C7.97152 16.4754 7.75631 16.4552 7.69435 16.7215C7.65195 16.8863 7.7397 17.0361 7.74753 17.1972C7.7486 17.2189 7.7498 17.2405 7.7512 17.262C7.82449 18.4003 8.35881 19.3295 9.11565 20.1379C9.65195 20.7107 10.3416 21.0633 11.0476 21.3763C11.6176 21.5587 12.1974 21.6511 12.8011 21.6398C13.8459 21.6203 14.8912 21.631 15.9364 21.6351C18.5909 21.6455 21.2462 21.587 23.8998 21.7178C24.1209 21.7287 24.3706 21.7899 24.5543 21.5796C24.5598 21.518 24.5353 21.4736 24.4805 21.4461Z" fill="#60D394"/>
<path d="M2.98403 9.85388L2.96383 9.891L2.94733 9.87431L2.98403 9.85388Z" fill="#60D394"/>
<path d="M9.96821 13.6437C9.28467 13.6441 9.28467 13.6441 9.28479 12.9422C9.28492 12.2456 9.28492 12.2456 9.97188 12.2454C10.6745 12.2451 10.6745 12.2451 10.6751 12.9693C10.6757 13.6432 10.6757 13.6432 10.0116 13.6437C9.99717 13.6437 9.98271 13.6437 9.96821 13.6437Z" fill="#FBFEFE"/>
<path d="M13.0986 15.0482C12.3973 15.0482 12.3973 15.0482 12.3987 14.3242C12.4 13.6508 12.4 13.6508 13.0617 13.6507C13.7854 13.6506 13.7908 13.6507 13.787 14.3507C13.7825 15.1675 13.8855 15.0331 13.0986 15.0482Z" fill="#FBFEFD"/>
<path d="M12.2323 8.71908C12.2318 9.43574 12.2318 9.43574 11.5236 9.43533C10.8424 9.43491 10.8367 9.43487 10.8431 8.73595C10.8504 7.94987 10.7188 8.04412 11.5289 8.03383C11.5433 8.03367 11.5578 8.03362 11.5723 8.03383C12.3397 8.04429 12.2202 7.94612 12.2323 8.71908Z" fill="#FBFEFD"/>
<path d="M12.2318 17.1743C12.2212 17.9246 12.3308 17.8305 11.5972 17.835C10.8423 17.8396 10.839 17.8361 10.8432 17.0772C10.8469 16.3827 10.7533 16.4701 11.433 16.4625C11.4619 16.4621 11.4908 16.4624 11.5197 16.4624C12.232 16.4624 12.232 16.4624 12.2318 17.1743Z" fill="#FDFEFE"/>
<path d="M14.6319 10.851C13.8441 10.8502 13.9579 10.742 13.9516 11.5541C13.9462 12.245 13.9505 12.2451 14.6398 12.2455C15.3193 12.246 15.3193 12.246 15.3193 11.5456C15.3062 10.7364 15.4266 10.8518 14.6319 10.851Z" fill="#FDFEFE"/>
<path d="M11.5184 19.2882C12.2319 19.2882 12.2363 19.2882 12.2306 19.9987C12.2244 20.7629 12.3355 20.6545 11.5551 20.6606C10.8421 20.6661 10.8421 20.6618 10.8421 19.9484C10.8421 19.2882 10.8421 19.2882 11.5184 19.2882Z" fill="#FDFEFE"/>
<path d="M8.89468 9.42559C9.03166 9.46417 9.11789 9.53188 9.11167 9.69913C9.10083 9.99117 9.10219 10.2841 9.11113 10.5763C9.11669 10.757 9.06174 10.8466 8.86762 10.84C8.57878 10.8302 8.28925 10.832 8.00029 10.8396C7.83324 10.8441 7.76753 10.7756 7.77194 10.6087C7.78236 10.2143 7.78479 9.81967 7.79047 9.42517C8.15857 9.46005 8.52663 9.46075 8.89468 9.42559Z" fill="#FDFEFE"/>
<path d="M13.9508 18.5539C13.9501 17.8754 13.9501 17.8754 14.6098 17.8755C15.319 17.8757 15.3225 17.8757 15.3179 18.5899C15.313 19.3539 15.4051 19.236 14.682 19.2487C14.6676 19.2489 14.6531 19.2487 14.6387 19.2487C13.9515 19.2484 13.9515 19.2484 13.9508 18.5539Z" fill="#FEFFFF"/>
<path d="M23.3212 23.3794C23.2235 23.4912 23.093 23.4417 22.9745 23.4515C23.0727 23.3419 23.2001 23.3762 23.3212 23.3794Z" fill="#C3312F"/>
<path d="M26.6478 23.7065C26.7546 23.7029 26.8582 23.71 26.9388 23.795C26.8313 23.8011 26.7163 23.8318 26.6478 23.7065Z" fill="#C93732"/>
<path d="M26.3842 23.6337C26.4841 23.6242 26.5803 23.6277 26.6546 23.7104C26.5558 23.7164 26.453 23.7364 26.3842 23.6337Z" fill="#C93732"/>
<path d="M6.21498 12.9318C6.21453 13.6515 6.21453 13.6515 5.51311 13.6519C4.80876 13.6523 4.80876 13.6523 4.80897 12.9351C4.80917 12.237 4.80917 12.237 5.48884 12.2371C5.5033 12.2371 5.51772 12.2372 5.53218 12.2372C6.21539 12.2371 6.21539 12.2371 6.21498 12.9318Z" fill="#60D394"/>
<path d="M2.39644 15.0576C1.6963 15.057 1.6963 15.057 1.69741 14.3276C1.69844 13.6413 1.69844 13.6414 2.39723 13.6421C2.52782 13.6422 2.6585 13.6392 2.78901 13.6427C3.10783 13.651 3.11521 13.6538 3.12386 13.9545C3.13144 14.2184 3.11822 14.483 3.12691 14.7468C3.13404 14.962 3.06973 15.0821 2.83157 15.0599C2.68767 15.0465 2.54154 15.0575 2.39644 15.0576Z" fill="#60D394"/>
<path d="M3.98516 9.44804C3.25399 9.44817 3.25399 9.44817 3.25271 8.70821C3.25156 8.02133 3.25156 8.02137 3.94796 8.02133C4.65926 8.02129 4.65926 8.02129 4.65918 8.73917C4.65918 8.75383 4.65918 8.76846 4.65918 8.78312C4.6591 9.44787 4.6591 9.44787 3.98516 9.44804Z" fill="#60D394"/>
<path d="M9.07942 16.4546C8.73234 16.4533 8.38513 16.4467 8.03816 16.4529C7.86497 16.456 7.76437 16.4125 7.77046 16.2109C7.77969 15.904 7.77702 15.5965 7.77158 15.2893C7.76865 15.1241 7.8323 15.0519 8.00034 15.0562C8.28947 15.0635 8.57896 15.0622 8.86816 15.0564C9.02401 15.0533 9.11658 15.0985 9.10859 15.2765C9.09092 15.6702 9.146 16.066 9.07571 16.4583C9.07563 16.4582 9.07942 16.4546 9.07942 16.4546Z" fill="#FCFEFE"/>
<path d="M26.6043 23.9041C26.5822 23.9031 26.5592 23.9237 26.5366 23.9349C26.5574 23.9484 26.5778 23.9716 26.5992 23.9727C26.6211 23.9737 26.6441 23.953 26.6666 23.9417C26.6459 23.9282 26.6256 23.905 26.6043 23.9041Z" fill="#4D4B45"/>
<path d="M33.5319 1.17734C33.5134 1.26442 33.4486 1.28488 33.3732 1.29013C33.4039 1.2205 33.4601 1.18771 33.5319 1.17734Z" fill="url(#paint0_linear)"/>
<path d="M33.626 1.10269C33.6085 1.15277 33.5742 1.18177 33.5215 1.18794C33.5363 1.13444 33.5732 1.10857 33.626 1.10269Z" fill="url(#paint1_linear)"/>
<path d="M33.7188 1.03012C33.6861 1.05591 33.6533 1.08175 33.6205 1.10754C33.6348 1.05775 33.6675 1.03183 33.7188 1.03012Z" fill="url(#paint2_linear)"/>
<path d="M34.7667 0.235016C34.7332 0.261224 34.6998 0.287391 34.6663 0.313599C34.6832 0.265683 34.7157 0.238266 34.7667 0.235016Z" fill="url(#paint3_linear)"/>
<path d="M24.5279 23.2762C24.3442 23.0659 24.0946 23.1271 23.8734 23.138C21.2198 23.2688 18.5646 23.2104 15.91 23.2207C14.8649 23.2248 13.8195 23.2356 12.7747 23.216C12.1711 23.2046 11.5913 23.2971 11.0212 23.4796C10.3153 23.7925 9.62558 24.1451 9.08928 24.7179C8.31811 25.5416 7.77793 26.4907 7.72116 27.6586C7.71333 27.8197 7.94515 28.3804 8.14607 28.4076C8.41307 28.4437 8.6881 28.3083 8.94669 28.4533C8.97059 28.4934 8.99357 28.5326 9.01228 28.5749C9.03077 28.648 9.03494 28.7212 9.03366 28.7946C9.0192 29.6453 9.19482 29.8164 8.15085 29.7675C7.74645 29.7486 7.64692 29.8757 7.64235 30.3032C7.63094 31.3736 7.63057 32.4443 7.64247 33.5146C7.64738 33.9574 7.74707 34.0435 8.19089 34.0629C8.27777 34.0667 8.36511 34.0607 8.45179 34.0661C8.65975 34.0791 8.90315 34.0028 9.01145 34.2811C9.11408 34.5447 9.01269 35.109 8.83056 35.282C8.47297 35.3676 8.08707 35.217 7.74472 35.4175C7.59823 35.8861 7.69998 36.3733 7.64013 36.8481C7.69813 37.2099 7.77167 37.5685 8.03665 37.8438C8.31889 38.1369 8.64896 38.3223 9.07288 38.2619C9.07222 38.2615 9.07152 38.2611 9.07086 38.2607L9.07531 38.2617C9.07448 38.2618 9.0737 38.2619 9.07288 38.2619C9.20405 38.3543 9.35302 38.3072 9.4933 38.3098C10.87 38.335 12.2474 38.2706 13.624 38.3435C13.9182 38.3591 14.0658 38.23 13.9476 37.9128C13.9109 37.6203 13.9121 37.3277 13.9465 37.0352C14.3018 36.7687 14.6913 36.9152 15.0687 36.9475C15.1855 36.9575 15.2249 37.0649 15.2249 37.1793C15.2249 37.3411 15.238 37.504 15.2202 37.6644C15.1522 38.2787 15.1789 38.3057 15.7979 38.3132C16.6409 38.3234 17.4836 38.3028 18.327 38.3322C19.2407 38.3639 20.0071 37.3897 19.8195 36.4581C19.7782 36.2529 19.7636 36.0527 19.7635 35.8478C19.7628 34.0089 19.7735 32.17 19.7567 30.3314C19.7518 29.8005 19.8286 29.2799 19.8556 28.7548C19.8548 27.7335 20.0137 26.7374 20.4303 25.8041C20.9508 24.6383 21.7695 23.7952 23.0543 23.5114C23.2361 23.4497 23.4232 23.4643 23.6101 23.4718C23.8921 23.4591 24.1786 23.5135 24.454 23.4096C24.5088 23.382 24.5333 23.3376 24.5279 23.2762Z" fill="#EE6055"/>
<path d="M2.95762 35.002L2.93742 34.9649L2.92096 34.9816L2.95762 35.002Z" fill="#BA1E12"/>
<path d="M9.94185 31.2119C9.2583 31.2115 9.2583 31.2115 9.25843 31.9135C9.25855 32.61 9.25855 32.61 9.94551 32.6103C10.6481 32.6105 10.6481 32.6105 10.6487 31.8863C10.6493 31.2124 10.6493 31.2124 9.98527 31.2119C9.97077 31.2119 9.95631 31.2119 9.94185 31.2119Z" fill="#FBFEFE"/>
<path d="M13.0722 29.8074C12.371 29.8075 12.371 29.8075 12.3724 30.5314C12.3736 31.2049 12.3736 31.2049 13.0353 31.2049C13.759 31.205 13.7644 31.205 13.7606 30.505C13.7561 29.6881 13.8591 29.8225 13.0722 29.8074Z" fill="#FBFEFD"/>
<path d="M12.2058 36.1366C12.2053 35.4199 12.2053 35.4199 11.4971 35.4203C10.816 35.4207 10.8103 35.4208 10.8167 36.1197C10.8239 36.9058 10.6923 36.8115 11.5024 36.8218C11.5169 36.822 11.5314 36.822 11.5458 36.8218C12.3132 36.8113 12.1938 36.9095 12.2058 36.1366Z" fill="#FBFEFD"/>
<path d="M12.2053 27.6813C12.1948 26.931 12.3043 27.0251 11.5707 27.0207C10.8159 27.0161 10.8126 27.0196 10.8167 27.7784C10.8204 28.473 10.7268 28.3856 11.4065 28.3932C11.4355 28.3935 11.4644 28.3932 11.4933 28.3932C12.2055 28.3932 12.2055 28.3932 12.2053 27.6813Z" fill="#FDFEFE"/>
<path d="M15.2928 33.31C15.2929 32.6097 15.2929 32.6097 14.6134 32.6101C13.9241 32.6105 13.9197 32.6106 13.9252 33.3016C13.9315 34.1136 13.8177 34.0054 14.6055 34.0046C15.4002 34.0038 15.2797 34.1192 15.2928 33.31Z" fill="#FDFEFE"/>
<path d="M11.492 25.5675C12.2055 25.5675 12.2099 25.5674 12.2041 24.857C12.198 24.0927 12.3091 24.2011 11.5287 24.1951C10.8157 24.1895 10.8156 24.1938 10.8157 24.9073C10.8157 25.5675 10.8157 25.5675 11.492 25.5675Z" fill="#FDFEFE"/>
<path d="M8.86831 35.4301C9.00529 35.3915 9.09152 35.3238 9.0853 35.1565C9.07446 34.8645 9.07582 34.5715 9.08476 34.2793C9.09033 34.0986 9.03537 34.009 8.84125 34.0156C8.55241 34.0254 8.26288 34.0237 7.97392 34.016C7.80687 34.0116 7.74116 34.0801 7.74557 34.2469C7.75599 34.6413 7.75842 35.036 7.76411 35.4305C8.13216 35.3956 8.50022 35.3949 8.86831 35.4301Z" fill="#FDFEFE"/>
<path d="M13.9243 26.3017C13.9236 26.9802 13.9236 26.9802 14.5833 26.9801C15.2925 26.9799 15.296 26.9799 15.2914 26.2657C15.2865 25.5017 15.3786 25.6196 14.6555 25.6069C14.6411 25.6067 14.6266 25.6069 14.6122 25.6069C13.9251 25.6072 13.9251 25.6072 13.9243 26.3017Z" fill="#FEFFFF"/>
<path d="M7.66997 29.7982C7.67058 29.4894 7.67421 29.1806 7.67112 28.8718C7.66717 28.4758 7.66486 28.4733 7.28997 28.4683C6.98474 28.4642 6.67938 28.4673 6.37407 28.4672C6.30453 28.8281 6.35974 29.193 6.33885 29.5552C6.32801 29.7429 6.40357 29.8163 6.58999 29.8104C6.94972 29.7989 7.30995 29.8015 7.66997 29.7982Z" fill="#EE6055"/>
<path d="M3.89205 26.9897C3.11346 26.9968 3.23895 26.9067 3.22639 27.6734C3.22519 27.7469 3.2254 27.8203 3.22606 27.8938C3.23116 28.4425 3.16624 28.4021 3.75218 28.4045C3.97003 28.4054 4.18801 28.3981 4.40565 28.4042C4.57505 28.409 4.63627 28.3299 4.6336 28.1663C4.62857 27.8579 4.62667 27.5492 4.63413 27.241C4.63879 27.0484 4.55223 26.9792 4.37121 26.9879C4.21182 26.9957 4.05177 26.9896 3.89205 26.9897Z" fill="#EE6055"/>
<path d="M6.18849 31.9238C6.18804 31.2041 6.18804 31.2041 5.48662 31.2037C4.78227 31.2033 4.78227 31.2033 4.78248 31.9205C4.78268 32.6186 4.78268 32.6186 5.46235 32.6185C5.47681 32.6185 5.49123 32.6184 5.50569 32.6184C6.18895 32.6185 6.18895 32.6185 6.18849 31.9238Z" fill="#EE6055"/>
<path d="M2.37002 29.798C1.66987 29.7987 1.66987 29.7987 1.67098 30.5281C1.67201 31.2143 1.67201 31.2143 2.3708 31.2135C2.50139 31.2134 2.63207 31.2164 2.76258 31.213C3.08141 31.2046 3.08878 31.2018 3.09743 30.9011C3.10501 30.6372 3.09179 30.3726 3.10048 30.1088C3.10761 29.8936 3.0433 29.7735 2.80514 29.7957C2.66124 29.8091 2.51511 29.7981 2.37002 29.798Z" fill="#EE6055"/>
<path d="M3.95873 35.4076C3.22756 35.4075 3.22756 35.4075 3.22628 36.1474C3.22513 36.8343 3.22513 36.8343 3.92153 36.8343C4.63284 36.8343 4.63284 36.8343 4.63275 36.1165C4.63275 36.1018 4.63275 36.0872 4.63275 36.0725C4.63271 35.4077 4.63271 35.4077 3.95873 35.4076Z" fill="#EE6055"/>
<path d="M9.05299 28.401C8.70591 28.4023 8.3587 28.4089 8.01174 28.4027C7.83854 28.3996 7.73794 28.443 7.74404 28.6447C7.75326 28.9516 7.75059 29.2591 7.74515 29.5663C7.74222 29.7315 7.80587 29.8037 7.97392 29.7994C8.26304 29.7921 8.55253 29.7934 8.84173 29.7992C8.99758 29.8023 9.09015 29.7571 9.08216 29.5791C9.06449 29.1854 9.11957 28.7896 9.04929 28.3973C9.0492 28.3975 9.05299 28.401 9.05299 28.401Z" fill="#FCFEFE"/>
<path d="M23.5527 23.1807C23.3921 23.3083 23.206 23.2293 23.0317 23.2465C23.1925 23.1199 23.3757 23.1759 23.5527 23.1807ZM19.8036 28.4422C20.6169 29.331 21.384 30.2624 22.2301 31.1206C22.4664 31.1338 22.3916 30.9592 22.4004 30.8338C22.4087 30.714 22.2734 30.5999 22.3885 30.4755C22.4087 30.4379 22.4227 30.3994 22.4331 30.3584C22.5788 29.7983 22.7375 29.2551 22.7383 28.6527C22.7388 28.3631 23.0404 28.0153 23.2194 27.7019C23.2996 27.5616 23.3973 27.4305 23.4097 27.265C23.4663 26.5154 23.7882 25.8313 23.9278 25.1012C23.9931 24.7597 24.1608 24.4462 24.3246 24.1362C24.4817 23.8388 24.6045 23.5266 24.4351 23.1855C24.1411 23.1541 23.8469 23.1603 23.5526 23.1808C23.3851 23.2525 23.1967 23.154 23.0318 23.2465C22.6049 23.2461 22.2414 23.443 21.9039 23.6668C21.144 24.1705 20.5977 24.8592 20.2544 25.7157C19.9577 26.4561 19.8537 27.2383 19.7298 28.0173C19.7063 28.1654 19.7304 28.3092 19.8036 28.4422ZM24.4351 23.1855C24.4584 23.4374 24.3117 23.6666 24.3385 23.9196C24.3413 23.9461 24.331 23.9905 24.3129 24.0003C24.0742 24.1297 24.1086 24.4082 23.9952 24.5865C23.7551 24.9644 23.7764 25.3911 23.6524 25.786C23.631 25.8538 23.6639 25.957 23.6247 25.9984C23.2771 26.3658 23.4194 26.8552 23.2998 27.2776C23.2803 27.3466 23.2848 27.4429 23.2402 27.4809C23.0156 27.6724 22.9492 27.9392 22.8708 28.2031C22.8586 28.244 22.8425 28.3084 22.8154 28.3161C22.4424 28.4223 22.5725 28.6827 22.5909 28.9432C22.6137 29.2661 22.6776 29.605 22.3986 29.8936C22.2564 30.0407 22.3583 30.289 22.3402 30.4908C22.2673 30.4992 22.2054 30.4934 22.2415 30.6153C22.29 30.779 22.4307 30.9581 22.2301 31.1206C22.4084 31.3807 22.6124 31.6174 22.8549 31.8188C22.8921 31.8447 22.9279 31.872 22.9446 31.917L22.9379 31.91C22.9828 31.9302 23.0166 31.9604 23.028 32.0111L23.0194 32.0018C23.0705 32.0166 23.1045 32.0474 23.1122 32.1029L23.1031 32.0932C23.1585 32.1045 23.1937 32.1344 23.1951 32.1954L23.1909 32.1945C23.202 32.2874 23.3597 32.0452 23.3332 32.2623C23.3218 32.3557 23.4225 32.4353 23.4767 32.5184L23.4783 32.5203C23.5474 32.5692 23.6136 32.6208 23.646 32.7041L23.645 32.703C23.8213 32.7392 23.878 32.6079 23.9158 32.4837C24.0008 32.2041 24.1075 31.9231 24.0865 31.6261C24.07 31.3941 24.1388 31.2063 24.2417 31.0032C24.5168 30.4602 24.827 29.9228 24.791 29.2763C24.7894 29.247 24.7907 29.2146 24.8051 29.1904C25.3406 28.2884 25.4257 27.2266 25.809 26.2635C26.0889 25.5603 26.4467 24.8729 26.6128 24.1265C26.6442 23.9851 26.8362 23.6144 26.3882 23.6065C26.3636 23.6061 26.3498 23.4616 26.2689 23.4233C25.7053 23.2261 25.1224 23.1525 24.529 23.1456C24.4977 23.159 24.4664 23.1723 24.4351 23.1855ZM31.9422 27.0526C31.4971 26.531 31.0302 26.032 30.4813 25.6185C30.3959 25.6488 30.4205 25.7891 30.4078 25.7836C30.0774 25.6409 30.0415 25.6421 29.9164 26.0134C29.6029 26.9439 29.2968 27.8763 29.022 28.8204C28.7152 29.8746 28.3714 30.9194 28.0682 31.9744C27.6553 33.4112 27.0944 34.8033 26.7976 36.2746C26.7685 36.4192 26.727 36.558 26.6571 36.6899C26.4273 37.1239 26.2829 37.5778 26.3709 38.0796C26.7772 38.4385 27.2039 38.7699 27.6624 39.0585C27.9566 39.1838 28.0764 39.0713 28.1309 38.7638C28.2486 38.0989 28.4744 37.4651 28.7763 36.8628C28.9509 36.5145 28.9457 36.1246 29.0641 35.7615C29.6305 34.0248 30.0797 32.2506 30.6789 30.5243C30.8571 30.0108 31.0356 29.494 31.1358 28.9636C31.244 28.3902 31.5386 27.8997 31.7166 27.3613C31.7442 27.3322 31.7695 27.3003 31.793 27.2681C31.8162 27.1783 31.9691 27.1786 31.9422 27.0526ZM26.3709 38.0796C26.4454 38.0241 26.513 37.9274 26.4975 37.8594C26.3896 37.3846 26.6141 37.0202 26.8331 36.6365C26.9287 36.4689 26.9126 36.2396 26.9678 36.0442C27.1483 35.4048 27.2947 34.7571 27.5119 34.126C27.676 33.6491 27.8927 33.1886 27.964 32.6719C28.0169 32.2881 28.2045 31.9246 28.32 31.5482C28.4738 31.0473 28.6805 30.5596 28.7171 30.0276C28.732 29.8107 28.9458 29.7115 28.9901 29.4919C29.0967 28.9637 29.2296 28.4363 29.4094 27.9295C29.5371 27.5696 29.5184 27.1522 29.8022 26.8485C29.8366 26.8117 29.8437 26.7391 29.8455 26.6824C29.8526 26.4567 29.9504 26.2571 30.0222 26.0515C30.0706 25.913 30.0875 25.6523 30.2692 25.7125C30.5196 25.7955 30.1608 25.9595 30.2428 26.1038C30.4915 26.0215 30.512 25.8327 30.4812 25.6186L30.4812 25.6222C30.4277 25.6147 30.4 25.5773 30.3789 25.5322L30.3864 25.5392C30.3434 25.5228 30.3148 25.4893 30.2871 25.4545L30.2885 25.4556C30.2584 25.4288 30.2277 25.4029 30.1963 25.3777C29.7035 24.926 29.1507 24.5673 28.546 24.2893C28.4325 24.3516 28.3875 24.4618 28.3683 24.5788C28.1647 25.8172 27.6918 26.9757 27.3177 28.1625C27.0757 28.9299 26.8122 29.7028 26.6104 30.4697C26.3372 31.5076 25.8644 32.4868 25.7089 33.5456C25.6458 33.9757 25.4983 34.2187 25.1359 34.3757C25.1632 34.4632 25.2166 34.5266 25.3027 34.5596L25.302 34.5589C25.4051 34.6977 25.5083 34.8365 25.6259 34.9947C25.505 35.1181 25.3453 35.0355 25.2223 35.0875C25.2713 35.7337 24.9936 36.261 24.6285 36.7566C24.6853 36.8498 24.7665 36.91 24.8704 36.9394L24.8698 36.939C25.115 37.1737 25.3808 37.3808 25.674 37.5509C25.7072 37.6114 25.7998 37.5891 25.8247 37.6613L25.8156 37.6528C25.8615 37.6647 25.8894 37.7 25.9183 37.734L25.9177 37.7336C25.9462 37.7609 25.9771 37.7851 26.0105 37.8062L26.0203 37.8126C26.1338 37.8322 26.2443 37.8559 26.2677 37.9983L26.2673 37.9981C26.2959 38.0258 26.3268 38.0506 26.3599 38.0724L26.3709 38.0796ZM25.136 34.3756C25.2676 34.2831 25.4506 34.4095 25.5772 34.2552C25.6755 34.1355 25.7715 34.333 25.9081 34.2884C25.6871 34.0112 25.7459 33.7275 25.8332 33.4212C25.993 32.8601 26.2035 32.3189 26.3916 31.7694C26.5006 31.4509 26.6708 31.1208 26.6197 30.754C26.6005 30.6165 26.6434 30.4836 26.7207 30.3779C27.0434 29.9362 27.0821 29.3966 27.2257 28.8953C27.4146 28.2354 27.6569 27.5929 27.8429 26.9338C28.0168 26.3178 28.2525 25.7239 28.427 25.1105C28.5014 24.849 28.4387 24.5542 28.5461 24.2892C27.9457 23.9238 27.3037 23.6644 26.6186 23.5148C26.5949 23.5368 26.5665 23.5664 26.5396 23.529C26.5057 23.4817 26.5404 23.5539 26.5601 23.4985C26.4774 23.4168 26.3737 23.418 26.269 23.4235C26.335 23.4991 26.2665 23.6488 26.3868 23.6835C26.5487 23.7304 26.7505 23.7436 26.432 23.8894C26.4203 23.8948 26.4126 23.9089 26.403 23.919C26.7524 24.1442 26.2944 24.272 26.3241 24.5015C26.3643 24.8125 26.2301 25.1598 25.9456 25.3947C25.8171 25.5008 25.7654 25.6464 25.8208 25.8289C25.8698 25.9903 25.8265 26.1613 25.7208 26.2865C25.5423 26.4978 25.4801 26.7518 25.4241 27.0076C25.3675 27.2665 25.2877 27.5138 25.1826 27.7568C25.102 27.9429 25.0329 28.1367 25.0448 28.3503C25.0585 28.5988 24.9683 28.8254 24.7824 28.9746C24.6056 29.1164 24.5906 29.2481 24.6937 29.426C24.7404 29.5065 24.7634 29.5981 24.7024 29.6739C24.5303 29.8877 24.5191 30.1609 24.4232 30.4021C24.3041 30.7014 24.0886 30.9594 23.9702 31.2441C23.8653 31.4964 24.0485 31.841 23.903 32.1292C23.8082 32.3171 23.8938 32.5876 23.6451 32.7032C24.1079 33.2918 24.6084 33.8461 25.136 34.3756ZM31.7697 27.2236C31.6794 27.2296 31.5575 27.2525 31.5565 27.3402C31.552 27.7798 31.196 28.0769 31.1282 28.4956C31.0631 28.8969 30.9432 29.2914 30.8215 29.6806C30.4378 30.908 30.0437 32.1322 29.6495 33.3562C29.5282 33.7326 29.3922 34.1041 29.411 34.5095C29.4151 34.6 29.3968 34.6866 29.3348 34.7556C29.0987 35.0179 29.0451 35.3516 28.9735 35.6798C28.9087 35.9768 28.7486 36.2524 28.7867 36.5735C28.7927 36.6243 28.7606 36.6974 28.7219 36.7331C28.4455 36.9882 28.4456 37.3649 28.3184 37.6828C28.2382 37.8834 28.1911 38.1008 28.0873 38.2947C28.0299 38.4019 28.0187 38.5154 28.014 38.6347C27.9998 38.9901 27.9969 38.99 27.6624 39.0585C28.0176 39.3886 28.406 39.6739 28.8133 39.9337C29.0196 39.9388 29.0837 39.7726 29.133 39.6271C29.283 39.1838 29.4257 38.7388 29.5423 38.2831C29.7161 37.6037 29.9974 36.9574 30.1955 36.2821C30.3854 35.6349 30.5787 34.989 30.7336 34.3326C30.8048 34.0308 30.8715 33.7327 31.0461 33.4707C31.1112 33.3729 31.1629 33.2648 31.1845 33.149C31.422 31.8768 31.9894 30.7051 32.2855 29.4505C32.3562 29.1511 32.4981 28.8588 32.485 28.5521C32.4732 28.2755 32.8409 28.1825 32.7428 27.8938C32.5054 27.5847 32.2478 27.2952 31.9422 27.0526C31.9014 27.1268 31.7306 27.0669 31.7697 27.2236ZM36.2348 31.8772C36.0702 31.5586 35.7568 31.3568 35.5911 31.0389C35.4549 30.908 35.3187 30.7771 35.1825 30.6462C35.1002 30.6938 35.0595 30.7734 35.0453 30.8608C34.9088 31.7038 34.5483 32.4844 34.3595 33.3078C33.9854 34.9392 33.3974 36.5016 32.8915 38.0877C32.5368 39.1999 32.3533 40.3683 31.8462 41.4326C31.7509 41.6324 31.6683 41.8284 31.4984 41.9738C31.8243 42.2707 32.17 42.5408 32.5461 42.7701C32.8491 42.8942 33.044 42.8092 33.1297 42.4779C33.155 42.3802 33.2101 42.2882 33.2294 42.1873C33.4653 40.9586 34.0164 39.8291 34.3273 38.6256C34.5801 37.6467 34.9121 36.6931 35.1936 35.7236C35.5253 34.5814 35.7921 33.4094 36.3533 32.3478C36.4734 32.1207 36.2136 32.0474 36.2348 31.8772ZM31.4985 41.9738C31.7001 41.9481 31.8349 41.9194 31.8904 41.6391C31.9437 41.37 32.0731 41.0939 32.1891 40.828C32.399 40.3469 32.5103 39.8383 32.6187 39.3215C32.7428 38.7294 33.0322 38.1748 33.1884 37.5871C33.4323 36.6694 33.8045 35.7939 34.0422 34.8787C34.1617 34.4186 34.4552 34.0021 34.4058 33.4955C34.3993 33.4292 34.4411 33.3536 34.4734 33.2887C34.7354 32.7624 34.7637 32.1598 35.0105 31.6268C35.1524 31.3206 35.1187 30.9723 35.1826 30.6462C34.8676 30.2078 34.5126 29.805 34.1279 29.4286C34.0978 29.4613 34.0576 29.507 34.0722 29.5422C34.3976 30.3258 33.9196 30.946 33.6625 31.6098C33.6308 31.6918 33.585 31.7704 33.5768 31.8576C33.5123 32.5458 33.2122 33.1772 33.015 33.8208C32.8718 34.288 32.8185 34.8079 32.5578 35.2518C32.3666 35.5772 32.3659 35.9806 32.2663 36.3422C32.0819 37.0108 31.566 37.5791 31.662 38.3292C31.2693 38.7596 31.4049 39.3988 31.0727 39.8543C30.9737 39.99 30.9634 40.1551 30.9566 40.3175C30.9407 40.6961 30.7935 40.9954 30.452 41.1786C30.7729 41.4813 31.1249 41.742 31.4985 41.9738ZM30.452 41.1786C30.6569 41.2397 30.7998 41.2059 30.8992 40.9784C31.0057 40.7347 31.1048 40.5005 31.0723 40.2276C31.0539 40.0726 31.0963 39.934 31.2207 39.8348C31.4002 39.6917 31.4378 39.5023 31.422 39.2852C31.4019 39.0104 31.4447 38.7592 31.7011 38.5927C31.7759 38.5441 31.8349 38.4457 31.8033 38.3654C31.7074 38.1215 31.8572 37.9053 31.8534 37.6758C31.8505 37.5016 31.8988 37.3621 32.0287 37.2468C32.0825 37.1991 32.1574 37.1411 32.1649 37.0804C32.2253 36.5936 32.5565 36.1874 32.5595 35.6828C32.5609 35.462 32.6172 35.2457 32.7785 35.0794C32.8915 34.9629 32.9411 34.83 32.8733 34.6804C32.7855 34.4867 32.8559 34.3445 32.9837 34.206C33.1575 34.0177 33.2651 33.8209 33.1815 33.5374C33.1245 33.3443 33.2585 33.1597 33.3801 33.0229C33.4909 32.8984 33.4867 32.7666 33.5228 32.6276C33.6257 32.2323 33.5809 31.7833 33.9326 31.4713C34.0442 31.3722 34.0571 31.2071 34.038 31.0578C34.01 30.8382 34.0829 30.6553 34.215 30.4897C34.437 30.2114 34.4707 29.9401 34.192 29.6758C34.1212 29.6086 34.1295 29.5164 34.1279 29.4287C33.9237 29.1397 33.6937 28.8743 33.4271 28.6421C33.2174 28.8353 33.1847 29.1173 33.1364 29.3645C33.0377 29.8697 32.8713 30.3552 32.7605 30.8566C32.651 31.3523 32.4644 31.8314 32.2522 32.295C32.1908 32.4291 32.1166 32.5568 32.1049 32.7063C32.0378 33.5626 31.7149 34.3427 31.4079 35.1286C31.2692 35.4839 31.1748 35.859 31.0909 36.2266C30.9559 36.8188 30.7206 37.3653 30.4886 37.9164C30.3765 38.1825 30.3921 38.4634 30.353 38.7383C30.2585 39.4028 29.887 39.9596 29.6496 40.5687C29.8889 40.8098 30.1596 41.0088 30.452 41.1786ZM29.6495 40.5686C29.9386 40.5066 29.9527 40.2475 30.0181 40.0307C30.0427 39.9493 30.0033 39.8311 30.0741 39.7805C30.4321 39.5247 30.332 39.0894 30.4853 38.756C30.5418 38.6331 30.4636 38.5231 30.4805 38.4179C30.5121 38.2213 30.5138 38.0084 30.6565 37.843C30.7037 37.7884 30.7793 37.7266 30.7797 37.6678C30.7824 37.1629 31.2346 36.7871 31.1674 36.2654C31.4409 35.7963 31.3932 35.2103 31.709 34.754C31.7975 34.6261 31.8751 34.4849 31.7914 34.3045C31.7339 34.1804 31.8329 34.08 31.9225 34.0041C32.0816 33.8692 32.1331 33.702 32.1213 33.4968C32.1044 33.2033 32.229 32.9252 32.2227 32.6284C32.2201 32.5022 32.3101 32.3836 32.3992 32.2827C32.447 32.2286 32.527 32.1641 32.5234 32.109C32.4874 31.5658 32.9594 31.1648 32.9205 30.6176C32.911 30.4829 33.0013 30.34 33.0502 30.2024C33.0746 30.1336 33.1366 30.0676 33.1346 30.0018C33.1202 29.5227 33.3981 29.1098 33.4271 28.6421C33.2304 28.3633 33.0006 28.1154 32.7427 27.8939C32.7406 27.9084 32.7437 27.9275 32.7357 27.9369C32.5203 28.1889 32.4714 28.3624 32.3495 28.7615C32.091 29.6076 31.948 30.4913 31.5582 31.2952C31.5827 31.8403 31.1225 32.2442 31.1426 32.8003C31.1511 33.0341 31.072 33.2931 30.8985 33.4891C30.7572 33.649 30.7107 33.8498 30.6701 34.0497C30.5068 34.8532 30.2695 35.634 30.0222 36.4151C29.8499 36.9589 29.6833 37.4983 29.4669 38.0281C29.3531 38.3066 29.3344 38.6433 29.2354 38.9439C29.1229 39.2857 29.0811 39.6594 28.8133 39.9338C29.0706 40.1743 29.3454 40.3911 29.6495 40.5686ZM37.9802 33.903C37.7452 33.5652 37.4764 33.2573 37.1781 32.9755C36.5625 33.2306 36.444 33.8403 36.3151 34.3712C36.1168 35.1875 35.8927 35.9874 35.5899 36.7703C35.443 37.1502 35.3562 37.5573 35.2509 37.9531C34.8245 39.5566 34.2832 41.1227 33.7724 42.6986C33.6687 43.0184 33.6391 43.3231 33.6986 43.6456C33.9865 43.918 34.3001 44.1558 34.6399 44.3581C34.6762 44.3806 34.7069 44.4104 34.7403 44.4367L34.7439 44.4391C34.9083 44.447 34.9542 44.3653 34.8856 44.225C34.8409 44.1336 34.7787 44.0618 34.8211 43.9428C35.1773 42.9447 35.3094 41.8797 35.7169 40.8951C35.9231 40.3969 36.03 39.8648 36.243 39.3616C36.4305 38.9186 36.4878 38.4096 36.602 37.9336C36.8281 36.9916 37.2927 36.1311 37.4426 35.1656C37.4934 34.8382 37.6487 34.4927 37.9879 34.3088C38.2411 34.1714 37.9731 34.0386 37.9802 33.903ZM38.9937 34.1038C38.7121 34.0632 38.4286 34.1551 38.1472 34.0915C38.0817 34.2534 38.2119 34.2551 38.3032 34.2796C38.5573 34.3477 38.6164 34.5061 38.4978 34.7326C38.0772 35.5361 37.7362 36.3698 37.6162 37.2801C37.5888 37.4875 37.5169 37.6881 37.426 37.8631C37.0485 38.5903 37.0476 39.4309 36.7436 40.1661C36.4256 40.9353 36.207 41.7314 35.9445 42.5154C35.8153 42.9012 35.8203 43.2883 36.0478 43.6476C36.6085 43.01 37.1381 42.347 37.6322 41.6552C37.646 41.5479 37.702 41.4469 37.7741 41.3884C38.2279 41.0201 38.2693 40.4963 38.3051 39.9754C38.333 39.5691 38.5343 39.2209 38.6486 38.8447C38.7241 38.596 38.8796 38.3733 38.8352 38.094C38.8308 38.066 38.8342 38.025 38.8532 38.0099C39.3665 37.6012 39.1034 36.9572 39.3148 36.4584C39.5477 35.9091 39.8159 35.3736 39.9022 34.7711C39.9289 34.5849 40.0155 34.4038 39.9084 34.2178C39.7924 34.2392 39.8113 34.0921 39.7287 34.0704C39.4833 34.0844 39.2357 34.0306 38.9937 34.1038ZM33.6986 43.6456C33.7731 43.6355 33.8701 43.6086 33.8295 43.5212C33.6996 43.2419 33.8149 43.0123 33.8947 42.7448C34.0893 42.0932 34.3024 41.4452 34.5046 40.7977C34.6931 40.1938 34.8339 39.5654 35.108 38.9891C35.1851 38.827 35.2163 38.6535 35.2469 38.4862C35.3049 38.1685 35.3775 37.8611 35.5055 37.5632C35.5672 37.4196 35.629 37.2651 35.6126 37.0965C35.6024 36.9921 35.636 36.8961 35.68 36.8008C36.0394 36.0227 36.2488 35.2036 36.4221 34.3627C36.5049 33.9608 36.6407 33.5166 36.9818 33.208C37.0562 33.1406 37.1131 33.0535 37.1781 32.9755L37.1719 32.9679C37.1094 32.9138 37.0472 32.8595 37.0101 32.7827C36.7819 32.4544 36.5285 32.1482 36.2348 31.8772C36.2238 31.9044 36.2169 31.9343 36.2011 31.9582C36.1052 32.1028 36.3685 32.1749 36.2962 32.2304C36.1934 32.3093 36.161 32.3877 36.1195 32.5011C35.9603 32.9365 35.8534 33.3899 35.6066 33.7961C35.4512 34.0517 35.3626 34.3566 35.4285 34.6779C35.449 34.7779 35.4606 34.8969 35.3892 34.9752C35.041 35.3565 35.0595 35.8671 34.916 36.3195C34.8372 36.5678 34.8026 36.8308 34.6552 37.0541C34.4056 37.4324 34.4645 37.8952 34.3166 38.3068C34.0474 39.0559 33.9082 39.8614 33.5711 40.5739C33.3539 41.0331 33.3396 41.5147 33.1685 41.9654C33.148 42.0194 33.1445 42.0799 33.1268 42.1352C33.0748 42.2979 33.0146 42.4579 32.9668 42.6217C32.8932 42.8738 32.6409 42.5904 32.5461 42.7701C32.7862 43.0098 33.06 43.2044 33.3467 43.3816C33.3861 43.4387 33.4828 43.4132 33.5055 43.4944L33.495 43.4838C33.5462 43.4917 33.5745 43.5282 33.5995 43.569L33.594 43.5641C33.6319 43.5833 33.6596 43.6157 33.6924 43.6415L33.6986 43.6456ZM36.0477 43.6476C35.864 42.9468 36.0929 42.2971 36.3215 41.6594C36.4157 41.3966 36.652 41.1854 36.5219 40.8631C36.5065 40.825 36.5501 40.7456 36.5875 40.7055C36.8647 40.4081 36.888 39.9979 37.0536 39.6517C37.107 39.5402 37.1025 39.4214 37.0931 39.3061C37.0747 39.0796 37.1077 38.854 37.2144 38.6664C37.4243 38.2974 37.517 37.8841 37.6898 37.5026C37.7198 37.4365 37.7821 37.3489 37.7614 37.3017C37.6147 36.9677 37.8365 36.7076 37.9218 36.4244C38.0476 36.0068 38.2639 35.6226 38.3399 35.1824C38.3696 35.0106 38.4901 34.8327 38.6637 34.7334C38.8575 34.6226 38.8126 34.4993 38.67 34.3996C38.5611 34.3234 38.5365 34.0986 38.3193 34.193C38.2529 34.2218 38.1818 34.1659 38.1471 34.0914C38.1169 34.0056 38.0617 33.9423 37.9802 33.903C37.9924 33.9741 38.0025 34.0456 38.0176 34.1161C38.0261 34.1563 38.0369 34.2277 37.9993 34.2192C37.6026 34.1294 37.657 34.5237 37.5232 34.6934C37.3659 34.8927 37.2965 35.1491 37.2553 35.4225C37.1728 35.9705 36.9625 36.4893 36.7534 37.0021C36.6651 37.2187 36.5476 37.4176 36.5661 37.6698C36.5802 37.8616 36.5134 38.0518 36.4 38.2055C36.2511 38.4074 36.2034 38.6261 36.2224 38.8684C36.2427 39.1258 36.2008 39.3625 36.0299 39.5694C35.9364 39.6827 35.9021 39.8253 35.8646 39.9702C35.7402 40.451 35.6623 40.9615 35.4405 41.3945C35.1898 41.8838 35.223 42.4497 34.939 42.9147C34.9181 42.9489 34.9049 43.01 34.921 43.0416C35.0846 43.363 34.895 43.6042 34.7398 43.8462C34.6328 44.0133 34.591 44.1364 34.7997 44.2612C34.9316 44.34 34.8128 44.3944 34.7437 44.4391C34.7607 44.4621 34.7733 44.4908 34.7951 44.5073C35.218 44.8274 35.1295 44.8465 35.4455 44.4411C35.6496 44.1794 35.8869 43.9429 36.0477 43.6476ZM38.9937 34.1038C39.2606 34.1586 39.5497 34.0214 39.8022 34.1996C39.8877 34.2595 39.888 34.3368 39.8624 34.431C39.7614 34.8039 39.6699 35.1784 39.6171 35.5631C39.5871 35.7818 39.3793 35.9159 39.3058 36.1291C39.2591 36.2649 39.1778 36.386 39.191 36.5389C39.2042 36.69 39.1655 36.829 39.0938 36.9601C38.9769 37.174 38.9883 37.3798 39.1364 37.5716C39.0767 37.6954 38.946 37.7054 38.8572 37.7749C38.7221 37.8807 38.624 37.9969 38.7142 38.1851C38.76 38.2807 38.7894 38.4043 38.7185 38.4786C38.4397 38.7708 38.466 39.1802 38.3054 39.5169C38.124 39.897 38.1408 40.3139 38.1305 40.7224C38.1277 40.835 38.0716 40.8836 38.006 40.9648C37.8433 41.1663 37.597 41.339 37.6321 41.6551C38.3067 40.8826 38.9435 40.0793 39.546 39.2481C40.354 38.1448 40.4541 36.7963 40.7952 35.5325C40.8574 35.3021 40.9424 35.0923 41.0558 34.8873C41.2248 34.5819 41.3198 34.2677 41.1118 33.9376C40.4024 33.9489 39.6954 33.9917 38.9937 34.1038ZM41.1118 33.9376C41.1508 34.3432 41.0951 34.7205 40.8286 35.0508C40.7489 35.1496 40.6886 35.2765 40.6806 35.4119C40.6424 36.0589 40.4482 36.6619 40.1848 37.2464C40.1285 37.3714 40.1511 37.5065 40.1531 37.6369C40.1562 37.8324 40.153 38.0341 39.9863 38.1584C39.7891 38.3052 40.0933 38.5984 39.791 38.7189C39.5776 38.804 39.5862 39.0504 39.5461 39.2481C40.15 38.5921 40.6656 37.8626 41.2298 37.1734C41.4326 36.9258 41.6491 36.6873 41.8101 36.4067C41.8298 35.8979 42.0402 35.4435 42.2068 34.9762C42.2905 34.7415 42.3679 34.5032 42.4075 34.2568C42.442 34.0419 42.3998 33.8701 42.1224 33.8914C41.8633 33.9114 41.6008 33.8549 41.3437 33.9255C41.265 33.9009 41.1879 33.9089 41.1118 33.9376ZM24.6286 36.7564C24.7754 36.7177 24.9197 36.6586 25.0892 36.6906C25.0433 36.6359 24.9936 36.5839 24.9524 36.5258C24.8729 36.4139 24.8603 36.33 25.0408 36.3622C25.0974 36.3723 25.1975 36.3676 25.1716 36.3255C24.9521 35.969 25.2908 35.7243 25.383 35.4649C25.4798 35.1925 25.3427 35.1816 25.2224 35.0873C24.3143 35.0873 23.4061 35.0873 22.4979 35.0873C22.4877 35.111 22.4774 35.1347 22.4671 35.1584C23.1876 35.6911 23.9081 36.2238 24.6286 36.7564ZM41.3438 33.9256C41.5902 33.9289 41.8369 33.9252 42.0828 33.9377C42.3177 33.9496 42.3736 34.0167 42.3026 34.2431C42.15 34.7296 41.9905 35.2148 41.8087 35.6907C41.7135 35.9396 41.6849 36.1681 41.8101 36.4068C41.9062 36.3508 41.9732 36.2717 42.0005 36.1612L42.0032 36.1582C42.2722 35.9562 42.3987 35.6242 42.6633 35.4181C42.9268 34.9948 43.2695 34.6337 43.5694 34.2389C43.6891 34.0813 43.8089 33.9237 43.9736 33.707C43.5401 33.7317 43.1945 33.7305 42.855 33.7757C42.3524 33.8426 41.8394 33.7954 41.3438 33.9256ZM23.4768 32.5185C23.4496 32.4273 23.4156 32.3375 23.3966 32.2446C23.3612 32.0725 23.273 32.1533 23.191 32.1946C23.2538 32.3319 23.3491 32.4398 23.4768 32.5185ZM26.2679 37.9981C26.2959 37.9216 26.3519 37.8421 26.2533 37.7752C26.1656 37.7158 26.096 37.7867 26.0204 37.8124C26.0794 37.9063 26.1622 37.9679 26.2679 37.9981ZM23.646 32.7042C23.6494 32.5876 23.5936 32.5263 23.4784 32.5204C23.5056 32.6084 23.5632 32.6681 23.646 32.7042ZM25.8248 37.6612C25.8055 37.5812 25.7452 37.5585 25.6741 37.5508C25.7036 37.6166 25.7544 37.6525 25.8248 37.6612ZM22.9446 31.9171C22.9329 31.8673 22.9028 31.8348 22.8549 31.8189C22.8637 31.8714 22.8918 31.9058 22.9446 31.9171ZM26.0107 37.806C25.9797 37.7818 25.9488 37.7576 25.9179 37.7334C25.9301 37.7821 25.9599 37.8078 26.0107 37.806ZM26.3601 38.0723C26.3293 38.0475 26.2984 38.0227 26.2675 37.9979C26.2797 38.0464 26.3092 38.073 26.3601 38.0723ZM23.0281 32.0112C23.0194 31.9581 22.9892 31.9246 22.938 31.9101C22.9461 31.9638 22.9742 31.9993 23.0281 32.0112ZM25.9185 37.7339C25.8991 37.6876 25.8652 37.6602 25.8159 37.6526C25.8302 37.7054 25.8659 37.7305 25.9185 37.7339ZM23.1952 32.1955C23.191 32.1372 23.16 32.1034 23.1033 32.0933C23.1121 32.1474 23.1422 32.1821 23.1952 32.1955ZM23.1122 32.1031C23.105 32.0472 23.0738 32.0137 23.0194 32.002C23.0282 32.0564 23.0586 32.0906 23.1122 32.1031ZM26.5602 23.4985C26.534 23.5196 26.4683 23.5364 26.53 23.5769C26.5648 23.5997 26.5995 23.5525 26.6186 23.5148L26.5935 23.4915L26.5602 23.4985ZM30.1964 25.3776C30.2272 25.4036 30.2579 25.4296 30.2886 25.4555C30.2761 25.4075 30.2459 25.3809 30.1964 25.3776ZM30.2872 25.4545C30.3053 25.5006 30.3382 25.529 30.3864 25.5391C30.3733 25.4869 30.3397 25.4594 30.2872 25.4545ZM30.379 25.5321C30.3939 25.5843 30.4277 25.6146 30.4812 25.6221C30.4681 25.5678 30.4323 25.5397 30.379 25.5321ZM37.0101 32.7827C37.0083 32.8943 37.0609 32.9573 37.172 32.9679C37.1459 32.8813 37.0951 32.8168 37.0101 32.7827ZM22.3402 30.4908L22.3603 30.5277L22.3767 30.5111L22.3402 30.4908ZM25.1566 36.8824C25.1441 36.8786 25.1316 36.8749 25.119 36.8712C25.116 36.8823 25.1076 36.9009 25.1108 36.9032C25.1439 36.9276 25.16 36.9195 25.1566 36.8824ZM24.8699 36.9389C24.8823 36.932 24.9061 36.9228 24.9052 36.9186C24.8992 36.8889 24.8855 36.8963 24.8705 36.9393C24.8705 36.9393 24.8699 36.9389 24.8699 36.9389ZM25.3021 34.5588C25.3144 34.5466 25.3268 34.5344 25.3392 34.5221C25.332 34.5245 25.3223 34.5248 25.3181 34.5298C25.3111 34.5381 25.3077 34.5495 25.3028 34.5595C25.3028 34.5596 25.3021 34.5588 25.3021 34.5588ZM31.8358 27.3626C31.8497 27.3535 31.8669 27.3421 31.8841 27.3307C31.8585 27.3006 31.8353 27.2678 31.8065 27.2411C31.7704 27.2076 31.7593 27.2173 31.7728 27.265C31.784 27.3044 31.7876 27.3466 31.8358 27.3626ZM39.8022 34.1996L39.7658 34.2199L39.7822 34.2365L39.8022 34.1996ZM42.0655 35.7607C42.0321 35.7495 42.0128 35.7621 42.0134 35.7984C42.0137 35.8106 42.0237 35.8322 42.031 35.8331C42.0545 35.8359 42.0789 35.8308 42.1029 35.8288C42.0904 35.8061 42.078 35.7834 42.0655 35.7607ZM42.0031 36.1582C41.9887 36.1445 41.9743 36.1308 41.9598 36.1171C41.9734 36.1317 41.9869 36.1464 42.0005 36.1611C42.0006 36.1611 42.0031 36.1582 42.0031 36.1582Z" fill="url(#paint4_linear)"/>
<path d="M15.3979 37.6001C15.3974 36.8214 15.3974 36.8214 14.628 36.8219C13.8879 36.8223 13.8817 36.8224 13.8887 37.5817C13.8966 38.4358 13.7535 38.3334 14.6337 38.3446C14.6495 38.3448 14.6652 38.3448 14.6809 38.3446C15.5146 38.3332 15.3849 38.4399 15.3979 37.6001Z" fill="#FBFEFD"/>
<path d="M23.0582 21.6092C23.2324 21.6263 23.4186 21.5474 23.5791 21.6749C23.4021 21.6798 23.2189 21.7358 23.0582 21.6092ZM19.7563 16.8384C19.8802 17.6173 19.9842 18.3996 20.2809 19.14C20.6241 19.9965 21.1705 20.6851 21.9304 21.1889C22.2679 21.4127 22.6314 21.6096 23.0582 21.6092C23.2231 21.7016 23.4116 21.6032 23.5791 21.6748C23.8733 21.6954 24.1676 21.7015 24.4616 21.6702C24.6309 21.329 24.5082 21.0168 24.351 20.7195C24.1873 20.4095 24.0195 20.096 23.9542 19.7545C23.8146 19.0245 23.4927 18.3403 23.4362 17.5908C23.4237 17.4252 23.326 17.2941 23.2459 17.1538C23.0668 16.8405 22.7652 16.4927 22.7648 16.203C22.7639 15.6006 22.6052 15.0574 22.4595 14.4973C22.4491 14.4563 22.4351 14.4178 22.4149 14.3803C22.2999 14.2558 22.4352 14.1417 22.4268 14.022C22.418 13.8965 22.4929 13.7219 22.2566 13.7351C21.4104 14.5933 20.6433 15.5248 19.8301 16.4135C19.7568 16.5464 19.7327 16.6903 19.7563 16.8384ZM24.5555 21.7098C25.149 21.7029 25.7319 21.6293 26.2955 21.4321C26.3763 21.3939 26.3901 21.2494 26.4148 21.2489C26.8628 21.241 26.6708 20.8704 26.6393 20.7289C26.4733 19.9825 26.1155 19.2952 25.8356 18.592C25.4522 17.6288 25.3672 16.567 24.8317 15.6651C24.8173 15.6409 24.816 15.6085 24.8176 15.5792C24.8536 14.9327 24.5434 14.3953 24.2682 13.8523C24.1654 13.6493 24.0966 13.4614 24.113 13.2293C24.1341 12.9324 24.0273 12.6514 23.9423 12.3718C23.9046 12.2476 23.8478 12.1163 23.6715 12.1525L23.6725 12.1514C23.6401 12.2346 23.574 12.2863 23.5049 12.3352L23.5033 12.3371C23.449 12.4203 23.3484 12.4998 23.3598 12.5931C23.3863 12.8103 23.2285 12.5681 23.2175 12.661L23.2217 12.6601C23.2203 12.7211 23.1851 12.751 23.1297 12.7623L23.1387 12.7525C23.131 12.808 23.097 12.8389 23.0459 12.8536L23.0546 12.8444C23.0432 12.895 23.0093 12.9253 22.9645 12.9455L22.9712 12.9385C22.9544 12.9835 22.9187 13.0108 22.8814 13.0366C22.6389 13.238 22.435 13.4748 22.2567 13.7349C22.4573 13.8973 22.3166 14.0765 22.2681 14.2402C22.232 14.3621 22.2939 14.3563 22.3668 14.3647C22.3848 14.5665 22.283 14.8148 22.4252 14.9619C22.7042 15.2504 22.6403 15.5893 22.6175 15.9122C22.5991 16.1728 22.469 16.4332 22.842 16.5393C22.869 16.547 22.8852 16.6115 22.8973 16.6523C22.9758 16.9163 23.0422 17.183 23.2668 17.3745C23.3114 17.4126 23.3068 17.5088 23.3263 17.5778C23.446 18.0002 23.3037 18.4896 23.6513 18.857C23.6905 18.8985 23.6577 19.0016 23.679 19.0695C23.803 19.4643 23.7816 19.891 24.0218 20.2689C24.1352 20.4473 24.1008 20.7258 24.3394 20.8552C24.3576 20.865 24.3679 20.9093 24.3651 20.9358C24.3383 21.1889 24.4849 21.418 24.4617 21.67C24.4928 21.6834 24.5241 21.6966 24.5555 21.7098ZM31.8195 17.5875C31.7959 17.5553 31.7707 17.5234 31.743 17.4944C31.565 16.956 31.2704 16.4655 31.1622 15.8921C31.0621 15.3617 30.8836 14.8449 30.7054 14.3314C30.1062 12.605 29.6569 10.8309 29.0906 9.09422C28.9722 8.73113 28.9774 8.34122 28.8028 7.99288C28.5009 7.39055 28.275 6.75684 28.1573 6.09192C28.1029 5.78442 27.983 5.67188 27.6888 5.79717C27.2304 6.0858 26.8036 6.41713 26.3973 6.77613C26.3094 7.27792 26.4537 7.73176 26.6835 8.16576C26.7534 8.29776 26.7949 8.43651 26.8241 8.58113C27.1209 10.0524 27.6817 11.4445 28.0946 12.8813C28.3978 13.9363 28.7416 14.981 29.0485 16.0353C29.3232 16.9794 29.6294 17.9118 29.9429 18.8423C30.068 19.2135 30.1038 19.2147 30.4343 19.072C30.447 19.0666 30.4224 19.2068 30.5077 19.2371C31.0566 18.8236 31.5235 18.3247 31.9686 17.803C31.9956 17.6771 31.8426 17.6773 31.8195 17.5875ZM26.3866 6.78338C26.3534 6.80526 26.3225 6.83005 26.2939 6.85776L26.2943 6.85751C26.2709 6.99992 26.1604 7.02359 26.0469 7.04322L26.0371 7.04963C26.0038 7.07072 25.9729 7.09488 25.9443 7.12226L25.9449 7.12184C25.916 7.15584 25.8882 7.19109 25.8423 7.20305L25.8513 7.19455C25.8264 7.26672 25.7338 7.24442 25.7006 7.30497C25.4073 7.47509 25.1416 7.68213 24.8964 7.91688L24.897 7.91647C24.7931 7.94584 24.7119 8.00609 24.6551 8.0993C25.0202 8.59484 25.2979 9.12217 25.2489 9.76838C25.3719 9.82034 25.5316 9.7378 25.6525 9.86113C25.5349 10.0193 25.4317 10.1581 25.3286 10.2969L25.3293 10.2962C25.2432 10.3293 25.1899 10.3927 25.1625 10.4801C25.5249 10.6371 25.6724 10.8801 25.7355 11.3103C25.891 12.369 26.3638 13.3483 26.637 14.3862C26.8389 15.153 27.1024 15.9259 27.3443 16.6933C27.7185 17.8801 28.1913 19.0386 28.3949 20.2771C28.4141 20.394 28.4591 20.5043 28.5726 20.5666C29.1773 20.2885 29.7301 19.9299 30.2229 19.4782C30.2543 19.453 30.285 19.427 30.3151 19.4002L30.3137 19.4013C30.3414 19.3666 30.37 19.333 30.413 19.3167L30.4055 19.3237C30.4266 19.2785 30.4544 19.2411 30.5078 19.2336L30.5078 19.2372C30.5386 19.0231 30.5182 18.8344 30.2694 18.752C30.1874 18.8964 30.5462 19.0604 30.2958 19.1434C30.1141 19.2036 30.0972 18.9428 30.0488 18.8043C29.977 18.5988 29.8792 18.3991 29.8721 18.1734C29.8703 18.1168 29.8633 18.0442 29.8288 18.0073C29.5451 17.7037 29.5637 17.2863 29.436 16.9263C29.2562 16.4195 29.1233 15.8921 29.0167 15.364C28.9724 15.1443 28.7586 15.0452 28.7437 14.8283C28.7071 14.2962 28.5005 13.8085 28.3466 13.3076C28.2311 12.9313 28.0435 12.5677 27.9906 12.184C27.9193 11.6672 27.7026 11.2068 27.5385 10.7298C27.3213 10.0987 27.1749 9.45105 26.9944 8.81167C26.9393 8.6163 26.9553 8.38697 26.8597 8.21938C26.6407 7.83563 26.4163 7.47126 26.5241 6.99651C26.5396 6.92847 26.472 6.83176 26.3975 6.7763L26.3866 6.78338ZM23.6715 12.1525C23.9202 12.268 23.8346 12.5386 23.9294 12.7264C24.0749 13.0147 23.8917 13.3592 23.9966 13.6116C24.115 13.8963 24.3305 14.1542 24.4496 14.4536C24.5455 14.6948 24.5567 14.968 24.7288 15.1817C24.7899 15.2576 24.7668 15.3491 24.7201 15.4296C24.617 15.6075 24.632 15.7392 24.8088 15.881C24.9948 16.0302 25.0849 16.2568 25.0712 16.5053C25.0593 16.719 25.1284 16.9127 25.209 17.0988C25.3142 17.3418 25.3939 17.5892 25.4505 17.848C25.5065 18.1038 25.5687 18.3578 25.7472 18.5691C25.8529 18.6944 25.8962 18.8653 25.8472 19.0267C25.7918 19.2093 25.8435 19.3549 25.972 19.4609C26.2565 19.6959 26.3907 20.0432 26.3505 20.3542C26.3209 20.5836 26.7788 20.7115 26.4294 20.9367C26.439 20.9467 26.4467 20.9609 26.4584 20.9662C26.7769 21.112 26.5752 21.1253 26.4133 21.1721C26.293 21.2069 26.3614 21.3565 26.2954 21.4321C26.4001 21.4377 26.5037 21.4388 26.5865 21.3572C26.5668 21.3018 26.5321 21.3739 26.5661 21.3266C26.5929 21.2893 26.6213 21.3188 26.645 21.3408C27.3301 21.1913 27.9721 20.9318 28.5725 20.5664C28.4651 20.3015 28.5278 20.0066 28.4534 19.7452C28.2789 19.1318 28.0433 18.5379 27.8693 17.9218C27.6833 17.2628 27.441 16.6202 27.2521 15.9604C27.1085 15.459 27.0698 14.9195 26.7471 14.4778C26.6698 14.372 26.6269 14.2392 26.6461 14.1017C26.6972 13.7348 26.527 13.4048 26.418 13.0863C26.2299 12.5367 26.0194 11.9956 25.8596 11.4345C25.7723 11.1283 25.7135 10.8445 25.9345 10.5673C25.7979 10.5226 25.7019 10.7202 25.6036 10.6005C25.477 10.4462 25.294 10.5725 25.1624 10.48C24.6348 11.0095 24.1343 11.5638 23.6715 12.1525ZM31.9686 17.803C32.2742 17.5604 32.5318 17.2709 32.7692 16.9618C32.8673 16.6731 32.4997 16.5801 32.5115 16.3035C32.5246 15.9968 32.3826 15.7045 32.3119 15.4051C32.0158 14.1505 31.4484 12.9788 31.2109 11.7066C31.1893 11.5908 31.1377 11.4827 31.0725 11.3849C30.8979 11.1229 30.8312 10.8248 30.76 10.523C30.605 9.86659 30.4118 9.22076 30.2219 8.57347C30.0238 7.89822 29.7425 7.25192 29.5687 6.57247C29.4522 6.11684 29.3094 5.67184 29.1594 5.22851C29.1101 5.08297 29.046 4.9168 28.8397 4.92192C28.4323 5.18176 28.0439 5.46705 27.6888 5.79713C28.0233 5.86559 28.0262 5.86547 28.0404 6.22092C28.0451 6.34017 28.0563 6.45367 28.1137 6.56092C28.2175 6.75484 28.2645 6.97217 28.3448 7.1728C28.472 7.49072 28.4719 7.86742 28.7483 8.12247C28.7871 8.15826 28.8192 8.2313 28.8131 8.28209C28.775 8.60326 28.9351 8.87884 28.9999 9.17584C29.0715 9.50405 29.1251 9.83776 29.3612 10.1C29.4232 10.169 29.4416 10.2556 29.4374 10.3461C29.4186 10.7515 29.5547 11.123 29.6759 11.4994C30.0702 12.7234 30.4642 13.9475 30.848 15.175C30.9697 15.5642 31.0895 15.9587 31.1546 16.36C31.2224 16.7787 31.5784 17.0758 31.583 17.5154C31.5839 17.6031 31.7058 17.626 31.7961 17.632C31.757 17.7887 31.9278 17.7288 31.9686 17.803ZM36.3797 12.5078C35.8186 11.4462 35.5518 10.2743 35.22 9.13205C34.9385 8.16255 34.6066 7.20897 34.3537 6.23001C34.0428 5.02655 33.4917 3.89701 33.2559 2.66834C33.2365 2.56751 33.1814 2.47551 33.1561 2.3778C33.0705 2.04642 32.8755 1.96147 32.5725 2.08559C32.1965 2.31484 31.8507 2.58501 31.5249 2.88188C31.6948 3.02726 31.7774 3.22322 31.8726 3.42305C32.3798 4.48734 32.5632 5.65576 32.9179 6.76792C33.4238 8.35409 34.0119 9.91646 34.3859 11.5479C34.5747 12.3712 34.9353 13.1518 35.0718 13.9948C35.0859 14.0823 35.1266 14.1618 35.209 14.2094C35.3452 14.0785 35.4814 13.9476 35.6176 13.8167C35.7832 13.4988 36.0966 13.297 36.2613 12.9784C36.24 12.8082 36.4998 12.7349 36.3797 12.5078ZM30.4784 3.67705C30.8199 3.86022 30.9671 4.15951 30.983 4.53817C30.9898 4.70055 31.0001 4.86572 31.0991 5.00138C31.4313 5.45684 31.2957 6.09605 31.6884 6.52647C31.5924 7.27651 32.1083 7.84484 32.2927 8.51342C32.3924 8.87509 32.393 9.27842 32.5842 9.60388C32.8449 10.0478 32.8982 10.5676 33.0414 11.0349C33.2386 11.6784 33.5387 12.3099 33.6032 12.998C33.6114 13.0853 33.6572 13.1638 33.6889 13.2458C33.946 13.9097 34.4241 14.5299 34.0986 15.3135C34.0839 15.3487 34.1242 15.3943 34.1543 15.4271C34.5391 15.0506 34.894 14.6478 35.209 14.2095C35.1451 13.8833 35.1788 13.535 35.0369 13.2288C34.7901 12.6958 34.7618 12.0933 34.4998 11.5669C34.4676 11.5021 34.4257 11.4264 34.4322 11.3601C34.4816 10.8535 34.1881 10.437 34.0687 9.97696C33.831 9.06176 33.4587 8.1863 33.2148 7.26851C33.0586 6.68092 32.7693 6.12626 32.6451 5.53417C32.5368 5.01738 32.4254 4.5088 32.2155 4.02763C32.0996 3.7618 31.9701 3.48563 31.9169 3.21659C31.8614 2.93622 31.7265 2.90755 31.5249 2.88188C31.1513 3.11367 30.7993 3.37434 30.4784 3.67705ZM29.676 4.28701C29.9134 4.89609 30.2849 5.45297 30.3793 6.11742C30.4184 6.39242 30.4029 6.67326 30.515 6.93938C30.747 7.49047 30.9823 8.03692 31.1173 8.62913C31.2011 8.9968 31.2955 9.37184 31.4343 9.72721C31.7412 10.5131 32.0642 11.2931 32.1312 12.1495C32.1429 12.299 32.2171 12.4267 32.2785 12.5608C32.4907 13.0244 32.6774 13.5035 32.7869 13.9992C32.8977 14.5005 33.0641 14.986 33.1628 15.4913C33.2111 15.7385 33.2438 16.0204 33.4535 16.2136C33.7201 15.9815 33.9501 15.7161 34.1542 15.4271C34.1559 15.3394 34.1475 15.2471 34.2184 15.1799C34.4971 14.9157 34.4634 14.6444 34.2414 14.366C34.1093 14.2004 34.0364 14.0175 34.0644 13.798C34.0835 13.6486 34.0706 13.4835 33.959 13.3845C33.6073 13.0725 33.6521 12.6235 33.5492 12.2282C33.513 12.0891 33.5173 11.9574 33.4065 11.8328C33.2848 11.696 33.1509 11.5114 33.2078 11.3183C33.2914 11.0348 33.184 10.838 33.0101 10.6498C32.8822 10.5113 32.8119 10.369 32.8997 10.1753C32.9675 10.0258 32.9179 9.8928 32.8049 9.77634C32.6435 9.61001 32.5872 9.39376 32.5859 9.17297C32.5829 8.6683 32.2517 8.26213 32.1913 7.7753C32.1838 7.71463 32.1088 7.65659 32.0551 7.60892C31.9252 7.49367 31.8769 7.35409 31.8798 7.17997C31.8836 6.95038 31.7337 6.73422 31.8297 6.49034C31.8613 6.41005 31.8023 6.31167 31.7274 6.26305C31.471 6.09655 31.4283 5.8453 31.4483 5.57055C31.4641 5.35347 31.4266 5.16405 31.2471 5.02092C31.1227 4.92172 31.0802 4.78313 31.0987 4.62817C31.1312 4.35517 31.0321 4.12101 30.9256 3.87734C30.8262 3.64984 30.6833 3.61601 30.4784 3.67713C30.186 3.84688 29.9153 4.04588 29.676 4.28701ZM28.8397 4.92197C29.1075 5.19634 29.1493 5.57005 29.2619 5.9118C29.3609 6.21247 29.3796 6.54909 29.4933 6.82759C29.7098 7.35742 29.8764 7.89688 30.0486 8.44067C30.296 9.22176 30.5333 10.0025 30.6966 10.806C30.7372 11.0059 30.7836 11.2068 30.925 11.3666C31.0984 11.5627 31.1775 11.8216 31.169 12.0554C31.1489 12.6115 31.6092 13.0154 31.5846 13.5605C31.9744 14.3645 32.1174 15.2481 32.3759 16.0942C32.4978 16.4933 32.5468 16.6668 32.7621 16.9188C32.7701 16.9282 32.7671 16.9473 32.7692 16.9618C33.0271 16.7403 33.2568 16.4925 33.4535 16.2137C33.4245 15.7459 33.1467 15.333 33.1611 14.8539C33.1631 14.7881 33.1011 14.7221 33.0766 14.6533C33.0278 14.5158 32.9374 14.3728 32.947 14.2381C32.9859 13.691 32.5139 13.2899 32.5498 12.7467C32.5535 12.6916 32.4735 12.6271 32.4257 12.573C32.3366 12.4721 32.2465 12.3535 32.2492 12.2273C32.2555 11.9305 32.1309 11.6524 32.1478 11.359C32.1596 11.1537 32.1081 10.9865 31.9489 10.8516C31.8593 10.7758 31.7603 10.6753 31.8178 10.5513C31.9015 10.3708 31.8239 10.2296 31.7354 10.1017C31.4196 9.64551 31.4673 9.05947 31.1938 8.59034C31.261 8.06867 30.8088 7.69288 30.8061 7.18797C30.8058 7.12909 30.7301 7.06738 30.6829 7.01272C30.5402 6.84734 30.5386 6.63442 30.507 6.43784C30.4901 6.33263 30.5682 6.22259 30.5117 6.09976C30.3584 5.7663 30.4586 5.33105 30.1006 5.07526C30.0298 5.02472 30.0692 4.90647 30.0446 4.82505C29.9791 4.60826 29.9651 4.34913 29.676 4.28709C29.3719 4.46447 29.097 4.68138 28.8397 4.92197ZM38.0143 10.5469C37.6751 10.3629 37.5198 10.0175 37.469 9.69001C37.3191 8.72451 36.8545 7.86401 36.6284 6.92201C36.5142 6.44601 36.4569 5.93701 36.2694 5.49405C36.0564 4.99084 35.9496 4.45876 35.7433 3.96055C35.3358 2.97597 35.2037 1.91101 34.8475 0.912841C34.8051 0.793883 34.8672 0.722091 34.912 0.630633C34.9806 0.490383 34.9347 0.408675 34.7703 0.41655L34.7667 0.419008C34.7333 0.445258 34.7026 0.47505 34.6663 0.497591C34.3265 0.699841 34.0129 0.937675 33.725 1.21009C33.6655 1.53255 33.6951 1.8373 33.7988 2.15709C34.3096 3.73292 34.8509 5.29905 35.2773 6.90251C35.3826 7.29838 35.4694 7.70538 35.6163 8.08534C35.9191 8.8683 36.1432 9.66813 36.3415 10.4845C36.4704 11.0153 36.5889 11.6251 37.2045 11.8802C37.5028 11.5983 37.7716 11.2905 38.0067 10.9527C37.9996 10.817 38.2676 10.6843 38.0143 10.5469ZM39.7551 10.7852C39.8377 10.7635 39.8189 10.6164 39.9348 10.6378C40.042 10.4519 39.9554 10.2708 39.9287 10.0845C39.8423 9.48197 39.5741 8.94655 39.3412 8.39717C39.1298 7.89847 39.393 7.25442 38.8796 6.84572C38.8606 6.83059 38.8572 6.78963 38.8617 6.76163C38.9061 6.4823 38.7506 6.25963 38.675 6.01088C38.5608 5.63472 38.3595 5.28655 38.3315 4.88026C38.2957 4.35926 38.2543 3.83547 37.8006 3.46726C37.7285 3.40876 37.6725 3.30772 37.6586 3.20047C37.1645 2.50859 36.635 1.84563 36.0742 1.20805C35.8467 1.56734 35.8417 1.95447 35.9709 2.34026C36.2334 3.12422 36.4521 3.92034 36.7701 4.68951C37.0741 5.42472 37.0749 6.26534 37.4525 6.99255C37.5434 7.16755 37.6153 7.36809 37.6426 7.57547C37.7626 8.4858 38.1036 9.31951 38.5243 10.123C38.6428 10.3495 38.5838 10.5079 38.3296 10.576C38.2384 10.6005 38.1081 10.6022 38.1736 10.7641C38.455 10.7005 38.7385 10.7924 39.0202 10.7518C39.2621 10.8251 39.5098 10.7713 39.7551 10.7852ZM33.7189 1.21409C33.6861 1.23992 33.6584 1.27234 33.6205 1.29151L33.626 1.28663C33.601 1.32738 33.5726 1.36397 33.5215 1.37184L33.5319 1.36126C33.5093 1.44242 33.4126 1.41692 33.3732 1.47405C33.0864 1.65122 32.8127 1.84584 32.5726 2.08551C32.6673 2.26522 32.9196 1.9818 32.9933 2.23388C33.0411 2.39767 33.1013 2.55776 33.1533 2.72038C33.171 2.77576 33.1745 2.83617 33.195 2.89022C33.366 3.34092 33.3804 3.82255 33.5976 4.28167C33.9346 4.99417 34.0739 5.79967 34.3431 6.5488C34.491 6.96042 34.4321 7.4233 34.6817 7.80155C34.8291 8.02488 34.8637 8.28784 34.9425 8.53617C35.086 8.98859 35.0675 9.49917 35.4157 9.88046C35.4872 9.95876 35.4755 10.0778 35.455 10.1778C35.3891 10.499 35.4778 10.804 35.6331 11.0595C35.8799 11.4657 35.9868 11.9192 36.146 12.3545C36.1875 12.468 36.2199 12.5463 36.3228 12.6253C36.395 12.6807 36.1318 12.7529 36.2276 12.8974C36.2434 12.9213 36.2503 12.9513 36.2613 12.9784C36.5549 12.7074 36.8084 12.4013 37.0366 12.0729C37.0738 11.9962 37.1359 11.9418 37.1984 11.8877L37.2046 11.8802C37.1396 11.8021 37.0827 11.715 37.0083 11.6476C36.6672 11.339 36.5314 10.8948 36.4486 10.493C36.2753 9.65209 36.0659 8.83292 35.7066 8.05488C35.6625 7.95951 35.629 7.86363 35.6391 7.75913C35.6555 7.59055 35.5937 7.43605 35.532 7.29247C35.404 6.99455 35.3314 6.68722 35.2734 6.36942C35.2428 6.20217 35.2116 6.02863 35.1345 5.86659C34.8604 5.29022 34.7197 4.66184 34.5311 4.05792C34.3289 3.41051 34.1158 2.76242 33.9213 2.11084C33.8414 1.8433 33.7261 1.61367 33.856 1.33447C33.8966 1.24709 33.7996 1.22017 33.7251 1.21005L33.7189 1.21409ZM35.4721 0.414508C35.1561 0.00904975 35.2447 0.0282164 34.8217 0.3483C34.7999 0.364758 34.7873 0.393466 34.7703 0.416508C34.8394 0.461175 34.9581 0.51555 34.8264 0.594383C34.6177 0.719216 34.6594 0.8423 34.7665 1.00934C34.9215 1.25134 35.1112 1.49259 34.9476 1.81401C34.9315 1.84555 34.9447 1.90672 34.9656 1.94088C35.2497 2.40592 35.2165 2.9718 35.4671 3.46105C35.6889 3.89405 35.7668 4.40455 35.8912 4.88534C35.9287 5.0303 35.963 5.17292 36.0565 5.28613C36.2274 5.49305 36.2693 5.7298 36.2491 5.98722C36.23 6.22947 36.2777 6.44822 36.4266 6.65009C36.54 6.8038 36.6068 6.99397 36.5927 7.1858C36.5742 7.43797 36.6918 7.63684 36.78 7.85342C36.9891 8.36621 37.1994 8.88509 37.282 9.43309C37.3231 9.70651 37.3925 9.96284 37.5498 10.1622C37.6836 10.3318 37.6292 10.7262 38.0259 10.6364C38.0635 10.6279 38.0528 10.6992 38.0442 10.7395C38.0291 10.81 38.019 10.8815 38.0068 10.9526C38.0883 10.9133 38.1435 10.85 38.1737 10.7641C38.2084 10.6896 38.2795 10.6338 38.3459 10.6626C38.5632 10.757 38.5877 10.5322 38.6966 10.456C38.8392 10.3563 38.8841 10.233 38.6904 10.1222C38.5167 10.0228 38.3962 9.84501 38.3665 9.67313C38.2905 9.23292 38.0742 8.8488 37.9484 8.43122C37.863 8.14797 37.6413 7.88788 37.788 7.55384C37.8087 7.50672 37.7464 7.41909 37.7165 7.35301C37.5436 6.97147 37.4509 6.55822 37.241 6.18917C37.1343 6.00159 37.1013 5.77601 37.1198 5.54951C37.1291 5.43417 37.1336 5.31538 37.0803 5.20384C36.9146 4.85763 36.8913 4.44747 36.6141 4.15009C36.5767 4.11001 36.5331 4.03059 36.5485 3.99251C36.6786 3.67013 36.4424 3.45901 36.3481 3.19622C36.1195 2.55847 35.8906 1.90876 36.0743 1.20801C35.9133 0.9128 35.676 0.6763 35.4721 0.414508ZM41.1383 10.918C41.3463 10.5879 41.2513 10.2738 41.0823 9.96834C40.9688 9.7633 40.8839 9.55347 40.8218 9.32313C40.4807 8.05934 40.3805 6.7108 39.5726 5.60751C38.97 4.7763 38.3333 3.97301 37.6586 3.20055C37.6235 3.51667 37.8698 3.68934 38.0325 3.8908C38.0982 3.97205 38.1542 4.02063 38.157 4.13326C38.1673 4.54172 38.1505 4.95863 38.3319 5.3388C38.4925 5.67542 38.4662 6.08488 38.7449 6.37701C38.8159 6.45138 38.7865 6.57492 38.7407 6.67055C38.6504 6.85872 38.7486 6.97492 38.8837 7.08072C38.9725 7.15026 39.1032 7.16022 39.1629 7.28405C39.0147 7.47584 39.0033 7.68163 39.1203 7.89551C39.192 8.02663 39.2307 8.16563 39.2175 8.3168C39.2042 8.46963 39.2856 8.59076 39.3323 8.72659C39.4057 8.9398 39.6135 9.07384 39.6436 9.29251C39.6964 9.6773 39.7879 10.0518 39.8889 10.4247C39.9144 10.5189 39.9142 10.5962 39.8287 10.656C39.5762 10.8343 39.2871 10.6971 39.0202 10.7518C39.7219 10.8639 40.4288 10.9068 41.1383 10.918ZM41.3702 10.9301C41.6273 11.0008 41.8897 10.9443 42.1488 10.9642C42.4262 10.9856 42.4685 10.8137 42.4339 10.5988C42.3943 10.3524 42.317 10.114 42.2333 9.87938C42.0666 9.41209 41.8563 8.95772 41.8365 8.44888C41.6755 8.1683 41.459 7.92984 41.2562 7.68217C40.692 6.99305 40.1765 6.26355 39.5725 5.60751C39.6126 5.80517 39.6041 6.05155 39.8174 6.13667C40.1198 6.25726 39.8156 6.55042 40.0127 6.69726C40.1795 6.82147 40.1827 7.02326 40.1796 7.21867C40.1776 7.34909 40.1549 7.48426 40.2112 7.60917C40.4746 8.19372 40.6688 8.79671 40.7071 9.44367C40.7151 9.57909 40.7754 9.70601 40.8551 9.8048C41.1215 10.1351 41.1773 10.5123 41.1383 10.918C41.2143 10.9468 41.2914 10.9547 41.3702 10.9301ZM22.4936 9.69722C22.5038 9.72092 22.5141 9.74459 22.5243 9.7683C23.4325 9.7683 24.3407 9.7683 25.2488 9.7683C25.3691 9.67405 25.5062 9.66313 25.4094 9.39067C25.3172 9.1313 24.9785 8.88663 25.198 8.53013C25.2239 8.48805 25.1238 8.48334 25.0672 8.49342C24.8867 8.52559 24.8993 8.44176 24.9788 8.3298C25.02 8.27167 25.0697 8.21976 25.1156 8.16501C24.9461 8.19701 24.8018 8.13792 24.655 8.09917C23.9345 8.63188 23.214 9.16455 22.4936 9.69722ZM42.8814 11.08C43.2209 11.1252 43.5665 11.124 44 11.1487C43.8353 10.932 43.7155 10.7744 43.5958 10.6168C43.2959 10.222 42.9531 9.86092 42.6897 9.43755C42.4251 9.23147 42.2986 8.89951 42.0296 8.69746L42.027 8.69451C41.9996 8.58397 41.9326 8.50492 41.8365 8.44892C41.7113 8.68759 41.7399 8.91613 41.8351 9.16497C42.0169 9.64084 42.1764 10.1261 42.329 10.6126C42.4 10.839 42.3441 10.9061 42.1092 10.918C41.8633 10.9305 41.6165 10.9268 41.3702 10.9301C41.8658 11.0603 42.3788 11.0131 42.8814 11.08ZM23.2174 12.661C23.2994 12.7023 23.3876 12.7831 23.423 12.611C23.442 12.518 23.476 12.4283 23.5032 12.3371C23.3755 12.4158 23.2802 12.5237 23.2174 12.661ZM26.0468 7.04322C26.1224 7.06892 26.192 7.13984 26.2797 7.08038C26.3783 7.01355 26.3222 6.93409 26.2943 6.85751C26.1886 6.8878 26.1059 6.94934 26.0468 7.04322ZM23.5048 12.3352C23.62 12.3293 23.6758 12.268 23.6724 12.1514C23.5896 12.1875 23.532 12.2473 23.5048 12.3352ZM25.7005 7.30488C25.7716 7.29709 25.832 7.27447 25.8513 7.19447C25.7809 7.20313 25.73 7.23901 25.7005 7.30488ZM22.8813 13.0367C22.9292 13.0208 22.9594 12.9883 22.9711 12.9385C22.9182 12.9498 22.8901 12.9842 22.8813 13.0367ZM25.9443 7.12226C25.9752 7.09805 26.0062 7.07384 26.0371 7.04963C25.9863 7.04788 25.9565 7.07355 25.9443 7.12226ZM26.2939 6.85776C26.3248 6.83297 26.3557 6.80817 26.3866 6.78338C26.3356 6.78263 26.3061 6.80917 26.2939 6.85776ZM22.9644 12.9455C23.0156 12.931 23.0458 12.8975 23.0545 12.8444C23.0006 12.8564 22.9726 12.8919 22.9644 12.9455ZM25.8423 7.20301C25.8916 7.19542 25.9255 7.16801 25.9449 7.1218C25.8924 7.12513 25.8566 7.1503 25.8423 7.20301ZM23.1297 12.7623C23.1864 12.7522 23.2174 12.7184 23.2216 12.6601C23.1686 12.6736 23.1385 12.7082 23.1297 12.7623ZM23.0459 12.8537C23.1003 12.8419 23.1314 12.8085 23.1387 12.7526C23.0851 12.765 23.0547 12.7992 23.0459 12.8537ZM26.6199 21.3642L26.645 21.3408C26.6259 21.3032 26.5912 21.256 26.5564 21.2788C26.4947 21.3193 26.5604 21.3361 26.5866 21.3572L26.6199 21.3642ZM30.315 19.4001C30.2843 19.4261 30.2536 19.452 30.2228 19.478C30.2723 19.4747 30.3025 19.4481 30.315 19.4001ZM30.4129 19.3165C30.3647 19.3266 30.3317 19.355 30.3136 19.4012C30.3661 19.3963 30.3998 19.3687 30.4129 19.3165ZM30.5077 19.2335C30.4542 19.241 30.4204 19.2714 30.4054 19.3235C30.4588 19.3159 30.4946 19.2878 30.5077 19.2335ZM37.1984 11.8877C37.0873 11.8984 37.0348 11.9613 37.0366 12.0729C37.1215 12.0389 37.1723 11.9743 37.1984 11.8877ZM22.4031 14.3445L22.3867 14.3279L22.3666 14.3648L22.4031 14.3445ZM25.1372 7.95238C25.134 7.95472 25.1424 7.97334 25.1454 7.98442C25.158 7.98072 25.1705 7.97697 25.183 7.97326C25.1864 7.93617 25.1703 7.92809 25.1372 7.95238ZM24.897 7.91638C24.9119 7.95942 24.9257 7.96676 24.9317 7.93701C24.9325 7.93284 24.9088 7.92367 24.8964 7.9168C24.8964 7.9168 24.897 7.91638 24.897 7.91638ZM25.3292 10.2961C25.3341 10.3062 25.3376 10.3175 25.3445 10.3258C25.3487 10.3308 25.3584 10.3311 25.3656 10.3335C25.3533 10.3213 25.3409 10.309 25.3285 10.2968C25.3285 10.2968 25.3292 10.2961 25.3292 10.2961ZM31.7992 17.5906C31.7857 17.6383 31.7968 17.648 31.8329 17.6145C31.8617 17.5878 31.8849 17.555 31.9106 17.525C31.8933 17.5136 31.8761 17.5022 31.8622 17.493C31.814 17.509 31.8104 17.5512 31.7992 17.5906ZM39.8086 10.6191L39.7922 10.6357L39.8287 10.656L39.8086 10.6191ZM42.1293 9.0268C42.1053 9.02476 42.081 9.01976 42.0575 9.02251C42.0501 9.02338 42.0401 9.04501 42.0399 9.05726C42.0392 9.09351 42.0586 9.10609 42.092 9.09488C42.1044 9.07222 42.1169 9.04951 42.1293 9.0268ZM42.027 8.69455C42.0134 8.70926 41.9998 8.72388 41.9862 8.73855C42.0007 8.72484 42.0151 8.71117 42.0296 8.69746C42.0296 8.69746 42.027 8.69451 42.027 8.69455Z" fill="url(#paint5_linear)"/>
<path d="M15.4243 7.25551C15.4238 8.03418 15.4238 8.03418 14.6543 8.03372C13.9143 8.03326 13.908 8.03322 13.915 7.27389C13.923 6.41984 13.7799 6.52222 14.6601 6.51105C14.6758 6.51084 14.6915 6.51084 14.7073 6.51105C15.541 6.52238 15.4112 6.41572 15.4243 7.25551Z" fill="#FBFEFD"/>
<path d="M15.4247 6.51089H13.9108V8.03373H15.4247V6.51089Z" fill="white"/>
<path d="M12.2945 7.97327H10.7806V9.4961H12.2945V7.97327Z" fill="white"/>
<path d="M15.3912 10.7842H13.8773V12.3071H15.3912V10.7842Z" fill="white"/>
<path d="M13.8509 13.5904H12.337V15.1132H13.8509V13.5904Z" fill="white"/>
<path d="M9.21618 9.38666H7.70227V10.9095H9.21618V9.38666Z" fill="white"/>
<path d="M9.1402 14.9957H7.62628V16.5186H9.1402V14.9957Z" fill="white"/>
<path d="M12.2945 16.3983H10.7806V17.9212H12.2945V16.3983Z" fill="white"/>
<path d="M15.3912 17.8008H13.8773V19.3236H15.3912V17.8008Z" fill="white"/>
<path d="M12.2945 19.2141H10.7806V20.7369H12.2945V19.2141Z" fill="white"/>
<path d="M10.7369 12.1831H9.22302V13.706H10.7369V12.1831Z" fill="white"/>
<path d="M7.87817 19.1399H6.36426V20.6628H7.87817V19.1399Z" fill="#60D394"/>
<path d="M9.17187 13.4729H7.65796V14.9957H9.17187V13.4729Z" fill="#60D394"/>
<path d="M9.17187 8.01617H7.65796V9.38155H9.17187V8.01617Z" fill="#60D394"/>
<path d="M9.27441 10.8759H7.7605V11.1283H9.27441V10.8759Z" fill="#60D394"/>
<path d="M9.17187 16.8647C9.17187 16.8647 8.46295 19.1602 8.53682 19.3456C8.61068 19.531 7.85888 18.5367 7.65796 16.8647C7.70225 7.86382 7.65796 16.5185 7.65796 16.5185H9.17187V16.8647Z" fill="#60D394"/>
<path d="M1.56536 6.4751H0.0514526V7.99793H1.56536V6.4751Z" fill="#60D394"/>
<path d="M4.69574 7.93747H3.18182V9.4603H4.69574V7.93747Z" fill="#60D394"/>
<path d="M1.59899 10.7484H0.085083V12.2712H1.59899V10.7484Z" fill="#60D394"/>
<path d="M3.13934 13.5546H1.62543V15.0774H3.13934V13.5546Z" fill="#60D394"/>
<path d="M7.65802 9.37137H6.1441V10.8942H7.65802V9.37137Z" fill="#60D394"/>
<path d="M7.67553 14.9957H6.16162V16.5186H7.67553V14.9957Z" fill="#60D394"/>
<path d="M4.69574 16.3625H3.18182V17.8854H4.69574V16.3625Z" fill="#60D394"/>
<path d="M1.59899 17.765H0.085083V19.2878H1.59899V17.765Z" fill="#60D394"/>
<path d="M6.25323 12.1473H4.73932V13.6702H6.25323V12.1473Z" fill="#60D394"/>
<path d="M9.17187 10.8759H7.65796V12.3988H9.17187V10.8759Z" fill="#60D394"/>
<path d="M15.4087 25.4971H13.8948V27.02H15.4087V25.4971Z" fill="white"/>
<path d="M12.2785 26.9595H10.7646V28.4823H12.2785V26.9595Z" fill="white"/>
<path d="M13.8245 29.7424H12.3105V31.2652H13.8245V29.7424Z" fill="white"/>
<path d="M15.4087 32.5471H13.8948V34.07H15.4087V32.5471Z" fill="white"/>
<path d="M9.20019 28.3728H7.68628V29.8957H9.20019V28.3728Z" fill="white"/>
<path d="M9.1242 33.9819H7.61029V35.5048H9.1242V33.9819Z" fill="white"/>
<path d="M12.2785 35.3845H10.7646V36.9074H12.2785V35.3845Z" fill="white"/>
<path d="M15.3752 36.787H13.8613V38.3098H15.3752V36.787Z" fill="white"/>
<path d="M10.7209 31.1693H9.20703V32.6922H10.7209V31.1693Z" fill="white"/>
<path d="M12.2665 24.1187H10.7526V25.6416H12.2665V24.1187Z" fill="white"/>
<path d="M1.5534 25.4522H0.0394897V26.975H1.5534V25.4522Z" fill="#EE6055"/>
<path d="M4.68371 26.9145H3.1698V28.4374H4.68371V26.9145Z" fill="#EE6055"/>
<path d="M3.13775 29.6974H1.62384V31.2203H3.13775V29.6974Z" fill="#EE6055"/>
<path d="M1.5534 32.5022H0.0394897V34.025H1.5534V32.5022Z" fill="#EE6055"/>
<path d="M7.71618 28.377H6.20227V29.8998H7.71618V28.377Z" fill="#EE6055"/>
<path d="M7.65759 33.9819H6.14368V35.5048H7.65759V33.9819Z" fill="#EE6055"/>
<path d="M4.68371 35.3396H3.1698V36.8624H4.68371V35.3396Z" fill="#EE6055"/>
<path d="M1.58703 36.7421H0.0731201V38.2649H1.58703V36.7421Z" fill="#EE6055"/>
<path d="M6.2412 31.1244H4.72729V32.6473H6.2412V31.1244Z" fill="#EE6055"/>
<path d="M7.70251 24.1928H6.1886V25.7157H7.70251V24.1928Z" fill="#EE6055"/>
<path d="M9.2301 27.7062H7.71619V28.391H9.2301V27.7062Z" fill="#EE6055"/>
<path d="M9.17187 29.8957H7.65796V30.5805H9.17187V29.8957Z" fill="#EE6055"/>
<path d="M9.14758 33.2971H7.63367V33.982H9.14758V33.2971Z" fill="#EE6055"/>
<path d="M9.17071 35.5048H7.6568V36.1896H9.17071V35.5048Z" fill="#EE6055"/>
</g>
<defs>
<linearGradient id="paint0_linear" x1="33.3732" y1="1.23373" x2="33.5319" y2="1.23373" gradientUnits="userSpaceOnUse">
<stop offset="0.0406" stop-color="#19B688"/>
<stop offset="0.9833" stop-color="#60D394"/>
<stop offset="1"/>
</linearGradient>
<linearGradient id="paint1_linear" x1="33.5215" y1="1.14531" x2="33.626" y2="1.14531" gradientUnits="userSpaceOnUse">
<stop offset="0.0406" stop-color="#19B688"/>
<stop offset="0.9833" stop-color="#60D394"/>
<stop offset="1"/>
</linearGradient>
<linearGradient id="paint2_linear" x1="33.6205" y1="1.06882" x2="33.7188" y2="1.06882" gradientUnits="userSpaceOnUse">
<stop offset="0.0406" stop-color="#19B688"/>
<stop offset="0.9833" stop-color="#60D394"/>
<stop offset="1"/>
</linearGradient>
<linearGradient id="paint3_linear" x1="34.6663" y1="0.274299" x2="34.7667" y2="0.274299" gradientUnits="userSpaceOnUse">
<stop offset="0.0406" stop-color="#19B688"/>
<stop offset="0.9833" stop-color="#60D394"/>
<stop offset="1"/>
</linearGradient>
<linearGradient id="paint4_linear" x1="19.7211" y1="33.9462" x2="43.9736" y2="33.9462" gradientUnits="userSpaceOnUse">
<stop offset="0.0955" stop-color="#BA1E12"/>
<stop offset="0.2882" stop-color="#BF2418"/>
<stop offset="0.5469" stop-color="#CC3529"/>
<stop offset="0.8418" stop-color="#E25045"/>
<stop offset="0.9833" stop-color="#EE6055"/>
</linearGradient>
<linearGradient id="paint5_linear" x1="19.7476" y1="10.9094" x2="44" y2="10.9094" gradientUnits="userSpaceOnUse">
<stop offset="0.0955" stop-color="#009D88"/>
<stop offset="0.2489" stop-color="#06A089"/>
<stop offset="0.4549" stop-color="#17AA8B"/>
<stop offset="0.6908" stop-color="#33BA8E"/>
<stop offset="0.9471" stop-color="#5AD093"/>
<stop offset="0.9833" stop-color="#60D394"/>
</linearGradient>
<clipPath id="clip0">
<rect width="44" height="45" fill="white"/>
</clipPath>
</defs>
</svg>
