<?xml version="1.0" encoding="utf-8"?>
<!-- Generator: Adobe Illustrator 17.0.0, SVG Export Plug-In . SVG Version: 6.00 Build 0)  -->
<!DOCTYPE svg PUBLIC "-//W3C//DTD SVG 1.1//EN" "http://www.w3.org/Graphics/SVG/1.1/DTD/svg11.dtd">
<svg version="1.1" id="Layer_1" xmlns="http://www.w3.org/2000/svg" xmlns:xlink="http://www.w3.org/1999/xlink" x="0px" y="0px"
	 width="947px" height="653.865px" viewBox="0 -43.135 947 653.865" enable-background="new 0 -43.135 947 653.865"
	 xml:space="preserve">
<rect x="133.25" y="-116.598" fill="none" width="811" height="739"/>
<path fill="#FFF4E1" d="M185.691,563.333c0,0-97.648-139.307-16.514-290.126c71.987-133.817,155.917-124.67,217.496-70.365
	c26.226,23.128,124.198,4.175,209.872-109.379c91.211-120.89,335.182-61.507,292.853,188.687
	c-23.568,139.304,81.697,143.278,26.391,281.477L185.691,563.333z"/>
<path fill="#227C9D" d="M933.443,142.403l-128.209,42.93l25.739,21.718v0.001L720.035,324.634l-97.243-84.537l-388.168,322.02
	l3.417,0.052h96.699l287.098-238.17l102.519,89.122l155.5-164.818l0.002-0.001l27.781,23.442L933.443,142.403z"/>
<g opacity="0.2">
	<g opacity="0.2">
		<g opacity="0.2">
			<g opacity="0.2">
				<path opacity="0.2" fill="#3A3A5B" enable-background="new    " d="M804.267,496.754c0,0-11.058-12.68-0.682-20.736
					c0,0,7.579-4.509,13.759-4.143c0,0-8.757,14.434-5.924,15.87c2.833,1.435,8.578-16.776,8.578-16.776s17.248-1.643,22.797,0.979
					c0,0-14.745,11.86-11.64,12.566c3.106,0.706,19.032-10.935,19.032-10.935s16.053,2.685,15.197,12.311
					c-0.856,9.626-6.387,12.597-8.818,12.342c-2.431-0.256-16.652-5.592-16.962-3.634c-0.31,1.959,8.251,8.357,14.245,8.656
					c0,0-11.318,12.269-18.839,8.728c-7.522-3.541-8.164-9.154-12.853-11.258c-4.689-2.106-8.692-2.1-6.755,0.047
					c1.935,2.146,10.421,4.233,13.103,8.895c2.682,4.662,5.087,7.806-2.695,6.656c-7.783-1.152-20.432-6.748-20.988-13.158
					C804.267,496.754,804.267,496.754,804.267,496.754z"/>
			</g>
			<g opacity="0.2">
				<g opacity="0.2">
					<path opacity="0.2" fill="#3A3A5B" enable-background="new    " d="M857.496,486.149c0,0-43.601-1.651-53.23,10.605
						c0,0-2.129,6.269-8.682,11.977l-1.021,2.737c0,0,7.555-7.83,10.259-8.304C804.822,503.164,800.594,487.979,857.496,486.149z"/>
				</g>
				<g opacity="0.2">
					<path opacity="0.2" fill="#3A3A5B" enable-background="new    " d="M795.584,508.731c0,0-9.358,6.804-10.008,18.959l1.698,0.15
						c0,0,2.989-12.568,8.391-17.484C801.069,505.44,795.584,508.731,795.584,508.731z"/>
				</g>
			</g>
		</g>
		<g opacity="0.2">
			<g opacity="0.2">
				<path opacity="0.2" fill="#3A3A5B" enable-background="new    " d="M765.603,480.806c0,0,17.591-9.683,9.382-22.823
					c0,0-6.567-8.07-13.603-10.144c0,0,3.752,19.596,0,20.057c-3.753,0.461-2.581-22.132-2.581-22.132s-18.528-8.76-25.8-8.068
					c0,0,11.493,19.134,7.741,18.673c-3.753-0.461-16.653-19.826-16.653-19.826s-18.998-3.458-22.047,7.607
					c-3.049,11.066,1.876,16.6,4.691,17.291c2.814,0.692,20.874,0.462,20.405,2.766c-0.469,2.306-12.665,5.995-19.467,3.92
					c0,0,7.506,18.213,17.357,17.291s12.9-6.916,18.998-7.378c6.098-0.461,10.555,1.153,7.505,2.767
					c-3.048,1.614-13.368,0.528-18.294,4.645c-4.925,4.116-8.913,6.651,0.234,8.496c9.147,1.844,25.565,0.692,28.849-6.225
					C765.603,480.806,765.603,480.806,765.603,480.806z"/>
			</g>
			<g opacity="0.2">
				<g opacity="0.2">
					<path opacity="0.2" fill="#3A3A5B" enable-background="new    " d="M710.72,447.609c0,0,49.255,15.676,54.884,33.198
						c0,0-0.235,7.838,4.691,16.83v3.458c0,0-5.16-11.758-7.975-13.372C762.319,487.723,773.343,472.507,710.72,447.609z"/>
				</g>
				<g opacity="0.2">
					<path opacity="0.2" fill="#3A3A5B" enable-background="new    " d="M770.294,497.636c0,0,7.596,11.338,3.265,25.14
						l-1.953-0.516c0,0,1.897-15.201-2.078-22.847C765.554,491.767,770.294,497.636,770.294,497.636z"/>
				</g>
			</g>
		</g>
		<g opacity="0.2">
			<g opacity="0.2">
				<path opacity="0.2" fill="#3A3A5B" enable-background="new    " d="M793.588,467.453c0,0-23.188-12.764-12.367-30.086
					c0,0,8.658-10.636,17.932-13.371c0,0-4.946,25.831,0,26.439c4.947,0.607,3.401-29.174,3.401-29.174s24.425-11.549,34.009-10.637
					c0,0-15.149,25.224-10.202,24.616c4.946-0.608,21.951-26.135,21.951-26.135s25.043-4.559,29.062,10.028
					c4.019,14.587-2.473,21.881-6.183,22.793c-3.71,0.911-27.517,0.608-26.898,3.646c0.618,3.039,16.696,7.901,25.661,5.166
					c0,0-9.893,24.008-22.878,22.793c-12.986-1.215-17.005-9.116-25.043-9.725c-8.038-0.607-13.913,1.52-9.894,3.648
					c4.02,2.127,17.623,0.697,24.116,6.122c6.493,5.426,11.749,8.769-0.309,11.2c-12.057,2.431-33.699,0.912-38.028-8.205
					C793.588,467.453,793.588,467.453,793.588,467.453z"/>
			</g>
			<g opacity="0.2">
				<g opacity="0.2">
					<path opacity="0.2" fill="#3A3A5B" enable-background="new    " d="M865.935,423.692c0,0-64.926,20.664-72.346,43.761
						c0,0,0.309,10.332-6.184,22.184v4.559c0,0,6.803-15.499,10.512-17.627C797.917,476.569,783.386,456.512,865.935,423.692z"/>
				</g>
				<g opacity="0.2">
					<path opacity="0.2" fill="#3A3A5B" enable-background="new    " d="M787.405,489.637c0,0-10.012,14.946-4.304,33.139
						l2.576-0.681c0,0-2.501-20.038,2.738-30.116C793.653,481.901,787.405,489.637,787.405,489.637z"/>
				</g>
			</g>
		</g>
		<g opacity="0.2">
			<path opacity="0.2" fill="#3A3A5B" enable-background="new    " d="M792.808,562.227c25.085,0,45.421-19.989,45.421-44.647
				h-90.843C747.386,542.238,767.722,562.227,792.808,562.227z"/>
		</g>
		<g opacity="0.2">
			<path opacity="0.2" fill="#3A3A5B" enable-background="new    " d="M803.984,561.886c-1.847,0.227-3.731,0.341-5.644,0.341
				c-25.085,0-45.418-19.99-45.418-44.647h11.283C764.206,540.36,781.561,559.154,803.984,561.886z"/>
		</g>
		<g opacity="0.2">
			<path opacity="0.2" fill="#3A3A5B" enable-background="new    " d="M838.856,564.499h-92.097c0-3.043,2.508-5.508,5.604-5.508
				h80.89C836.348,558.991,838.856,561.457,838.856,564.499z"/>
		</g>
		<g opacity="0.2">
			<path opacity="0.2" fill="#3A3A5B" enable-background="new    " d="M839.263,517.58h-93.371v1.369h93.371L839.263,517.58
				L839.263,517.58z"/>
		</g>
	</g>
</g>
<path fill="#66C88A" d="M478.79,483.82l-29.452-2.564c0,0,1.703-18.384-3.479-42.904c-3.822-18.113-11.402-39.572-26.191-59.448
	c-25.224-33.893-100.144-52.855-100.144-52.855v-4.387l2.693-0.296c0,0-1.161-0.819-2.693-1.295v-10.372
	c2.213-0.032,5.383,0.102,8.514,0.844c-1.755-0.443-5.497-1.312-8.514-1.547v-5.454c108.529,2.938,143.923,69.31,155.015,120.676
	C481.643,457.094,478.79,483.82,478.79,483.82z"/>
<path fill="#81E3A5" d="M607.686,474.173L478.79,483.82c-0.667-20.1-5.848-40.888-10.86-56.647
	c-5.01-15.759-9.859-26.494-9.859-26.494c-38.559-85.544-138.546-97.138-138.546-97.138L430.5,257.527
	c53.611,4.085,91.222,30.153,117.529,62.885C599.551,384.519,607.686,474.173,607.686,474.173z"/>
<path fill="#66C88A" d="M607.686,474.173L478.79,483.82l-29.452-2.564c0,0,1.703-18.384-3.479-42.904
	c6.14-3.744,13.442-7.484,22.07-11.178c2.267-0.971,4.47-1.956,6.61-2.956c82.069-38.351,74.424-98.091,73.489-103.806
	C599.551,384.519,607.686,474.173,607.686,474.173z"/>
<path fill="#5DD782" d="M597.55,484.223l-114.87-2.25l0.405-2.24c0.061-0.339,5.96-34.438-7.813-73.209
	c-8.068-22.714-21.222-42.584-39.095-59.059c-22.393-20.64-52.317-36.003-88.943-45.662l-5.642-1.487l89.657-36.126l0.344-0.009
	c0.97-0.022,24.062-0.375,53.745,13.839c17.398,8.331,33.416,19.972,47.609,34.599c17.707,18.25,32.602,41.222,44.271,68.278
	c0.922,2.079,22.742,51.676,21.589,81.455l-0.002,0.037L597.55,484.223z M487.182,478.19l106.765,2.091l1.04-18.098
	c0.457-11.896-3.064-29.432-10.185-50.713c-5.409-16.169-11.023-28.879-11.078-29.006c-11.468-26.587-26.068-49.132-43.402-67.027
	c-13.849-14.297-29.47-25.678-46.429-33.828c-18.401-8.842-34.446-11.923-43.734-12.993c-4.877-0.562-9.813,0.103-14.372,1.941
	l-62.137,25.037c-3.242,1.305-3.077,5.996,0.244,7.08c30.217,9.85,55.373,23.945,74.944,42.01
	c18.339,16.93,31.828,37.352,40.092,60.7c7.346,20.754,9.11,40.022,9.297,52.531C488.372,467.621,487.637,474.769,487.182,478.19z"
	/>
<path fill="#5DD782" d="M535.741,350.589c0,19.159-11.086,30.736-30.01,30.736c-18.923,0-38.518-11.577-38.518-30.736
	c0-19.16,10.481-30.619,29.404-30.619C515.541,319.97,535.741,331.43,535.741,350.589z"/>
<path fill="#FFD186" d="M668.947,549.904v8.826c0,0.703-0.211,1.356-0.576,1.899c-0.382,0.571-0.932,1.021-1.576,1.273
	c-0.197,0.078-0.403,0.137-0.615,0.174c-0.194,0.037-0.39,0.055-0.593,0.055H526.744c-1.791,0-3.265-1.436-3.356-3.227
	c-0.002-0.058-0.004-0.116-0.004-0.174v-8.826c0-0.057,0.001-0.116,0.004-0.174c0.091-1.79,1.565-3.226,3.356-3.226h138.844
	c0.202,0,0.399,0.018,0.592,0.054c0.212,0.038,0.418,0.096,0.615,0.175c0.645,0.252,1.195,0.702,1.577,1.273
	C668.736,548.549,668.947,549.201,668.947,549.904z"/>
<path fill="#FCBA64" d="M600.767,562.131h-74.384c-1.597,0-2.913-1.436-2.995-3.227c-0.002-0.058-0.004-0.116-0.004-0.174v-8.826
	c0-0.057,0.001-0.116,0.004-0.174c0.082-1.79,1.398-3.226,2.995-3.226h65.25C592.675,551.104,595.104,557.466,600.767,562.131z"/>
<path fill="#FCBA64" d="M652.053,546.504h-1.578v15.628h1.578V546.504z"/>
<path fill="#FCBA64" d="M646.711,546.504h-1.578v15.628h1.578V546.504z"/>
<path fill="#FCBA64" d="M640.305,546.504h-1.578v15.628h1.578V546.504z"/>
<path fill="#FCBA64" d="M630.487,546.504h-1.578v15.628h1.578V546.504z"/>
<path fill="#FCBA64" d="M620.104,546.504h-1.578v15.628h1.578V546.504z"/>
<path fill="#FCBA64" d="M604.187,546.504h-1.578v15.628h1.578V546.504z"/>
<path fill="#FCBA64" d="M589.284,546.504h-1.578v15.628h1.578V546.504z"/>
<path fill="#FCBA64" d="M575.976,546.504h-1.578v15.628h1.578V546.504z"/>
<path fill="#FCBA64" d="M657.137,546.504h-1.578v15.628h1.578V546.504z"/>
<path fill="#FCBA64" d="M660.496,546.504h-1.578v15.628h1.578V546.504z"/>
<path fill="#FCBA64" d="M663.739,546.504h-1.578v15.628h1.578V546.504z"/>
<path fill="#FCBA64" d="M666.18,546.557v15.519c-0.193,0.037-0.39,0.055-0.592,0.055h-0.986v-15.627h0.986
	C665.79,546.504,665.987,546.522,666.18,546.557z"/>
<path fill="#FCBA64" d="M668.371,548.005v12.623c-0.382,0.572-0.932,1.021-1.576,1.273v-15.169
	C667.439,546.984,667.989,547.434,668.371,548.005z"/>
<path fill="#FFD186" d="M654.102,534.277v8.826c0,0.703-0.211,1.355-0.575,1.898c-0.383,0.572-0.932,1.021-1.577,1.273
	c-0.197,0.079-0.403,0.138-0.614,0.175c-0.194,0.036-0.39,0.055-0.593,0.055H511.899c-1.79,0-3.265-1.437-3.355-3.227
	c-0.002-0.058-0.005-0.116-0.005-0.174v-8.826c0-0.058,0.003-0.116,0.005-0.175c0.091-1.79,1.565-3.226,3.355-3.226h138.844
	c0.089,0,0.178,0.004,0.265,0.011c0.038,0.002,0.077,0.006,0.114,0.012c0.04,0.003,0.083,0.009,0.124,0.016
	c0.03,0.004,0.06,0.01,0.09,0.015c0.211,0.038,0.418,0.096,0.614,0.175c0.03,0.011,0.057,0.022,0.087,0.036
	c0.028,0.011,0.058,0.024,0.086,0.037c0.055,0.027,0.113,0.055,0.169,0.083c0.031,0.017,0.065,0.036,0.096,0.054
	c0.03,0.017,0.058,0.032,0.086,0.051c0.054,0.032,0.106,0.066,0.158,0.101c0.059,0.041,0.117,0.085,0.173,0.13
	c0.044,0.034,0.087,0.07,0.13,0.107c0.002,0.002,0.005,0.004,0.007,0.007c0.028,0.025,0.057,0.051,0.086,0.077
	c0.085,0.079,0.167,0.166,0.243,0.254c0.024,0.027,0.047,0.053,0.067,0.079c0.022,0.027,0.043,0.055,0.065,0.083
	c0.042,0.056,0.085,0.115,0.124,0.173C653.891,532.921,654.102,533.574,654.102,534.277z"/>
<path fill="#FCBA64" d="M585.923,546.504h-74.384c-1.599,0-2.914-1.437-2.995-3.227c-0.002-0.058-0.005-0.116-0.005-0.174v-8.826
	c0-0.058,0.003-0.116,0.005-0.175c0.081-1.79,1.396-3.226,2.995-3.226h65.248c0.029,0.127,0.059,0.255,0.091,0.385
	C577.967,535.826,580.413,541.968,585.923,546.504z"/>
<path fill="#FCBA64" d="M637.207,530.876h-1.578v15.628h1.578V530.876z"/>
<path fill="#FCBA64" d="M631.866,530.876h-1.578v15.628h1.578V530.876z"/>
<path fill="#FCBA64" d="M625.46,530.876h-1.577v15.628h1.577V530.876z"/>
<path fill="#FCBA64" d="M615.642,530.876h-1.579v15.628h1.579V530.876z"/>
<path fill="#FCBA64" d="M605.259,530.876h-1.578v15.628h1.578V530.876z"/>
<path fill="#FCBA64" d="M589.341,530.876h-1.578v15.628h1.578V530.876z"/>
<path fill="#FCBA64" d="M574.439,530.876h-1.578v15.628h1.578V530.876z"/>
<path fill="#FCBA64" d="M561.131,530.876h-1.578v15.628h1.578V530.876z"/>
<path fill="#FCBA64" d="M642.292,530.876h-1.578v15.628h1.578V530.876z"/>
<path fill="#FCBA64" d="M645.651,530.876h-1.578v15.628h1.578V530.876z"/>
<path fill="#FCBA64" d="M648.895,530.876h-1.579v15.628h1.579V530.876z"/>
<path fill="#FCBA64" d="M651.335,530.93v15.519c-0.193,0.035-0.39,0.054-0.592,0.054h-0.986v-15.627h0.986
	C650.945,530.876,651.142,530.893,651.335,530.93z"/>
<path fill="#FCBA64" d="M653.527,532.377v12.624c-0.383,0.572-0.933,1.021-1.577,1.272v-15.169
	C652.594,531.357,653.144,531.805,653.527,532.377z"/>
<path fill="#FFD186" d="M661.276,519.035v8.825c0,0.703-0.212,1.356-0.576,1.899c-0.383,0.572-0.932,1.022-1.576,1.273
	c-0.197,0.08-0.404,0.138-0.615,0.175c-0.193,0.036-0.39,0.054-0.592,0.054H519.072c-0.557,0-1.084-0.139-1.548-0.385
	c-0.983-0.52-1.684-1.521-1.796-2.688c-0.005-0.051-0.008-0.102-0.011-0.152c-0.002-0.058-0.004-0.117-0.004-0.175v-8.825
	c0-0.059,0.002-0.117,0.004-0.175c0.092-1.79,1.566-3.227,3.356-3.227h138.844c0.203,0,0.399,0.019,0.592,0.055
	c0.212,0.038,0.418,0.096,0.615,0.174c0.644,0.253,1.193,0.702,1.576,1.274C661.064,517.679,661.276,518.332,661.276,519.035z"/>
<path fill="#FCBA64" d="M593.096,531.261h-74.384c-0.498,0-0.968-0.139-1.381-0.385c-0.879-0.52-1.504-1.521-1.603-2.688
	c-0.005-0.051-0.008-0.102-0.011-0.152c-0.002-0.058-0.004-0.117-0.004-0.175v-8.825c0-0.059,0.002-0.117,0.004-0.175
	c0.082-1.79,1.399-3.227,2.996-3.227h65.249c1.014,4.475,3.338,10.618,8.678,15.243C592.79,531.006,592.942,531.134,593.096,531.261
	z"/>
<path fill="#FCBA64" d="M644.381,515.634h-1.578v15.627h1.578V515.634z"/>
<path fill="#FCBA64" d="M639.04,515.634h-1.579v15.627h1.579V515.634z"/>
<path fill="#FCBA64" d="M632.634,515.634h-1.578v15.627h1.578V515.634z"/>
<path fill="#FCBA64" d="M622.815,515.634h-1.578v15.627h1.578V515.634z"/>
<path fill="#FCBA64" d="M612.433,515.634h-1.578v15.627h1.578V515.634z"/>
<path fill="#FCBA64" d="M596.516,515.634h-1.578v15.627h1.578V515.634z"/>
<path fill="#FCBA64" d="M581.613,515.634h-1.578v15.627h1.578V515.634z"/>
<path fill="#FCBA64" d="M568.306,515.634h-1.579v15.628h1.579V515.634z"/>
<path fill="#FCBA64" d="M649.466,515.634h-1.578v15.627h1.578V515.634z"/>
<path fill="#FCBA64" d="M652.825,515.634h-1.578v15.627h1.578V515.634z"/>
<path fill="#FCBA64" d="M656.069,515.634h-1.579v15.627h1.579V515.634z"/>
<path fill="#FCBA64" d="M658.51,515.687v15.519c-0.194,0.035-0.391,0.054-0.592,0.054h-0.987v-15.628h0.987
	C658.119,515.633,658.316,515.651,658.51,515.687z"/>
<path fill="#FCBA64" d="M660.7,517.135v12.624c-0.382,0.571-0.932,1.02-1.576,1.273v-15.17
	C659.768,516.114,660.318,516.564,660.7,517.135z"/>
<path fill="#FFD186" d="M664.602,503.407v8.826c0,0.703-0.212,1.356-0.576,1.899c-0.383,0.571-0.932,1.02-1.577,1.273
	c-0.197,0.078-0.403,0.137-0.615,0.175c-0.193,0.035-0.39,0.054-0.592,0.054H522.398c-1.789,0-3.265-1.436-3.355-3.226
	c-0.002-0.058-0.004-0.117-0.004-0.175v-8.825c0-0.059,0.002-0.117,0.004-0.175c0.084-1.656,1.351-3.008,2.958-3.202
	c0.13-0.017,0.262-0.024,0.397-0.024h138.844c0.202,0,0.399,0.018,0.592,0.054c0.212,0.038,0.418,0.096,0.615,0.174
	c0.644,0.253,1.194,0.702,1.577,1.274C664.39,502.051,664.602,502.704,664.602,503.407z"/>
<path fill="#FCBA64" d="M596.422,515.633h-74.383c-1.598,0-2.914-1.436-2.996-3.225c-0.002-0.059-0.004-0.117-0.004-0.176v-8.825
	c0-0.059,0.002-0.117,0.004-0.175c0.075-1.654,1.207-3.008,2.641-3.202c0.115-0.017,0.234-0.024,0.355-0.024h65.249
	c0.002,0.007,0.004,0.017,0.006,0.024C588.339,504.627,590.767,510.976,596.422,515.633z"/>
<path fill="#FCBA64" d="M647.707,500.005h-1.578v15.628h1.578V500.005z"/>
<path fill="#FCBA64" d="M642.366,500.005h-1.578v15.628h1.578V500.005z"/>
<path fill="#FCBA64" d="M635.96,500.005h-1.578v15.628h1.578V500.005z"/>
<path fill="#FCBA64" d="M626.141,500.005h-1.578v15.628h1.578V500.005z"/>
<path fill="#FCBA64" d="M615.758,500.005h-1.578v15.628h1.578V500.005z"/>
<path fill="#FCBA64" d="M599.842,500.005h-1.578v15.628h1.578V500.005z"/>
<path fill="#FCBA64" d="M584.938,500.005h-1.578v15.628h1.578V500.005z"/>
<path fill="#FCBA64" d="M571.631,500.006h-1.578v15.628h1.578V500.006z"/>
<path fill="#FCBA64" d="M652.791,500.005h-1.578v15.628h1.578V500.005z"/>
<path fill="#FCBA64" d="M656.151,500.005h-1.578v15.628h1.578V500.005z"/>
<path fill="#FCBA64" d="M659.394,500.005h-1.578v15.628h1.578V500.005z"/>
<path fill="#FCBA64" d="M661.835,500.059v15.519c-0.194,0.035-0.39,0.054-0.592,0.054h-0.986v-15.628h0.986
	C661.445,500.005,661.641,500.024,661.835,500.059z"/>
<path fill="#FCBA64" d="M664.026,501.507v12.623c-0.382,0.572-0.931,1.021-1.576,1.274v-15.17
	C663.094,500.486,663.643,500.935,664.026,501.507z"/>
<path fill="#FFD186" d="M654.394,487.803v8.825c0,0.704-0.211,1.357-0.576,1.899c-0.382,0.572-0.932,1.022-1.576,1.274
	c-0.197,0.078-0.404,0.137-0.615,0.174c-0.065,0.011-0.131,0.023-0.195,0.03c-0.035,0.004-0.072,0.008-0.11,0.011
	c-0.035,0.004-0.072,0.006-0.109,0.008c-0.06,0.003-0.12,0.005-0.178,0.005H512.191c-1.791,0-3.265-1.436-3.356-3.226
	c-0.001-0.059-0.003-0.117-0.003-0.175v-8.826c0-0.058,0.002-0.116,0.003-0.174c0.002-0.049,0.006-0.096,0.01-0.143
	c0.133-1.44,1.166-2.629,2.518-2.978c0.033-0.01,0.068-0.017,0.102-0.025c0.234-0.053,0.477-0.081,0.726-0.081h138.844
	c0.102,0,0.202,0.006,0.3,0.013c0.045,0.006,0.089,0.01,0.134,0.016h0.001c0.052,0.007,0.104,0.017,0.157,0.026
	c0.211,0.038,0.417,0.096,0.615,0.175c0.644,0.252,1.194,0.702,1.576,1.273C654.183,486.448,654.394,487.1,654.394,487.803z"/>
<path fill="#FCBA64" d="M586.214,500.03H511.83c-1.597,0-2.914-1.436-2.996-3.226c-0.001-0.059-0.003-0.117-0.003-0.175v-8.826
	c0-0.058,0.002-0.116,0.003-0.174c0.002-0.049,0.006-0.096,0.01-0.142c0.12-1.473,1.08-2.68,2.327-3
	c0.042-0.013,0.085-0.023,0.128-0.03c0.172-0.035,0.349-0.054,0.531-0.054h65.25c0.007,0.038,0.017,0.074,0.026,0.111
	c1.053,4.584,3.482,10.867,9.079,15.492C586.193,500.014,586.205,500.023,586.214,500.03z"/>
<path fill="#FCBA64" d="M637.499,484.402h-1.578v15.628h1.578V484.402z"/>
<path fill="#FCBA64" d="M632.158,484.402h-1.579v15.628h1.579V484.402z"/>
<path fill="#FCBA64" d="M625.752,484.402h-1.578v15.628h1.578V484.402z"/>
<path fill="#FCBA64" d="M615.934,484.402h-1.579v15.628h1.579V484.402z"/>
<path fill="#FCBA64" d="M605.551,484.402h-1.578v15.628h1.578V484.402z"/>
<path fill="#FCBA64" d="M589.633,484.402h-1.578v15.628h1.578V484.402z"/>
<path fill="#FCBA64" d="M574.731,484.402h-1.578v15.628h1.578V484.402z"/>
<path fill="#FCBA64" d="M561.423,484.402h-1.578v15.628h1.578V484.402z"/>
<path fill="#FCBA64" d="M642.584,484.402h-1.579v15.628h1.579V484.402z"/>
<path fill="#FCBA64" d="M645.943,484.402h-1.578v15.628h1.578V484.402z"/>
<path fill="#FCBA64" d="M649.186,484.402h-1.578v15.628h1.578V484.402z"/>
<path fill="#FCBA64" d="M651.627,484.456v15.519c-0.193,0.036-0.39,0.055-0.592,0.055h-0.986v-15.629h0.986
	C651.237,484.401,651.434,484.42,651.627,484.456z"/>
<path fill="#FCBA64" d="M653.818,485.904v12.623c-0.383,0.572-0.932,1.021-1.577,1.274v-15.17
	C652.886,484.883,653.436,485.332,653.818,485.904z"/>
<path fill="#FFD186" d="M654.102,472.287v8.826c0,0.703-0.211,1.355-0.575,1.899c-0.383,0.571-0.932,1.02-1.577,1.273
	c-0.154,0.062-0.316,0.111-0.479,0.147h-0.004c-0.044,0.011-0.087,0.02-0.131,0.028c-0.194,0.036-0.39,0.055-0.593,0.055H511.899
	c-0.147,0-0.293-0.01-0.435-0.03c-0.056-0.006-0.111-0.015-0.165-0.027c-1.51-0.277-2.676-1.585-2.756-3.17
	c-0.002-0.058-0.004-0.117-0.004-0.175v-8.825c0-0.058,0.002-0.117,0.004-0.175c0.091-1.79,1.565-3.226,3.355-3.226h138.844
	c0.089,0,0.179,0.004,0.266,0.011c0.037,0.004,0.076,0.007,0.113,0.012c0.041,0.004,0.083,0.008,0.125,0.017
	c0.029,0.004,0.059,0.009,0.089,0.015c0.211,0.037,0.418,0.095,0.614,0.174c0.03,0.012,0.058,0.023,0.087,0.036
	c0.029,0.011,0.059,0.024,0.086,0.038c0.058,0.026,0.114,0.054,0.169,0.083c0.062,0.033,0.122,0.067,0.182,0.105
	c0.054,0.032,0.106,0.065,0.158,0.101c0.06,0.042,0.117,0.085,0.173,0.13c0.044,0.033,0.087,0.069,0.13,0.107
	c0.002,0.002,0.005,0.004,0.007,0.007c0.028,0.025,0.058,0.051,0.086,0.077c0.085,0.079,0.167,0.166,0.243,0.254
	c0.025,0.026,0.047,0.053,0.067,0.079c0.022,0.028,0.043,0.054,0.065,0.083c0.043,0.056,0.085,0.114,0.125,0.173
	C653.891,470.931,654.102,471.584,654.102,472.287z"/>
<path fill="#FCBA64" d="M585.923,484.513h-74.384c-0.059,0-0.119-0.002-0.176-0.005c-0.065-0.005-0.129-0.011-0.192-0.021
	c-1.43-0.199-2.553-1.549-2.627-3.2c-0.002-0.058-0.004-0.117-0.004-0.175v-8.825c0-0.058,0.002-0.117,0.004-0.175
	c0.082-1.79,1.396-3.226,2.995-3.226h65.248c0.03,0.127,0.059,0.256,0.091,0.386c1.081,4.527,3.497,10.606,8.912,15.131
	C585.834,484.44,585.879,484.476,585.923,484.513z"/>
<path fill="#FCBA64" d="M637.207,468.886h-1.578v15.628h1.578V468.886z"/>
<path fill="#FCBA64" d="M631.866,468.886h-1.578v15.628h1.578V468.886z"/>
<path fill="#FCBA64" d="M625.46,468.886h-1.577v15.628h1.577V468.886z"/>
<path fill="#FCBA64" d="M615.642,468.886h-1.579v15.628h1.579V468.886z"/>
<path fill="#FCBA64" d="M605.259,468.886h-1.578v15.628h1.578V468.886z"/>
<path fill="#FCBA64" d="M589.341,468.886h-1.578v15.628h1.578V468.886z"/>
<path fill="#FCBA64" d="M574.439,468.886h-1.578v15.628h1.578V468.886z"/>
<path fill="#FCBA64" d="M561.131,468.886h-1.578v15.628h1.578V468.886z"/>
<path fill="#FCBA64" d="M642.292,468.886h-1.578v15.628h1.578V468.886z"/>
<path fill="#FCBA64" d="M645.651,468.886h-1.578v15.628h1.578V468.886z"/>
<path fill="#FCBA64" d="M648.895,468.886h-1.579v15.628h1.579V468.886z"/>
<path fill="#FCBA64" d="M651.335,468.94v15.519c-0.193,0.035-0.39,0.054-0.592,0.054h-0.986v-15.628h0.986
	C650.945,468.885,651.142,468.904,651.335,468.94z"/>
<path fill="#FCBA64" d="M653.527,470.388v12.623c-0.383,0.571-0.933,1.021-1.577,1.273v-15.169
	C652.594,469.367,653.144,469.816,653.527,470.388z"/>
<path fill="#FFD186" d="M661.276,457.044v8.825c0,0.704-0.212,1.356-0.576,1.9c-0.383,0.571-0.932,1.021-1.576,1.273
	c-0.197,0.078-0.404,0.137-0.615,0.174c-0.193,0.037-0.39,0.055-0.592,0.055H519.072c-0.557,0-1.084-0.139-1.548-0.386
	c-0.983-0.521-1.684-1.521-1.796-2.688c-0.005-0.052-0.008-0.102-0.011-0.153c-0.002-0.058-0.004-0.116-0.004-0.175v-8.825
	c0-0.058,0.002-0.116,0.004-0.175c0.092-1.79,1.566-3.226,3.356-3.226h138.844c0.203,0,0.399,0.019,0.592,0.054
	c0.212,0.038,0.418,0.097,0.615,0.175c0.644,0.252,1.193,0.701,1.576,1.273C661.064,455.688,661.276,456.341,661.276,457.044z"/>
<path fill="#FCBA64" d="M593.096,469.271h-74.384c-0.498,0-0.968-0.139-1.381-0.386c-0.879-0.521-1.504-1.521-1.603-2.688
	c-0.005-0.052-0.008-0.102-0.011-0.153c-0.002-0.058-0.004-0.116-0.004-0.175v-8.825c0-0.058,0.002-0.116,0.004-0.175
	c0.082-1.79,1.399-3.226,2.996-3.226h65.249c1.014,4.475,3.338,10.617,8.678,15.243C592.79,469.015,592.942,469.143,593.096,469.271
	z"/>
<path fill="#FCBA64" d="M644.381,453.643h-1.578v15.628h1.578V453.643z"/>
<path fill="#FCBA64" d="M639.04,453.643h-1.579v15.628h1.579V453.643z"/>
<path fill="#FCBA64" d="M632.634,453.643h-1.578v15.628h1.578V453.643z"/>
<path fill="#FCBA64" d="M622.815,453.643h-1.578v15.628h1.578V453.643z"/>
<path fill="#FCBA64" d="M612.433,453.643h-1.578v15.628h1.578V453.643z"/>
<path fill="#FCBA64" d="M596.516,453.643h-1.578v15.628h1.578V453.643z"/>
<path fill="#FCBA64" d="M581.613,453.643h-1.578v15.628h1.578V453.643z"/>
<path fill="#FCBA64" d="M568.306,453.643h-1.579v15.628h1.579V453.643z"/>
<path fill="#FCBA64" d="M649.466,453.643h-1.578v15.628h1.578V453.643z"/>
<path fill="#FCBA64" d="M652.825,453.643h-1.578v15.628h1.578V453.643z"/>
<path fill="#FCBA64" d="M656.069,453.643h-1.579v15.628h1.579V453.643z"/>
<path fill="#FCBA64" d="M658.51,453.698v15.519c-0.194,0.035-0.391,0.055-0.592,0.055h-0.987v-15.629h0.987
	C658.119,453.643,658.316,453.662,658.51,453.698z"/>
<path fill="#FCBA64" d="M660.7,455.146v12.623c-0.382,0.571-0.932,1.021-1.576,1.273v-15.169
	C659.768,454.124,660.318,454.574,660.7,455.146z"/>
<path fill="#FFD186" d="M672.622,441.416v8.826c0,0.703-0.212,1.356-0.576,1.899c-0.383,0.571-0.932,1.021-1.577,1.273
	c-0.196,0.079-0.403,0.137-0.615,0.175c-0.193,0.035-0.39,0.054-0.592,0.054H530.418c-1.789,0-3.264-1.436-3.355-3.226
	c-0.002-0.058-0.004-0.117-0.004-0.174v-8.826c0-0.059,0.002-0.116,0.004-0.175c0.084-1.655,1.352-3.008,2.958-3.202
	c0.13-0.017,0.263-0.024,0.397-0.024h138.845c0.202,0,0.399,0.018,0.592,0.054c0.211,0.038,0.418,0.096,0.615,0.175
	c0.645,0.252,1.194,0.701,1.577,1.273C672.41,440.061,672.622,440.714,672.622,441.416z"/>
<path fill="#FCBA64" d="M604.443,453.643h-74.384c-1.597,0-2.914-1.436-2.995-3.226c-0.002-0.058-0.004-0.117-0.004-0.174v-8.826
	c0-0.059,0.002-0.116,0.004-0.175c0.074-1.655,1.207-3.008,2.64-3.202c0.116-0.017,0.234-0.024,0.355-0.024h65.249
	c0.001,0.007,0.004,0.017,0.005,0.024C596.36,442.639,598.788,448.986,604.443,453.643z"/>
<path fill="#FCBA64" d="M655.728,438.015h-1.578v15.628h1.578V438.015z"/>
<path fill="#FCBA64" d="M650.387,438.015h-1.578v15.628h1.578V438.015z"/>
<path fill="#FCBA64" d="M643.981,438.015h-1.578v15.628h1.578V438.015z"/>
<path fill="#FCBA64" d="M634.163,438.015h-1.578v15.628h1.578V438.015z"/>
<path fill="#FCBA64" d="M623.78,438.015h-1.578v15.628h1.578V438.015z"/>
<path fill="#FCBA64" d="M607.863,438.015h-1.578v15.628h1.578V438.015z"/>
<path fill="#FCBA64" d="M592.96,438.015h-1.578v15.628h1.578V438.015z"/>
<path fill="#FCBA64" d="M579.651,438.016h-1.577v15.627h1.577V438.016z"/>
<path fill="#FCBA64" d="M660.813,438.015h-1.578v15.628h1.578V438.015z"/>
<path fill="#FCBA64" d="M664.172,438.015h-1.578v15.628h1.578V438.015z"/>
<path fill="#FCBA64" d="M667.415,438.015h-1.578v15.628h1.578V438.015z"/>
<path fill="#FCBA64" d="M669.856,438.069v15.519c-0.193,0.036-0.39,0.055-0.593,0.055h-0.986v-15.628h0.986
	C669.466,438.015,669.663,438.034,669.856,438.069z"/>
<path fill="#FCBA64" d="M672.047,439.517v12.624c-0.383,0.572-0.932,1.021-1.577,1.273v-15.169
	C671.115,438.496,671.664,438.945,672.047,439.517z"/>
<path fill="#FFD186" d="M654.394,425.812v8.827c0,0.702-0.211,1.355-0.576,1.898c-0.382,0.572-0.932,1.021-1.576,1.273
	c-0.197,0.079-0.404,0.138-0.615,0.175c-0.065,0.011-0.131,0.023-0.195,0.03c-0.052,0.007-0.104,0.011-0.156,0.015
	c-0.026,0.002-0.052,0.004-0.078,0.005c-0.054,0.002-0.108,0.004-0.163,0.004H512.191c-1.791,0-3.265-1.436-3.356-3.226
	c-0.001-0.058-0.003-0.117-0.003-0.174v-8.827c0-0.057,0.002-0.116,0.003-0.174c0.091-1.79,1.565-3.227,3.356-3.227h138.844
	c0.058,0,0.118,0.003,0.178,0.006c0.14,0.007,0.278,0.025,0.414,0.049c0.212,0.037,0.418,0.096,0.615,0.175
	c0.1,0.039,0.199,0.083,0.291,0.131c0.06,0.03,0.117,0.06,0.174,0.094c0.005,0.002,0.012,0.005,0.018,0.011
	c0.058,0.034,0.113,0.07,0.169,0.108c0.012,0.005,0.021,0.013,0.028,0.018c0.052,0.034,0.102,0.072,0.151,0.111
	c0.119,0.091,0.23,0.188,0.334,0.295c0.034,0.032,0.065,0.066,0.095,0.1c0.005,0.005,0.011,0.012,0.017,0.018
	c0.02,0.021,0.038,0.042,0.057,0.065c0.004,0.004,0.008,0.009,0.012,0.013c0.033,0.04,0.067,0.081,0.098,0.124
	c0.047,0.061,0.092,0.121,0.134,0.184C654.183,424.457,654.394,425.11,654.394,425.812z"/>
<path fill="#FCBA64" d="M586.214,438.039H511.83c-1.597,0-2.914-1.436-2.996-3.226c-0.001-0.058-0.003-0.117-0.003-0.174v-8.827
	c0-0.057,0.002-0.116,0.003-0.174c0.082-1.79,1.399-3.227,2.996-3.227h65.25c0.026,0.12,0.053,0.239,0.085,0.362
	c1.083,4.559,3.522,10.7,9.02,15.242C586.193,438.022,586.205,438.032,586.214,438.039z"/>
<path fill="#FCBA64" d="M637.499,422.412h-1.578v15.628h1.578V422.412z"/>
<path fill="#FCBA64" d="M632.158,422.412h-1.579v15.628h1.579V422.412z"/>
<path fill="#FCBA64" d="M625.752,422.412h-1.578v15.628h1.578V422.412z"/>
<path fill="#FCBA64" d="M615.934,422.412h-1.579v15.628h1.579V422.412z"/>
<path fill="#FCBA64" d="M605.551,422.412h-1.578v15.628h1.578V422.412z"/>
<path fill="#FCBA64" d="M589.633,422.412h-1.578v15.628h1.578V422.412z"/>
<path fill="#FCBA64" d="M574.731,422.412h-1.578v15.628h1.578V422.412z"/>
<path fill="#FCBA64" d="M561.423,422.412h-1.578v15.628h1.578V422.412z"/>
<path fill="#FCBA64" d="M642.584,422.412h-1.579v15.628h1.579V422.412z"/>
<path fill="#FCBA64" d="M645.943,422.412h-1.578v15.628h1.578V422.412z"/>
<path fill="#FCBA64" d="M649.186,422.412h-1.578v15.628h1.578V422.412z"/>
<path fill="#FCBA64" d="M651.627,422.466v15.519c-0.193,0.036-0.39,0.054-0.592,0.054h-0.986v-15.628h0.986
	C651.237,422.411,651.434,422.43,651.627,422.466z"/>
<path fill="#FCBA64" d="M653.818,423.913v12.624c-0.383,0.572-0.932,1.021-1.577,1.273v-15.169
	C652.886,422.893,653.436,423.342,653.818,423.913z"/>
<path fill="#FFD186" d="M664.602,410.546v8.826c0,0.703-0.212,1.356-0.576,1.899c-0.383,0.572-0.932,1.02-1.577,1.273
	c-0.197,0.079-0.403,0.138-0.615,0.174c-0.193,0.036-0.39,0.055-0.592,0.055H522.398c-0.538,0-1.049-0.129-1.5-0.361
	c-1.013-0.513-1.736-1.534-1.846-2.726c-0.004-0.045-0.007-0.092-0.009-0.139c-0.002-0.058-0.004-0.116-0.004-0.175v-8.825
	c0-0.058,0.002-0.117,0.004-0.175c0.084-1.656,1.352-3.008,2.958-3.202c0.13-0.017,0.263-0.025,0.398-0.025h138.844
	c0.202,0,0.398,0.019,0.592,0.055c0.211,0.038,0.418,0.096,0.615,0.175c0.644,0.252,1.193,0.701,1.576,1.272
	C664.39,409.191,664.602,409.843,664.602,410.546z"/>
<path fill="#FCBA64" d="M596.422,422.772h-74.383c-0.482,0-0.936-0.129-1.339-0.361c-0.905-0.513-1.549-1.534-1.648-2.726
	c-0.004-0.045-0.007-0.092-0.009-0.139c-0.002-0.058-0.004-0.117-0.004-0.175v-8.825c0-0.058,0.002-0.117,0.004-0.175
	c0.075-1.654,1.207-3.008,2.641-3.202c0.115-0.017,0.234-0.025,0.355-0.025h65.249c0.002,0.008,0.004,0.017,0.006,0.025
	c1.017,4.48,3.351,10.622,8.701,15.242C596.134,422.534,596.278,422.654,596.422,422.772z"/>
<path fill="#FCBA64" d="M647.707,407.145h-1.578v15.628h1.578V407.145z"/>
<path fill="#FCBA64" d="M642.366,407.145h-1.578v15.628h1.578V407.145z"/>
<path fill="#FCBA64" d="M635.96,407.145h-1.578v15.628h1.578V407.145z"/>
<path fill="#FCBA64" d="M626.141,407.145h-1.578v15.628h1.578V407.145z"/>
<path fill="#FCBA64" d="M615.758,407.145h-1.578v15.628h1.578V407.145z"/>
<path fill="#FCBA64" d="M599.842,407.145h-1.578v15.628h1.578V407.145z"/>
<path fill="#FCBA64" d="M584.938,407.145h-1.578v15.628h1.578V407.145z"/>
<path fill="#FCBA64" d="M571.631,407.145h-1.578v15.628h1.578V407.145z"/>
<path fill="#FCBA64" d="M652.791,407.145h-1.578v15.628h1.578V407.145z"/>
<path fill="#FCBA64" d="M656.151,407.145h-1.578v15.628h1.578V407.145z"/>
<path fill="#FCBA64" d="M659.394,407.145h-1.578v15.628h1.578V407.145z"/>
<path fill="#FCBA64" d="M661.835,407.199v15.519c-0.194,0.036-0.39,0.055-0.592,0.055h-0.986v-15.628h0.986
	C661.445,407.144,661.641,407.163,661.835,407.199z"/>
<path fill="#FCBA64" d="M664.026,408.647v12.623c-0.382,0.572-0.931,1.022-1.576,1.274v-15.171
	C663.094,407.625,663.643,408.075,664.026,408.647z"/>
<path fill="#FFD186" d="M654.395,394.943v8.825c0,0.704-0.211,1.356-0.576,1.899c-0.382,0.572-0.932,1.021-1.576,1.273
	c-0.197,0.079-0.404,0.137-0.615,0.175c-0.065,0.011-0.131,0.023-0.195,0.03c-0.035,0.004-0.072,0.008-0.109,0.012
	c-0.036,0.004-0.073,0.005-0.11,0.007c-0.059,0.004-0.119,0.005-0.178,0.005H512.192c-1.791,0-3.264-1.436-3.356-3.226
	c-0.001-0.058-0.003-0.117-0.003-0.175v-8.825c0-0.059,0.002-0.117,0.003-0.175c0.092-1.79,1.565-3.227,3.356-3.227h138.844
	c0.202,0,0.399,0.019,0.592,0.055c0.211,0.038,0.417,0.096,0.615,0.174c0.644,0.253,1.194,0.702,1.576,1.273
	C654.184,393.587,654.395,394.239,654.395,394.943z"/>
<path fill="#FCBA64" d="M586.214,407.169H511.83c-1.597,0-2.914-1.436-2.996-3.226c-0.001-0.059-0.003-0.117-0.003-0.175v-8.825
	c0-0.059,0.002-0.117,0.003-0.175c0.082-1.79,1.399-3.227,2.996-3.227h65.25c1.039,4.594,3.461,10.941,9.105,15.603
	C586.193,407.152,586.205,407.161,586.214,407.169z"/>
<path fill="#FCBA64" d="M637.499,391.541h-1.578v15.628h1.578V391.541z"/>
<path fill="#FCBA64" d="M632.158,391.541h-1.579v15.628h1.579V391.541z"/>
<path fill="#FCBA64" d="M625.752,391.541h-1.578v15.628h1.578V391.541z"/>
<path fill="#FCBA64" d="M615.934,391.541h-1.579v15.628h1.579V391.541z"/>
<path fill="#FCBA64" d="M605.551,391.541h-1.578v15.628h1.578V391.541z"/>
<path fill="#FCBA64" d="M589.633,391.541h-1.578v15.628h1.578V391.541z"/>
<path fill="#FCBA64" d="M574.731,391.541h-1.579v15.628h1.579V391.541z"/>
<path fill="#FCBA64" d="M561.423,391.541h-1.578v15.628h1.578V391.541z"/>
<path fill="#FCBA64" d="M642.584,391.541h-1.579v15.628h1.579V391.541z"/>
<path fill="#FCBA64" d="M645.943,391.541h-1.578v15.628h1.578V391.541z"/>
<path fill="#FCBA64" d="M649.187,391.541h-1.579v15.628h1.579V391.541z"/>
<path fill="#FCBA64" d="M651.627,391.595v15.519c-0.193,0.036-0.39,0.055-0.592,0.055h-0.986v-15.628h0.986
	C651.237,391.541,651.434,391.56,651.627,391.595z"/>
<path fill="#FCBA64" d="M653.818,393.043v12.623c-0.383,0.572-0.932,1.021-1.577,1.273V391.77
	C652.886,392.022,653.436,392.472,653.818,393.043z"/>
<path fill="#5DD782" d="M818.871,492.391c0,0-11.058-13.062-0.682-21.359c0,0,7.579-4.645,13.759-4.268
	c0,0-8.756,14.867-5.923,16.346c2.832,1.479,8.578-17.279,8.578-17.279s17.248-1.694,22.796,1.007c0,0-14.744,12.217-11.639,12.944
	c3.106,0.727,19.032-11.264,19.032-11.264s16.053,2.766,15.197,12.681c-0.856,9.915-6.387,12.977-8.818,12.713
	c-2.431-0.264-16.653-5.76-16.962-3.744c-0.31,2.017,8.25,8.608,14.245,8.916c0,0-11.318,12.637-18.839,8.99
	c-7.522-3.647-8.165-9.429-12.853-11.596c-4.689-2.169-8.692-2.163-6.755,0.048c1.935,2.212,10.421,4.36,13.103,9.163
	c2.681,4.802,5.087,8.04-2.696,6.855c-7.782-1.185-20.432-6.951-20.987-13.552C818.871,492.391,818.871,492.391,818.871,492.391z"/>
<path fill="#5DD782" d="M872.1,481.467c0,0-43.6-1.701-53.23,10.924c0,0-2.129,6.458-8.682,12.337l-1.021,2.818
	c0,0,7.555-8.065,10.258-8.553C819.426,498.993,815.198,483.352,872.1,481.467z"/>
<path fill="#5DD782" d="M810.188,504.728c0,0-9.358,7.007-10.008,19.528l1.698,0.155c0,0,2.989-12.947,8.392-18.01
	C815.673,501.338,810.188,504.728,810.188,504.728z"/>
<path fill="#81E3A5" d="M780.207,475.964c0,0,17.591-9.974,9.382-23.51c0,0-6.567-8.312-13.603-10.449c0,0,3.753,20.185,0,20.66
	s-2.581-22.797-2.581-22.797s-18.528-9.024-25.8-8.311c0,0,11.493,19.71,7.741,19.235c-3.753-0.475-16.653-20.423-16.653-20.423
	s-18.998-3.562-22.047,7.837c-3.049,11.398,1.876,17.097,4.691,17.81c2.814,0.713,20.875,0.475,20.405,2.849
	c-0.469,2.376-12.665,6.175-19.467,4.038c0,0,7.506,18.759,17.357,17.81c9.851-0.95,12.9-7.124,18.998-7.599
	c6.098-0.475,10.555,1.187,7.505,2.849c-3.048,1.662-13.368,0.545-18.294,4.784c-4.925,4.239-8.913,6.852,0.234,8.751
	c9.147,1.9,25.566,0.713,28.849-6.411C780.207,475.964,780.207,475.964,780.207,475.964z"/>
<path fill="#5DD782" d="M725.324,441.769c0,0,49.255,16.147,54.884,34.195c0,0-0.235,8.074,4.691,17.335v3.562
	c0,0-5.16-12.111-7.975-13.773C776.923,483.088,787.947,467.415,725.324,441.769z"/>
<path fill="#5DD782" d="M784.899,493.299c0,0,7.595,11.679,3.265,25.894l-1.954-0.531c0,0,1.897-15.659-2.078-23.534
	C780.158,487.254,784.899,493.299,784.899,493.299z"/>
<path fill="#81E3A5" d="M808.192,462.209c0,0-23.188-13.147-12.367-30.99c0,0,8.658-10.956,17.932-13.773c0,0-4.946,26.608,0,27.233
	c4.947,0.626,3.401-30.05,3.401-30.05s24.425-11.895,34.009-10.956c0,0-15.149,25.981-10.202,25.355
	c4.946-0.626,21.951-26.92,21.951-26.92s25.043-4.695,29.062,10.33c4.02,15.025-2.473,22.539-6.183,23.477
	c-3.71,0.939-27.516,0.626-26.898,3.757c0.618,3.13,16.696,8.139,25.661,5.321c0,0-9.893,24.73-22.878,23.477
	c-12.985-1.252-17.005-9.39-25.043-10.017c-8.038-0.626-13.913,1.565-9.894,3.756c4.02,2.192,17.623,0.718,24.116,6.307
	s11.749,9.032-0.309,11.537c-12.057,2.504-33.699,0.939-38.028-8.452C808.192,462.209,808.192,462.209,808.192,462.209z"/>
<path fill="#17C3B2" d="M880.539,417.133c0,0-64.926,21.285-72.346,45.076c0,0,0.309,10.643-6.184,22.85v4.696
	c0,0,6.803-15.965,10.512-18.156C812.521,471.6,797.99,450.94,880.539,417.133z"/>
<path fill="#17C3B2" d="M802.009,485.06c0,0-10.012,15.395-4.304,34.134l2.576-0.701c0,0-2.501-20.64,2.738-31.02
	C808.257,477.091,802.009,485.06,802.009,485.06z"/>
<path fill="#FE6D73" d="M807.412,559.831c25.086,0,45.421-20.59,45.421-45.989H761.99
	C761.99,539.241,782.326,559.831,807.412,559.831z"/>
<path fill="#FFCCBE" d="M818.588,559.479c-1.847,0.234-3.731,0.352-5.644,0.352c-25.084,0-45.418-20.59-45.418-45.989h11.283
	C778.81,537.307,796.166,556.665,818.588,559.479z"/>
<path fill="#FE6D73" d="M853.461,562.171h-92.098c0-3.133,2.508-5.673,5.604-5.673h80.89
	C850.951,556.498,853.461,559.038,853.461,562.171z"/>
<path fill="#FFD345" d="M527.286,557.538c45.451,0,82.297-37.305,82.297-83.323s-36.846-83.322-82.297-83.322
	c-45.452,0-82.297,37.304-82.297,83.322S481.834,557.538,527.286,557.538z"/>
<path fill="#FFE68D" d="M608.514,487.584l-64.267-13.831l63.707-16.082c-0.506-2.542-1.135-5.04-1.864-7.494l-63.688,16.078
	l50.227-42.672c-1.55-2.047-3.188-4.021-4.915-5.912l-50.218,42.664l26.654-60.612c-2.268-1.153-4.594-2.199-6.975-3.139
	l-26.073,59.291v-64.885c-1.266-0.059-2.536-0.098-3.816-0.098c-1.28,0-2.551,0.039-3.817,0.098v66.327l-28.731-59.641
	c-2.345,1.023-4.637,2.147-6.863,3.38l28.734,59.649l-51.655-40.862c-1.661,1.951-3.233,3.978-4.712,6.079l51.669,40.871
	l-64.215-13.819c-0.642,2.476-1.166,4.999-1.584,7.559l64.211,13.819l-63.761,16.095c0.496,2.546,1.113,5.045,1.833,7.501
	l63.774-16.098l-50.379,42.8c1.544,2.052,3.176,4.032,4.897,5.928l50.388-42.809l-26.77,60.877c2.265,1.156,4.589,2.207,6.969,3.151
	l26.195-59.568v65.21c1.266,0.058,2.536,0.098,3.816,0.098c1.28,0,2.551-0.039,3.817-0.098v-66.652l28.859,59.908
	c2.343-1.028,4.633-2.157,6.857-3.392L537.961,487.4l51.822,40.992c1.655-1.955,3.219-3.988,4.693-6.094l-51.816-40.987l64.3,13.837
	C607.594,492.672,608.106,490.146,608.514,487.584z"/>
<path fill="#FF9F4C" d="M527.286,544.317c38.239,0,69.238-31.386,69.238-70.102s-30.999-70.101-69.238-70.101
	c-38.24,0-69.239,31.385-69.239,70.101S489.046,544.317,527.286,544.317z"/>
<path fill="#FFBA49" d="M527.286,539.902c35.831,0,64.878-29.409,64.878-65.687c0-36.277-29.047-65.686-64.878-65.686
	s-64.878,29.409-64.878,65.686C462.408,510.493,491.455,539.902,527.286,539.902z"/>
<path fill="#FFF2D2" d="M563.051,480.302c-0.907-6.085-4.407-9.752-10.24-11.254c-0.667-0.172-1.441-0.026-2.029-0.663
	c0.126-0.162,0.223-0.368,0.383-0.482c3.65-2.581,5.144-6.179,5.157-10.619c0.019-6.791-3.785-11.979-10.203-13.827
	c-3.282-0.946-6.618-1.275-10.001-1.242c-1.249,0.012-1.834-0.305-1.888-1.729c-0.128-3.353-0.489-6.696-0.658-10.047
	c-0.02-0.404-0.087-0.712-0.186-0.974l-8.082,0.599c0.001,0.095-0.011,0.171,0,0.281c0.354,3.502,0.585,7.017,0.934,10.52
	c0.097,0.977-0.15,1.454-1.139,1.543c-1.244,0.111-2.494,0.227-3.723,0.447c-1.32,0.238-1.681-0.272-1.735-1.576
	c-0.138-3.407-0.457-6.805-0.652-10.211c-0.012-0.21-0.046-0.376-0.089-0.53l-7.728,0.572c-0.048,0.213-0.064,0.464-0.036,0.771
	c0.286,3.176,0.471,6.361,0.735,9.539c0.201,2.412,0.129,2.539-2.167,2.775c-0.217,0.022-0.435,0.027-0.652,0.045
	c-3.896,0.326-7.792,0.659-11.689,0.977c-0.074,0.006-0.142,0.013-0.212,0.02l0.849,8.832c1.425-0.157,2.857-0.277,4.288-0.372
	c2.695-0.177,4.226,1.01,4.632,3.742c0.275,1.849,0.348,3.728,0.514,5.593c0.895,10.035,1.801,20.068,2.683,30.103
	c0.193,2.199-0.709,3.274-2.895,3.524c-1.186,0.136-2.377,0.257-3.568,0.324c-0.128,1.905-0.42,6.159-0.718,9.994
	c4.184-0.348,8.391-0.403,12.56-0.948c1.197-0.156,1.559,0.259,1.617,1.508c0.165,3.551,0.519,7.091,0.77,10.639l8.268-0.472
	c-0.004-0.057,0.005-0.093-0.001-0.153c-0.34-3.339-0.495-6.696-0.79-10.04c-0.109-1.24,0.119-1.989,1.551-2.004
	c1.081-0.011,2.172-0.15,3.238-0.349c1.255-0.235,1.744,0.167,1.81,1.495c0.172,3.461,0.489,6.913,0.704,10.372
	c0.007,0.118,0.032,0.202,0.046,0.306l8.333-0.475c-0.001-0.011,0.002-0.015,0.001-0.026c-0.302-3.447-0.382-6.913-0.685-10.361
	c-0.135-1.534,0.39-2.135,1.856-2.356c3.453-0.522,6.819-1.444,10.047-2.8c4.82-2.024,8.662-5.121,10.247-10.385
	C563.556,487.458,563.584,483.88,563.051,480.302z M522.999,469.374c-0.383-4.762-0.809-9.521-1.25-14.277
	c-0.085-0.926,0.072-1.312,1.155-1.387c4.386-0.304,8.779-0.867,13.089,0.46c5.422,1.67,7.349,7.917,3.621,11.682
	c-1.449,1.463-3.257,2.355-4.783,2.765c-3.774,1.271-7.244,1.49-10.711,1.732C523.387,470.399,523.064,470.185,522.999,469.374z
	 M543.271,492.905c-1.09,0.632-2.21,1.185-3.172,1.447c-4.661,1.639-9.287,1.871-13.872,2.37c-0.777,0.085-1.084-0.283-1.151-1.015
	c-0.481-5.308-0.967-10.615-1.467-15.92c-0.065-0.687-0.025-1.123,0.848-1.202c4.65-0.416,9.288-1.056,13.97-0.439
	c1.574,0.207,3.081,0.596,4.529,1.281c2.794,1.322,4.253,3.546,4.326,6.623C547.355,489.135,545.889,491.384,543.271,492.905z"/>
<path fill="#FF2948" d="M853.866,513.842h-93.37v1.411h93.37V513.842z"/>
<g>
	<path fill="#FFCCBE" d="M375.432,118.344l0.02,3.755c0,0-1.01,11.743,13.272,13.457c14.281,1.719,25.993,1.493,25.606-7.568
		c-1.286-7.016-3.591-17.907-3.686-23.712c-0.036-2.157,0.11-4.446,0.508-7.031l-27.674-0.559l-8.151,1.348L375.432,118.344z"/>
	<path fill="#E98C94" d="M375.327,98.034l0.105,20.31c2.94,1.384,6.257,2.228,9.975,2.228c12.719,0,20.94-9.443,25.237-16.296
		c-0.036-2.157,0.11-4.446,0.508-7.031l-27.674-0.559L375.327,98.034z"/>
	<path fill="#FFCCBE" d="M413.271,92.736c-3.21,17.496-25.507,16.922-35.143,15.821c-2.712-0.305-4.418-0.655-4.418-0.655
		c-3.058-0.827-4.763-5.703-5.556-12.09c-1.573-12.64,0.414-31.195,2.523-35.94c3.174-7.141,9.153-14.864,31.606-9.292
		C424.741,56.156,417.391,70.32,413.271,92.736z"/>
	<path fill="#2C2C2C" d="M431.516,610.729h-31.595c0.236-1.678,1.041-6.781,2.52-11.482c0.512-1.637,1.11-3.227,1.79-4.609
		c3.073-6.21,22.59-2.26,22.59-2.26s1.812,1.573,3.228,7.579C430.677,602.603,431.229,606.115,431.516,610.729z"/>
	<path fill="#2C2C2C" d="M336.038,600.634c-0.086,4.352-0.627,8.47-2.187,10.096h-62.495c0.794-2.29,3.044-5.732,9.46-6.787
		c7.291-1.195,18.655-4.748,25.29-11.85c2.364-2.522,4.125-5.499,4.896-8.977c2.941-13.254,24.311,4.06,24.311,4.06
		S336.176,594.155,336.038,600.634z"/>
	<path fill="#3A3A5B" d="M377.605,457.363c-0.869,4.854-1.422,8.834-1.568,11.689c-1.988,39.235-32.621,128.947-38.1,131.039
		c-8.479,3.24-21.83-3.646-28.815-5.899c-2.894-0.936-4.848-3.891-4.204-6.89c15.171-70.613,20.747-172.292,22.775-232.49
		c1.025-30.321,6.166-51.267,6.166-51.267s74.716-20.183,75.159,5.349C409.411,331.486,384.269,420.092,377.605,457.363z"/>
	<path fill="#2C2C2C" d="M377.605,457.363l-49.912-102.551c1.025-30.321,6.166-51.267,6.166-51.267s74.716-20.183,75.159,5.349
		C409.411,331.486,384.269,420.092,377.605,457.363z"/>
	<path fill="#3A3A5B" d="M360.982,308.983L400.48,598.82c0,0,17.346,4.235,30.836,0.846c0,0,11.563-154.148,10.6-191.415
		c-0.964-37.267,8.299-99.719-2.114-106.606C429.388,294.758,360.982,308.983,360.982,308.983z"/>
	<path fill="#2C2C2C" d="M363.786,43.218c0,0,9.883-0.77,21.541-5.902c9.461-4.165,21.399,0.422,25.274,2.489
		c-0.104-0.633-0.354-1.496-0.946-2.361c0,0,1.74,1.249,1.997,2.995c0.179,0.133,0.259,0.226,0.213,0.257
		c0,0,1.972-0.365,3.239,0.212c0,0-0.887-0.128-1.204,0.448c-0.033,0.062-0.083,0.113-0.142,0.16
		c14.759,7.22,16.122,30.837,11.373,36.301c-5.715,6.575-12.567,21.381-12.567,21.381s-2.498-3.498-1.459-9.284
		c1.039-5.786-3.897-5.786-10.131-8.416c-6.233-2.629-1.038-9.993-6.493-14.463c-5.455-4.471-25.455-1.841-25.195-5.26
		C361.863,59.038,363.786,43.987,363.786,43.218z"/>
	<path fill="#ECF1F9" d="M417.698,133.023l-9.094,197.553c0,0-75.899,1.255-73.732-16.134
		c2.167-17.39,27.358-175.369,27.358-175.369L417.698,133.023z"/>
	<path fill="#80B4FF" d="M444.796,245.001c-4.516,13.714,3.998,59.736,7.033,75.327c0.666,3.297,1.11,5.246,1.11,5.246
		c-10.512,17.312-49.007,17.089-49.007,17.089c-7.403-33.13-11.253-85.894-11.253-85.894l29.537-131.093l37.163,34.779
		c0,0-2.813,21.212-6.292,42.797C450.348,220.341,447.239,237.73,444.796,245.001z"/>
	<path fill="#ECF1F9" d="M381.632,95.613c0,0-0.721,2.257-6.347,1.433c0,0-4.722-0.691-4.372-3.208
		C370.912,93.838,375.66,92.421,381.632,95.613z"/>
	<path fill="#80B4FF" d="M338.972,135.84c0,0-0.007,0.033-0.017,0.082c-1.796,1.762-52.462,51.569-62.278,71.078
		c-9.994,19.789,45.676,59.212,45.676,59.212s3.582,1.433,6.068,0.872c-2.624,21.881-5.571,42.069-3.825,50.687
		c3.155,15.575,17.384,20.805,17.384,19.607c0-0.381,3.667-56.792,8.031-85.931c9.687-64.675,21.24-125.37,21.24-125.37
		C354.682,127.819,338.972,135.84,338.972,135.84z M308.805,215.545c-0.074-0.077-0.074-0.227-0.074-0.3
		c0-2.849,10.734-9.146,22.357-16.564c0.148-0.15,0.222-0.228,0.222-0.228c0.008-0.004,0.015-0.009,0.022-0.014
		c-0.206,6.062-0.183,12.01,0.172,17.547c0.66,10.269-0.078,22.542-1.305,35.039C324.666,242.276,309.886,218.768,308.805,215.545z"
		/>
	<path fill="#CED1EC" d="M419.849,125.44c0.092-1.885-8.728-4.49-8.728-4.49s-10.095,14.172-26.728,14.417
		c0,0,4.74,9.339,10.327,11.757C394.72,147.124,419.3,136.637,419.849,125.44z"/>
	<path fill="#FF4D67" d="M361.036,268.886c0.408,4.614,2.498,8.912,5.866,12.052l5.292,4.937c1.328,1.239,3.418,1.068,4.535-0.369
		l6.556-8.429c1.758-2.261,2.585-5.121,2.316-7.984c-0.613-6.378-1.756-18.667-2.671-30.529c-0.744-9.61-1.341-18.948-1.386-24.627
		c-0.144-18.135,3.41-75.965,3.41-75.965l-4.294,0.227c0,0-10.665,22.448-16.249,52.991c-1.378,7.519-2.44,15.523-2.968,23.81
		C361.442,215,359.204,248.03,361.036,268.886z"/>
	<path fill="#FF2948" d="M361.036,268.886c0.408,4.614,2.498,8.912,5.866,12.052l5.292,4.937c1.328,1.239,3.418,1.068,4.535-0.369
		l6.556-8.429c1.758-2.261,2.585-5.121,2.316-7.984c-0.613-6.378-1.756-18.667-2.671-30.529
		c-11.866-13.498-16.675-32.151-18.519-47.374c-1.378,7.519-2.44,15.523-2.968,23.81C361.442,215,359.204,248.03,361.036,268.886z"
		/>
	<path fill="#CED1EC" d="M384.394,135.035c0,0-8.811-5.288-8.841-11.021c0,0-5.691-0.722-8.176,2.072c0,0-2.089,9.825,0.682,15.533
		C368.059,141.619,380.747,139.662,384.394,135.035z"/>
	<path fill="#FF2948" d="M390.375,134.184l-11.948-2.899c0,0-1.56,0.137-1.517,2.108c0.043,1.97,3.364,7.728,4.836,8.188
		C383.218,142.041,393.202,138.172,390.375,134.184z"/>
	<path fill="#ECF1F9" d="M418.458,124.467c0.092-1.886-5.878-5.77-5.878-5.77s-11.554,13.673-28.186,13.918
		c0,0,4.74,9.339,10.326,11.757C394.72,144.372,417.909,135.663,418.458,124.467z"/>
	<path fill="#ECF1F9" d="M384.394,132.615c0,0-8.911-4.783-8.941-10.517c0,0-5.379,2.397-7.865,5.19c0,0-2.3,6.203,0.471,11.911
		C368.059,139.199,380.747,137.241,384.394,132.615z"/>
	<path fill="#FFCCBE" d="M318.802,269.419c0-5.034,4.374-9.077,9.291-8.321c1.366,0.209,2.598,0.78,3.45,1.929
		c3.384,4.56,6.603,17.829,0.608,18.449c-2.441,0.253-5.576-1.481-7.99-3.338c-2.454-1.888-5.359-4.843-5.359-7.963V269.419z"/>
	<path fill="#7398E6" d="M451.829,320.328c-10.882-11.469-29.686-34.029-29.019-52.544c0.888-25.933,30.278-64.532,30.278-64.532
		c-2.739,17.09-5.848,34.478-8.291,41.749C440.28,258.715,448.794,304.737,451.829,320.328z"/>
	<path fill="#FFCCBE" d="M451.488,275.219c0,0-7.824,3.96-12.574,1.98c-4.749-1.98-10.337-3.467-15.645,2.651
		c-5.309,6.119-6.426,10.362-5.309,12.624c1.118,2.264,13.494,1.415,15.548,0c2.054-1.414,5.302-4.896,7.362-4.289
		c5.685,1.673,10.473-2.718,13.153-6.215C455.639,279.86,451.277,278.838,451.488,275.219z"/>
	<path fill="#80B4FF" d="M422.217,125.676c0,0,31.16,3.492,38.508,17.231c7.348,13.738,45.558,69.416,44.307,92.553
		c-1.25,23.139-52.123,49.085-52.123,49.085s-11.268-4.821-11.437-10.007c-0.169-5.187,35.171-36.185,33.028-41.97
		c-2.142-5.785-41.055-51.537-44.809-66.623C425.937,150.86,422.217,125.676,422.217,125.676z"/>
	<path fill="#7398E6" d="M331.31,198.453c0,0-0.074,0.078-0.222,0.228c-11.623,7.418-22.357,13.715-22.357,16.564
		c-1.555-5.023,13.547-26.01,18.434-30.281C332.124,180.616,331.31,198.453,331.31,198.453z"/>
	<path fill="#7398E6" d="M412.58,118.697c0,0-23.654,100.311-19.89,138.098c0,0,8.698-40.38,29.626-73.455
		c0,0-7.637-6.801-7.223-9.308c0,0,5.67-1.703,11.17-0.557c0,0-0.608-43.239-4.038-47.808
		C418.796,121.1,412.58,118.697,412.58,118.697z"/>
	<path fill="#7398E6" d="M375.452,122.098c0.321,0.152-23.442,98.022-25.442,129.348c0,0,2.371-55.901,2.138-72.013
		c0,0,9.825-5.265,9.825-7.113s-10.481-6.844-10.481-6.844s6.637-34.426,10.259-38.219
		C365.372,123.464,375.452,122.098,375.452,122.098z"/>
</g>
<path fill="#2C2C2C" d="M598.986,388.937l48.106-0.058c6.261-0.007,11.377-5.199,11.37-11.538l-0.024-21.106
	c-0.007-6.339-5.136-11.52-11.397-11.512l-48.105,0.057c-6.261,0.007-11.377,5.199-11.37,11.538l0.024,21.107
	C587.597,383.763,592.726,388.944,598.986,388.937z"/>
<path fill="#3A3A5B" d="M650.578,350.221l-0.001-0.003c-1.8-3.163-5.036-5.397-8.789-5.77l-0.003,0.001
	c-0.003,0.001-0.006,0.001-0.009-0.001c-0.368-0.036-0.739-0.056-1.118-0.056l-9.579,0.014l-0.006-4.555
	c0-1.016-0.393-1.974-1.108-2.696c-0.714-0.72-1.663-1.118-2.666-1.116l-2.499,0.002l-10.057,0.012l-1.814,0.002
	c-2.076,0.004-3.769,1.716-3.765,3.821l0.006,4.555l-16.534,0.018c-6.283,0.008-11.418,5.219-11.413,11.581l0.027,21.352
	c0.007,6.362,5.154,11.561,11.438,11.554l48.019-0.055c0.847,0,1.672-0.097,2.465-0.279h0.004c0.002,0,0.002,0,0.005,0
	c1.274-0.286,2.466-0.792,3.54-1.474c3.24-2.049,5.403-5.697,5.4-9.831l-0.024-21.35
	C652.093,353.865,651.541,351.912,650.578,350.221z M611.528,339.874c0-0.638,0.416-1.18,0.988-1.361
	c0.134-0.042,0.272-0.065,0.419-0.066l2.135-0.004l7.916-0.007l4.316-0.005c0.776-0.001,1.407,0.638,1.409,1.422l0.006,4.554
	l-17.183,0.018L611.528,339.874z"/>
<path fill="#F8DCAC" stroke="#FFBA49" stroke-width="5" stroke-miterlimit="10" d="M306.042,395.191
	c-38.441-9.886-49.246-30.444-49.246-30.444h-4.44h-35.48h-14.082c0,0-10.805,20.558-49.245,30.444
	c0,0-25.478,102.563,72.716,164.587h7.062C331.52,497.754,306.042,395.191,306.042,395.191z"/>
<path fill="none" stroke="#FFBA49" stroke-width="7" d="M207.921,385.201c0.426-0.551,0.786-1.046,1.085-1.477h9.921h29.849h1.809
	c0.299,0.431,0.659,0.926,1.085,1.477c1.496,1.929,3.809,4.529,7.163,7.378c6.435,5.465,16.639,11.791,32.131,16.084
	c0.087,0.453,0.184,0.98,0.288,1.578c0.408,2.369,0.909,5.838,1.259,10.174c0.7,8.678,0.795,20.787-1.625,34.477
	c-4.794,27.109-19.45,60.501-59.138,85.909h-3.904c-39.688-25.408-54.345-58.8-59.138-85.909
	c-2.421-13.69-2.326-25.799-1.625-34.477c0.35-4.336,0.85-7.805,1.259-10.174c0.103-0.598,0.2-1.125,0.288-1.578
	c15.492-4.293,25.696-10.619,32.131-16.084C204.113,389.73,206.425,387.13,207.921,385.201z"/>
<path fill="#FEEED4" d="M288.752,410.399c-29.723-7.644-38.079-23.54-38.079-23.54h-3.433h-27.435h-10.889
	c0,0-8.355,15.896-38.079,23.54c0,0-19.701,79.307,56.227,127.267h5.461C308.454,489.706,288.752,410.399,288.752,410.399z"/>
<path opacity="0.5" fill="#F8DCAC" enable-background="new    " d="M229.796,506.334c28.235,0,51.124-23.175,51.124-51.762
	c0-28.587-22.889-51.761-51.124-51.761s-51.124,23.174-51.124,51.761C178.671,483.159,201.56,506.334,229.796,506.334z"/>
<path fill="none" stroke="#FFBA49" stroke-width="3" stroke-miterlimit="10" d="M229.796,498.173
	c23.784,0,43.063-19.521,43.063-43.601c0-24.079-19.28-43.6-43.063-43.6s-43.063,19.521-43.063,43.6
	C186.732,478.652,206.012,498.173,229.796,498.173z"/>
<path fill="#FFBA49" d="M208.884,457.375l18.536,11.561L251,427.914l4.235,2.889l-24.479,50.428l-26.401-14.692L208.884,457.375z"/>
</svg>
